<svg xmlns="http://www.w3.org/2000/svg" xmlns:xlink="http://www.w3.org/1999/xlink" viewBox="0 0 1080 1080"><defs><style>.cls-1{fill:url(#linear-gradient);}.cls-2{fill:url(#radial-gradient);}.cls-3{fill:url(#linear-gradient-2);}.cls-4{fill:#f9ac42;}.cls-5{fill:url(#linear-gradient-3);}.cls-6{fill:#ee4038;}.cls-7{fill:url(#linear-gradient-4);}.cls-8{fill:url(#linear-gradient-5);}.cls-9{fill:url(#linear-gradient-6);}.cls-10{fill:url(#linear-gradient-7);}.cls-11{fill:url(#linear-gradient-8);}.cls-12{fill:url(#linear-gradient-9);}.cls-13{fill:url(#linear-gradient-10);}.cls-14{fill:#8ac140;}.cls-15{fill:url(#linear-gradient-11);}.cls-16{fill:url(#radial-gradient-2);}.cls-17{fill:url(#linear-gradient-12);}.cls-18{fill:url(#linear-gradient-13);}.cls-19{fill:url(#linear-gradient-14);}.cls-20{fill:url(#linear-gradient-15);}.cls-21{fill:url(#linear-gradient-16);}.cls-22{fill:url(#linear-gradient-17);}.cls-23{fill:url(#linear-gradient-18);}.cls-24{fill:url(#linear-gradient-19);}.cls-25{fill:url(#linear-gradient-20);}</style><linearGradient id="linear-gradient" x1="1019.47" y1="4235.1" x2="1272.15" y2="4235.1" gradientTransform="matrix(-0.07, 1.14, -1.14, 0.12, 5045.03, -1597.67)" gradientUnits="userSpaceOnUse"><stop offset="0" stop-color="#f29022"/><stop offset="0.99" stop-color="#bb2030"/></linearGradient><radialGradient id="radial-gradient" cx="-773.6" cy="2609.47" fx="-760.0729274970755" fy="2616.033792404515" r="98.82" gradientTransform="matrix(0.73, -1.34, -1.32, -0.72, 4156.43, 1235.8)" gradientUnits="userSpaceOnUse"><stop offset="0" stop-color="#ee4038"/><stop offset="0.38" stop-color="#ee6827"/><stop offset="0.48" stop-color="#ef7126"/><stop offset="0.8" stop-color="#f18823"/><stop offset="1" stop-color="#f29022"/></radialGradient><linearGradient id="linear-gradient-2" x1="-3452.2" y1="544.53" x2="-3438.96" y2="544.53" gradientTransform="matrix(1, -0.03, -0.03, -1, 3589.19, 862.78)" gradientUnits="userSpaceOnUse"><stop offset="0" stop-color="#35af4a"/><stop offset="1" stop-color="#039047"/></linearGradient><linearGradient id="linear-gradient-3" x1="-3615.4" y1="1689.89" x2="-3602.15" y2="1689.89" gradientTransform="matrix(0.99, -0.08, 0.09, -0.32, 3562.8, 708.73)" xlink:href="#linear-gradient-2"/><linearGradient id="linear-gradient-4" x1="-3440.33" y1="544.53" x2="-3406.01" y2="544.53" xlink:href="#linear-gradient-2"/><linearGradient id="linear-gradient-5" x1="-3431.42" y1="555.68" x2="-3371.97" y2="555.68" xlink:href="#linear-gradient-2"/><linearGradient id="linear-gradient-6" x1="-3296.88" y1="-139.01" x2="-3237.43" y2="-139.01" gradientTransform="matrix(1.04, 0.16, 0.03, -1.1, 3552.95, 781.15)" xlink:href="#linear-gradient-2"/><linearGradient id="linear-gradient-7" x1="-3423.17" y1="572.63" x2="-3350.91" y2="572.63" xlink:href="#linear-gradient-2"/><linearGradient id="linear-gradient-8" x1="-3614.13" y1="2117.2" x2="-3600.89" y2="2117.2" gradientTransform="matrix(0.99, -0.12, 0.08, -0.32, 3568.78, 732.09)" xlink:href="#linear-gradient-2"/><linearGradient id="linear-gradient-9" x1="4736.72" y1="-8563.59" x2="4749.96" y2="-8563.59" gradientTransform="matrix(-0.74, 0.66, 0.12, 0.31, 4761.23, -39.59)" xlink:href="#linear-gradient-2"/><linearGradient id="linear-gradient-10" x1="4718.78" y1="-8536.84" x2="4732.02" y2="-8536.84" gradientTransform="matrix(-0.75, 0.65, 0.12, 0.31, 4765.34, -36.31)" xlink:href="#linear-gradient-2"/><linearGradient id="linear-gradient-11" x1="-1075.31" y1="2153.28" x2="-822.63" y2="2153.28" gradientTransform="matrix(1.14, -0.1, 0.09, -1.14, 1084.62, 2500.64)" xlink:href="#linear-gradient"/><radialGradient id="radial-gradient-2" cx="1548.18" cy="1969.66" fx="1561.7070376547724" fy="1976.2300951284167" r="98.82" gradientTransform="matrix(-1.32, 0.76, -0.75, -1.3, 3897.21, 1547.98)" xlink:href="#radial-gradient"/><linearGradient id="linear-gradient-12" x1="-841.01" y1="3107.21" x2="-827.77" y2="3107.21" gradientTransform="translate(3511.41 989.35) rotate(90.43)" xlink:href="#linear-gradient-2"/><linearGradient id="linear-gradient-13" x1="-1742.3" y1="9518.66" x2="-1729.06" y2="9518.66" gradientTransform="matrix(-0.06, 0.99, -0.32, 0.09, 3356.8, 966.46)" xlink:href="#linear-gradient-2"/><linearGradient id="linear-gradient-14" x1="-829.14" y1="3107.21" x2="-794.82" y2="3107.21" gradientTransform="translate(3511.41 989.35) rotate(90.43)" xlink:href="#linear-gradient-2"/><linearGradient id="linear-gradient-15" x1="-820.23" y1="3118.36" x2="-760.79" y2="3118.36" gradientTransform="translate(3511.41 989.35) rotate(90.43)" xlink:href="#linear-gradient-2"/><linearGradient id="linear-gradient-16" x1="-923" y1="2594.92" x2="-863.56" y2="2594.92" gradientTransform="matrix(0.18, 1.03, -1.1, 0.05, 3428.98, 954.96)" xlink:href="#linear-gradient-2"/><linearGradient id="linear-gradient-17" x1="-811.98" y1="3135.31" x2="-739.73" y2="3135.31" gradientTransform="translate(3511.41 989.35) rotate(90.43)" xlink:href="#linear-gradient-2"/><linearGradient id="linear-gradient-18" x1="-1625.05" y1="9640.39" x2="-1611.81" y2="9640.39" gradientTransform="matrix(-0.09, 0.99, -0.32, 0.08, 3380.29, 971.9)" xlink:href="#linear-gradient-2"/><linearGradient id="linear-gradient-19" x1="1176.01" y1="-9543.85" x2="1189.26" y2="-9543.85" gradientTransform="matrix(0.64, -0.76, 0.31, 0.11, 2635.87, 2181.56)" xlink:href="#linear-gradient-2"/><linearGradient id="linear-gradient-20" x1="1166.2" y1="-9575.14" x2="1179.44" y2="-9575.14" gradientTransform="matrix(0.64, -0.76, 0.31, 0.11, 2639.24, 2185.6)" xlink:href="#linear-gradient-2"/></defs><g id="_4" data-name="4"><path class="cls-1" d="M112.91,335.21l96.7,7.93s4.91-19.18-5.55-66.1C192.64,225.82,63,74.38,62.92,74.36c-15.54-6.43-23.2.81-24,17.16C38.88,91.52,168.53,182.5,112.91,335.21Z"/><path class="cls-2" d="M24.52,471.44C-.35,458.72-9.91,430.12,23.37,413c.48-.33,57.21-30.19,62-36.78a23.76,23.76,0,0,0,1.9-23.74s-43.41-61.2-45.08-80.23c-2.79-31.63,33.66-48.92,58-33.36C114,247.74,145.45,319,145.45,319c3.58,6,9.49,13.24,17.87,13.15,7.67-.07,67.31-36.52,67.81-36.86,18.5-12.63,42.85-.78,44.62,29.08,1.88,31.6-67,46.92-72.67,51.05s16.46,24.62,16.46,24.62l57.51,60.34a12.47,12.47,0,0,1,2.11,2.59C297,493.35,230.69,530.64,217,508.13c0,0-14.2-27.57-19.74-32.38s-7.9-4.38-6.55,2.95,7.35,12,14.34,37c6.9,24.7-61.32,54.67-72.51,21.11a13.67,13.67,0,0,1-.54-2.54l-16.66-73.34c-1.1-8.57-6.54-29.94-11.19-29S49.39,484.16,24.52,471.44Z"/><line class="cls-3" x1="120.53" y1="369.94" x2="136.95" y2="475.07"/><path class="cls-4" d="M120.18,370a152.69,152.69,0,0,0-.52,27c.13,4.47.71,8.87,1.06,13.3.51,4.4,1.15,8.79,1.74,13.19.8,4.36,1.5,8.74,2.38,13.09s1.81,8.69,3,13a155.79,155.79,0,0,0,8.72,25.56l.7-.11-7.86-52.62-8.56-52.51Z"/><line class="cls-5" x1="136.19" y1="450.72" x2="140.13" y2="483.18"/><path class="cls-6" d="M135.72,450.77a21.39,21.39,0,0,0-5.26,8.88,20,20,0,0,0-.71,8.32,20.37,20.37,0,0,0,2.7,7.9,21.58,21.58,0,0,0,7.22,7.36l.93-.11c-.15-2.73-.36-5.45-.67-8.15l-.83-8.14L138,458.74c-.34-2.71-.78-5.4-1.29-8.08Z"/><line class="cls-7" x1="132.47" y1="372.01" x2="169.82" y2="471.65"/><path class="cls-4" d="M132.14,372.13a152.31,152.31,0,0,0,5,26.56c1,4.35,2.49,8.54,3.73,12.81,1.39,4.21,2.91,8.38,4.37,12.56,1.67,4.11,3.24,8.26,5,12.34s3.53,8.15,5.61,12.1a154,154,0,0,0,13.71,23.27l.66-.24-18.34-49.95-19-49.69Z"/><line class="cls-8" x1="203.31" y1="453.25" x2="141.23" y2="366.82"/><path class="cls-4" d="M203.6,453a153.43,153.43,0,0,0-11.71-24.34c-2.14-3.93-4.64-7.59-6.95-11.39s-5-7.32-7.51-11c-2.68-3.54-5.28-7.13-8-10.61s-5.53-6.94-8.57-10.22a154.06,154.06,0,0,0-19.31-18.88l-.58.41,30.76,43.42,31.32,43Z"/><line class="cls-9" x1="194.93" y1="476.51" x2="135.76" y2="369.99"/><path class="cls-4" d="M195.26,476.33a185.71,185.71,0,0,0-10.41-29.07c-1.94-4.73-4.31-9.22-6.46-13.83s-4.73-9-7.1-13.48c-2.57-4.38-5.06-8.81-7.71-13.14s-5.35-8.65-8.33-12.8a188.27,188.27,0,0,0-19.16-24.2l-.67.37,29.26,53.44L194.6,476.7Z"/><line class="cls-10" x1="223.7" y1="430.6" x2="149.12" y2="354.71"/><path class="cls-4" d="M224,430.36a152.13,152.13,0,0,0-15.3-22.26c-2.71-3.56-5.74-6.8-8.61-10.19s-6.06-6.48-9.1-9.71c-3.19-3.08-6.31-6.23-9.56-9.26s-6.53-6-10-8.78a154,154,0,0,0-22-15.7l-.5.49,37,38.2,37.55,37.7Z"/><line class="cls-11" x1="169.06" y1="453.6" x2="174.1" y2="485.9"/><path class="cls-6" d="M168.59,453.67a21.5,21.5,0,0,0-5,9.05,20.26,20.26,0,0,0-.43,8.34,20.64,20.64,0,0,0,3,7.81,21.68,21.68,0,0,0,7.47,7.11l.93-.15c-.24-2.72-.55-5.43-1-8.12l-1.1-8.11-1.42-8.05c-.44-2.69-1-5.36-1.57-8Z"/><line class="cls-12" x1="210.53" y1="464.24" x2="187.97" y2="440.58"/><path class="cls-6" d="M210.87,463.91a21.35,21.35,0,0,0-1.08-10.26,20.18,20.18,0,0,0-4.41-7.09,20.45,20.45,0,0,0-6.89-4.72,21.65,21.65,0,0,0-10.18-1.59l-.69.65c1.75,2.1,3.55,4.15,5.42,6.13l5.53,6,5.75,5.8q2.85,2.94,5.87,5.7Z"/><line class="cls-13" x1="228.82" y1="441.58" x2="206.37" y2="417.81"/><path class="cls-6" d="M229.16,441.26a21.44,21.44,0,0,0-1-10.27,20.18,20.18,0,0,0-4.37-7.12,20.48,20.48,0,0,0-6.87-4.75,21.55,21.55,0,0,0-10.17-1.63l-.69.64c1.74,2.11,3.53,4.17,5.39,6.16l5.5,6,5.72,5.84c1.89,2,3.84,3.87,5.84,5.73Z"/><circle class="cls-14" cx="197.11" cy="480.07" r="9.16"/><path class="cls-6" d="M149.41,428.57a21.42,21.42,0,0,0,10.19,1.57,20.19,20.19,0,0,0,8-2.44,20.67,20.67,0,0,0,6.33-5.46,21.64,21.64,0,0,0,4.13-9.44l-.45-.82q-3.72,1.72-7.31,3.66l-7.24,3.81L156,423.53c-2.38,1.33-4.71,2.74-7,4.21Z"/><path class="cls-15" d="M322.91,117.83,333,214.33s-19.07,5.34-66.21-4.05C215.36,200,61,73.83,61,73.78c-6.78-15.4.29-23.22,16.62-24.43C77.61,49.35,171.5,176.9,322.91,117.83Z"/><path class="cls-16" d="M457.1,26.37C443.82,1.79,415-7.11,398.65,26.55c-.32.48-28.88,57.88-35.37,62.82a23.77,23.77,0,0,1-23.69,2.44s-62.17-42-81.22-43.25c-31.69-2.07-48.15,34.76-32,58.73,9.16,13.63,81.13,43.44,81.13,43.44,6.05,3.44,13.44,9.19,13.55,17.56.1,7.68-35,68.13-35.31,68.64-12.21,18.77.18,42.85,30.08,43.95,31.63,1.16,45.39-68.09,49.39-73.82s25,15.9,25,15.9l61.63,56.13a12.53,12.53,0,0,0,2.65,2.05c30.76,17.18,66.54-50,43.72-63.18,0,0-27.89-13.57-32.82-19s-4.56-7.79,2.8-6.62,12.16,7.08,37.31,13.5c24.85,6.34,53.26-62.54,19.46-73a13.05,13.05,0,0,0-2.55-.49l-73.71-15c-8.59-.9-30.07-5.85-29.26-10.52S470.39,51,457.1,26.37Z"/><line class="cls-17" x1="357.81" y1="124.66" x2="463.29" y2="138.69"/><path class="cls-4" d="M357.85,124.31a153.35,153.35,0,0,1,27-1.14c4.47,0,8.88.51,13.32.77,4.42.41,8.82,1,13.22,1.44,4.38.7,8.78,1.3,13.15,2.08s8.73,1.61,13.05,2.75a154.17,154.17,0,0,1,25.75,8.13l-.09.7-52.79-6.66L357.76,125Z"/><line class="cls-18" x1="438.92" y1="138.48" x2="471.46" y2="141.69"/><path class="cls-6" d="M439,138a21.43,21.43,0,0,1,8.76-5.46,20.22,20.22,0,0,1,8.3-.9,20.72,20.72,0,0,1,8,2.52,21.74,21.74,0,0,1,7.52,7.05l-.09.94c-2.73-.09-5.45-.24-8.16-.49l-8.16-.65-8.12-1c-2.71-.29-5.41-.67-8.1-1.12Z"/><line class="cls-19" x1="360.15" y1="136.56" x2="460.61" y2="171.63"/><path class="cls-4" d="M360.26,136.22a152.58,152.58,0,0,1,26.66,4.34c4.37.94,8.59,2.3,12.89,3.44,4.24,1.3,8.44,2.72,12.66,4.09,4.15,1.57,8.33,3,12.45,4.7s8.23,3.34,12.23,5.33a154.12,154.12,0,0,1,23.58,13.17l-.24.67-50.34-17.2L360,136.89Z"/><line class="cls-20" x1="442.97" y1="205.53" x2="355.16" y2="145.43"/><path class="cls-4" d="M442.77,205.82a152.63,152.63,0,0,1-24.6-11.15c-4-2-7.69-4.46-11.54-6.69s-7.44-4.83-11.15-7.25c-3.6-2.6-7.25-5.12-10.79-7.79s-7.07-5.38-10.41-8.34A154.91,154.91,0,0,1,355,145.72l.4-.58,44.1,29.76,43.71,30.34Z"/><line class="cls-21" x1="466.04" y1="196.63" x2="358.2" y2="139.88"/><path class="cls-4" d="M465.86,197a185.32,185.32,0,0,1-29.29-9.75c-4.77-1.83-9.32-4.09-14-6.14s-9.09-4.52-13.64-6.8c-4.43-2.47-8.92-4.85-13.31-7.4s-8.76-5.16-13-8.05A187.63,187.63,0,0,1,358,140.22l.35-.67,54.09,28,53.74,28.7Z"/><line class="cls-22" x1="420.79" y1="226.43" x2="343.22" y2="153.59"/><path class="cls-4" d="M420.55,226.68A152.45,152.45,0,0,1,398,211.89c-3.61-2.63-6.92-5.58-10.38-8.37s-6.61-5.92-9.91-8.88c-3.15-3.12-6.37-6.17-9.47-9.35s-6.16-6.39-9-9.83A154,154,0,0,1,343,153.85l.49-.52,39,36.16L421,226.17Z"/><line class="cls-23" x1="442.54" y1="171.28" x2="474.96" y2="175.59"/><path class="cls-6" d="M442.6,170.81a21.54,21.54,0,0,1,8.94-5.17,20.32,20.32,0,0,1,8.33-.61,20.64,20.64,0,0,1,7.87,2.79,21.75,21.75,0,0,1,7.28,7.3l-.13.94c-2.72-.18-5.44-.43-8.14-.77l-8.13-.92-8.08-1.24c-2.7-.38-5.38-.84-8.06-1.39Z"/><line class="cls-24" x1="454.12" y1="212.5" x2="429.95" y2="190.48"/><path class="cls-6" d="M453.81,212.85a21.52,21.52,0,0,1-10.29-.85,20.3,20.3,0,0,1-7.19-4.24,20.69,20.69,0,0,1-4.88-6.79,21.6,21.6,0,0,1-1.81-10.14l.63-.7c2.14,1.7,4.23,3.45,6.25,5.27l6.15,5.39,5.94,5.63c2,1.84,3.94,3.76,5.83,5.73Z"/><line class="cls-25" x1="431.89" y1="231.29" x2="407.61" y2="209.39"/><path class="cls-6" d="M431.57,231.64a21.34,21.34,0,0,1-10.29-.8,20.16,20.16,0,0,1-7.21-4.2,20.72,20.72,0,0,1-4.91-6.77,21.72,21.72,0,0,1-1.87-10.13l.64-.7c2.14,1.69,4.24,3.43,6.27,5.24l6.18,5.36,6,5.6q3,2.76,5.86,5.7Z"/><circle class="cls-14" cx="469.64" cy="198.72" r="9.16"/><path class="cls-6" d="M417.07,152.2a21.5,21.5,0,0,1,1.81,10.16,20.26,20.26,0,0,1-2.26,8,20.75,20.75,0,0,1-5.31,6.45A21.78,21.78,0,0,1,402,181.2l-.83-.44c1.09-2.5,2.25-5,3.5-7.39l3.64-7.32,3.91-7.18q1.92-3.62,4.06-7.11Z"/></g></svg>