<svg xmlns="http://www.w3.org/2000/svg" xmlns:xlink="http://www.w3.org/1999/xlink" viewBox="0 0 1080 1080"><defs><style>.cls-1{fill:url(#linear-gradient);}.cls-2{fill:url(#radial-gradient);}.cls-3{fill:url(#linear-gradient-2);}.cls-4{fill:#f9ac42;}.cls-5{fill:url(#linear-gradient-3);}.cls-6{fill:#ee4038;}.cls-7{fill:url(#linear-gradient-4);}.cls-8{fill:url(#linear-gradient-5);}.cls-9{fill:url(#linear-gradient-6);}.cls-10{fill:url(#linear-gradient-7);}.cls-11{fill:url(#linear-gradient-8);}.cls-12{fill:url(#linear-gradient-9);}.cls-13{fill:url(#linear-gradient-10);}.cls-14{fill:#8ac140;}.cls-15{fill:url(#linear-gradient-11);}.cls-16{fill:url(#radial-gradient-2);}.cls-17{fill:url(#linear-gradient-12);}.cls-18{fill:url(#linear-gradient-13);}.cls-19{fill:url(#linear-gradient-14);}.cls-20{fill:url(#linear-gradient-15);}.cls-21{fill:url(#linear-gradient-16);}.cls-22{fill:url(#linear-gradient-17);}.cls-23{fill:url(#linear-gradient-18);}.cls-24{fill:url(#linear-gradient-19);}.cls-25{fill:url(#linear-gradient-20);}</style><linearGradient id="linear-gradient" x1="1514.58" y1="5622.41" x2="1910.32" y2="5622.41" gradientTransform="matrix(-0.22, 1.13, -1.15, -0.03, 7005.06, -1450.46)" gradientUnits="userSpaceOnUse"><stop offset="0" stop-color="#f29022"/><stop offset="0.99" stop-color="#bb2030"/></linearGradient><radialGradient id="radial-gradient" cx="-1784.53" cy="3265.08" fx="-1770.9981064382575" fy="3271.647919862254" r="98.82" gradientTransform="matrix(0.89, -1.23, -1.22, -0.88, 5802.95, 1239.5)" gradientUnits="userSpaceOnUse"><stop offset="0" stop-color="#ee4038"/><stop offset="0.38" stop-color="#ee6827"/><stop offset="0.48" stop-color="#ef7126"/><stop offset="0.8" stop-color="#f18823"/><stop offset="1" stop-color="#f29022"/></radialGradient><linearGradient id="linear-gradient-2" x1="-5078.42" y1="-285.38" x2="-5065.18" y2="-285.38" gradientTransform="matrix(1, 0.1, 0.1, -1, 5288.92, 796.01)" gradientUnits="userSpaceOnUse"><stop offset="0" stop-color="#35af4a"/><stop offset="1" stop-color="#039047"/></linearGradient><linearGradient id="linear-gradient-3" x1="-5021.98" y1="-713.7" x2="-5008.74" y2="-713.7" gradientTransform="matrix(0.99, 0.05, 0.13, -0.3, 5282.74, 639.84)" xlink:href="#linear-gradient-2"/><linearGradient id="linear-gradient-4" x1="-5066.55" y1="-285.38" x2="-5032.23" y2="-285.38" xlink:href="#linear-gradient-2"/><linearGradient id="linear-gradient-5" x1="-5057.64" y1="-274.23" x2="-4998.19" y2="-274.23" xlink:href="#linear-gradient-2"/><linearGradient id="linear-gradient-6" x1="-4815.64" y1="-1152.26" x2="-4756.2" y2="-1152.26" gradientTransform="matrix(1.01, 0.29, 0.17, -1.09, 5263.57, 710.37)" xlink:href="#linear-gradient-2"/><linearGradient id="linear-gradient-7" x1="-5049.39" y1="-257.28" x2="-4977.13" y2="-257.28" xlink:href="#linear-gradient-2"/><linearGradient id="linear-gradient-8" x1="-5066.12" y1="-101.91" x2="-5052.88" y2="-101.91" gradientTransform="matrix(0.99, 0.01, 0.12, -0.31, 5285.64, 663.78)" xlink:href="#linear-gradient-2"/><linearGradient id="linear-gradient-9" x1="6677.37" y1="-9857.53" x2="6690.61" y2="-9857.53" gradientTransform="matrix(-0.82, 0.55, 0.08, 0.32, 6568.16, 53.39)" xlink:href="#linear-gradient-2"/><linearGradient id="linear-gradient-10" x1="6658.17" y1="-9802.4" x2="6671.41" y2="-9802.4" gradientTransform="matrix(-0.83, 0.55, 0.08, 0.32, 6571.81, 57.18)" xlink:href="#linear-gradient-2"/><linearGradient id="linear-gradient-11" x1="-3070.3" y1="1518.86" x2="-2674.55" y2="1518.86" gradientTransform="matrix(1.15, -0.06, 0.13, -1.14, 3356.86, 1771.77)" xlink:href="#linear-gradient"/><radialGradient id="radial-gradient-2" cx="3103.99" cy="2150.05" fx="3117.5207918359006" fy="2156.6182872741497" r="98.82" gradientTransform="matrix(-1.34, 0.71, -0.7, -1.33, 6189.39, 960.79)" xlink:href="#radial-gradient"/><linearGradient id="linear-gradient-12" x1="118.28" y1="5286.32" x2="131.52" y2="5286.32" gradientTransform="translate(5822.78 389.38) rotate(92.38)" xlink:href="#linear-gradient-2"/><linearGradient id="linear-gradient-13" x1="-1441.97" y1="16388.5" x2="-1428.72" y2="16388.5" gradientTransform="matrix(-0.09, 0.99, -0.32, 0.08, 5669.04, 361.25)" xlink:href="#linear-gradient-2"/><linearGradient id="linear-gradient-14" x1="130.15" y1="5286.32" x2="164.47" y2="5286.32" gradientTransform="translate(5822.78 389.38) rotate(92.38)" xlink:href="#linear-gradient-2"/><linearGradient id="linear-gradient-15" x1="139.06" y1="5297.48" x2="198.51" y2="5297.48" gradientTransform="translate(5822.78 389.38) rotate(92.38)" xlink:href="#linear-gradient-2"/><linearGradient id="linear-gradient-16" x1="-116.07" y1="4713.06" x2="-56.63" y2="4713.06" gradientTransform="matrix(0.14, 1.04, -1.1, 0.01, 5741.57, 352.22)" xlink:href="#linear-gradient-2"/><linearGradient id="linear-gradient-17" x1="147.31" y1="5314.42" x2="219.57" y2="5314.42" gradientTransform="translate(5822.78 389.38) rotate(92.38)" xlink:href="#linear-gradient-2"/><linearGradient id="linear-gradient-18" x1="-1238.78" y1="16388.57" x2="-1225.54" y2="16388.57" gradientTransform="matrix(-0.13, 0.98, -0.32, 0.07, 5692.33, 367.5)" xlink:href="#linear-gradient-2"/><linearGradient id="linear-gradient-19" x1="-579.49" y1="-12980.65" x2="-566.25" y2="-12980.65" gradientTransform="matrix(0.67, -0.74, 0.31, 0.12, 4907.27, 1551.18)" xlink:href="#linear-gradient-2"/><linearGradient id="linear-gradient-20" x1="-580.16" y1="-13045.82" x2="-566.92" y2="-13045.82" gradientTransform="matrix(0.66, -0.74, 0.31, 0.12, 4910.51, 1555.33)" xlink:href="#linear-gradient-2"/></defs><g id="_5" data-name="5"><path class="cls-1" d="M187,503.91l122.75,17.9s7.35-18.38,3.07-66.26c-4.67-52.28-250.42-385-250.47-385-14.58-8.39-23.11-2.2-26.07,13.9C36.26,84.45,262,359.71,187,503.91Z"/><path class="cls-2" d="M104.26,608.81c-23-15.85-28.78-45.44,6.45-58.1.51-.26,60.64-22.5,66.25-28.42a23.76,23.76,0,0,0,5-23.29s-35.11-66.32-34.3-85.4c1.35-31.73,39.73-44.14,61.84-25.55C222,398.61,244,473.37,244,473.37c2.78,6.39,7.7,14.35,16,15.35,7.63.92,71.49-27.47,72-27.74,20-10.12,42.58,4.78,40.47,34.62-2.24,31.58-72.56,37.83-78.69,41.19s13.13,26.54,13.13,26.54l49.19,67.3a12.82,12.82,0,0,1,1.76,2.84c13.78,32.43-56.85,60.8-67.51,36.7,0,0-10.5-29.18-15.37-34.67s-7.26-5.37-6.88,2.07,5.74,12.85,9.42,38.55c3.64,25.38-67.89,46.24-74.63,11.52a14.07,14.07,0,0,1-.21-2.59l-7-74.89c0-8.64-2.6-30.53-7.33-30.22S127.27,624.65,104.26,608.81Z"/><line class="cls-3" x1="212.64" y1="520.63" x2="215.27" y2="627"/><path class="cls-4" d="M212.28,520.64a152.53,152.53,0,0,0-4,26.71c-.45,4.44-.45,8.88-.67,13.32-.07,4.44,0,8.87,0,13.3.23,4.43.35,8.87.66,13.29s.67,8.86,1.33,13.27A155.33,155.33,0,0,0,214.92,627h.71l-1-53.2L213,520.62Z"/><line class="cls-5" x1="217.68" y1="602.75" x2="217.38" y2="635.45"/><path class="cls-6" d="M217.21,602.75a21.48,21.48,0,0,0-6.38,8.11,20.21,20.21,0,0,0-1.78,8.16,20.66,20.66,0,0,0,1.65,8.19,21.76,21.76,0,0,0,6.21,8.24h.94c.2-2.72.34-5.44.38-8.17l.24-8.17-.08-8.18c0-2.72-.08-5.45-.24-8.17Z"/><line class="cls-7" x1="224.21" y1="524.23" x2="248.3" y2="627.88"/><path class="cls-4" d="M223.86,524.31a153.45,153.45,0,0,0,1.46,27c.46,4.45,1.36,8.79,2,13.19.84,4.35,1.8,8.68,2.7,13,1.12,4.29,2.14,8.61,3.34,12.88s2.44,8.54,4,12.73A154.58,154.58,0,0,0,248,628l.69-.16-11.71-51.91-12.39-51.74Z"/><line class="cls-8" x1="283.9" y1="613.97" x2="233.57" y2="520.23"/><path class="cls-4" d="M284.21,613.81a152.43,152.43,0,0,0-8.45-25.66c-1.61-4.17-3.61-8.12-5.41-12.19-2-4-4-7.91-6-11.87-2.2-3.85-4.31-7.75-6.58-11.56s-4.59-7.6-7.17-11.24a155.17,155.17,0,0,0-16.7-21.23l-.63.33,24.86,47,25.48,46.71Z"/><line class="cls-9" x1="272.58" y1="635.95" x2="227.72" y2="522.66"/><path class="cls-4" d="M272.93,635.82a186.32,186.32,0,0,0-6.55-30.18c-1.31-4.94-3.08-9.7-4.61-14.55-1.7-4.79-3.52-9.53-5.29-14.29-2-4.67-3.88-9.39-5.94-14s-4.19-9.27-6.6-13.77a188.47,188.47,0,0,0-15.86-26.48l-.71.27,22.08,56.79,22.77,56.51Z"/><line class="cls-10" x1="307.06" y1="594.17" x2="242.96" y2="509.23"/><path class="cls-4" d="M307.34,594a153.69,153.69,0,0,0-12.28-24.06c-2.23-3.88-4.81-7.48-7.22-11.22s-5.17-7.21-7.76-10.81c-2.76-3.47-5.45-7-8.28-10.42s-5.7-6.8-8.81-10A153.27,153.27,0,0,0,243.24,509l-.56.43,31.76,42.68,32.33,42.25Z"/><line class="cls-11" x1="249.89" y1="609.87" x2="250.7" y2="642.56"/><path class="cls-6" d="M249.42,609.89a21.42,21.42,0,0,0-6.09,8.32,20.22,20.22,0,0,0-1.51,8.22,20.58,20.58,0,0,0,1.94,8.13,21.66,21.66,0,0,0,6.47,8l.94,0c.12-2.73.16-5.45.11-8.18l0-8.17-.36-8.17q-.13-4.1-.52-8.17Z"/><line class="cls-12" x1="289.64" y1="625.81" x2="270.33" y2="599.42"/><path class="cls-6" d="M290,625.53a21.37,21.37,0,0,0,.25-10.31,20.13,20.13,0,0,0-3.44-7.61A20.77,20.77,0,0,0,280.6,602a21.68,21.68,0,0,0-9.89-2.89l-.76.56c1.46,2.3,3,4.57,4.58,6.78l4.7,6.69,4.95,6.51c1.62,2.18,3.32,4.32,5.08,6.41Z"/><line class="cls-13" x1="310.71" y1="605.72" x2="291.53" y2="579.23"/><path class="cls-6" d="M311.09,605.44a21.59,21.59,0,0,0,.31-10.31A20.4,20.4,0,0,0,308,587.5a20.71,20.71,0,0,0-6.2-5.6,21.58,21.58,0,0,0-9.88-2.94l-.76.55c1.45,2.31,3,4.59,4.54,6.8l4.67,6.72,4.92,6.53c1.61,2.19,3.3,4.34,5.05,6.43Z"/><circle class="cls-14" cx="274.28" cy="639.76" r="9.16"/><path class="cls-6" d="M233.66,582.51a21.51,21.51,0,0,0,9.9,2.88A20.31,20.31,0,0,0,251.8,584a20.88,20.88,0,0,0,7-4.59,21.65,21.65,0,0,0,5.33-8.83l-.35-.87c-2.6.82-5.18,1.71-7.72,2.68l-7.67,2.83-7.56,3.13q-3.8,1.51-7.5,3.27Z"/><path class="cls-15" d="M470.42,258.55l.42,124s-19.24,4.69-66-6.3C353.71,364.3,59,74.11,59,74.06,52.7,58.44,60,50.86,76.39,50.21,76.39,50.21,317.09,312.44,470.42,258.55Z"/><path class="cls-16" d="M585.93,191.43c-12.44-25-40.93-34.89-58.43-1.8-.33.47-30.82,56.86-37.48,61.58a23.74,23.74,0,0,1-23.75,1.64s-60.71-44.1-79.71-46c-31.6-3.14-49.31,33.1-34,57.62,8.69,13.92,79.61,46.16,79.61,46.16,5.93,3.65,13.12,9.64,13,18-.17,7.67-37.28,66.9-37.62,67.39C394.64,414.4,406.21,438.89,436,441c31.59,2.23,47.68-66.51,51.88-72.1s24.42,16.74,24.42,16.74L572,443.82A12.82,12.82,0,0,0,574.6,446c30.17,18.21,68.21-47.71,45.85-61.67,0,0-27.41-14.5-32.16-20.1s-4.29-7.94,3-6.52,11.92,7.49,36.84,14.76c24.61,7.18,55.35-60.7,21.92-72.26a13.63,13.63,0,0,0-2.53-.57l-73.16-17.49c-8.55-1.2-29.86-6.88-28.88-11.51S598.37,216.45,585.93,191.43Z"/><line class="cls-17" x1="483.35" y1="286.3" x2="588.3" y2="303.9"/><path class="cls-4" d="M483.41,286a152.5,152.5,0,0,1,27-.22c4.47.18,8.86.81,13.29,1.21,4.4.57,8.78,1.25,13.17,1.89,4.35.85,8.72,1.6,13.06,2.53s8.67,1.91,12.95,3.19a155.09,155.09,0,0,1,25.46,9l-.11.7-52.53-8.45-52.41-9.15Z"/><line class="cls-18" x1="563.95" y1="302.86" x2="596.36" y2="307.18"/><path class="cls-6" d="M564,302.4a21.51,21.51,0,0,1,8.93-5.17,20.17,20.17,0,0,1,8.33-.61,20.57,20.57,0,0,1,7.88,2.79,21.64,21.64,0,0,1,7.27,7.3l-.12.93c-2.73-.18-5.44-.42-8.15-.77L580,306,572,304.72c-2.7-.38-5.39-.85-8.06-1.39Z"/><line class="cls-19" x1="485.29" y1="298.26" x2="584.5" y2="336.73"/><path class="cls-4" d="M485.42,297.93a152.61,152.61,0,0,1,26.49,5.25c4.34,1.08,8.51,2.58,12.77,3.87,4.19,1.45,8.34,3,12.51,4.52,4.1,1.71,8.22,3.33,12.29,5.11s8.1,3.63,12,5.75a153.86,153.86,0,0,1,23.12,14l-.26.66-49.73-18.91-49.48-19.56Z"/><line class="cls-20" x1="565.72" y1="370.01" x2="480" y2="306.96"/><path class="cls-4" d="M565.51,370.3a153.1,153.1,0,0,1-24.2-12c-3.91-2.18-7.54-4.72-11.31-7.08s-7.27-5.07-10.9-7.62c-3.51-2.72-7.07-5.37-10.52-8.15s-6.88-5.62-10.12-8.69a154.32,154.32,0,0,1-18.66-19.52l.41-.57,43.07,31.24,42.65,31.81Z"/><line class="cls-21" x1="589.08" y1="361.9" x2="483.23" y2="301.52"/><path class="cls-4" d="M588.89,362.22A185.5,185.5,0,0,1,560,351.49c-4.71-2-9.18-4.42-13.76-6.62-4.51-2.35-8.94-4.83-13.4-7.25-4.35-2.63-8.75-5.16-13.06-7.86s-8.58-5.45-12.7-8.48a187.88,187.88,0,0,1-24-19.43l.37-.66,53.11,29.86,52.74,30.52Z"/><line class="cls-22" x1="542.85" y1="390.14" x2="467.8" y2="314.71"/><path class="cls-4" d="M542.6,390.39a152.88,152.88,0,0,1-22.09-15.55c-3.52-2.75-6.72-5.82-10.09-8.72s-6.41-6.14-9.6-9.21c-3.05-3.22-6.16-6.38-9.15-9.66s-5.93-6.6-8.67-10.14A154,154,0,0,1,467.55,315l.5-.5,37.77,37.47,37.28,38Z"/><line class="cls-23" x1="566.46" y1="335.76" x2="598.71" y2="341.17"/><path class="cls-6" d="M566.54,335.3a21.49,21.49,0,0,1,9.1-4.86,20,20,0,0,1,8.34-.33,20.58,20.58,0,0,1,7.78,3.06,21.54,21.54,0,0,1,7,7.54l-.15.93q-4.08-.4-8.12-1.05l-8.08-1.19-8-1.51c-2.68-.47-5.35-1-8-1.66Z"/><line class="cls-24" x1="576.63" y1="377.36" x2="553.23" y2="354.52"/><path class="cls-6" d="M576.3,377.69a21.4,21.4,0,0,1-10.25-1.2,20.17,20.17,0,0,1-7-4.48,20.62,20.62,0,0,1-4.64-6.95,21.49,21.49,0,0,1-1.47-10.2l.65-.67c2.08,1.77,4.11,3.59,6.07,5.48l6,5.6,5.74,5.82C573.27,373,575.14,375,577,377Z"/><line class="cls-25" x1="553.77" y1="395.38" x2="530.25" y2="372.67"/><path class="cls-6" d="M553.44,395.72a21.34,21.34,0,0,1-10.25-1.15,20.09,20.09,0,0,1-7.07-4.45,20.73,20.73,0,0,1-4.68-6.92A21.8,21.8,0,0,1,529.92,373l.66-.68c2.09,1.76,4.12,3.57,6.1,5.45l6,5.57,5.77,5.79q2.91,2.87,5.66,5.9Z"/><circle class="cls-14" cx="592.61" cy="364.11" r="9.16"/><path class="cls-6" d="M541.65,315.83a21.46,21.46,0,0,1,1.46,10.22,20.2,20.2,0,0,1-2.53,7.95,20.62,20.62,0,0,1-5.53,6.27,21.65,21.65,0,0,1-9.49,4l-.82-.46c1.19-2.47,2.43-4.89,3.75-7.27l3.89-7.2,4.16-7c1.35-2.36,2.79-4.68,4.29-7Z"/></g></svg>