<svg xmlns="http://www.w3.org/2000/svg" xmlns:xlink="http://www.w3.org/1999/xlink" viewBox="0 0 1080 1080"><defs><style>.cls-1{fill:url(#linear-gradient);}.cls-2{fill:url(#linear-gradient-2);}.cls-3{fill:url(#radial-gradient);}.cls-4{fill:url(#linear-gradient-3);}.cls-5{fill:#f9ad42;}.cls-6{fill:url(#linear-gradient-4);}.cls-7{fill:#ee4037;}.cls-8{fill:url(#linear-gradient-5);}.cls-9{fill:url(#linear-gradient-6);}.cls-10{fill:url(#linear-gradient-7);}.cls-11{fill:url(#linear-gradient-8);}.cls-12{fill:url(#linear-gradient-9);}.cls-13{fill:url(#linear-gradient-10);}.cls-14{fill:url(#linear-gradient-11);}.cls-15{fill:#8ac340;}.cls-16{fill:url(#radial-gradient-2);}.cls-17{fill:url(#linear-gradient-12);}.cls-18{fill:url(#linear-gradient-13);}.cls-19{fill:url(#linear-gradient-14);}.cls-20{fill:url(#linear-gradient-15);}.cls-21{fill:url(#linear-gradient-16);}.cls-22{fill:url(#linear-gradient-17);}.cls-23{fill:url(#linear-gradient-18);}.cls-24{fill:url(#linear-gradient-19);}.cls-25{fill:url(#linear-gradient-20);}</style><linearGradient id="linear-gradient" x1="1189.94" y1="1384.09" x2="1681.52" y2="1384.09" gradientTransform="matrix(1.12, -0.25, -0.06, -1.15, -1178.09, 2182.93)" gradientUnits="userSpaceOnUse"><stop offset="0" stop-color="#f29022"/><stop offset="0.99" stop-color="#bb2030"/></linearGradient><linearGradient id="linear-gradient-2" x1="118.63" y1="393.5" x2="641.43" y2="393.5" gradientTransform="matrix(-0.01, 1.15, -1.13, 0.18, 714.66, -171.56)" xlink:href="#linear-gradient"/><radialGradient id="radial-gradient" cx="-67.36" cy="55.97" fx="-53.82834709417517" fy="62.53451020234998" r="98.82" gradientTransform="matrix(1.09, -1.06, 1.05, 1.08, 743.5, 262.81)" gradientUnits="userSpaceOnUse"><stop offset="0" stop-color="#ee4037"/><stop offset="0.38" stop-color="#ef6727"/><stop offset="0.49" stop-color="#f07126"/><stop offset="0.8" stop-color="#f38822"/><stop offset="1" stop-color="#f49021"/></radialGradient><linearGradient id="linear-gradient-3" x1="403.2" y1="-464.63" x2="416.44" y2="-464.63" gradientTransform="translate(1254.66 709.6) rotate(-103.78)" gradientUnits="userSpaceOnUse"><stop offset="0" stop-color="#36b04a"/><stop offset="1" stop-color="#019147"/></linearGradient><linearGradient id="linear-gradient-4" x1="652.02" y1="-2217.2" x2="665.26" y2="-2217.2" gradientTransform="matrix(-0.19, -0.98, 0.28, -0.17, 1410.16, 693.83)" xlink:href="#linear-gradient-3"/><linearGradient id="linear-gradient-5" x1="415.07" y1="-464.63" x2="449.39" y2="-464.63" xlink:href="#linear-gradient-3"/><linearGradient id="linear-gradient-6" x1="423.99" y1="-453.48" x2="483.43" y2="-453.48" xlink:href="#linear-gradient-3"/><linearGradient id="linear-gradient-7" x1="460.52" y1="-415.53" x2="519.96" y2="-415.53" gradientTransform="matrix(-0.43, -0.96, 1.05, -0.32, 1343.01, 722.69)" xlink:href="#linear-gradient-3"/><linearGradient id="linear-gradient-8" x1="432.23" y1="-436.53" x2="504.49" y2="-436.53" xlink:href="#linear-gradient-3"/><linearGradient id="linear-gradient-9" x1="656.73" y1="-2204.64" x2="669.97" y2="-2204.64" gradientTransform="matrix(-0.15, -0.98, 0.29, -0.16, 1386.05, 694.31)" xlink:href="#linear-gradient-3"/><linearGradient id="linear-gradient-10" x1="1211.89" y1="1903.9" x2="1225.13" y2="1903.9" gradientTransform="matrix(-0.43, 0.89, -0.33, -0.03, 1810.65, -661.1)" xlink:href="#linear-gradient-3"/><linearGradient id="linear-gradient-11" x1="1182.1" y1="1893.57" x2="1195.34" y2="1893.57" gradientTransform="matrix(-0.43, 0.9, -0.33, -0.03, 1806.39, -664.19)" xlink:href="#linear-gradient-3"/><radialGradient id="radial-gradient-2" cx="-443.94" cy="1468.03" fx="-430.4045958244472" fy="1474.5953730632873" r="98.82" gradientTransform="matrix(0.74, 1.33, 1.32, -0.73, -1118.71, 2314.53)" xlink:href="#radial-gradient"/><linearGradient id="linear-gradient-12" x1="-1718.09" y1="111.77" x2="-1704.84" y2="111.77" gradientTransform="matrix(-0.51, 0.86, 0.86, 0.51, -499.25, 2036.72)" xlink:href="#linear-gradient-3"/><linearGradient id="linear-gradient-13" x1="-1702.59" y1="0.76" x2="-1689.34" y2="0.76" gradientTransform="matrix(-0.46, 0.88, 0.22, 0.24, -355.16, 2097.28)" xlink:href="#linear-gradient-3"/><linearGradient id="linear-gradient-14" x1="-1706.21" y1="111.77" x2="-1671.89" y2="111.77" gradientTransform="matrix(-0.51, 0.86, 0.86, 0.51, -499.25, 2036.72)" xlink:href="#linear-gradient-3"/><linearGradient id="linear-gradient-15" x1="-1697.3" y1="122.92" x2="-1637.86" y2="122.92" gradientTransform="matrix(-0.51, 0.86, 0.86, 0.51, -499.25, 2036.72)" xlink:href="#linear-gradient-3"/><linearGradient id="linear-gradient-16" x1="-1607.95" y1="-244.36" x2="-1548.51" y2="-244.36" gradientTransform="matrix(-0.69, 0.79, 0.91, 0.61, -410.94, 2050.04)" xlink:href="#linear-gradient-3"/><linearGradient id="linear-gradient-17" x1="-1689.05" y1="139.86" x2="-1616.8" y2="139.86" gradientTransform="matrix(-0.51, 0.86, 0.86, 0.51, -499.25, 2036.72)" xlink:href="#linear-gradient-3"/><linearGradient id="linear-gradient-18" x1="-1699.03" y1="241.35" x2="-1685.79" y2="241.35" gradientTransform="matrix(-0.43, 0.89, 0.23, 0.24, -378.07, 2089.76)" xlink:href="#linear-gradient-3"/><linearGradient id="linear-gradient-19" x1="3143.65" y1="-3907.99" x2="3156.89" y2="-3907.99" gradientTransform="matrix(-0.15, -0.98, -0.32, -0.06, -368.35, 3510.09)" xlink:href="#linear-gradient-3"/><linearGradient id="linear-gradient-20" x1="3120.48" y1="-3898.13" x2="3133.72" y2="-3898.13" gradientTransform="matrix(-0.15, -0.98, -0.32, -0.06, -373.33, 3511.8)" xlink:href="#linear-gradient-3"/></defs><g id="_15" data-name="15"><path class="cls-1" d="M613.55,301.3l20.82,122.28s-18.2,7.79-66.17,4.65C515.83,424.81,63.09,76.56,63.06,76.51c-8.74-14.38-2.75-23.06,13.28-26.39C76.34,50.12,471.18,379.68,613.55,301.3Z"/><path class="cls-2" d="M367.17,605.18l123.91-5.52s3.76-19.44-9.45-65.66C467.2,483.54,64.25,73.58,64.19,73.56c-15.89-5.5-23.11,2.19-23,18.56C41.21,92.12,413.65,449.45,367.17,605.18Z"/><path class="cls-3" d="M686.49,535.81c18.91,20.56,49,22.13,56.62-14.53.19-.54,13.78-63.19,18.86-69.58a23.75,23.75,0,0,1,22.36-8.18s70.58,25.46,89.36,22c31.23-5.78,38.14-45.52,16.63-64.81-12.22-11-89.31-22.19-89.31-22.19-6.71-1.84-15.29-5.6-17.45-13.69-2-7.42,17.19-74.64,17.38-75.21,7.22-21.2-10.7-41.49-40-35.22-31,6.65-27.28,77.15-29.75,83.69s-28.13-9.28-28.13-9.28l-73.52-39.27a12.92,12.92,0,0,0-3.07-1.35c-34-9.09-52.23,64.81-26.86,72,0,0,30.36,6.3,36.48,10.36s6.33,6.43-1.09,7.1-13.53-3.88-39.49-3.92c-25.64,0-36.27,73.7-.95,75.5a13.31,13.31,0,0,0,2.6-.15l75.13-3.56c8.55-1.23,30.59-1.71,30.94,3S667.58,515.25,686.49,535.81Z"/><line class="cls-4" x1="758.61" y1="416.15" x2="652.91" y2="428.45"/><path class="cls-5" d="M758.65,416.5a152.83,152.83,0,0,1-25.88,7.73c-4.34,1.07-8.73,1.69-13.1,2.53-4.38.68-8.78,1.24-13.17,1.85-4.42.4-8.83.89-13.26,1.21s-8.85.58-13.32.54a154.61,154.61,0,0,1-27-1.56l-.08-.71,52.81-6.49,52.89-5.8Z"/><line class="cls-6" x1="676.59" y1="422.67" x2="644.26" y2="427.55"/><path class="cls-7" d="M676.66,423.13a21.47,21.47,0,0,1-7.14,7.45,20.17,20.17,0,0,1-7.83,2.91,20.65,20.65,0,0,1-8.34-.49,21.62,21.62,0,0,1-9-5l-.14-.93q4-.88,8-1.53l8.06-1.37,8.11-1.07c2.7-.39,5.41-.68,8.13-.91Z"/><line class="cls-8" x1="753.42" y1="405.19" x2="647.42" y2="395.86"/><path class="cls-5" d="M753.39,405.55a153.06,153.06,0,0,1-26.91,2.33c-4.47.17-8.89-.11-13.34-.17s-8.85-.56-13.28-.85c-4.4-.5-8.82-.91-13.22-1.5s-8.79-1.22-13.16-2.16a154.94,154.94,0,0,1-26.09-7l.06-.71,53,4.32,53,5Z"/><line class="cls-9" x1="656.19" y1="358.67" x2="756.07" y2="395.37"/><path class="cls-5" d="M656.32,358.34a152.69,152.69,0,0,1,26.58,4.77c4.36,1,8.56,2.43,12.83,3.65,4.22,1.37,8.4,2.85,12.6,4.29,4.12,1.64,8.27,3.19,12.37,4.9s8.17,3.48,12.14,5.53A154.49,154.49,0,0,1,756.2,395l-.25.66-50.06-18L656.07,359Z"/><line class="cls-10" x1="636.02" y1="372.96" x2="754.49" y2="401.49"/><path class="cls-5" d="M636.11,372.6a185.52,185.52,0,0,1,30.79,2.25c5.07.61,10,1.69,15.06,2.53,5,1,9.92,2.15,14.88,3.23,4.91,1.31,9.84,2.52,14.73,3.92s9.76,2.84,14.56,4.6a188.32,188.32,0,0,1,28.44,12l-.17.74L695.08,388l-59.15-14.63Z"/><line class="cls-11" x1="672.56" y1="332.97" x2="765.64" y2="384.53"/><path class="cls-5" d="M672.73,332.66a152.3,152.3,0,0,1,25.54,8.79c4.15,1.66,8.08,3.71,12.12,5.57s7.87,4.1,11.79,6.17c3.82,2.25,7.69,4.41,11.48,6.73s7.53,4.69,11.15,7.32a154.86,154.86,0,0,1,21,17l-.34.62-46.71-25.48-46.37-26.08Z"/><line class="cls-12" x1="665.02" y1="391.77" x2="632.54" y2="395.55"/><path class="cls-7" d="M665.08,392.24a21.65,21.65,0,0,1-7.4,7.2,20.17,20.17,0,0,1-7.92,2.64,20.57,20.57,0,0,1-8.32-.78A21.53,21.53,0,0,1,632.6,396l-.11-.93c2.68-.5,5.38-.92,8.08-1.26l8.1-1.1,8.14-.79q4.07-.44,8.16-.63Z"/><line class="cls-13" x1="643.67" y1="354.65" x2="672.51" y2="370.06"/><path class="cls-7" d="M643.89,354.23a21.64,21.64,0,0,1,10.18-1.7,20.19,20.19,0,0,1,8,2.35,20.57,20.57,0,0,1,6.39,5.38,21.63,21.63,0,0,1,4.25,9.39l-.44.83c-2.49-1.12-4.95-2.31-7.36-3.58l-7.28-3.71-7.14-4q-3.59-1.95-7.06-4.13Z"/><line class="cls-14" x1="660.61" y1="330.97" x2="689.52" y2="346.24"/><path class="cls-7" d="M660.83,330.55A21.57,21.57,0,0,1,671,328.8a20.37,20.37,0,0,1,8,2.31,20.68,20.68,0,0,1,6.42,5.35,21.61,21.61,0,0,1,4.29,9.37l-.44.83c-2.49-1.11-4.95-2.28-7.37-3.54l-7.3-3.68-7.16-4c-2.4-1.29-4.75-2.66-7.08-4.09Z"/><circle class="cls-15" cx="632.01" cy="371.81" r="9.16"/><path class="cls-7" d="M694.39,404a21.49,21.49,0,0,1-4.24-9.41,20.14,20.14,0,0,1,.22-8.35,20.47,20.47,0,0,1,3.56-7.55,21.7,21.7,0,0,1,8-6.51l.92.21c-.45,2.7-1,5.37-1.58,8l-1.73,8-2,7.92c-.65,2.65-1.38,5.27-2.19,7.88Z"/><path class="cls-16" d="M487.52,509.45c24.1-14.13,53.35-6.82,49.89,30.45,0,.58-5.29,64.46-2.31,72.05a23.75,23.75,0,0,0,19,14.37s74.94-3.71,91.88,5.1c28.17,14.66,23.17,54.68-3,66.84-14.89,6.91-91.89-4.9-91.89-4.9-7-.19-16.27.89-20.7,8-4.06,6.51-5.39,76.39-5.37,77,.71,22.38-22.37,36.55-48.5,22-27.66-15.41-3.54-81.76-4-88.73s-29.6.65-29.6.65l-81.8,16.06a13.34,13.34,0,0,1-3.32.39c-35.21-1.26-31-77.25-4.65-76.7,0,0,30.88,2.85,37.92.76s7.93-4.3,1-7.11-14.07-.25-38.9-7.79c-24.54-7.46-13.14-81.1,21.17-72.49a13.17,13.17,0,0,1,2.43.91l70.81,25.37c7.81,3.68,28.76,10.58,30.47,6.17S463.42,523.59,487.52,509.45Z"/><line class="cls-17" x1="521.5" y1="644.97" x2="424.02" y2="602.31"/><path class="cls-5" d="M521.64,644.65a152.23,152.23,0,0,0-22.49-15c-3.84-2.29-7.86-4.17-11.79-6.25s-8-3.75-12.06-5.62c-4.1-1.67-8.17-3.43-12.31-5s-8.31-3.15-12.59-4.42A155.14,155.14,0,0,0,424.16,602l-.29.65,48.6,21.66,48.88,21Z"/><line class="cls-18" x1="444.97" y1="614.76" x2="415.47" y2="600.64"/><path class="cls-7" d="M445.17,614.33a21.57,21.57,0,0,0-4.65-9.21,20.32,20.32,0,0,0-14.76-7,21.66,21.66,0,0,0-10.08,2.13l-.41.85c2.38,1.34,4.79,2.62,7.24,3.81l7.3,3.68,7.44,3.38c2.47,1.16,5,2.24,7.51,3.25Z"/><line class="cls-19" x1="513.33" y1="653.93" x2="409.24" y2="631.86"/><path class="cls-5" d="M513.4,653.59a151.8,151.8,0,0,0-25-10.11c-4.22-1.46-8.53-2.49-12.8-3.73s-8.63-2.06-12.95-3.07c-4.36-.81-8.7-1.71-13.08-2.44s-8.77-1.4-13.22-1.78a155.08,155.08,0,0,0-27-1l-.15.7,52,11.38,52.12,10.69Z"/><line class="cls-20" x1="406.75" y1="670" x2="513" y2="664.1"/><path class="cls-5" d="M406.77,670.35a152.5,152.5,0,0,0,26.82,3.21c4.46.31,8.89.17,13.34.26,4.43-.07,8.86-.27,13.3-.42,4.42-.36,8.84-.63,13.26-1.07s8.83-.94,13.22-1.74A154.38,154.38,0,0,0,513,664.46l0-.71-53.15,2.6-53.1,3.29Z"/><line class="cls-21" x1="391.64" y1="650.43" x2="513.27" y2="657.78"/><path class="cls-5" d="M391.61,650.8a185.23,185.23,0,0,0,30.11,6.85c5,.9,10.09,1.32,15.14,2,5.06.49,10.12.84,15.18,1.26,5.08.18,10.15.46,15.23.56s10.16.13,15.27-.15a188.3,188.3,0,0,0,30.71-3.15l0-.75-60.79-4.06-60.84-3.3Z"/><line class="cls-22" x1="414.89" y1="699.36" x2="518.98" y2="677.27"/><path class="cls-5" d="M415,699.71a153.25,153.25,0,0,0,27-.94c4.45-.38,8.81-1.19,13.21-1.78,4.38-.76,8.72-1.63,13.08-2.46,4.31-1,8.65-2,12.94-3.08s8.58-2.28,12.81-3.75a153.29,153.29,0,0,0,25-10.09l-.15-.69-52.12,10.7-52,11.39Z"/><line class="cls-23" x1="424.87" y1="640.92" x2="394.91" y2="627.81"/><path class="cls-7" d="M425.06,640.49a21.42,21.42,0,0,0-5-9,20.28,20.28,0,0,0-6.81-4.85,20.73,20.73,0,0,0-8.18-1.69,21.66,21.66,0,0,0-10,2.47l-.37.86c2.42,1.26,4.87,2.46,7.36,3.57l7.42,3.42,7.56,3.13c2.5,1.08,5,2.07,7.61,3Z"/><line class="cls-24" x1="393.6" y1="670.18" x2="425.68" y2="663.87"/><path class="cls-7" d="M393.69,670.64a21.39,21.39,0,0,0,9.24,4.6,20.12,20.12,0,0,0,8.35.1,20.71,20.71,0,0,0,7.69-3.27,21.81,21.81,0,0,0,6.81-7.74l-.19-.92q-4.06.51-8.08,1.27l-8.05,1.42-8,1.73q-4,.82-8,1.89Z"/><line class="cls-25" x1="402.88" y1="697.77" x2="434.99" y2="691.62"/><path class="cls-7" d="M403,698.24a21.44,21.44,0,0,0,9.21,4.64,20.15,20.15,0,0,0,8.35.14,20.66,20.66,0,0,0,7.7-3.23,21.57,21.57,0,0,0,6.85-7.71l-.18-.92q-4.06.5-8.08,1.23l-8.06,1.38-8,1.7c-2.67.53-5.33,1.15-8,1.84Z"/><circle class="cls-15" cx="387.47" cy="650.35" r="9.16"/><path class="cls-7" d="M456.54,637.81a21.38,21.38,0,0,0-6.81,7.75,20.12,20.12,0,0,0-2.23,8.05,20.51,20.51,0,0,0,1.2,8.27,21.6,21.6,0,0,0,5.73,8.56l.94.06c.36-2.71.65-5.42.84-8.14l.69-8.15.37-8.16q.23-4.08.21-8.18Z"/></g></svg>