<svg xmlns="http://www.w3.org/2000/svg" xmlns:xlink="http://www.w3.org/1999/xlink" viewBox="0 0 1080 1080"><defs><style>.cls-1{fill:url(#linear-gradient);}.cls-2{fill:url(#linear-gradient-2);}.cls-3{fill:url(#radial-gradient);}.cls-4{fill:url(#linear-gradient-3);}.cls-5{fill:#f9ad42;}.cls-6{fill:url(#linear-gradient-4);}.cls-7{fill:#ee4037;}.cls-8{fill:url(#linear-gradient-5);}.cls-9{fill:url(#linear-gradient-6);}.cls-10{fill:url(#linear-gradient-7);}.cls-11{fill:url(#linear-gradient-8);}.cls-12{fill:url(#linear-gradient-9);}.cls-13{fill:url(#linear-gradient-10);}.cls-14{fill:url(#linear-gradient-11);}.cls-15{fill:#8ac340;}.cls-16{fill:url(#radial-gradient-2);}.cls-17{fill:url(#linear-gradient-12);}.cls-18{fill:url(#linear-gradient-13);}.cls-19{fill:url(#linear-gradient-14);}.cls-20{fill:url(#linear-gradient-15);}.cls-21{fill:url(#linear-gradient-16);}.cls-22{fill:url(#linear-gradient-17);}.cls-23{fill:url(#linear-gradient-18);}.cls-24{fill:url(#linear-gradient-19);}.cls-25{fill:url(#linear-gradient-20);}</style><linearGradient id="linear-gradient" x1="1621.65" y1="3660.32" x2="1874.33" y2="3660.32" gradientTransform="matrix(1.14, -0.16, 0.04, -1.15, -1915.3, 4599.3)" gradientUnits="userSpaceOnUse"><stop offset="0" stop-color="#f29022"/><stop offset="0.99" stop-color="#bb2030"/></linearGradient><linearGradient id="linear-gradient-2" x1="-492.92" y1="1558.38" x2="-240.24" y2="1558.38" gradientTransform="matrix(-0.02, 1.15, -1.13, 0.17, 1893.08, 359.34)" xlink:href="#linear-gradient"/><radialGradient id="radial-gradient" cx="259.09" cy="-383.03" fx="272.62523106535076" fy="-376.46880701103356" r="98.82" gradientTransform="matrix(0.87, -1.25, 1.23, 0.86, 687.83, 812.16)" gradientUnits="userSpaceOnUse"><stop offset="0" stop-color="#ee4037"/><stop offset="0.38" stop-color="#ef6727"/><stop offset="0.49" stop-color="#f07126"/><stop offset="0.8" stop-color="#f38822"/><stop offset="1" stop-color="#f49021"/></radialGradient><linearGradient id="linear-gradient-3" x1="1223.3" y1="-368.98" x2="1236.54" y2="-368.98" gradientTransform="matrix(-0.42, -0.91, 0.91, -0.42, 1274.22, 1154.29)" gradientUnits="userSpaceOnUse"><stop offset="0" stop-color="#36b04a"/><stop offset="1" stop-color="#019147"/></linearGradient><linearGradient id="linear-gradient-4" x1="1462.53" y1="-2046.94" x2="1475.77" y2="-2046.94" gradientTransform="matrix(-0.37, -0.92, 0.25, -0.22, 1423.93, 1109.41)" xlink:href="#linear-gradient-3"/><linearGradient id="linear-gradient-5" x1="1235.18" y1="-368.98" x2="1269.49" y2="-368.98" xlink:href="#linear-gradient-3"/><linearGradient id="linear-gradient-6" x1="1244.09" y1="-357.83" x2="1303.53" y2="-357.83" xlink:href="#linear-gradient-3"/><linearGradient id="linear-gradient-7" x1="1243.43" y1="-195.1" x2="1302.87" y2="-195.1" gradientTransform="matrix(-0.6, -0.86, 0.97, -0.51, 1363.45, 1150.45)" xlink:href="#linear-gradient-3"/><linearGradient id="linear-gradient-8" x1="1252.33" y1="-340.88" x2="1324.59" y2="-340.88" xlink:href="#linear-gradient-3"/><linearGradient id="linear-gradient-9" x1="1478.83" y1="-2124.97" x2="1492.07" y2="-2124.97" gradientTransform="matrix(-0.34, -0.93, 0.25, -0.21, 1400.35, 1114.45)" xlink:href="#linear-gradient-3"/><linearGradient id="linear-gradient-10" x1="349.93" y1="3359.07" x2="363.17" y2="3359.07" gradientTransform="matrix(-0.26, 0.96, -0.33, 0.03, 1561.12, -296.79)" xlink:href="#linear-gradient-3"/><linearGradient id="linear-gradient-11" x1="319.17" y1="3337.7" x2="332.41" y2="3337.7" gradientTransform="matrix(-0.25, 0.96, -0.33, 0.03, 1556.35, -299.01)" xlink:href="#linear-gradient-3"/><radialGradient id="radial-gradient-2" cx="-999.43" cy="1688.26" fx="-985.9021811543331" fy="1694.82315844381" r="98.82" gradientTransform="matrix(0.97, 1.17, 1.15, -0.96, -753.05, 3178.87)" xlink:href="#radial-gradient"/><linearGradient id="linear-gradient-12" x1="-2429.97" y1="-450.45" x2="-2416.73" y2="-450.45" gradientTransform="matrix(-0.34, 0.94, 0.94, 0.34, -197.26, 2788.99)" xlink:href="#linear-gradient-3"/><linearGradient id="linear-gradient-13" x1="-2256" y1="-1693.3" x2="-2242.76" y2="-1693.3" gradientTransform="matrix(-0.29, 0.95, 0.26, 0.2, -44.32, 2821.21)" xlink:href="#linear-gradient-3"/><linearGradient id="linear-gradient-14" x1="-2418.09" y1="-450.45" x2="-2383.78" y2="-450.45" gradientTransform="matrix(-0.34, 0.94, 0.94, 0.34, -197.26, 2788.99)" xlink:href="#linear-gradient-3"/><linearGradient id="linear-gradient-15" x1="-2409.18" y1="-439.3" x2="-2349.74" y2="-439.3" gradientTransform="matrix(-0.34, 0.94, 0.94, 0.34, -197.26, 2788.99)" xlink:href="#linear-gradient-3"/><linearGradient id="linear-gradient-16" x1="-2262.32" y1="-866.92" x2="-2202.88" y2="-866.92" gradientTransform="matrix(-0.53, 0.91, 1.01, 0.43, -108.02, 2785.37)" xlink:href="#linear-gradient-3"/><linearGradient id="linear-gradient-17" x1="-2400.93" y1="-422.35" x2="-2328.68" y2="-422.35" gradientTransform="matrix(-0.34, 0.94, 0.94, 0.34, -197.26, 2788.99)" xlink:href="#linear-gradient-3"/><linearGradient id="linear-gradient-18" x1="-2279.28" y1="-1370.44" x2="-2266.04" y2="-1370.44" gradientTransform="matrix(-0.26, 0.96, 0.27, 0.19, -68.24, 2818.16)" xlink:href="#linear-gradient-3"/><linearGradient id="linear-gradient-19" x1="4065.08" y1="-3979.93" x2="4078.32" y2="-3979.93" gradientTransform="matrix(-0.34, -0.93, -0.33, 0, 209.75, 4211.06)" xlink:href="#linear-gradient-3"/><linearGradient id="linear-gradient-20" x1="4040.37" y1="-3955.63" x2="4053.61" y2="-3955.63" gradientTransform="matrix(-0.33, -0.94, -0.33, 0, 205.19, 4213.67)" xlink:href="#linear-gradient-3"/></defs><g id="_13" data-name="13"><path class="cls-1" d="M328,108.79l14.74,95.89s-18.79,6.25-66.33-.87C224.54,196,64.32,77.4,64.29,77.35c-7.51-15.06-.82-23.21,15.43-25.2C79.72,52.15,179.62,175.05,328,108.79Z"/><path class="cls-2" d="M126,333.61l97,3.29s4-19.4-8.71-65.76C200.42,220.52,63.64,75.48,63.58,75.46c-15.83-5.68-23.14,1.93-23.19,18.3C40.39,93.76,174.25,178.41,126,333.61Z"/><path class="cls-3" d="M427.93,305.89c22.46,16.61,52.33,12.46,52.85-25,.09-.57,1.59-64.66,5.37-71.89a23.76,23.76,0,0,1,20.42-12.26s74.12,11.66,91.9,4.7c29.57-11.58,28.85-51.91,4.08-66.78-14.07-8.46-91.89-4.91-91.89-4.91-6.94-.55-16.07-2.62-19.72-10.15-3.35-6.91,2.77-76.54,2.85-77.14,3.08-22.18-18.35-38.72-45.89-27-29.14,12.37-12.21,80.91-13.4,87.8s-29.37-3.8-29.37-3.8L325.51,74.8a12.31,12.31,0,0,0-3.27-.74c-35.14-2.5-39,73.51-12.77,75.76,0,0,31,.45,37.78,3.28s7.43,5.12.27,7.18-14-1.25-39.52,3.61c-25.19,4.8-21.68,79.23,13.34,74.33a13,13,0,0,0,2.52-.65L397,219.88c8.16-2.83,29.72-7.46,30.95-2.89S405.47,289.27,427.93,305.89Z"/><line class="cls-4" x1="476.13" y1="174.75" x2="374.67" y2="206.8"/><path class="cls-5" d="M476.24,175.09a153,153,0,0,1-23.95,12.48c-4.06,1.87-8.26,3.3-12.39,5-4.17,1.5-8.39,2.88-12.58,4.31-4.27,1.22-8.5,2.54-12.79,3.69s-8.59,2.24-13,3.05a154.14,154.14,0,0,1-26.78,3.56l-.21-.67,50.63-16.37L476,174.41Z"/><line class="cls-6" x1="396.82" y1="196.65" x2="366" y2="207.56"/><path class="cls-7" d="M397,197.1a21.46,21.46,0,0,1-5.61,8.66,20.15,20.15,0,0,1-7.13,4.34,20.64,20.64,0,0,1-8.29,1.09,21.63,21.63,0,0,1-9.8-3.19l-.31-.89q3.77-1.62,7.6-3l7.66-2.87,7.76-2.58c2.57-.89,5.18-1.7,7.81-2.43Z"/><line class="cls-8" x1="468.97" y1="164.97" x2="363.12" y2="175.85"/><path class="cls-5" d="M469,165.33a153.64,153.64,0,0,1-26,7.38c-4.35,1-8.75,1.56-13.13,2.35-4.39.62-8.8,1.12-13.2,1.67-4.42.34-8.83.77-13.26,1s-8.87.46-13.34.36a154.78,154.78,0,0,1-26.94-1.92l-.07-.71L416,169.71l53-5.09Z"/><line class="cls-9" x1="364.7" y1="137.66" x2="469.72" y2="154.82"/><path class="cls-5" d="M364.76,137.31a151.67,151.67,0,0,1,27-.33c4.46.16,8.86.77,13.29,1.15,4.4.55,8.78,1.22,13.17,1.84,4.36.83,8.73,1.56,13.08,2.47s8.68,1.87,13,3.14a154.39,154.39,0,0,1,25.5,8.89l-.11.7-52.56-8.23L364.64,138Z"/><line class="cls-10" x1="347.59" y1="155.51" x2="469.32" y2="161.14"/><path class="cls-5" d="M347.61,155.13a186.2,186.2,0,0,1,30.66-3.6c5.1-.36,10.18-.24,15.27-.37,5.08.05,10.15.24,15.23.37,5.06.36,10.13.61,15.2,1.06s10.12.95,15.16,1.77a187.26,187.26,0,0,1,30.2,6.4l0,.75-60.88-2.43-60.85-3.19Z"/><line class="cls-11" x1="375.91" y1="109.33" x2="477.06" y2="142.37"/><path class="cls-5" d="M376,109a152.86,152.86,0,0,1,26.75,3.81c4.39.84,8.63,2.12,13,3.18s8.5,2.54,12.74,3.83c4.18,1.48,8.39,2.88,12.54,4.44s8.29,3.18,12.34,5.09A154.39,154.39,0,0,1,477.17,142l-.22.68-50.68-16.19-50.46-16.85Z"/><line class="cls-12" x1="379.62" y1="168.5" x2="348.44" y2="178.35"/><path class="cls-7" d="M379.77,169a21.59,21.59,0,0,1-5.9,8.46,20.33,20.33,0,0,1-7.28,4.1,20.66,20.66,0,0,1-8.32.81,21.58,21.58,0,0,1-9.68-3.52l-.29-.9c2.55-1,5.11-1.92,7.7-2.76l7.75-2.62,7.84-2.31q3.92-1.2,7.89-2.16Z"/><line class="cls-13" x1="351.64" y1="136.08" x2="382.88" y2="145.77"/><path class="cls-7" d="M351.78,135.63a21.46,21.46,0,0,1,9.68-3.59,20.26,20.26,0,0,1,8.31.79,20.56,20.56,0,0,1,7.3,4.07,21.91,21.91,0,0,1,5.95,8.42l-.28.9c-2.66-.63-5.3-1.33-7.9-2.12L367,141.82l-7.76-2.57q-3.9-1.23-7.71-2.72Z"/><line class="cls-14" x1="363.81" y1="109.63" x2="395.08" y2="119.16"/><path class="cls-7" d="M363.94,109.18a21.46,21.46,0,0,1,9.66-3.64,20.16,20.16,0,0,1,8.32.75,20.52,20.52,0,0,1,7.31,4,21.6,21.6,0,0,1,6,8.38l-.27.9c-2.66-.62-5.3-1.3-7.91-2.08l-7.87-2.23-7.77-2.54c-2.61-.81-5.18-1.71-7.73-2.68Z"/><circle class="cls-15" cx="343.44" cy="155.14" r="9.16"/><path class="cls-7" d="M410.78,175a21.36,21.36,0,0,1-5.94-8.43,20.16,20.16,0,0,1-1.37-8.24,20.68,20.68,0,0,1,2.08-8.09,21.63,21.63,0,0,1,6.61-7.91l.94,0c.07,2.73.07,5.46,0,8.18l-.19,8.18-.5,8.16c-.13,2.72-.36,5.44-.66,8.15Z"/><path class="cls-16" d="M196.62,242c21-18.44,51.1-16.78,54.75,20.47.13.56,7,64.3,11.35,71.19a23.72,23.72,0,0,0,21.37,10.51s72.88-17.8,91.19-12.35c30.43,9.07,33.08,49.32,9.64,66.21-13.32,9.59-91.16,12.56-91.16,12.56-6.88,1.12-15.8,3.95-18.81,11.76-2.76,7.17,9.14,76,9.28,76.63,4.92,21.84-15.06,40.12-43.47,30.77-30.07-9.9-18.93-79.62-20.69-86.38s-28.95,6.24-28.95,6.24l-77.28,31.22a12.47,12.47,0,0,1-3.19,1c-34.82,5.42-45-70-19.06-74.43,0,0,30.86-3,37.38-6.42s7-5.73-.33-7.18-13.87,2.42-39.68-.3c-25.5-2.68-28.22-77.15,7.09-75.18a14,14,0,0,1,2.56.43l74.33,11.53c8.37,2.14,30.24,5,31.09.3S175.62,260.47,196.62,242Z"/><line class="cls-17" x1="255.6" y1="368.7" x2="151.81" y2="345.22"/><path class="cls-5" d="M255.67,368.35a153.13,153.13,0,0,0-24.91-10.44c-4.2-1.52-8.5-2.6-12.75-3.91-4.29-1.14-8.6-2.17-12.91-3.24-4.35-.86-8.67-1.82-13-2.61s-8.75-1.52-13.2-2a154.58,154.58,0,0,0-27-1.31l-.16.69,51.82,12.08,52,11.39Z"/><line class="cls-18" x1="174.73" y1="353.49" x2="143.1" y2="345.2"/><path class="cls-7" d="M174.85,353a21.31,21.31,0,0,0-6.31-8.16,20.12,20.12,0,0,0-7.47-3.73,20.76,20.76,0,0,0-8.35-.4,21.64,21.64,0,0,0-9.5,4l-.23.91c2.59.87,5.19,1.67,7.82,2.38l7.87,2.22,7.95,1.92c2.64.68,5.3,1.26,8,1.77Z"/><line class="cls-19" x1="249.27" y1="379.04" x2="142.88" y2="377.04"/><path class="cls-5" d="M249.28,378.68a152.7,152.7,0,0,0-26.51-5.18c-4.42-.65-8.85-.84-13.28-1.25-4.43-.26-8.86-.39-13.29-.57-4.44,0-8.87,0-13.31.08s-8.87.28-13.32.75a154.5,154.5,0,0,0-26.68,4.17l0,.71,53.19,1.35,53.2.65Z"/><line class="cls-20" x1="147.65" y1="414.96" x2="250.86" y2="389.09"/><path class="cls-5" d="M147.73,415.3a153,153,0,0,0,27-1.92c4.43-.54,8.76-1.51,13.14-2.26,4.35-.92,8.66-1.95,13-2.93,4.27-1.19,8.57-2.29,12.82-3.56s8.5-2.59,12.66-4.2a154.75,154.75,0,0,0,24.67-11l-.17-.68-51.7,12.59-51.52,13.27Z"/><line class="cls-21" x1="129.11" y1="398.59" x2="249.94" y2="382.83"/><path class="cls-5" d="M129.16,399A185.86,185.86,0,0,0,160,400c5.12-.06,10.16-.61,15.25-.91,5.05-.47,10.09-1.08,15.14-1.63,5-.78,10-1.46,15.06-2.33s10-1.78,15-3A188.41,188.41,0,0,0,250,383.21l-.1-.75L189.43,390l-60.37,8.26Z"/><line class="cls-22" x1="161.19" y1="442.25" x2="259.23" y2="400.89"/><path class="cls-5" d="M161.32,442.58a153.07,153.07,0,0,0,26.34-6c4.3-1.2,8.42-2.83,12.64-4.25s8.25-3.24,12.38-4.88c4-1.83,8.11-3.57,12.12-5.47s8-3.86,11.87-6.1a154.14,154.14,0,0,0,22.69-14.64l-.27-.65-49.16,20.36-48.88,21Z"/><line class="cls-23" x1="159.95" y1="382.98" x2="128.05" y2="375.77"/><path class="cls-7" d="M160.05,382.52a21.46,21.46,0,0,0-6.58-7.94,20.06,20.06,0,0,0-7.6-3.47,20.58,20.58,0,0,0-8.36-.12,21.68,21.68,0,0,0-9.35,4.32l-.21.92c2.62.78,5.25,1.49,7.9,2.11l7.94,2,8,1.65c2.66.59,5.34,1.08,8,1.5Z"/><line class="cls-24" x1="134.77" y1="417.62" x2="165.08" y2="405.36"/><path class="cls-7" d="M135,418.06a21.52,21.52,0,0,0,9.94,2.77A20.28,20.28,0,0,0,160,414.68a21.61,21.61,0,0,0,5.23-8.89l-.35-.87c-2.6.85-5.17,1.77-7.7,2.78l-7.64,2.92-7.52,3.21c-2.52,1-5,2.16-7.46,3.35Z"/><line class="cls-25" x1="149.09" y1="442.96" x2="179.47" y2="430.85"/><path class="cls-7" d="M149.27,443.4a21.37,21.37,0,0,0,9.92,2.82,20.3,20.3,0,0,0,15.18-6.07,21.62,21.62,0,0,0,5.27-8.86l-.35-.87c-2.6.84-5.17,1.74-7.71,2.73L163.93,436l-7.53,3.18c-2.53,1-5,2.14-7.48,3.32Z"/><circle class="cls-15" cx="125" cy="399.31" r="9.16"/><path class="cls-7" d="M190.46,373.94a21.51,21.51,0,0,0-5.23,8.9,20.33,20.33,0,0,0-.67,8.32,20.68,20.68,0,0,0,2.74,7.89,21.73,21.73,0,0,0,7.25,7.33l.94-.12c-.16-2.73-.39-5.44-.72-8.15l-.86-8.13-1.18-8.09c-.36-2.7-.82-5.39-1.34-8.07Z"/></g></svg>