<svg xmlns="http://www.w3.org/2000/svg" xmlns:xlink="http://www.w3.org/1999/xlink" viewBox="0 0 1080 1080"><defs><style>.cls-1{fill:url(#linear-gradient);}.cls-2{fill:url(#radial-gradient);}.cls-3{fill:url(#linear-gradient-2);}.cls-4{fill:#f9ac42;}.cls-5{fill:url(#linear-gradient-3);}.cls-6{fill:#ee4038;}.cls-7{fill:url(#linear-gradient-4);}.cls-8{fill:url(#linear-gradient-5);}.cls-9{fill:url(#linear-gradient-6);}.cls-10{fill:url(#linear-gradient-7);}.cls-11{fill:url(#linear-gradient-8);}.cls-12{fill:url(#linear-gradient-9);}.cls-13{fill:url(#linear-gradient-10);}.cls-14{fill:#8ac140;}.cls-15{fill:url(#linear-gradient-11);}.cls-16{fill:url(#radial-gradient-2);}.cls-17{fill:url(#linear-gradient-12);}.cls-18{fill:url(#linear-gradient-13);}.cls-19{fill:url(#linear-gradient-14);}.cls-20{fill:url(#linear-gradient-15);}.cls-21{fill:url(#linear-gradient-16);}.cls-22{fill:url(#linear-gradient-17);}.cls-23{fill:url(#linear-gradient-18);}.cls-24{fill:url(#linear-gradient-19);}.cls-25{fill:url(#linear-gradient-20);}</style><linearGradient id="linear-gradient" x1="1683.99" y1="2266.18" x2="2175.57" y2="2266.18" gradientTransform="matrix(-0.33, 1.1, -1.14, -0.14, 3415.03, -1442.81)" gradientUnits="userSpaceOnUse"><stop offset="0" stop-color="#f29022"/><stop offset="0.99" stop-color="#bb2030"/></linearGradient><radialGradient id="radial-gradient" cx="-516.91" cy="1018.87" fx="-503.3762811565704" fy="1025.4366158494008" r="98.82" gradientTransform="matrix(1, -1.14, -1.13, -0.99, 1969.51, 1124.56)" gradientUnits="userSpaceOnUse"><stop offset="0" stop-color="#ee4038"/><stop offset="0.38" stop-color="#ee6827"/><stop offset="0.48" stop-color="#ef7126"/><stop offset="0.8" stop-color="#f18823"/><stop offset="1" stop-color="#f29022"/></radialGradient><linearGradient id="linear-gradient-2" x1="-1191.18" y1="-324.61" x2="-1177.94" y2="-324.61" gradientTransform="matrix(0.98, 0.19, 0.19, -0.98, 1498.65, 635.48)" gradientUnits="userSpaceOnUse"><stop offset="0" stop-color="#35af4a"/><stop offset="1" stop-color="#039047"/></linearGradient><linearGradient id="linear-gradient-3" x1="-1025.86" y1="-1496.3" x2="-1012.62" y2="-1496.3" gradientTransform="matrix(0.98, 0.14, 0.15, -0.29, 1506.93, 479.4)" xlink:href="#linear-gradient-2"/><linearGradient id="linear-gradient-4" x1="-1179.31" y1="-324.61" x2="-1144.99" y2="-324.61" xlink:href="#linear-gradient-2"/><linearGradient id="linear-gradient-5" x1="-1170.4" y1="-313.46" x2="-1110.96" y2="-313.46" xlink:href="#linear-gradient-2"/><linearGradient id="linear-gradient-6" x1="-1078.73" y1="-550.73" x2="-1019.29" y2="-550.73" gradientTransform="matrix(0.98, 0.38, 0.27, -1.07, 1481.33, 547.86)" xlink:href="#linear-gradient-2"/><linearGradient id="linear-gradient-7" x1="-1162.15" y1="-296.51" x2="-1089.89" y2="-296.51" xlink:href="#linear-gradient-2"/><linearGradient id="linear-gradient-8" x1="-1032.28" y1="-1310.12" x2="-1019.04" y2="-1310.12" gradientTransform="matrix(0.99, 0.11, 0.14, -0.3, 1507.6, 503.51)" xlink:href="#linear-gradient-2"/><linearGradient id="linear-gradient-9" x1="2769.81" y1="-1735.5" x2="2783.05" y2="-1735.5" gradientTransform="matrix(-0.87, 0.48, 0.05, 0.33, 2841.04, 14.23)" xlink:href="#linear-gradient-2"/><linearGradient id="linear-gradient-10" x1="2743.54" y1="-1727.68" x2="2756.78" y2="-1727.68" gradientTransform="matrix(-0.87, 0.47, 0.05, 0.33, 2844.32, 18.34)" xlink:href="#linear-gradient-2"/><linearGradient id="linear-gradient-11" x1="-800.12" y1="-42.83" x2="-277.33" y2="-42.83" gradientTransform="matrix(1.14, 0.07, 0.26, -1.12, 936.19, 283.88)" xlink:href="#linear-gradient"/><radialGradient id="radial-gradient-2" cx="2140.69" cy="359.94" fx="2154.216272254866" fy="366.50552742435036" r="98.82" gradientTransform="matrix(-1.42, 0.55, -0.54, -1.4, 3843.85, -192.02)" xlink:href="#radial-gradient"/><linearGradient id="linear-gradient-12" x1="1702.41" y1="2664.38" x2="1715.65" y2="2664.38" gradientTransform="translate(3546.21 -802.2) rotate(99.06)" xlink:href="#linear-gradient-2"/><linearGradient id="linear-gradient-13" x1="1003.08" y1="7660.49" x2="1016.32" y2="7660.49" gradientTransform="matrix(-0.21, 0.97, -0.33, 0.05, 3396.78, -848.03)" xlink:href="#linear-gradient-2"/><linearGradient id="linear-gradient-14" x1="1714.28" y1="2664.38" x2="1748.6" y2="2664.38" gradientTransform="translate(3546.21 -802.2) rotate(99.06)" xlink:href="#linear-gradient-2"/><linearGradient id="linear-gradient-15" x1="1723.2" y1="2675.54" x2="1782.64" y2="2675.54" gradientTransform="translate(3546.21 -802.2) rotate(99.06)" xlink:href="#linear-gradient-2"/><linearGradient id="linear-gradient-16" x1="1544.03" y1="2613.1" x2="1603.47" y2="2613.1" gradientTransform="matrix(0.02, 1.05, -1.1, -0.11, 3469.87, -848.56)" xlink:href="#linear-gradient-2"/><linearGradient id="linear-gradient-17" x1="1731.44" y1="2692.48" x2="1803.7" y2="2692.48" gradientTransform="translate(3546.21 -802.2) rotate(99.06)" xlink:href="#linear-gradient-2"/><linearGradient id="linear-gradient-18" x1="1130.4" y1="7506.91" x2="1143.64" y2="7506.91" gradientTransform="matrix(-0.24, 0.96, -0.33, 0.03, 3419.19, -839.12)" xlink:href="#linear-gradient-2"/><linearGradient id="linear-gradient-19" x1="-1229.92" y1="-3192.58" x2="-1216.67" y2="-3192.58" gradientTransform="matrix(0.75, -0.65, 0.29, 0.16, 2501.74, 245.19)" xlink:href="#linear-gradient-2"/><linearGradient id="linear-gradient-20" x1="-1246.43" y1="-3250.6" x2="-1233.19" y2="-3250.6" gradientTransform="matrix(0.74, -0.66, 0.29, 0.16, 2504.47, 249.69)" xlink:href="#linear-gradient-2"/></defs><g id="_6" data-name="6"><path class="cls-1" d="M249.26,636.84,369.82,666s9-17.62,9.19-65.69c.18-52.48-316.18-528-316.23-528.08C49,62.51,40,67.89,35.54,83.65,35.54,83.65,337.23,500.18,249.26,636.84Z"/><path class="cls-2" d="M161.41,752.19C140,734.28,137,704.28,173.2,694.94c.53-.22,62.46-16.81,68.59-22.19a23.76,23.76,0,0,0,7.1-22.73s-28.83-69.27-26.26-88.2c4.27-31.46,43.63-40.28,63.93-19.73C298.1,553.77,313,630.23,313,630.23c2.17,6.62,6.33,15,14.52,16.77,7.51,1.62,73.72-20.75,74.28-21,20.83-8.23,42,8.69,37.1,38.21-5.15,31.24-75.75,31-82.16,33.74s10.62,27.65,10.62,27.65l42.77,71.55a12.89,12.89,0,0,1,1.48,3c10.72,33.56-62.22,55.28-70.61,30.29,0,0-7.75-30-12.1-35.94s-6.73-6-7,1.43,4.53,13.33,5.82,39.26c1.28,25.61-71.88,39.77-75.38,4.57a14,14,0,0,1,0-2.59l0-75.22c.82-8.6.23-30.64-4.5-30.77S182.86,770.09,161.41,752.19Z"/><line class="cls-3" x1="277.47" y1="674.4" x2="270.27" y2="780.56"/><path class="cls-4" d="M277.11,674.37a153.35,153.35,0,0,0-6.47,26.23c-.86,4.38-1.27,8.8-1.9,13.2-.47,4.41-.82,8.83-1.22,13.25-.18,4.43-.46,8.86-.56,13.29s-.16,8.88.09,13.34a155.26,155.26,0,0,0,2.86,26.86l.71.05,3.95-53.06,3.25-53.11Z"/><line class="cls-5" x1="274.9" y1="756.64" x2="271.58" y2="789.17"/><path class="cls-6" d="M274.43,756.59a21.46,21.46,0,0,0-7.09,7.49,20.08,20.08,0,0,0-2.53,8,20.44,20.44,0,0,0,.89,8.31,21.56,21.56,0,0,0,5.41,8.77l.94.09q.69-4,1.14-8.1l1-8.11.67-8.15c.26-2.71.42-5.44.52-8.17Z"/><line class="cls-7" x1="288.66" y1="679.05" x2="303.07" y2="784.48"/><path class="cls-4" d="M288.31,679.1a152.28,152.28,0,0,0-1,27c0,4.47.54,8.88.81,13.32.43,4.41,1,8.81,1.49,13.22.71,4.38,1.33,8.77,2.13,13.13s1.64,8.73,2.79,13a155.23,155.23,0,0,0,8.23,25.72l.7-.1-6.86-52.76L289,679Z"/><line class="cls-8" x1="339.81" y1="773.93" x2="298.35" y2="675.93"/><path class="cls-4" d="M340.13,773.79a152,152,0,0,0-6.05-26.32c-1.21-4.31-2.84-8.43-4.26-12.64s-3.25-8.26-4.89-12.38c-1.84-4-3.58-8.11-5.49-12.12s-3.87-8-6.1-11.86a155.09,155.09,0,0,0-14.67-22.68l-.65.28,20.41,49.14,21.05,48.86Z"/><line class="cls-9" x1="326.5" y1="794.77" x2="292.3" y2="677.81"/><path class="cls-4" d="M326.86,794.66A186.48,186.48,0,0,0,323.13,764c-.86-5-2.17-9.95-3.25-14.92-1.25-4.93-2.63-9.82-3.95-14.72-1.54-4.84-3-9.7-4.62-14.52s-3.31-9.61-5.3-14.32a188.68,188.68,0,0,0-13.34-27.84l-.73.22,16.74,58.58,17.45,58.38Z"/><line class="cls-10" x1="364.69" y1="756.35" x2="308.71" y2="665.85"/><path class="cls-4" d="M365,756.16a152.62,152.62,0,0,0-10-25.09c-1.85-4.06-4.1-7.89-6.14-11.84s-4.48-7.65-6.73-11.47c-2.43-3.71-4.78-7.47-7.28-11.14s-5.05-7.31-7.85-10.79a154.73,154.73,0,0,0-18-20.16l-.6.37,27.69,45.43,28.29,45.06Z"/><line class="cls-11" x1="306.32" y1="766.7" x2="304.11" y2="799.33"/><path class="cls-6" d="M305.85,766.67A21.63,21.63,0,0,0,299,774.4a20.46,20.46,0,0,0-2.26,8,20.71,20.71,0,0,0,1.18,8.28,21.61,21.61,0,0,0,5.71,8.58l.94.06c.36-2.71.66-5.42.86-8.13l.71-8.15.4-8.17q.24-4.08.24-8.17Z"/><line class="cls-12" x1="344.42" y1="786.24" x2="327.64" y2="758.18"/><path class="cls-6" d="M344.83,786a21.48,21.48,0,0,0,1.2-10.25,20.33,20.33,0,0,0-2.72-7.89,20.76,20.76,0,0,0-5.69-6.13,21.7,21.7,0,0,0-9.58-3.79l-.81.48q1.86,3.66,3.93,7.18l4.06,7.1,4.33,6.93c1.42,2.33,2.91,4.61,4.47,6.86Z"/><line class="cls-13" x1="367.26" y1="768.19" x2="350.61" y2="740.04"/><path class="cls-6" d="M367.66,768a21.35,21.35,0,0,0,1.26-10.25,20.24,20.24,0,0,0-2.69-7.9,20.58,20.58,0,0,0-5.65-6.16A21.73,21.73,0,0,0,351,739.8l-.81.48c1.23,2.44,2.52,4.84,3.89,7.2l4,7.11,4.3,7c1.4,2.33,2.89,4.62,4.43,6.88Z"/><circle class="cls-14" cx="327.84" cy="798.72" r="9.16"/><path class="cls-6" d="M292.68,738a21.45,21.45,0,0,0,9.6,3.79,20.08,20.08,0,0,0,8.33-.62A20.6,20.6,0,0,0,318,737.2a21.68,21.68,0,0,0,6.12-8.29l-.26-.91q-4,.87-7.94,2l-7.9,2.11-7.81,2.41q-3.92,1.17-7.77,2.57Z"/><path class="cls-15" d="M569.34,411.88l-14,123.25s-19.65,2.42-64.85-13.94C441.12,503.34,59.78,73.2,59.76,73.14c-4.39-16.24,3.77-22.91,20.1-21.66C79.86,51.48,410.78,447.57,569.34,411.88Z"/><path class="cls-16" d="M707.85,369c-9.45-26.29-36.6-39.42-57.82-8.59-.39.43-37.23,52.89-44.39,56.8a23.74,23.74,0,0,1-23.79-1.14S526.69,365.2,508,361.11c-31-6.79-52.81,27.15-40.48,53.27,7,14.84,73.69,55.12,73.69,55.12,5.47,4.31,11.92,11.1,10.77,19.39C551,496.5,507.2,551,506.8,551.46c-14.88,16.73-6.24,42.39,23.15,48,31.1,5.89,55.09-60.51,59.9-65.57s22.32,19.47,22.32,19.47l52.51,64.73a13,13,0,0,0,2.31,2.43c27.84,21.59,73.29-39.46,52.7-55.91,0,0-25.53-17.6-29.6-23.71s-3.33-8.39,3.76-6.12,11,8.82,34.87,18.94c23.61,10,62-53.85,30.18-69.22a12.28,12.28,0,0,0-2.45-.86l-70.62-25.89c-8.35-2.18-28.86-10.3-27.35-14.79S717.3,395.28,707.85,369Z"/><line class="cls-17" x1="594.93" y1="451.27" x2="697.11" y2="480.97"/><path class="cls-4" d="M595,450.94a152.52,152.52,0,0,1,26.86,2.92c4.41.7,8.7,1.83,13.05,2.75s8.57,2.26,12.86,3.41c4.22,1.35,8.47,2.6,12.68,4s8.39,2.9,12.49,4.67a155,155,0,0,1,24.24,11.91l-.19.68L645.83,466.8l-51-15.19Z"/><line class="cls-18" x1="673.05" y1="477.11" x2="704.74" y2="485.16"/><path class="cls-6" d="M673.17,476.65a21.53,21.53,0,0,1,9.47-4.09,20.09,20.09,0,0,1,8.35.36,20.63,20.63,0,0,1,7.49,3.69,21.54,21.54,0,0,1,6.38,8.09l-.23.92c-2.69-.5-5.36-1.06-8-1.72l-8-1.86-7.89-2.16c-2.63-.69-5.25-1.47-7.84-2.32Z"/><line class="cls-19" x1="595.46" y1="463.38" x2="689.53" y2="513.13"/><path class="cls-4" d="M595.63,463.07a153.78,153.78,0,0,1,25.71,8.29c4.18,1.58,8.15,3.56,12.22,5.34s7.94,3.95,11.91,5.94c3.86,2.17,7.77,4.26,11.6,6.51s7.63,4.54,11.29,7.1a153.46,153.46,0,0,1,21.33,16.57l-.33.62-47.19-24.56L595.3,463.7Z"/><line class="cls-20" x1="667" y1="544" x2="589.2" y2="471.41"/><path class="cls-4" d="M666.76,544.26a152.58,152.58,0,0,1-22.65-14.72c-3.62-2.62-6.93-5.56-10.4-8.34s-6.64-5.89-9.94-8.85c-3.17-3.11-6.39-6.14-9.5-9.31s-6.18-6.38-9-9.81A155.3,155.3,0,0,1,589,471.67l.48-.52,39.14,36,38.66,36.55Z"/><line class="cls-21" x1="691.15" y1="538.66" x2="593.04" y2="466.38"/><path class="cls-4" d="M690.92,539a184.59,184.59,0,0,1-27.5-14c-4.44-2.53-8.6-5.45-12.9-8.17s-8.31-5.84-12.46-8.76c-4-3.11-8.09-6.14-12-9.32s-7.89-6.41-11.63-9.9a189.39,189.39,0,0,1-21.56-22.09l.45-.61,49.27,35.83,48.83,36.45Z"/><line class="cls-22" x1="641.94" y1="561.34" x2="576.18" y2="477.69"/><path class="cls-4" d="M641.67,561.55a151.7,151.7,0,0,1-20.13-18c-3.18-3.14-6-6.56-9-9.84s-5.65-6.84-8.47-10.26c-2.65-3.56-5.37-7.06-8-10.66s-5.12-7.25-7.43-11.08a153.89,153.89,0,0,1-12.77-23.8l.55-.43,33.16,41.6,32.61,42Z"/><line class="cls-23" x1="671.72" y1="510.07" x2="703.12" y2="519.2"/><path class="cls-6" d="M671.85,509.62a21.58,21.58,0,0,1,9.61-3.77,20.36,20.36,0,0,1,8.32.64,20.59,20.59,0,0,1,7.37,3.95,21.62,21.62,0,0,1,6.1,8.3l-.26.91c-2.67-.59-5.32-1.24-7.94-2l-7.89-2.13-7.81-2.43c-2.61-.78-5.2-1.65-7.76-2.59Z"/><line class="cls-24" x1="676.98" y1="552.57" x2="656.39" y2="527.17"/><path class="cls-6" d="M676.62,552.86a21.35,21.35,0,0,1-10-2.38,20.35,20.35,0,0,1-6.48-5.27,20.65,20.65,0,0,1-3.8-7.44,21.7,21.7,0,0,1-.27-10.31l.73-.59q2.79,3,5.39,6.15l5.27,6.25,5,6.45c1.7,2.13,3.33,4.32,4.9,6.55Z"/><line class="cls-25" x1="652.18" y1="567.81" x2="631.46" y2="542.51"/><path class="cls-6" d="M651.82,568.11a21.53,21.53,0,0,1-10.06-2.33,20.34,20.34,0,0,1-10.34-12.67,21.71,21.71,0,0,1-.32-10.3l.73-.6q2.8,3,5.42,6.13l5.3,6.23,5.06,6.42c1.71,2.12,3.35,4.3,4.93,6.52Z"/><circle class="cls-14" cx="694.39" cy="541.27" r="9.16"/><path class="cls-6" d="M649.4,487.39a21.55,21.55,0,0,1,.26,10.32,20.15,20.15,0,0,1-3.44,7.6,20.47,20.47,0,0,1-6.22,5.58,21.59,21.59,0,0,1-9.89,2.9l-.76-.55c1.46-2.31,3-4.58,4.57-6.79l4.69-6.69,4.95-6.51c1.62-2.19,3.32-4.32,5.08-6.42Z"/></g></svg>