<svg xmlns="http://www.w3.org/2000/svg" xmlns:xlink="http://www.w3.org/1999/xlink" viewBox="0 0 1080 1080"><defs><style>.cls-1{fill:url(#linear-gradient);}.cls-2{fill:url(#linear-gradient-2);}.cls-3{fill:url(#radial-gradient);}.cls-4{fill:url(#linear-gradient-3);}.cls-5{fill:#f9ad42;}.cls-6{fill:url(#linear-gradient-4);}.cls-7{fill:#ee4037;}.cls-8{fill:url(#linear-gradient-5);}.cls-9{fill:url(#linear-gradient-6);}.cls-10{fill:url(#linear-gradient-7);}.cls-11{fill:url(#linear-gradient-8);}.cls-12{fill:url(#linear-gradient-9);}.cls-13{fill:url(#linear-gradient-10);}.cls-14{fill:url(#linear-gradient-11);}.cls-15{fill:#8ac340;}.cls-16{fill:url(#radial-gradient-2);}.cls-17{fill:url(#linear-gradient-12);}.cls-18{fill:url(#linear-gradient-13);}.cls-19{fill:url(#linear-gradient-14);}.cls-20{fill:url(#linear-gradient-15);}.cls-21{fill:url(#linear-gradient-16);}.cls-22{fill:url(#linear-gradient-17);}.cls-23{fill:url(#linear-gradient-18);}.cls-24{fill:url(#linear-gradient-19);}.cls-25{fill:url(#linear-gradient-20);}</style><linearGradient id="linear-gradient" x1="1561.1" y1="4619.23" x2="1956.84" y2="4619.23" gradientTransform="matrix(1.14, -0.15, 0.04, -1.15, -1902.45, 5767.54)" gradientUnits="userSpaceOnUse"><stop offset="0" stop-color="#f29022"/><stop offset="0.99" stop-color="#bb2030"/></linearGradient><linearGradient id="linear-gradient-2" x1="-2059.87" y1="1389.86" x2="-1664.13" y2="1389.86" gradientTransform="matrix(-0.13, 1.14, -1.15, 0.06, 1541.04, 2327.4)" xlink:href="#linear-gradient"/><radialGradient id="radial-gradient" cx="-48.41" cy="-77.4" fx="-34.877189332042846" fy="-70.83643539979617" r="98.82" gradientTransform="matrix(1.03, -1.12, 1.11, 1.02, 721.73, 327.2)" gradientUnits="userSpaceOnUse"><stop offset="0" stop-color="#ee4037"/><stop offset="0.38" stop-color="#ef6727"/><stop offset="0.49" stop-color="#f07126"/><stop offset="0.8" stop-color="#f38822"/><stop offset="1" stop-color="#f49021"/></radialGradient><linearGradient id="linear-gradient-3" x1="590.81" y1="-540.89" x2="604.05" y2="-540.89" gradientTransform="translate(1257.53 744.13) rotate(-107.05)" gradientUnits="userSpaceOnUse"><stop offset="0" stop-color="#36b04a"/><stop offset="1" stop-color="#019147"/></linearGradient><linearGradient id="linear-gradient-4" x1="868.19" y1="-2494.92" x2="881.43" y2="-2494.92" gradientTransform="matrix(-0.24, -0.96, 0.27, -0.18, 1411.88, 719.51)" xlink:href="#linear-gradient-3"/><linearGradient id="linear-gradient-5" x1="602.69" y1="-540.89" x2="637" y2="-540.89" xlink:href="#linear-gradient-3"/><linearGradient id="linear-gradient-6" x1="611.6" y1="-529.74" x2="671.04" y2="-529.74" xlink:href="#linear-gradient-3"/><linearGradient id="linear-gradient-7" x1="644.79" y1="-453.42" x2="704.23" y2="-453.42" gradientTransform="matrix(-0.48, -0.93, 1.03, -0.38, 1346.49, 752.16)" xlink:href="#linear-gradient-3"/><linearGradient id="linear-gradient-8" x1="619.85" y1="-512.79" x2="692.1" y2="-512.79" xlink:href="#linear-gradient-3"/><linearGradient id="linear-gradient-9" x1="872.11" y1="-2502.35" x2="885.35" y2="-2502.35" gradientTransform="matrix(-0.21, -0.97, 0.28, -0.18, 1387.84, 721.37)" xlink:href="#linear-gradient-3"/><linearGradient id="linear-gradient-10" x1="1050.18" y1="2480.76" x2="1063.42" y2="2480.76" gradientTransform="matrix(-0.38, 0.92, -0.33, -0.02, 1734.46, -656.05)" xlink:href="#linear-gradient-3"/><linearGradient id="linear-gradient-11" x1="1019.68" y1="2468.89" x2="1032.92" y2="2468.89" gradientTransform="matrix(-0.38, 0.92, -0.33, -0.01, 1730.03, -658.88)" xlink:href="#linear-gradient-3"/><radialGradient id="radial-gradient-2" cx="-594.91" cy="1456.61" fx="-581.3745737354436" fy="1463.1765439589824" r="98.82" gradientTransform="matrix(0.81, 1.29, 1.27, -0.8, -1020.47, 2481.78)" xlink:href="#radial-gradient"/><linearGradient id="linear-gradient-12" x1="-1819.07" y1="-95.07" x2="-1805.83" y2="-95.07" gradientTransform="matrix(-0.46, 0.89, 0.89, 0.46, -417.85, 2169.1)" xlink:href="#linear-gradient-3"/><linearGradient id="linear-gradient-13" x1="-1741.27" y1="-649.64" x2="-1728.03" y2="-649.64" gradientTransform="matrix(-0.41, 0.9, 0.23, 0.23, -270.55, 2221.34)" xlink:href="#linear-gradient-3"/><linearGradient id="linear-gradient-14" x1="-1807.19" y1="-95.07" x2="-1772.88" y2="-95.07" gradientTransform="matrix(-0.46, 0.89, 0.89, 0.46, -417.85, 2169.1)" xlink:href="#linear-gradient-3"/><linearGradient id="linear-gradient-15" x1="-1798.28" y1="-83.92" x2="-1738.84" y2="-83.92" gradientTransform="matrix(-0.46, 0.89, 0.89, 0.46, -417.85, 2169.1)" xlink:href="#linear-gradient-3"/><linearGradient id="linear-gradient-16" x1="-1694.09" y1="-447.04" x2="-1634.64" y2="-447.04" gradientTransform="matrix(-0.64, 0.83, 0.95, 0.56, -328.92, 2177.36)" xlink:href="#linear-gradient-3"/><linearGradient id="linear-gradient-17" x1="-1790.03" y1="-66.97" x2="-1717.78" y2="-66.97" gradientTransform="matrix(-0.46, 0.89, 0.89, 0.46, -417.85, 2169.1)" xlink:href="#linear-gradient-3"/><linearGradient id="linear-gradient-18" x1="-1745.97" y1="-396.42" x2="-1732.73" y2="-396.42" gradientTransform="matrix(-0.38, 0.92, 0.24, 0.22, -293.85, 2215.14)" xlink:href="#linear-gradient-3"/><linearGradient id="linear-gradient-19" x1="3320.29" y1="-3602.27" x2="3333.54" y2="-3602.27" gradientTransform="matrix(-0.21, -0.97, -0.33, -0.04, -203.15, 3632.61)" xlink:href="#linear-gradient-3"/><linearGradient id="linear-gradient-20" x1="3296.28" y1="-3589.07" x2="3309.52" y2="-3589.07" gradientTransform="matrix(-0.2, -0.97, -0.33, -0.05, -208.03, 3634.59)" xlink:href="#linear-gradient-3"/></defs><g id="_14" data-name="14"><path class="cls-1" d="M486.86,228l10.2,123.62s-18.8,6.2-66.32-1.06c-51.88-7.92-368.6-273.94-368.63-274-7.47-15.07-.75-23.2,15.5-25.15C77.61,51.45,338.26,293.87,486.86,228Z"/><path class="cls-2" d="M224.29,495.63l123.77,8.15s5.88-18.91-2.16-66.3c-8.78-51.74-280-364-280.08-364-15.19-7.22-23.21-.37-24.89,15.92C40.93,89.37,287.64,346,224.29,495.63Z"/><path class="cls-3" d="M552.45,446c20.06,19.45,50.21,19.29,55.7-17.74.16-.55,10.16-63.88,14.86-70.54a23.74,23.74,0,0,1,21.86-9.44s71.92,21.39,90.47,16.85c30.85-7.55,35.48-47.62,12.91-65.65-12.82-10.24-90.43-17.06-90.43-17.06-6.81-1.46-15.58-4.72-18.2-12.68-2.4-7.29,12.9-75.49,13.06-76.07,6-21.57-13-40.82-41.89-32.88-30.53,8.39-22.84,78.58-24.94,85.24s-28.6-7.66-28.6-7.66l-75.65-35a12.58,12.58,0,0,0-3.13-1.17c-34.51-7.14-48.45,67.68-22.72,73.4,0,0,30.67,4.56,37,8.26s6.68,6.07-.68,7.15-13.73-3.09-39.65-1.66c-25.6,1.42-32,75.65,3.36,75.44a14.08,14.08,0,0,0,2.58-.3l74.81-7.84c8.46-1.72,30.44-3.45,31.06,1.24S532.4,426.57,552.45,446Z"/><line class="cls-4" x1="617.63" y1="322.44" x2="512.81" y2="340.74"/><path class="cls-5" d="M617.69,322.78a152.93,152.93,0,0,1-25.4,9.2c-4.27,1.31-8.62,2.18-12.93,3.27-4.33.93-8.69,1.74-13.05,2.6-4.38.65-8.75,1.39-13.16,2s-8.81,1.08-13.27,1.3a154.22,154.22,0,0,1-27,0l-.12-.7,52.35-9.5,52.47-8.8Z"/><line class="cls-6" x1="536.12" y1="333.62" x2="504.12" y2="340.34"/><path class="cls-7" d="M536.21,334.08a21.42,21.42,0,0,1-6.7,7.84,20.29,20.29,0,0,1-7.65,3.36,20.65,20.65,0,0,1-8.36,0,21.66,21.66,0,0,1-9.29-4.46l-.19-.92c2.63-.74,5.27-1.41,7.94-2l8-1.83,8-1.53c2.67-.54,5.36-1,8.06-1.37Z"/><line class="cls-8" x1="611.83" y1="311.79" x2="505.47" y2="308.52"/><path class="cls-5" d="M611.82,312.15A152.74,152.74,0,0,1,585.08,316c-4.45.42-8.88.39-13.32.59-4.44,0-8.87-.06-13.31-.1-4.43-.25-8.86-.4-13.28-.74s-8.85-.72-13.27-1.41a154.61,154.61,0,0,1-26.44-5.48l0-.71,53.19,1.28,53.17,2Z"/><line class="cls-9" x1="512.11" y1="270.89" x2="613.92" y2="301.83"/><path class="cls-5" d="M512.21,270.55A152.8,152.8,0,0,1,539,273.8c4.4.76,8.67,1.94,13,2.91,4.3,1.13,8.55,2.37,12.82,3.57,4.21,1.4,8.45,2.71,12.63,4.18s8.35,3,12.44,4.83A154.89,154.89,0,0,1,614,301.5l-.21.67-51-15.13L512,271.23Z"/><line class="cls-10" x1="492.78" y1="286.31" x2="612.68" y2="308.04"/><path class="cls-5" d="M492.85,285.94a186.7,186.7,0,0,1,30.87.49c5.1.32,10.12,1.11,15.18,1.67,5,.72,10,1.58,15,2.38,5,1,10,1.95,14.93,3.07s9.9,2.28,14.79,3.77a187.67,187.67,0,0,1,29.09,10.35l-.14.74-60-10.49-59.89-11.24Z"/><line class="cls-11" x1="526.98" y1="244.3" x2="622.85" y2="290.47"/><path class="cls-5" d="M527.13,244a152,152,0,0,1,26,7.32c4.23,1.42,8.27,3.24,12.41,4.87s8.09,3.65,12.12,5.48c4,2,7.93,4,11.84,6.07s7.8,4.25,11.55,6.68A153.58,153.58,0,0,1,623,290.15l-.3.63L574.61,268l-47.78-23.41Z"/><line class="cls-12" x1="522.81" y1="303.43" x2="490.6" y2="309.06"/><path class="cls-7" d="M522.89,303.9a21.56,21.56,0,0,1-7,7.61,20.15,20.15,0,0,1-7.76,3.08,20.75,20.75,0,0,1-8.35-.29,21.66,21.66,0,0,1-9.13-4.78l-.17-.93c2.66-.65,5.32-1.23,8-1.71l8-1.56,8.08-1.26q4-.68,8.11-1.09Z"/><line class="cls-13" x1="499.38" y1="267.59" x2="529.04" y2="281.34"/><path class="cls-7" d="M499.57,267.16a21.58,21.58,0,0,1,10.07-2.28,20.3,20.3,0,0,1,14.82,6.9,21.68,21.68,0,0,1,4.78,9.13l-.39.85c-2.55-1-5.07-2-7.55-3.15l-7.49-3.29-7.35-3.58c-2.46-1.16-4.89-2.41-7.28-3.72Z"/><line class="cls-14" x1="514.94" y1="242.98" x2="544.68" y2="256.58"/><path class="cls-7" d="M515.13,242.56a21.51,21.51,0,0,1,10.06-2.33,20.36,20.36,0,0,1,8.14,1.84,20.74,20.74,0,0,1,6.72,5,21.67,21.67,0,0,1,4.82,9.11l-.39.85c-2.55-1-5.08-2-7.56-3.11l-7.5-3.26-7.37-3.54c-2.47-1.15-4.91-2.39-7.31-3.69Z"/><circle class="cls-15" cx="488.71" cy="285.39" r="9.16"/><path class="cls-7" d="M552.83,314a21.45,21.45,0,0,1-4.77-9.15,20,20,0,0,1-.26-8.35,20.45,20.45,0,0,1,3.13-7.75,21.57,21.57,0,0,1,7.6-7l.93.16c-.3,2.72-.66,5.42-1.12,8.11l-1.27,8.07-1.58,8c-.49,2.67-1.07,5.34-1.73,8Z"/><path class="cls-16" d="M343.44,402.92c23.26-15.48,52.88-9.85,51.55,27.56.06.57-1.61,64.66,1.81,72.06a23.72,23.72,0,0,0,19.78,13.26s74.61-8,92-.14c29,13,26.25,53.27.78,66.9-14.48,7.74-92,.35-92,.35-7,.2-16.18,1.82-20.2,9.17-3.68,6.73-1,76.57-1,77.18,2,22.3-20.25,37.76-47.17,24.72-28.49-13.8-8.19-81.42-9-88.35S310.45,608,310.45,608L229.7,628.66a12.77,12.77,0,0,1-3.29.58c-35.23.75-35.35-75.36-9-76.31,0,0,31,1.09,37.89-1.4s7.68-4.75.63-7.16-14.06.56-39.29-5.56c-24.92-6-17.73-80.21,17-73.58a14.25,14.25,0,0,1,2.48.77l72.14,21.3c8,3.22,29.31,8.92,30.77,4.41S320.19,418.41,343.44,402.92Z"/><line class="cls-17" x1="385.09" y1="536.29" x2="285.34" y2="499.25"/><path class="cls-5" d="M385.22,536a152.06,152.06,0,0,0-23.31-13.66c-4-2.07-8.08-3.71-12.12-5.57-4.1-1.7-8.24-3.29-12.36-4.92-4.2-1.44-8.36-3-12.59-4.32s-8.47-2.67-12.81-3.69a153.64,153.64,0,0,0-26.57-4.88l-.24.66L335,518.43l50,18.19Z"/><line class="cls-18" x1="306.97" y1="510.48" x2="276.72" y2="498.07"/><path class="cls-7" d="M307.14,510.05a21.46,21.46,0,0,0-5.17-8.93,20.11,20.11,0,0,0-6.91-4.69,20.74,20.74,0,0,0-8.22-1.5,21.66,21.66,0,0,0-9.95,2.7l-.35.87q3.68,1.81,7.44,3.4l7.5,3.25,7.63,3c2.52,1,5.09,1.95,7.68,2.82Z"/><line class="cls-19" x1="377.45" y1="545.7" x2="272.27" y2="529.6"/><path class="cls-5" d="M377.51,545.35a152.15,152.15,0,0,0-25.59-8.66c-4.3-1.23-8.67-2-13-3-4.35-.84-8.73-1.56-13.1-2.33-4.4-.55-8.78-1.21-13.2-1.68s-8.83-.9-13.3-1a153.75,153.75,0,0,0-27,.59l-.1.69,52.53,8.4L377.4,546Z"/><line class="cls-20" x1="271.96" y1="567.81" x2="377.7" y2="555.87"/><path class="cls-5" d="M272,568.16a152.71,152.71,0,0,0,27,1.68c4.47,0,8.89-.34,13.33-.5,4.43-.33,8.84-.78,13.25-1.18,4.4-.62,8.8-1.13,13.18-1.82s8.76-1.45,13.11-2.49a154.86,154.86,0,0,0,25.91-7.63l-.08-.7-52.91,5.62-52.83,6.32Z"/><line class="cls-21" x1="255.76" y1="549.13" x2="377.61" y2="549.55"/><path class="cls-5" d="M255.75,549.51a185.52,185.52,0,0,0,30.45,5.12c5.08.62,10.15.75,15.23,1.12,5.08.2,10.15.27,15.23.39,5.08-.11,10.15-.11,15.23-.3s10.16-.45,15.24-1a187.55,187.55,0,0,0,30.48-4.9v-.75l-60.92-.58-60.93.17Z"/><line class="cls-22" x1="281.76" y1="596.66" x2="384.42" y2="568.67"/><path class="cls-5" d="M281.85,597a153.09,153.09,0,0,0,26.9-2.47c4.42-.63,8.73-1.69,13.1-2.53,4.32-1,8.61-2.13,12.91-3.2,4.25-1.28,8.52-2.46,12.75-3.82s8.43-2.76,12.56-4.46A154.6,154.6,0,0,0,384.51,569l-.18-.68L332.9,582l-51.23,14.33Z"/><line class="cls-23" x1="288.39" y1="537.75" x2="257.74" y2="526.37"/><path class="cls-7" d="M288.56,537.31a21.65,21.65,0,0,0-5.47-8.75,20.3,20.3,0,0,0-7.07-4.45,20.7,20.7,0,0,0-8.27-1.22,21.71,21.71,0,0,0-9.85,3l-.32.88c2.49,1.12,5,2.18,7.55,3.14l7.61,3,7.72,2.7q3.84,1.4,7.77,2.55Z"/><line class="cls-24" x1="258.84" y1="568.74" x2="290.51" y2="560.61"/><path class="cls-7" d="M259,569.2a21.55,21.55,0,0,0,9.48,4.07,20.25,20.25,0,0,0,8.35-.38,20.57,20.57,0,0,0,7.48-3.71,21.6,21.6,0,0,0,6.36-8.11l-.23-.91c-2.69.5-5.35,1.07-8,1.73l-8,1.88L266.57,566q-4,1-7.84,2.34Z"/><line class="cls-25" x1="269.68" y1="595.77" x2="301.39" y2="587.79"/><path class="cls-7" d="M269.79,596.22a21.57,21.57,0,0,0,9.47,4.12,20.21,20.21,0,0,0,8.34-.34,20.67,20.67,0,0,0,7.51-3.67,21.61,21.61,0,0,0,6.39-8.08l-.22-.92c-2.69.49-5.36,1-8,1.7l-8,1.84L277.41,593q-3.95,1-7.85,2.3Z"/><circle class="cls-15" cx="251.59" cy="549.3" r="9.16"/><path class="cls-7" d="M319.83,532.84a21.46,21.46,0,0,0-6.35,8.12,20,20,0,0,0-1.77,8.17,20.34,20.34,0,0,0,1.67,8.18,21.56,21.56,0,0,0,6.21,8.22h.94c.21-2.72.34-5.45.38-8.17l.21-8.17L321,541c0-2.72-.09-5.45-.25-8.18Z"/></g></svg>