<svg xmlns="http://www.w3.org/2000/svg" xmlns:xlink="http://www.w3.org/1999/xlink" viewBox="0 0 1080 1080"><defs><style>.cls-1{fill:url(#linear-gradient);}.cls-2{fill:url(#linear-gradient-2);}.cls-3{fill:url(#radial-gradient);}.cls-4{fill:url(#linear-gradient-3);}.cls-5{fill:#f9ad42;}.cls-6{fill:url(#linear-gradient-4);}.cls-7{fill:#ee4037;}.cls-8{fill:url(#linear-gradient-5);}.cls-9{fill:url(#linear-gradient-6);}.cls-10{fill:url(#linear-gradient-7);}.cls-11{fill:url(#linear-gradient-8);}.cls-12{fill:url(#linear-gradient-9);}.cls-13{fill:url(#linear-gradient-10);}.cls-14{fill:url(#linear-gradient-11);}.cls-15{fill:#8ac340;}.cls-16{fill:url(#radial-gradient-2);}.cls-17{fill:url(#linear-gradient-12);}.cls-18{fill:url(#linear-gradient-13);}.cls-19{fill:url(#linear-gradient-14);}.cls-20{fill:url(#linear-gradient-15);}.cls-21{fill:url(#linear-gradient-16);}.cls-22{fill:url(#linear-gradient-17);}.cls-23{fill:url(#linear-gradient-18);}.cls-24{fill:url(#linear-gradient-19);}.cls-25{fill:url(#linear-gradient-20);}</style><linearGradient id="linear-gradient" x1="4015.06" y1="4470.29" x2="4410.81" y2="4470.29" gradientTransform="matrix(1.12, -0.24, -0.05, -1.15, -4209.39, 6324.53)" gradientUnits="userSpaceOnUse"><stop offset="0" stop-color="#f29022"/><stop offset="0.99" stop-color="#bb2030"/></linearGradient><linearGradient id="linear-gradient-2" x1="-2113.08" y1="-1032.87" x2="-1717.34" y2="-1032.87" gradientTransform="matrix(-0.04, 1.15, -1.14, 0.15, -1046.85, 2624.46)" xlink:href="#linear-gradient"/><radialGradient id="radial-gradient" cx="2979.77" cy="1432.08" r="148.23" gradientTransform="translate(-1060.26 3090.9) rotate(-84.76)" gradientUnits="userSpaceOnUse"><stop offset="0" stop-color="#ee4037"/><stop offset="0.38" stop-color="#ef6727"/><stop offset="0.49" stop-color="#f07126"/><stop offset="0.8" stop-color="#f38822"/><stop offset="1" stop-color="#f49021"/></radialGradient><linearGradient id="linear-gradient-3" x1="2102.86" y1="2455.2" x2="2116.36" y2="2455.2" gradientTransform="translate(-818.49 3184.31) rotate(-112.94)" gradientUnits="userSpaceOnUse"><stop offset="0" stop-color="#36b04a"/><stop offset="1" stop-color="#019147"/></linearGradient><linearGradient id="linear-gradient-4" x1="1479.46" y1="6915.08" x2="1492.96" y2="6915.08" gradientTransform="matrix(-0.34, -0.93, 0.25, -0.21, -667.48, 3143.99)" xlink:href="#linear-gradient-3"/><linearGradient id="linear-gradient-5" x1="2114.97" y1="2455.2" x2="2149.94" y2="2455.2" xlink:href="#linear-gradient-3"/><linearGradient id="linear-gradient-6" x1="2124.05" y1="2466.57" x2="2184.63" y2="2466.57" xlink:href="#linear-gradient-3"/><linearGradient id="linear-gradient-7" x1="1940.02" y1="2490.57" x2="2000.61" y2="2490.57" gradientTransform="matrix(-0.57, -0.88, 0.99, -0.48, -729.18, 3183.17)" xlink:href="#linear-gradient-3"/><linearGradient id="linear-gradient-8" x1="2132.46" y1="2483.84" x2="2206.1" y2="2483.84" xlink:href="#linear-gradient-3"/><linearGradient id="linear-gradient-9" x1="1604.14" y1="6718.78" x2="1617.64" y2="6718.78" gradientTransform="matrix(-0.31, -0.94, 0.26, -0.2, -691.21, 3148.31)" xlink:href="#linear-gradient-3"/><linearGradient id="linear-gradient-10" x1="-1559.69" y1="-1841.35" x2="-1546.19" y2="-1841.35" gradientTransform="matrix(-0.29, 0.95, -0.33, 0.02, -487.7, 1742.6)" xlink:href="#linear-gradient-3"/><linearGradient id="linear-gradient-11" x1="-1578.48" y1="-1902.49" x2="-1564.99" y2="-1902.49" gradientTransform="matrix(-0.28, 0.95, -0.33, 0.02, -492.41, 1740.23)" xlink:href="#linear-gradient-3"/><radialGradient id="radial-gradient-2" cx="-3049.26" cy="2772.11" r="148.23" gradientTransform="matrix(0.13, 0.99, 0.99, -0.13, -1989.24, 3919.69)" xlink:href="#radial-gradient"/><linearGradient id="linear-gradient-12" x1="-3844.41" y1="789.42" x2="-3830.91" y2="789.42" gradientTransform="matrix(-0.35, 0.94, 0.94, 0.35, -1751.2, 3817.15)" xlink:href="#linear-gradient-3"/><linearGradient id="linear-gradient-13" x1="-4093.65" y1="2543.5" x2="-4080.15" y2="2543.5" gradientTransform="matrix(-0.3, 0.95, 0.26, 0.2, -1598.77, 3851.7)" xlink:href="#linear-gradient-3"/><linearGradient id="linear-gradient-14" x1="-3832.3" y1="789.42" x2="-3797.33" y2="789.42" gradientTransform="matrix(-0.35, 0.94, 0.94, 0.35, -1751.2, 3817.15)" xlink:href="#linear-gradient-3"/><linearGradient id="linear-gradient-15" x1="-3823.22" y1="800.79" x2="-3762.64" y2="800.79" gradientTransform="matrix(-0.35, 0.94, 0.94, 0.35, -1751.2, 3817.15)" xlink:href="#linear-gradient-3"/><linearGradient id="linear-gradient-16" x1="-3686.37" y1="17.22" x2="-3625.79" y2="17.22" gradientTransform="matrix(-0.54, 0.9, 1.01, 0.45, -1661.91, 3814.89)" xlink:href="#linear-gradient-3"/><linearGradient id="linear-gradient-17" x1="-3814.82" y1="818.06" x2="-3741.17" y2="818.06" gradientTransform="matrix(-0.35, 0.94, 0.94, 0.35, -1751.2, 3817.15)" xlink:href="#linear-gradient-3"/><linearGradient id="linear-gradient-18" x1="-4087.1" y1="3011.47" x2="-4073.6" y2="3011.47" gradientTransform="matrix(-0.27, 0.96, 0.27, 0.19, -1622.64, 3848.28)" xlink:href="#linear-gradient-3"/><linearGradient id="linear-gradient-19" x1="5042.5" y1="-9977.45" x2="5056" y2="-9977.45" gradientTransform="matrix(-0.32, -0.94, -0.33, -0.01, -1365.79, 5245.23)" xlink:href="#linear-gradient-3"/><linearGradient id="linear-gradient-20" x1="5025.94" y1="-9948.69" x2="5039.44" y2="-9948.69" gradientTransform="matrix(-0.32, -0.94, -0.33, -0.01, -1370.4, 5247.78)" xlink:href="#linear-gradient-3"/></defs><g id="_17" data-name="17"><path class="cls-1" d="M496.39,194.54,516.27,317s-18.26,7.65-66.2,4.15C397.73,317.3,61.09,77,61.06,76.94,52.43,62.5,58.48,53.86,74.53,50.65,74.53,50.65,353.42,271.83,496.39,194.54Z"/><path class="cls-2" d="M255.66,481.92l124-1.6s4.37-19.31-7.37-65.92C359.5,363.51,64.57,73.52,64.51,73.5,48.79,67.5,41.34,75,41,91.32,41,91.32,307.05,327.74,255.66,481.92Z"/><path class="cls-3" d="M511.2,181.63l-7.8-1.15c-21.76-2.68-35,11.74-36.63,27.54-3.44,37.52,39.79,37.53,39.79,37.53s-44.5-3.7-43.22,33.11c.33,18.51,12,29.76,29.42,29.07,5.11-.2,7.3-.86,10.13-.85-12.58,26.74.62,49.57,31.93,45.34,0,0,41-8.22,70.78-17.89s55.77-23.4,68.24-43.26c1.49-2.38,3-4.09,5.78-4.59,10.78-1.94,102.3,10.26,102.3,10.26,4.44.07,14.49-1.44,18.13-4,25.69-18,27.39-42.75,1.31-60.23-2.83-1.9-6.12-3-13.7-3.83,0,0-91.84-2.78-102.15-6.52-3-1.07-3.18-3-4.83-5.72-12.84-20.86-36.73-34.63-59.87-48.11s-66.44-29.43-66.44-29.43C511.88,132.13,499,161.12,511.2,181.63Z"/><line class="cls-4" x1="672.4" y1="269.79" x2="568.04" y2="299.31"/><path class="cls-5" d="M672.49,270.14a155.1,155.1,0,0,1-24.79,12c-4.19,1.78-8.51,3.11-12.76,4.67-4.3,1.4-8.64,2.68-13,4-4.38,1.12-8.73,2.33-13.14,3.37s-8.82,2-13.32,2.7a156.49,156.49,0,0,1-27.38,2.8l-.2-.69L620,283.86l52.28-14.42Z"/><line class="cls-6" x1="590.92" y1="289.65" x2="559.18" y2="299.81"/><path class="cls-7" d="M591.07,290.11a21.88,21.88,0,0,1-6,8.65,20.51,20.51,0,0,1-7.41,4.2,21,21,0,0,1-8.47.86,22,22,0,0,1-9.88-3.56l-.3-.91c2.59-1,5.2-2,7.84-2.84l7.89-2.69,8-2.39c2.65-.83,5.33-1.57,8-2.24Z"/><line class="cls-8" x1="665.4" y1="259.61" x2="557.23" y2="267.41"/><path class="cls-5" d="M665.42,260a155.34,155.34,0,0,1-26.7,6.71c-4.46.9-9,1.33-13.44,2-4.5.5-9,.87-13.5,1.29-4.52.21-9,.52-13.55.64s-9,.2-13.59,0a157.3,157.3,0,0,1-27.39-2.8l0-.72,54.06-4.26,54.11-3.54Z"/><line class="cls-9" x1="560.02" y1="228.56" x2="666.47" y2="249.29"/><path class="cls-5" d="M560.09,228.21a154.84,154.84,0,0,1,27.53.49c4.54.31,9,1.06,13.5,1.59,4.47.69,8.91,1.51,13.37,2.28,4.41,1,8.84,1.86,13.24,2.92s8.78,2.18,13.11,3.59a157.32,157.32,0,0,1,25.7,9.86l-.13.7-53.3-10L560,228.92Z"/><line class="cls-10" x1="542.04" y1="246.22" x2="665.87" y2="255.71"/><path class="cls-5" d="M542.07,245.83a190.87,190.87,0,0,1,31.35-2.72c5.2-.21,10.37.07,15.56.1,5.17.21,10.34.55,15.5.84,5.15.52,10.31.94,15.46,1.55s10.28,1.28,15.39,2.28a190.7,190.7,0,0,1,30.57,7.45l-.06.77-61.94-4.37L542,246.6Z"/><line class="cls-11" x1="572.32" y1="200.05" x2="674.34" y2="236.83"/><path class="cls-5" d="M572.44,199.71a156,156,0,0,1,27.13,4.7c4.44,1,8.73,2.43,13.1,3.64,4.31,1.37,8.58,2.86,12.86,4.29,4.21,1.65,8.46,3.2,12.64,4.92s8.35,3.5,12.4,5.56a157.26,157.26,0,0,1,23.9,13.67l-.25.68-51.13-18L572.2,200.39Z"/><line class="cls-12" x1="574.27" y1="260.44" x2="542.2" y2="269.51"/><path class="cls-7" d="M574.4,260.9a21.79,21.79,0,0,1-6.27,8.44,20.75,20.75,0,0,1-7.54,4,21.26,21.26,0,0,1-8.5.57,22.15,22.15,0,0,1-9.76-3.89l-.26-.92c2.62-.94,5.27-1.8,7.93-2.58l8-2.42,8.06-2.11c2.67-.74,5.38-1.39,8.1-2Z"/><line class="cls-13" x1="546.77" y1="226.55" x2="578.29" y2="237.38"/><path class="cls-7" d="M546.93,226.09a21.92,21.92,0,0,1,10-3.36,20.71,20.71,0,0,1,8.45,1.07,21,21,0,0,1,7.3,4.37,22,22,0,0,1,5.8,8.76l-.31.91c-2.69-.73-5.35-1.52-8-2.41l-7.93-2.56L554.39,230c-2.62-.92-5.21-1.93-7.78-3Z"/><line class="cls-14" x1="559.98" y1="199.98" x2="591.54" y2="210.66"/><path class="cls-7" d="M560.13,199.52a21.83,21.83,0,0,1,10-3.41,20.72,20.72,0,0,1,8.45,1,21.11,21.11,0,0,1,7.33,4.34,22.17,22.17,0,0,1,5.84,8.73l-.31.91c-2.69-.71-5.36-1.49-8-2.37l-7.95-2.51-7.84-2.83c-2.62-.9-5.22-1.9-7.79-3Z"/><circle class="cls-15" cx="537.82" cy="245.71" r="9.33"/><path class="cls-7" d="M605.81,268a21.84,21.84,0,0,1-5.79-8.78,20.51,20.51,0,0,1-1.14-8.43,21.06,21.06,0,0,1,2.36-8.18,22.13,22.13,0,0,1,7-7.85l.95.07q0,4.17-.28,8.33l-.44,8.32-.77,8.3q-.33,4.16-.92,8.29Z"/><path class="cls-16" d="M242.25,615.49l-7.74,1.44c-21.65,3.51-35.39-10.39-37.66-26.12-4.86-37.37,38.34-39,38.34-39s-44.33,5.39-44.45-31.44c-.38-18.51,10.82-30.2,28.29-30.17,5.11,0,7.33.58,10.15.46-13.58-26.24-1.26-49.55,30.19-46.52,0,0,41.26,6.66,71.41,15.19s56.62,21.25,69.84,40.63c1.58,2.32,3.17,4,5.95,4.36,10.84,1.53,101.83-14.15,101.83-14.15,4.44-.23,14.54.9,18.27,3.3,26.36,17,29,41.68,3.6,60.14-2.76,2-6,3.24-13.55,4.35,0,0-91.66,6.28-101.82,10.4-2.91,1.18-3.06,3.17-4.61,5.91-12,21.32-35.38,36-58,50.35S287,656.54,287,656.54C244.82,664.92,230.81,636.44,242.25,615.49Z"/><line class="cls-17" x1="399.98" y1="521.26" x2="294.58" y2="495.73"/><path class="cls-5" d="M400.07,520.91a155.6,155.6,0,0,0-25.23-11c-4.26-1.61-8.63-2.78-12.94-4.18-4.35-1.23-8.73-2.34-13.1-3.5-4.42-.95-8.81-2-13.25-2.86s-8.89-1.69-13.42-2.2a158,158,0,0,0-27.47-1.76l-.17.7,52.62,13.11,52.79,12.42Z"/><line class="cls-18" x1="317.81" y1="504.51" x2="285.71" y2="495.57"/><path class="cls-7" d="M317.94,504.05a21.94,21.94,0,0,0-6.3-8.42,20.57,20.57,0,0,0-7.56-3.91,20.92,20.92,0,0,0-8.5-.54,22.07,22.07,0,0,0-9.75,3.93l-.25.92q3.93,1.39,7.94,2.54l8,2.39,8.07,2.08c2.68.73,5.39,1.37,8.11,1.93Z"/><line class="cls-19" x1="393.38" y1="531.7" x2="284.99" y2="528.01"/><path class="cls-5" d="M393.39,531.34a154.75,154.75,0,0,0-26.94-5.7c-4.49-.72-9-1-13.51-1.48-4.51-.33-9-.53-13.54-.78-4.52,0-9-.17-13.56-.12s-9,.15-13.58.56A157.46,157.46,0,0,0,285,527.65l0,.72,54.19,2.2,54.2,1.49Z"/><line class="cls-20" x1="289.26" y1="566.73" x2="394.84" y2="541.97"/><path class="cls-5" d="M289.34,567.08a155.5,155.5,0,0,0,27.49-1.54c4.53-.48,8.95-1.4,13.43-2.1,4.44-.86,8.85-1.85,13.27-2.78,4.37-1.15,8.77-2.2,13.12-3.43s8.7-2.51,13-4.09a157.41,157.41,0,0,0,25.31-10.82l-.17-.71-52.87,12-52.71,12.73Z"/><line class="cls-21" x1="270.62" y1="549.77" x2="394" y2="535.57"/><path class="cls-5" d="M270.66,550.15a189.12,189.12,0,0,0,31.43,1.53c5.21,0,10.36-.46,15.55-.69,5.16-.4,10.31-1,15.46-1.43,5.13-.72,10.26-1.33,15.38-2.13s10.23-1.67,15.3-2.87A192.24,192.24,0,0,0,394,536l-.09-.77-61.73,6.72-61.65,7.48Z"/><line class="cls-22" x1="302.63" y1="594.76" x2="403.18" y2="554.12"/><path class="cls-5" d="M302.77,595.09a155,155,0,0,0,26.93-5.73c4.4-1.17,8.63-2.76,12.95-4.13,4.25-1.54,8.46-3.19,12.69-4.79,4.14-1.8,8.32-3.51,12.44-5.39s8.21-3.81,12.18-6a156.47,156.47,0,0,0,23.36-14.57l-.27-.67-50.41,20L302.5,594.42Z"/><line class="cls-23" x1="302.28" y1="534.34" x2="269.89" y2="526.49"/><path class="cls-7" d="M302.4,533.87a21.93,21.93,0,0,0-6.59-8.2,20.58,20.58,0,0,0-7.69-3.65,20.9,20.9,0,0,0-8.51-.25A22.09,22.09,0,0,0,270,526l-.23.93c2.66.83,5.33,1.6,8,2.27l8.06,2.12,8.14,1.8c2.7.64,5.43,1.18,8.17,1.65Z"/><line class="cls-24" x1="276.09" y1="569.25" x2="307.17" y2="557.22"/><path class="cls-7" d="M276.26,569.69a21.87,21.87,0,0,0,10.09,3,20.43,20.43,0,0,0,8.4-1.38,20.85,20.85,0,0,0,7.13-4.65,22,22,0,0,0,5.47-9l-.35-.9q-4,1.25-7.89,2.71l-7.82,2.86-7.72,3.15c-2.58,1-5.13,2.13-7.65,3.31Z"/><line class="cls-25" x1="290.3" y1="595.3" x2="321.44" y2="583.42"/><path class="cls-7" d="M290.47,595.75a21.87,21.87,0,0,0,10.07,3,20.47,20.47,0,0,0,8.41-1.34,20.75,20.75,0,0,0,7.15-4.61,22,22,0,0,0,5.51-9l-.34-.89c-2.66.81-5.3,1.69-7.9,2.67l-7.84,2.81-7.73,3.12c-2.59,1-5.14,2.1-7.67,3.27Z"/><circle class="cls-15" cx="266.42" cy="550.44" r="9.33"/><path class="cls-7" d="M333.52,525.59a21.77,21.77,0,0,0-5.46,9,20.47,20.47,0,0,0-.82,8.47,21.06,21.06,0,0,0,2.68,8.09,22,22,0,0,0,7.27,7.57l1-.1c-.12-2.78-.32-5.56-.61-8.32l-.76-8.3-1.07-8.26c-.33-2.76-.75-5.51-1.24-8.25Z"/></g></svg>