<svg xmlns="http://www.w3.org/2000/svg" xmlns:xlink="http://www.w3.org/1999/xlink" viewBox="0 0 1080 1080"><defs><style>.cls-1{fill:url(#linear-gradient);}.cls-2{fill:url(#linear-gradient-2);}.cls-3{fill:url(#radial-gradient);}.cls-4{fill:url(#linear-gradient-3);}.cls-5{fill:#f9ad42;}.cls-6{fill:url(#linear-gradient-4);}.cls-7{fill:#ee4037;}.cls-8{fill:url(#linear-gradient-5);}.cls-9{fill:url(#linear-gradient-6);}.cls-10{fill:url(#linear-gradient-7);}.cls-11{fill:url(#linear-gradient-8);}.cls-12{fill:url(#linear-gradient-9);}.cls-13{fill:url(#linear-gradient-10);}.cls-14{fill:url(#linear-gradient-11);}.cls-15{fill:#8ac340;}.cls-16{fill:url(#radial-gradient-2);}.cls-17{fill:url(#linear-gradient-12);}.cls-18{fill:url(#linear-gradient-13);}.cls-19{fill:url(#linear-gradient-14);}.cls-20{fill:url(#linear-gradient-15);}.cls-21{fill:url(#linear-gradient-16);}.cls-22{fill:url(#linear-gradient-17);}.cls-23{fill:url(#linear-gradient-18);}.cls-24{fill:url(#linear-gradient-19);}.cls-25{fill:url(#linear-gradient-20);}</style><linearGradient id="linear-gradient" x1="4159.57" y1="3425.38" x2="4412.25" y2="3425.38" gradientTransform="matrix(1.13, -0.2, -0.01, -1.15, -4621.34, 4895.87)" gradientUnits="userSpaceOnUse"><stop offset="0" stop-color="#f29022"/><stop offset="0.99" stop-color="#bb2030"/></linearGradient><linearGradient id="linear-gradient-2" x1="-221.84" y1="-980.41" x2="30.84" y2="-980.41" gradientTransform="matrix(0.02, 1.15, -1.13, 0.21, -968.09, 521.55)" xlink:href="#linear-gradient"/><radialGradient id="radial-gradient" cx="3196.2" cy="1450.49" r="148.23" gradientTransform="translate(-983.23 3316.99) rotate(-89.95)" gradientUnits="userSpaceOnUse"><stop offset="0" stop-color="#ee4037"/><stop offset="0.38" stop-color="#ef6727"/><stop offset="0.49" stop-color="#f07126"/><stop offset="0.8" stop-color="#f38822"/><stop offset="1" stop-color="#f49021"/></radialGradient><linearGradient id="linear-gradient-3" x1="2284.95" y1="2573.63" x2="2298.45" y2="2573.63" gradientTransform="translate(-734.01 3388.18) rotate(-118.12)" gradientUnits="userSpaceOnUse"><stop offset="0" stop-color="#36b04a"/><stop offset="1" stop-color="#019147"/></linearGradient><linearGradient id="linear-gradient-4" x1="1628.96" y1="7266.5" x2="1642.46" y2="7266.5" gradientTransform="matrix(-0.42, -0.9, 0.23, -0.23, -587.26, 3334.38)" xlink:href="#linear-gradient-3"/><linearGradient id="linear-gradient-5" x1="2297.05" y1="2573.63" x2="2332.03" y2="2573.63" xlink:href="#linear-gradient-3"/><linearGradient id="linear-gradient-6" x1="2306.13" y1="2584.99" x2="2366.72" y2="2584.99" xlink:href="#linear-gradient-3"/><linearGradient id="linear-gradient-7" x1="2108.74" y1="2626.97" x2="2169.32" y2="2626.97" gradientTransform="matrix(-0.65, -0.82, 0.94, -0.57, -645.17, 3378.98)" xlink:href="#linear-gradient-3"/><linearGradient id="linear-gradient-8" x1="2314.54" y1="2602.26" x2="2388.18" y2="2602.26" xlink:href="#linear-gradient-3"/><linearGradient id="linear-gradient-9" x1="1759.62" y1="7049.35" x2="1773.12" y2="7049.35" gradientTransform="matrix(-0.39, -0.91, 0.24, -0.23, -610.5, 3340.83)" xlink:href="#linear-gradient-3"/><linearGradient id="linear-gradient-10" x1="-1786.2" y1="-1759.86" x2="-1772.71" y2="-1759.86" gradientTransform="matrix(-0.2, 0.97, -0.33, 0.05, -534.81, 1922.48)" xlink:href="#linear-gradient-3"/><linearGradient id="linear-gradient-11" x1="-1804.73" y1="-1824.43" x2="-1791.23" y2="-1824.43" gradientTransform="matrix(-0.19, 0.97, -0.33, 0.05, -539.7, 1920.55)" xlink:href="#linear-gradient-3"/><radialGradient id="radial-gradient-2" cx="-3304.34" cy="2840.46" r="148.23" gradientTransform="matrix(0.22, 0.98, 0.98, -0.22, -1833.55, 4226.3)" xlink:href="#radial-gradient"/><linearGradient id="linear-gradient-12" x1="-4101.54" y1="729.22" x2="-4088.04" y2="729.22" gradientTransform="matrix(-0.27, 0.96, 0.96, 0.27, -1605.74, 4102.68)" xlink:href="#linear-gradient-3"/><linearGradient id="linear-gradient-13" x1="-4338.3" y1="2392.61" x2="-4324.81" y2="2392.61" gradientTransform="matrix(-0.22, 0.97, 0.28, 0.18, -1450.82, 4123.32)" xlink:href="#linear-gradient-3"/><linearGradient id="linear-gradient-14" x1="-4089.43" y1="729.22" x2="-4054.46" y2="729.22" gradientTransform="matrix(-0.27, 0.96, 0.96, 0.27, -1605.74, 4102.68)" xlink:href="#linear-gradient-3"/><linearGradient id="linear-gradient-15" x1="-4080.35" y1="740.58" x2="-4019.77" y2="740.58" gradientTransform="matrix(-0.27, 0.96, 0.96, 0.27, -1605.74, 4102.68)" xlink:href="#linear-gradient-3"/><linearGradient id="linear-gradient-16" x1="-3930.25" y1="-79.08" x2="-3869.67" y2="-79.08" gradientTransform="matrix(-0.46, 0.94, 1.04, 0.35, -1517.03, 4092.37)" xlink:href="#linear-gradient-3"/><linearGradient id="linear-gradient-17" x1="-4071.95" y1="757.86" x2="-3998.3" y2="757.86" gradientTransform="matrix(-0.27, 0.96, 0.96, 0.27, -1605.74, 4102.68)" xlink:href="#linear-gradient-3"/><linearGradient id="linear-gradient-18" x1="-4336.44" y1="2889.21" x2="-4322.95" y2="2889.21" gradientTransform="matrix(-0.18, 0.98, 0.28, 0.17, -1474.9, 4122.07)" xlink:href="#linear-gradient-3"/><linearGradient id="linear-gradient-19" x1="5323.68" y1="-10358.58" x2="5337.18" y2="-10358.58" gradientTransform="matrix(-0.41, -0.91, -0.33, 0.02, -1092.92, 5490.11)" xlink:href="#linear-gradient-3"/><linearGradient id="linear-gradient-20" x1="5307.28" y1="-10326.06" x2="5320.77" y2="-10326.06" gradientTransform="matrix(-0.4, -0.91, -0.33, 0.02, -1097.28, 5493.06)" xlink:href="#linear-gradient-3"/></defs><g id="_16" data-name="16"><path class="cls-1" d="M327.78,99.7,346,195s-18.55,6.92-66.31,1.52C227.51,190.63,63.12,77.83,63.09,77.78,55,63,61.43,54.62,77.6,52.05,77.6,52.05,181.86,171.27,327.78,99.7Z"/><path class="cls-2" d="M134,331.66l97-.21s3.28-19.52-11.08-65.4C204.28,216,62.37,75.94,62.31,75.92c-16-5.1-23.05,2.76-22.52,19.12C39.79,95,176.61,174.82,134,331.66Z"/><path class="cls-3" d="M337.63,61.25l-7.87-.44c-21.92-.7-33.77,14.85-34,30.74,0,37.68,43,33.78,43,33.78s-44.65.34-40,36.88c2,18.4,14.6,28.56,31.92,26.29,5.07-.66,7.19-1.51,10-1.76-10.1,27.77,5.1,49.31,35.9,42.27,0,0,40.07-11.89,68.87-24.21s53.43-28.34,64.06-49.25c1.27-2.5,2.63-4.34,5.34-5.09,10.56-2.9,102.81,1,102.81,1,4.43-.33,14.3-2.74,17.7-5.61,24-20.22,23.41-45.05-4.15-60.11-3-1.63-6.36-2.43-14-2.57,0,0-91.71,5.52-102.31,2.74-3-.8-3.44-2.75-5.33-5.27-14.68-19.61-39.7-31.17-64-42.51s-68.82-23.3-68.82-23.3C333.83,11.9,323.59,41.94,337.63,61.25Z"/><line class="cls-4" x1="506.13" y1="134.49" x2="404.86" y2="173.32"/><path class="cls-5" d="M506.26,134.83A156.74,156.74,0,0,1,482.65,149c-4,2.15-8.2,3.86-12.29,5.8-4.16,1.78-8.36,3.44-12.55,5.15-4.26,1.51-8.48,3.11-12.77,4.54s-8.61,2.81-13,3.9a157.69,157.69,0,0,1-27,5.26l-.26-.67,50.51-19.75L506,134.16Z"/><line class="cls-6" x1="426.78" y1="161.63" x2="396.09" y2="174.61"/><path class="cls-7" d="M427,162.08a21.9,21.9,0,0,1-5.17,9.15,20.65,20.65,0,0,1-7,4.85,21.09,21.09,0,0,1-8.36,1.62,22.05,22.05,0,0,1-10.17-2.64l-.37-.89c2.49-1.25,5-2.44,7.55-3.54l7.61-3.39,7.74-3.1q3.84-1.59,7.8-2.95Z"/><line class="cls-8" x1="498.24" y1="124.99" x2="391.22" y2="142.53"/><path class="cls-5" d="M498.3,125.34a155.59,155.59,0,0,1-26,9.1c-4.36,1.29-8.8,2.13-13.21,3.2-4.43.9-8.88,1.68-13.32,2.51-4.48.61-8.95,1.33-13.44,1.86s-9,1-13.54,1.19a157.53,157.53,0,0,1-27.53-.32l-.11-.71,53.45-9.12,53.57-8.42Z"/><line class="cls-9" x1="390.49" y1="103.58" x2="498.38" y2="114.61"/><path class="cls-5" d="M390.53,103.23a154.89,154.89,0,0,1,27.45-2c4.56-.11,9.06.24,13.59.36,4.52.29,9,.7,13.52,1.06,4.49.58,9,1.06,13.46,1.72s8.94,1.37,13.38,2.39a158.88,158.88,0,0,1,26.49,7.49l-.08.72-54-5.16-53.91-5.87Z"/><line class="cls-10" x1="374.18" y1="122.79" x2="498.36" y2="121.06"/><path class="cls-5" d="M374.17,122.41a190.41,190.41,0,0,1,31-5.55c5.17-.68,10.34-.87,15.51-1.3,5.17-.26,10.35-.39,15.52-.57,5.18.06,10.35,0,15.53.15s10.35.35,15.54.88a191.23,191.23,0,0,1,31.11,4.66v.77l-62.08,1.25-62.1.48Z"/><line class="cls-11" x1="400.16" y1="74.07" x2="505.09" y2="101.49"/><path class="cls-5" d="M400.25,73.73A154.47,154.47,0,0,1,427.69,76c4.52.59,8.92,1.63,13.38,2.44,4.41,1,8.8,2.07,13.2,3.12,4.34,1.25,8.7,2.41,13,3.75s8.62,2.73,12.85,4.42a156.18,156.18,0,0,1,25,11.46l-.18.69L452.45,88.48,400.07,74.42Z"/><line class="cls-12" x1="407.56" y1="134.04" x2="376.44" y2="145.97"/><path class="cls-7" d="M407.73,134.49a21.85,21.85,0,0,1-5.48,9,20.53,20.53,0,0,1-7.16,4.6,21,21,0,0,1-8.41,1.34,22.16,22.16,0,0,1-10.07-3l-.34-.9c2.53-1.16,5.08-2.26,7.67-3.28l7.72-3.13,7.83-2.83c2.6-1,5.24-1.87,7.9-2.69Z"/><line class="cls-13" x1="377.11" y1="102.78" x2="409.48" y2="110.72"/><path class="cls-7" d="M377.22,102.31a21.9,21.9,0,0,1,9.63-4.25,20.49,20.49,0,0,1,8.5.3,20.86,20.86,0,0,1,7.67,3.7,22,22,0,0,1,6.57,8.19l-.23.94q-4.11-.72-8.17-1.68l-8.13-1.83L385,105.54q-4-1-8-2.3Z"/><line class="cls-14" x1="387.86" y1="75.12" x2="420.27" y2="82.9"/><path class="cls-7" d="M388,74.65a21.93,21.93,0,0,1,9.6-4.29,20.56,20.56,0,0,1,8.51.25,21.07,21.07,0,0,1,7.69,3.66,22,22,0,0,1,6.61,8.17l-.23.93c-2.74-.47-5.47-1-8.17-1.64l-8.14-1.79-8.06-2.1c-2.7-.66-5.37-1.42-8-2.25Z"/><circle class="cls-15" cx="369.93" cy="122.67" r="9.33"/><path class="cls-7" d="M439.66,138.71a21.87,21.87,0,0,1-6.57-8.21,20.44,20.44,0,0,1-1.89-8.3,21,21,0,0,1,1.61-8.36,22.15,22.15,0,0,1,6.25-8.45l1,0c.23,2.78.4,5.55.46,8.33l.31,8.33v8.33c0,2.78,0,5.56-.16,8.34Z"/><path class="cls-16" d="M101.42,470.19l-7.58,2.14c-21.25,5.45-36.19-7.16-39.87-22.62-8.22-36.77,34.66-42.32,34.66-42.32S45,416.76,41.52,380.09c-2.05-18.4,8-31,25.45-32.6,5.09-.45,7.35-.08,10.15-.45C61.22,322.13,71.39,297.8,103,298c0,0,41.69,2.9,72.49,8.67s58.31,16.06,73.22,34.16c1.79,2.17,3.52,3.67,6.32,3.81,10.94.54,100.14-23.29,100.14-23.29,4.4-.64,14.56-.43,18.5,1.63,27.78,14.53,32.63,38.89,9,59.57-2.56,2.25-5.68,3.77-13.1,5.55,0,0-90.72,14.54-100.46,19.56-2.8,1.44-2.77,3.43-4.06,6.3-10.07,22.32-32,39.05-53.21,55.38S149.71,507,149.71,507C108.43,519.19,91.91,492.09,101.42,470.19Z"/><line class="cls-17" x1="249.99" y1="362.1" x2="142.71" y2="346.2"/><path class="cls-5" d="M250,361.74a155.12,155.12,0,0,0-26.12-8.7c-4.39-1.23-8.84-2-13.26-3-4.44-.83-8.91-1.54-13.36-2.3-4.49-.55-9-1.19-13.46-1.66s-9-.87-13.56-1a156.91,156.91,0,0,0-27.52.73l-.11.71,53.59,8.31,53.69,7.59Z"/><line class="cls-18" x1="166.64" y1="352.84" x2="133.86" y2="346.84"/><path class="cls-7" d="M166.73,352.37a21.92,21.92,0,0,0-7-7.82,20.8,20.8,0,0,0-7.88-3.21,21,21,0,0,0-8.52.23,22.14,22.14,0,0,0-9.34,4.79l-.18.95c2.7.68,5.41,1.29,8.14,1.81l8.17,1.66,8.22,1.34c2.74.49,5.49.88,8.25,1.19Z"/><line class="cls-19" x1="244.35" y1="373.09" x2="136.07" y2="379.21"/><path class="cls-5" d="M244.33,372.73A156.45,156.45,0,0,0,217,369.49c-4.54-.31-9.06-.17-13.59-.25-4.52.08-9,.29-13.55.44-4.51.38-9,.65-13.52,1.11s-9,1-13.48,1.78a157.4,157.4,0,0,0-26.8,6.28l0,.72,54.16-2.7,54.12-3.42Z"/><line class="cls-20" x1="143.82" y1="417.39" x2="246.74" y2="383.18"/><path class="cls-5" d="M143.94,417.73a155.32,155.32,0,0,0,27.23-4c4.47-.88,8.79-2.21,13.19-3.31,4.34-1.26,8.65-2.64,13-4,4.25-1.53,8.53-3,12.75-4.59s8.44-3.29,12.55-5.25a157.51,157.51,0,0,0,24.23-13.06l-.23-.69L195.06,399.6,143.71,417Z"/><line class="cls-21" x1="123.73" y1="402.18" x2="245.32" y2="376.89"/><path class="cls-5" d="M123.81,402.56a189.5,189.5,0,0,0,31.43-1.32c5.19-.46,10.28-1.4,15.43-2.09,5.1-.87,10.18-1.88,15.27-2.83,5-1.17,10.1-2.25,15.12-3.51s10-2.59,15-4.23a192,192,0,0,0,29.36-11.31l-.16-.75-60.87,12.26-60.72,13Z"/><line class="cls-22" x1="159.68" y1="444.09" x2="256.14" y2="394.53"/><path class="cls-5" d="M159.84,444.41a155.67,155.67,0,0,0,26.3-8.14c4.28-1.56,8.35-3.53,12.52-5.29,4.1-1.91,8.15-3.93,12.21-5.91,4-2.17,8-4.25,11.9-6.49s7.83-4.54,11.6-7.1a157.94,157.94,0,0,0,21.94-16.63l-.33-.64-48.4,24.46-48.07,25.1Z"/><line class="cls-23" x1="153.87" y1="383.95" x2="120.9" y2="379.06"/><path class="cls-7" d="M153.94,383.47a21.89,21.89,0,0,0-7.3-7.57,20.55,20.55,0,0,0-8-2.94,20.94,20.94,0,0,0-8.5.52,22,22,0,0,0-9.18,5.11l-.14,1c2.72.59,5.45,1.11,8.2,1.53l8.22,1.38,8.26,1.07c2.75.39,5.52.68,8.29.9Z"/><line class="cls-24" x1="130.94" y1="421.08" x2="160.81" y2="406.3"/><path class="cls-7" d="M131.15,421.51a21.89,21.89,0,0,0,10.32,2.06,20.55,20.55,0,0,0,8.24-2.14,21,21,0,0,0,6.68-5.28,22,22,0,0,0,4.63-9.42l-.43-.86c-2.57,1.06-5.11,2.19-7.6,3.41l-7.54,3.55-7.4,3.84q-3.72,1.88-7.32,4Z"/><line class="cls-25" x1="147.44" y1="445.74" x2="177.38" y2="431.1"/><path class="cls-7" d="M147.65,446.17A21.82,21.82,0,0,0,158,448.28a20.56,20.56,0,0,0,8.25-2.1,20.84,20.84,0,0,0,6.71-5.24,22.08,22.08,0,0,0,4.67-9.4l-.42-.87c-2.58,1.05-5.12,2.17-7.62,3.38L162,437.56l-7.41,3.8q-3.74,1.86-7.35,3.95Z"/><circle class="cls-15" cx="119.61" cy="403.22" r="9.33"/><path class="cls-7" d="M184.19,372.42a21.86,21.86,0,0,0-4.63,9.44,20.52,20.52,0,0,0,0,8.51,20.88,20.88,0,0,0,3.39,7.81,22,22,0,0,0,7.93,6.89l.94-.19q-.56-4.14-1.35-8.23l-1.51-8.19-1.82-8.14c-.57-2.71-1.24-5.41-2-8.1Z"/></g></svg>