<svg xmlns="http://www.w3.org/2000/svg" xmlns:xlink="http://www.w3.org/1999/xlink" viewBox="0 0 1080 1080"><defs><style>.cls-1{fill:url(#linear-gradient);}.cls-2{fill:url(#linear-gradient-2);}.cls-3{fill:url(#radial-gradient);}.cls-4{fill:url(#linear-gradient-3);}.cls-5{fill:#f9ad42;}.cls-6{fill:url(#linear-gradient-4);}.cls-7{fill:#ee4037;}.cls-8{fill:url(#linear-gradient-5);}.cls-9{fill:url(#linear-gradient-6);}.cls-10{fill:url(#linear-gradient-7);}.cls-11{fill:url(#linear-gradient-8);}.cls-12{fill:url(#linear-gradient-9);}.cls-13{fill:url(#linear-gradient-10);}.cls-14{fill:url(#linear-gradient-11);}.cls-15{fill:#8ac340;}.cls-16{fill:url(#radial-gradient-2);}.cls-17{fill:url(#linear-gradient-12);}.cls-18{fill:url(#linear-gradient-13);}.cls-19{fill:url(#linear-gradient-14);}.cls-20{fill:url(#linear-gradient-15);}.cls-21{fill:url(#linear-gradient-16);}.cls-22{fill:url(#linear-gradient-17);}.cls-23{fill:url(#linear-gradient-18);}.cls-24{fill:url(#linear-gradient-19);}.cls-25{fill:url(#linear-gradient-20);}</style><linearGradient id="linear-gradient" x1="3417.82" y1="884.44" x2="3909.4" y2="884.44" gradientTransform="matrix(1.12, -0.26, -0.07, -1.15, -3675.95, 2213.08)" gradientUnits="userSpaceOnUse"><stop offset="0" stop-color="#f29022"/><stop offset="0.99" stop-color="#bb2030"/></linearGradient><linearGradient id="linear-gradient-2" x1="491.89" y1="-1836.87" x2="1014.68" y2="-1836.87" gradientTransform="matrix(0.01, 1.15, -1.13, 0.2, -1812.82, -164.91)" xlink:href="#linear-gradient"/><radialGradient id="radial-gradient" cx="2748.53" cy="1331.47" r="148.23" gradientTransform="translate(-1119.72 2765) rotate(-77.71)" gradientUnits="userSpaceOnUse"><stop offset="0" stop-color="#ee4037"/><stop offset="0.38" stop-color="#ef6727"/><stop offset="0.49" stop-color="#f07126"/><stop offset="0.8" stop-color="#f38822"/><stop offset="1" stop-color="#f49021"/></radialGradient><linearGradient id="linear-gradient-3" x1="1946.54" y1="2257.31" x2="1960.03" y2="2257.31" gradientTransform="translate(-891.25 2887.41) rotate(-105.88)" gradientUnits="userSpaceOnUse"><stop offset="0" stop-color="#36b04a"/><stop offset="1" stop-color="#019147"/></linearGradient><linearGradient id="linear-gradient-4" x1="1381.25" y1="6302.91" x2="1394.75" y2="6302.91" gradientTransform="matrix(-0.22, -0.97, 0.28, -0.18, -736.44, 2865.95)" xlink:href="#linear-gradient-3"/><linearGradient id="linear-gradient-5" x1="1958.64" y1="2257.31" x2="1993.62" y2="2257.31" xlink:href="#linear-gradient-3"/><linearGradient id="linear-gradient-6" x1="1967.72" y1="2268.68" x2="2028.31" y2="2268.68" xlink:href="#linear-gradient-3"/><linearGradient id="linear-gradient-7" x1="1800.25" y1="2286.88" x2="1860.83" y2="2286.88" gradientTransform="matrix(-0.46, -0.94, 1.04, -0.36, -802.48, 2897.26)" xlink:href="#linear-gradient-3"/><linearGradient id="linear-gradient-8" x1="1976.13" y1="2285.95" x2="2049.77" y2="2285.95" xlink:href="#linear-gradient-3"/><linearGradient id="linear-gradient-9" x1="1497.43" y1="6125.24" x2="1510.93" y2="6125.24" gradientTransform="matrix(-0.19, -0.97, 0.28, -0.17, -760.51, 2867.32)" xlink:href="#linear-gradient-3"/><linearGradient id="linear-gradient-10" x1="-1330.45" y1="-1672.13" x2="-1316.95" y2="-1672.13" gradientTransform="matrix(-0.4, 0.91, -0.33, -0.02, -385.83, 1497.27)" xlink:href="#linear-gradient-3"/><linearGradient id="linear-gradient-11" x1="-1349.95" y1="-1729.34" x2="-1336.45" y2="-1729.34" gradientTransform="matrix(-0.4, 0.91, -0.33, -0.02, -390.2, 1494.34)" xlink:href="#linear-gradient-3"/><radialGradient id="radial-gradient-2" cx="-2810.04" cy="2636.09" r="148.23" gradientTransform="matrix(0.01, 1, 1, -0.01, -2143.5, 3473.36)" xlink:href="#radial-gradient"/><linearGradient id="linear-gradient-12" x1="-3569.31" y1="782.49" x2="-3555.81" y2="782.49" gradientTransform="matrix(-0.47, 0.88, 0.88, 0.47, -1894.66, 3400.85)" xlink:href="#linear-gradient-3"/><linearGradient id="linear-gradient-13" x1="-3809.54" y1="2474.69" x2="-3796.04" y2="2474.69" gradientTransform="matrix(-0.42, 0.9, 0.23, 0.23, -1747.63, 3453.86)" xlink:href="#linear-gradient-3"/><linearGradient id="linear-gradient-14" x1="-3557.2" y1="782.49" x2="-3522.23" y2="782.49" gradientTransform="matrix(-0.47, 0.88, 0.88, 0.47, -1894.66, 3400.85)" xlink:href="#linear-gradient-3"/><linearGradient id="linear-gradient-15" x1="-3548.12" y1="793.86" x2="-3487.54" y2="793.86" gradientTransform="matrix(-0.47, 0.88, 0.88, 0.47, -1894.66, 3400.85)" xlink:href="#linear-gradient-3"/><linearGradient id="linear-gradient-16" x1="-3421.69" y1="56.05" x2="-3361.11" y2="56.05" gradientTransform="matrix(-0.65, 0.82, 0.94, 0.57, -1805.77, 3409.58)" xlink:href="#linear-gradient-3"/><linearGradient id="linear-gradient-17" x1="-3539.71" y1="811.13" x2="-3466.07" y2="811.13" gradientTransform="matrix(-0.47, 0.88, 0.88, 0.47, -1894.66, 3400.85)" xlink:href="#linear-gradient-3"/><linearGradient id="linear-gradient-18" x1="-3800.46" y1="2912.58" x2="-3786.97" y2="2912.58" gradientTransform="matrix(-0.39, 0.91, 0.24, 0.22, -1770.9, 3447.54)" xlink:href="#linear-gradient-3"/><linearGradient id="linear-gradient-19" x1="4767.47" y1="-9392.32" x2="4780.96" y2="-9392.32" gradientTransform="matrix(-0.2, -0.97, -0.33, -0.05, -1687.65, 4865.47)" xlink:href="#linear-gradient-3"/><linearGradient id="linear-gradient-20" x1="4750.39" y1="-9366.87" x2="4763.88" y2="-9366.87" gradientTransform="matrix(-0.2, -0.97, -0.33, -0.05, -1692.54, 4867.43)" xlink:href="#linear-gradient-3"/></defs><g id="_18" data-name="18"><path class="cls-1" d="M615.71,295l22.34,122s-18.1,8-66.1,5.48C519.54,419.69,62.48,77.14,62.45,77.09c-8.92-14.27-3-23,12.94-26.56C75.39,50.53,474.33,375.13,615.71,295Z"/><path class="cls-2" d="M373.14,601.92,497,594.84s3.52-19.48-10.27-65.53C471.65,479,63.6,74.15,63.54,74.13c-16-5.3-23.09,2.47-22.75,18.84C40.79,93,417.67,445.61,373.14,601.92Z"/><path class="cls-3" d="M649.76,275.39l-7.59-2.1C620.9,268,606,280.64,602.43,296.12c-8,36.81,34.88,42.14,34.88,42.14s-43.71-9.15-47,27.54c-1.94,18.41,8.22,31,25.63,32.47,5.1.42,7.35,0,10.15.4-15.76,25-5.46,49.27,26.13,48.92,0,0,41.67-3.13,72.44-9.06s58.22-16.37,73-34.55c1.77-2.18,3.49-3.69,6.3-3.84,10.93-.6,100.26,22.76,100.26,22.76,4.4.61,14.56.34,18.48-1.74,27.71-14.68,32.43-39.06,8.7-59.62-2.57-2.23-5.71-3.73-13.13-5.47,0,0-90.79-14.06-100.56-19-2.81-1.42-2.79-3.41-4.1-6.27-10.18-22.28-32.19-38.88-53.5-55.1s-62.32-37.38-62.32-37.38C656.52,226.35,640.14,253.53,649.76,275.39Z"/><line class="cls-4" x1="798.91" y1="382.69" x2="691.71" y2="399.16"/><path class="cls-5" d="M799,383a154.94,154.94,0,0,1-26.07,8.84c-4.38,1.25-8.83,2.05-13.25,3.07-4.44.86-8.9,1.59-13.35,2.38-4.48.57-8.95,1.23-13.45,1.72s-9,.92-13.55,1.05a156.73,156.73,0,0,1-27.52-.59l-.11-.71,53.54-8.59,53.65-7.88Z"/><line class="cls-6" x1="715.61" y1="392.39" x2="682.86" y2="398.57"/><path class="cls-7" d="M715.7,392.86a21.79,21.79,0,0,1-7,7.85,20.61,20.61,0,0,1-7.86,3.26,21.17,21.17,0,0,1-8.52-.19A22.18,22.18,0,0,1,683,399l-.18-1c2.7-.69,5.4-1.32,8.13-1.85l8.16-1.71,8.21-1.38c2.74-.5,5.49-.9,8.25-1.23Z"/><line class="cls-8" x1="793.21" y1="371.72" x2="684.9" y2="366.18"/><path class="cls-5" d="M793.19,372.08a154.57,154.57,0,0,1-27.32,3.39c-4.54.34-9.06.21-13.59.32-4.52-.05-9-.24-13.55-.37-4.51-.35-9-.6-13.53-1s-9-.92-13.48-1.71a157.56,157.56,0,0,1-26.84-6.14l0-.72,54.17,2.41,54.14,3.14Z"/><line class="cls-9" x1="692.45" y1="327.96" x2="795.55" y2="361.62"/><path class="cls-5" d="M692.56,327.62a155.7,155.7,0,0,1,27.26,3.87c4.47.86,8.8,2.16,13.2,3.24,4.35,1.24,8.66,2.59,13,3.9,4.26,1.52,8.55,2.94,12.78,4.53s8.45,3.24,12.57,5.18a156.12,156.12,0,0,1,24.3,12.94l-.22.68-51.66-16.49-51.44-17.16Z"/><line class="cls-10" x1="672.43" y1="343.28" x2="794.16" y2="367.91"/><path class="cls-5" d="M672.51,342.9A189.88,189.88,0,0,1,704,344.05c5.19.43,10.28,1.34,15.43,2,5.11.84,10.19,1.82,15.28,2.74,5.05,1.15,10.12,2.2,15.15,3.44s10,2.53,15,4.15a191.17,191.17,0,0,1,29.42,11.15l-.16.75-60.93-11.94-60.79-12.69Z"/><line class="cls-11" x1="708.16" y1="301.18" x2="804.89" y2="350.22"/><path class="cls-5" d="M708.32,300.86a155.87,155.87,0,0,1,26.35,8c4.28,1.54,8.36,3.49,12.55,5.23s8.16,3.88,12.23,5.84c4,2.15,8,4.21,11.94,6.43s7.86,4.5,11.63,7a156.42,156.42,0,0,1,22,16.51l-.32.64-48.53-24.2L708,301.5Z"/><line class="cls-12" x1="702.68" y1="361.35" x2="669.73" y2="366.41"/><path class="cls-7" d="M702.75,361.82a21.8,21.8,0,0,1-7.26,7.61,20.62,20.62,0,0,1-8,3,21.12,21.12,0,0,1-8.51-.48,22.11,22.11,0,0,1-9.2-5.06l-.15-.94q4.08-.92,8.19-1.58l8.21-1.43,8.26-1.11c2.75-.4,5.51-.71,8.28-.95Z"/><line class="cls-13" x1="679.55" y1="324.34" x2="709.49" y2="338.96"/><path class="cls-7" d="M679.76,323.91a21.76,21.76,0,0,1,10.3-2.11,20.56,20.56,0,0,1,8.25,2.09,20.84,20.84,0,0,1,6.71,5.24,22,22,0,0,1,4.68,9.4l-.42.87c-2.58-1.06-5.12-2.17-7.63-3.38l-7.55-3.51-7.42-3.8c-2.49-1.23-4.93-2.55-7.35-3.94Z"/><line class="cls-14" x1="695.92" y1="299.59" x2="725.93" y2="314.07"/><path class="cls-7" d="M696.12,299.16a21.76,21.76,0,0,1,10.3-2.16,20.45,20.45,0,0,1,8.26,2.05,21,21,0,0,1,6.74,5.2,22.11,22.11,0,0,1,4.72,9.39l-.41.86c-2.59-1-5.14-2.14-7.65-3.33l-7.57-3.48-7.44-3.76c-2.49-1.22-4.94-2.53-7.36-3.91Z"/><circle class="cls-15" cx="668.31" cy="342.26" r="9.33"/><path class="cls-7" d="M733.05,372.72a22,22,0,0,1-4.68-9.42A20.73,20.73,0,0,1,731.64,347a22,22,0,0,1,7.89-6.93l.94.18c-.36,2.76-.78,5.51-1.31,8.24l-1.46,8.2-1.77,8.14c-.56,2.73-1.21,5.43-1.94,8.12Z"/><path class="cls-16" d="M342.58,708.47l-7.86.48c-21.92.82-33.85-14.67-34.16-30.55-.24-37.68,42.84-34,42.84-34s-44.66-.09-40.25-36.66c1.9-18.41,14.45-28.64,31.78-26.46,5.07.63,7.2,1.47,10,1.7-10.26-27.71,4.84-49.33,35.67-42.46,0,0,40.13,11.68,69,23.85s53.58,28,64.32,48.91c1.29,2.49,2.66,4.33,5.37,5.06,10.57,2.85,102.8-1.53,102.8-1.53,4.43.31,14.31,2.67,17.73,5.52,24.06,20.09,23.65,44.92-3.82,60.12-3,1.65-6.36,2.48-14,2.65,0,0-91.74-5-102.33-2.19-3,.82-3.43,2.77-5.3,5.3-14.57,19.68-39.54,31.38-63.74,42.84S382,754.71,382,754.71C339.05,757.84,328.65,727.86,342.58,708.47Z"/><line class="cls-17" x1="510.69" y1="634.33" x2="409.22" y2="596.05"/><path class="cls-5" d="M510.82,634a156.19,156.19,0,0,0-23.68-14c-4-2.12-8.22-3.82-12.33-5.73s-8.37-3.4-12.57-5.09c-4.27-1.49-8.5-3.06-12.8-4.47s-8.62-2.76-13.05-3.83a157,157,0,0,0-27-5.12l-.26.68,50.61,19.47,50.86,18.81Z"/><line class="cls-18" x1="431.2" y1="607.61" x2="400.44" y2="594.8"/><path class="cls-7" d="M431.39,607.17a21.9,21.9,0,0,0-5.23-9.13,20.65,20.65,0,0,0-7-4.81,21.09,21.09,0,0,0-8.37-1.58,22.1,22.1,0,0,0-10.15,2.7l-.37.89q3.75,1.86,7.57,3.5l7.63,3.35,7.75,3.06c2.57,1.05,5.18,2,7.82,2.91Z"/><line class="cls-19" x1="502.85" y1="643.88" x2="395.74" y2="626.91"/><path class="cls-5" d="M502.91,643.52a156,156,0,0,0-26-9c-4.38-1.27-8.82-2.08-13.23-3.13-4.44-.88-8.89-1.63-13.34-2.43-4.48-.59-8.95-1.28-13.44-1.79s-9-1-13.55-1.12a157.7,157.7,0,0,0-27.53.46l-.11.71,53.5,8.84,53.62,8.14Z"/><line class="cls-20" x1="395.22" y1="665.86" x2="503.05" y2="654.25"/><path class="cls-5" d="M395.26,666.21a154.85,154.85,0,0,0,27.47,1.85c4.55.09,9-.29,13.58-.43,4.52-.31,9-.75,13.52-1.13,4.48-.61,9-1.11,13.44-1.79s8.94-1.42,13.37-2.47a156.87,156.87,0,0,0,26.45-7.63l-.08-.72-53.95,5.45-53.88,6.16Z"/><line class="cls-21" x1="378.8" y1="646.73" x2="502.99" y2="647.81"/><path class="cls-5" d="M378.8,647.12a189.17,189.17,0,0,0,31,5.38c5.17.65,10.35.81,15.52,1.22,5.17.24,10.34.33,15.52.48,5.17-.08,10.35-.06,15.52-.23s10.36-.4,15.54-1A192.4,192.4,0,0,0,503,648.19v-.77l-62.1-.92-62.09-.15Z"/><line class="cls-22" x1="405.05" y1="695.31" x2="509.83" y2="667.34"/><path class="cls-5" d="M405.14,695.66a155.21,155.21,0,0,0,27.43-2.38c4.51-.61,8.91-1.67,13.36-2.51,4.41-1,8.79-2.12,13.18-3.19,4.34-1.28,8.7-2.46,13-3.82s8.62-2.77,12.84-4.48a157.56,157.56,0,0,0,25-11.6l-.18-.69-52.49,13.64L405,695Z"/><line class="cls-23" x1="412.13" y1="635.31" x2="380.95" y2="623.54"/><path class="cls-7" d="M412.3,634.86a22,22,0,0,0-5.53-9,20.69,20.69,0,0,0-7.18-4.57,21.07,21.07,0,0,0-8.42-1.29,22.07,22.07,0,0,0-10.06,3l-.33.9q3.8,1.74,7.68,3.24l7.74,3.09,7.85,2.8c2.6,1,5.24,1.83,7.91,2.64Z"/><line class="cls-24" x1="381.84" y1="666.74" x2="414.17" y2="658.62"/><path class="cls-7" d="M382,667.2a21.94,21.94,0,0,0,9.64,4.2,20.68,20.68,0,0,0,8.51-.34,21,21,0,0,0,7.65-3.74,22,22,0,0,0,6.52-8.24l-.23-.93q-4.11.75-8.16,1.72l-8.12,1.88-8,2.18q-4,1.05-8,2.34Z"/><line class="cls-25" x1="392.74" y1="694.33" x2="425.11" y2="686.38"/><path class="cls-7" d="M392.86,694.8a21.79,21.79,0,0,0,9.62,4.24,20.71,20.71,0,0,0,8.51-.29,21.2,21.2,0,0,0,7.67-3.71,22,22,0,0,0,6.56-8.2l-.23-.93c-2.74.48-5.47,1-8.17,1.68l-8.13,1.83-8.05,2.15q-4,1-8,2.3Z"/><circle class="cls-15" cx="374.56" cy="646.88" r="9.33"/><path class="cls-7" d="M444.2,630.47a21.81,21.81,0,0,0-6.53,8.25,20.57,20.57,0,0,0-1.84,8.3,21,21,0,0,0,1.65,8.36,22.12,22.12,0,0,0,6.29,8.41h1c.23-2.77.38-5.55.43-8.32l.27-8.33-.06-8.34c0-2.77-.06-5.55-.21-8.33Z"/></g></svg>