<svg xmlns="http://www.w3.org/2000/svg" xmlns:xlink="http://www.w3.org/1999/xlink" viewBox="0 0 1080 1080"><defs><style>.cls-1{fill:url(#linear-gradient);}.cls-2{fill:url(#linear-gradient-2);}.cls-3{fill:url(#radial-gradient);}.cls-4{fill:url(#linear-gradient-3);}.cls-5{fill:#f9ad42;}.cls-6{fill:url(#linear-gradient-4);}.cls-7{fill:#ee4037;}.cls-8{fill:url(#linear-gradient-5);}.cls-9{fill:url(#linear-gradient-6);}.cls-10{fill:url(#linear-gradient-7);}.cls-11{fill:url(#linear-gradient-8);}.cls-12{fill:url(#linear-gradient-9);}.cls-13{fill:url(#linear-gradient-10);}.cls-14{fill:url(#linear-gradient-11);}.cls-15{fill:#8ac340;}.cls-16{fill:url(#radial-gradient-2);}.cls-17{fill:url(#linear-gradient-12);}.cls-18{fill:url(#linear-gradient-13);}.cls-19{fill:url(#linear-gradient-14);}.cls-20{fill:url(#linear-gradient-15);}.cls-21{fill:url(#linear-gradient-16);}.cls-22{fill:url(#linear-gradient-17);}.cls-23{fill:url(#linear-gradient-18);}.cls-24{fill:url(#linear-gradient-19);}.cls-25{fill:url(#linear-gradient-20);}</style><linearGradient id="linear-gradient" x1="749.34" y1="4911" x2="1145.08" y2="4911" gradientTransform="matrix(-0.21, 1.13, -1.15, -0.02, 6019.37, -690.28)" gradientUnits="userSpaceOnUse"><stop offset="0" stop-color="#f29022"/><stop offset="0.99" stop-color="#bb2030"/></linearGradient><linearGradient id="linear-gradient-2" x1="-2287.46" y1="2211.42" x2="-1891.72" y2="2211.42" gradientTransform="matrix(1.14, -0.08, 0.11, -1.14, 2418.83, 2585.12)" xlink:href="#linear-gradient"/><radialGradient id="radial-gradient" cx="-6428.3" cy="3363.18" r="148.23" gradientTransform="matrix(0.94, -0.35, -0.35, -0.94, 7415.46, 1425.07)" gradientUnits="userSpaceOnUse"><stop offset="0" stop-color="#ee4037"/><stop offset="0.38" stop-color="#ef6727"/><stop offset="0.49" stop-color="#f07126"/><stop offset="0.8" stop-color="#f38822"/><stop offset="1" stop-color="#f49021"/></radialGradient><linearGradient id="linear-gradient-3" x1="-7102.1" y1="-285.19" x2="-7088.6" y2="-285.19" gradientTransform="matrix(0.99, 0.14, 0.14, -0.99, 7262.2, 1216.05)" gradientUnits="userSpaceOnUse"><stop offset="0" stop-color="#36b04a"/><stop offset="1" stop-color="#019147"/></linearGradient><linearGradient id="linear-gradient-4" x1="-7095.57" y1="-374.37" x2="-7082.08" y2="-374.37" gradientTransform="matrix(0.99, 0.08, 0.14, -0.3, 7261.71, 1059.76)" xlink:href="#linear-gradient-3"/><linearGradient id="linear-gradient-5" x1="-7089.99" y1="-285.19" x2="-7055.02" y2="-285.19" xlink:href="#linear-gradient-3"/><linearGradient id="linear-gradient-6" x1="-7080.91" y1="-273.82" x2="-7020.33" y2="-273.82" xlink:href="#linear-gradient-3"/><linearGradient id="linear-gradient-7" x1="-6759.76" y1="-1483.51" x2="-6699.18" y2="-1483.51" gradientTransform="matrix(1, 0.33, 0.21, -1.08, 7239.99, 1129.54)" xlink:href="#linear-gradient-3"/><linearGradient id="linear-gradient-8" x1="-7072.5" y1="-256.55" x2="-6998.86" y2="-256.55" xlink:href="#linear-gradient-3"/><linearGradient id="linear-gradient-9" x1="-7159.4" y1="458.7" x2="-7145.91" y2="458.7" gradientTransform="matrix(0.99, 0.05, 0.13, -0.3, 7263.73, 1083.79)" xlink:href="#linear-gradient-3"/><linearGradient id="linear-gradient-10" x1="8717.55" y1="-14030.98" x2="8731.05" y2="-14030.98" gradientTransform="matrix(-0.84, 0.52, 0.07, 0.32, 8567.62, 520.48)" xlink:href="#linear-gradient-3"/><linearGradient id="linear-gradient-11" x1="8701.41" y1="-13951.33" x2="8714.91" y2="-13951.33" gradientTransform="matrix(-0.85, 0.52, 0.07, 0.32, 8571.13, 524.4)" xlink:href="#linear-gradient-3"/><radialGradient id="radial-gradient-2" cx="-168.29" cy="5745.93" r="148.23" gradientTransform="translate(5485.04 3120.49) rotate(117.92)" xlink:href="#radial-gradient"/><linearGradient id="linear-gradient-12" x1="-2709.16" y1="4771.23" x2="-2695.67" y2="4771.23" gradientTransform="translate(5297.98 2941.08) rotate(89.74)" xlink:href="#linear-gradient-3"/><linearGradient id="linear-gradient-13" x1="-4177.84" y1="15200.71" x2="-4164.34" y2="15200.71" gradientTransform="matrix(-0.05, 0.99, -0.31, 0.1, 5143.1, 2920.06)" xlink:href="#linear-gradient-3"/><linearGradient id="linear-gradient-14" x1="-2697.06" y1="4771.23" x2="-2662.08" y2="4771.23" gradientTransform="translate(5297.98 2941.08) rotate(89.74)" xlink:href="#linear-gradient-3"/><linearGradient id="linear-gradient-15" x1="-2687.98" y1="4782.6" x2="-2627.39" y2="4782.6" gradientTransform="translate(5297.98 2941.08) rotate(89.74)" xlink:href="#linear-gradient-3"/><linearGradient id="linear-gradient-16" x1="-2805.31" y1="3786.42" x2="-2744.73" y2="3786.42" gradientTransform="matrix(0.19, 1.03, -1.1, 0.07, 5215.14, 2907.7)" xlink:href="#linear-gradient-3"/><linearGradient id="linear-gradient-17" x1="-2679.57" y1="4799.87" x2="-2605.93" y2="4799.87" gradientTransform="translate(5297.98 2941.08) rotate(89.74)" xlink:href="#linear-gradient-3"/><linearGradient id="linear-gradient-18" x1="-4020.46" y1="15514.04" x2="-4006.97" y2="15514.04" gradientTransform="matrix(-0.08, 0.99, -0.32, 0.09, 5166.66, 2925.22)" xlink:href="#linear-gradient-3"/><linearGradient id="linear-gradient-19" x1="2457.86" y1="-17532.38" x2="2471.35" y2="-17532.38" gradientTransform="matrix(0.63, -0.77, 0.31, 0.11, 4436.88, 4143.78)" xlink:href="#linear-gradient-3"/><linearGradient id="linear-gradient-20" x1="2459.1" y1="-17557.94" x2="2472.6" y2="-17557.94" gradientTransform="matrix(0.63, -0.77, 0.31, 0.11, 4440.31, 4147.77)" xlink:href="#linear-gradient-3"/></defs><g id="_8" data-name="8"><path class="cls-1" d="M204.53,511.64l123,16.09s7.08-18.49,2.1-66.3c-5.43-52.2-256-381.25-256.09-381.28C58.83,72,50.39,78.29,47.67,94.43,47.67,94.43,277.37,366.35,204.53,511.64Z"/><path class="cls-2" d="M484.34,262.14l2.23,124s-19.16,5-66.12-5.32C369.19,369.6,70.23,83.76,70.2,83.71c-6.48-15.52.74-23.21,17.09-24.1C87.29,59.61,331.81,318.28,484.34,262.14Z"/><path class="cls-3" d="M321.75,612.36l3.15,7.22c8.27,20.31-2.2,36.82-17,42.55-35.33,13.12-46.62-28.62-46.62-28.62s15.19,42-20.68,50.37c-18,4.52-31.86-3.78-35.74-20.81-1.14-5-1.08-7.27-1.83-10-22.53,19.12-48,12.33-52.1-19,0,0-2.75-41.7-1.2-73s8-59.94,24-77.17c1.9-2.06,3.16-4,2.92-6.77-.94-10.91-36.61-96.08-36.61-96.08-1.23-4.27-2.39-14.36-.88-18.54,10.64-29.49,34.12-37.6,57.81-17,2.57,2.23,4.49,5.12,7.26,12.22,0,0,26.66,87.93,33,96.9,1.81,2.58,3.78,2.28,6.8,3.18,23.48,7,43,26.41,62.06,45.23s45.75,56.46,45.75,56.46C369.36,598.79,344.74,618.82,321.75,612.36Z"/><line class="cls-4" x1="194.58" y1="479.75" x2="193.32" y2="588.2"/><path class="cls-5" d="M194.22,479.75a155.79,155.79,0,0,0-5.09,27.06c-.62,4.51-.78,9-1.18,13.54-.23,4.52-.32,9-.48,13.55.07,4.52,0,9,.18,13.56s.36,9,.87,13.57A156.7,156.7,0,0,0,193,588.2h.72l1-54.21.27-54.23Z"/><line class="cls-6" x1="196.67" y1="563.59" x2="195.15" y2="596.88"/><path class="cls-7" d="M196.19,563.57a21.84,21.84,0,0,0-6.79,8,20.59,20.59,0,0,0-2.12,8.24,21,21,0,0,0,1.38,8.4,22.05,22.05,0,0,0,6,8.62l1,0c.31-2.76.55-5.53.7-8.31l.54-8.31.22-8.33c.11-2.78.12-5.56.06-8.34Z"/><line class="cls-8" x1="206.24" y1="483.85" x2="226.93" y2="590.31"/><path class="cls-5" d="M205.88,483.92a154.82,154.82,0,0,0,.49,27.53c.3,4.54,1.06,9,1.58,13.5.69,4.47,1.51,8.91,2.27,13.37,1,4.41,1.86,8.84,2.92,13.24s2.18,8.79,3.59,13.11a157.72,157.72,0,0,0,9.85,25.71l.71-.14-10-53.29-10.7-53.17Z"/><line class="cls-9" x1="263.71" y1="577.47" x2="215.91" y2="480.12"/><path class="cls-5" d="M264,577.32a155,155,0,0,0-7.66-26.45c-1.48-4.31-3.37-8.41-5.06-12.62s-3.78-8.21-5.68-12.31c-2.1-4-4.11-8.05-6.28-12S235,506,232.46,502.2A158.35,158.35,0,0,0,216.24,480l-.65.32,23.58,48.83,24.21,48.52Z"/><line class="cls-10" x1="251.35" y1="599.44" x2="209.88" y2="482.38"/><path class="cls-5" d="M251.72,599.31a190.37,190.37,0,0,0-5.55-31c-1.16-5.08-2.78-10-4.16-15-1.55-4.94-3.23-9.83-4.86-14.74-1.85-4.84-3.6-9.71-5.53-14.52s-3.91-9.59-6.21-14.26a192.08,192.08,0,0,0-15.17-27.57l-.73.26,20.38,58.66,21.1,58.4Z"/><line class="cls-11" x1="288.02" y1="558.16" x2="225.89" y2="469.27"/><path class="cls-5" d="M288.32,558a156.62,156.62,0,0,0-11.62-25c-2.12-4-4.62-7.79-6.93-11.69s-5-7.53-7.5-11.3c-2.69-3.63-5.29-7.32-8-10.91s-5.55-7.15-8.6-10.53a156.93,156.93,0,0,0-19.44-19.49l-.59.41,30.78,44.65,31.36,44.24Z"/><line class="cls-12" x1="229.22" y1="572.04" x2="228.83" y2="605.36"/><path class="cls-7" d="M228.74,572a22,22,0,0,0-6.52,8.26,20.58,20.58,0,0,0-1.84,8.31,21.13,21.13,0,0,0,1.67,8.35,22.16,22.16,0,0,0,6.3,8.41h1c.22-2.78.37-5.55.42-8.33l.25-8.33-.06-8.33c0-2.78-.07-5.56-.22-8.34Z"/><line class="cls-13" x1="269.11" y1="589.74" x2="250.42" y2="562.15"/><path class="cls-7" d="M269.51,589.47a22,22,0,0,0,.64-10.49,20.64,20.64,0,0,0-3.23-7.88,21,21,0,0,0-6.13-5.91,22,22,0,0,0-10-3.31l-.79.54c1.4,2.4,2.86,4.76,4.4,7.07l4.54,7,4.81,6.81c1.57,2.29,3.22,4.53,4.93,6.72Z"/><line class="cls-14" x1="291.31" y1="570.06" x2="272.77" y2="542.37"/><path class="cls-7" d="M291.71,569.79a21.85,21.85,0,0,0,.7-10.49,20.54,20.54,0,0,0-3.19-7.89,20.85,20.85,0,0,0-6.1-5.94,22,22,0,0,0-10-3.37l-.79.54c1.39,2.41,2.84,4.78,4.37,7.1l4.5,7,4.77,6.83c1.56,2.3,3.2,4.54,4.91,6.75Z"/><circle class="cls-15" cx="252.94" cy="603.38" r="9.33"/><path class="cls-7" d="M213.7,543.56a22,22,0,0,0,10,3.31,20.64,20.64,0,0,0,8.44-1.11,21,21,0,0,0,7.28-4.42,21.94,21.94,0,0,0,5.75-8.78l-.31-.91c-2.69.74-5.34,1.55-8,2.45L229,536.7l-7.81,2.9c-2.62.94-5.2,2-7.76,3Z"/><path class="cls-16" d="M575.35,397.5l6.74,4.07c19,10.86,36.8,2.65,44.42-11.28,17.65-33.3-22.24-50-22.24-50s39.64,20.58,52.65-13.88c6.83-17.21.43-32.07-15.94-38.16-4.79-1.79-7.06-2-9.67-3.13,21.91-19.82,18.53-46-12-54.15,0,0-41-8.21-72.2-10.78s-60.47.09-79.64,13.61c-2.3,1.62-4.36,2.61-7.11,2-10.69-2.36-90.43-48.91-90.43-48.91-4.07-1.78-13.92-4.26-18.26-3.31-30.64,6.67-41.75,28.88-24.43,55.07,1.87,2.84,4.48,5.13,11.16,8.81,0,0,83.66,38,91.73,45.4,2.32,2.13,1.76,4,2.25,7.15,3.82,24.19,20.54,46.11,36.69,67.47s50,52.77,50,52.77C555.64,442.91,578.73,421.14,575.35,397.5Z"/><line class="cls-17" x1="460.61" y1="254.01" x2="568.28" y2="267.01"/><path class="cls-5" d="M460.65,253.65a154.65,154.65,0,0,1,27.49-1.49c4.55,0,9.05.41,13.58.61,4.51.37,9,.86,13.5,1.31,4.47.65,8.95,1.22,13.42,2s8.91,1.53,13.33,2.64a156.41,156.41,0,0,1,26.35,8l-.09.72-53.88-6.15-53.79-6.86Z"/><line class="cls-18" x1="543.44" y1="267.09" x2="576.64" y2="269.96"/><path class="cls-7" d="M543.48,266.61a21.91,21.91,0,0,1,8.85-5.67,20.54,20.54,0,0,1,8.45-1,21,21,0,0,1,8.15,2.47,22.06,22.06,0,0,1,7.75,7.09l-.08,1q-4.17-.07-8.33-.4l-8.31-.56-8.29-.87c-2.77-.26-5.52-.61-8.27-1Z"/><line class="cls-19" x1="463.14" y1="266.1" x2="565.95" y2="300.6"/><path class="cls-5" d="M463.25,265.76a156.31,156.31,0,0,1,27.23,4.09c4.46.9,8.78,2.24,13.17,3.35,4.34,1.27,8.64,2.67,13,4,4.24,1.55,8.52,3,12.74,4.63s8.42,3.31,12.53,5.28a158,158,0,0,1,24.19,13.14l-.23.69L514.32,284,463,266.44Z"/><line class="cls-20" x1="548.39" y1="335.37" x2="458.17" y2="275.2"/><path class="cls-5" d="M548.19,335.67A155.73,155.73,0,0,1,523,324.61c-4.08-2-7.9-4.45-11.85-6.68s-7.64-4.83-11.45-7.25c-3.7-2.61-7.45-5.13-11.1-7.8s-7.26-5.4-10.71-8.38a156.9,156.9,0,0,1-19.91-19l.4-.6,45.31,29.79,44.91,30.38Z"/><line class="cls-21" x1="571.79" y1="326.02" x2="461.2" y2="269.51"/><path class="cls-5" d="M571.62,326.36a190.16,190.16,0,0,1-30-9.57c-4.88-1.82-9.54-4.07-14.32-6.1s-9.32-4.49-14-6.75c-4.55-2.47-9.15-4.84-13.66-7.39s-9-5.14-13.33-8A192.37,192.37,0,0,1,461,269.85l.35-.68,55.48,27.91L572,325.67Z"/><line class="cls-22" x1="526.05" y1="356.94" x2="446.1" y2="283.66"/><path class="cls-5" d="M525.81,357.21a155.28,155.28,0,0,1-23.22-14.8c-3.71-2.63-7.12-5.61-10.68-8.41s-6.81-5.94-10.21-8.92c-3.25-3.14-6.57-6.21-9.77-9.41s-6.35-6.44-9.3-9.91a157.06,157.06,0,0,1-16.77-21.83l.48-.53,40.22,36.37,39.73,36.91Z"/><line class="cls-23" x1="547.54" y1="300.47" x2="580.62" y2="304.47"/><path class="cls-7" d="M547.59,300a22,22,0,0,1,9-5.37,20.62,20.62,0,0,1,8.48-.73,21.07,21.07,0,0,1,8.06,2.75,22.08,22.08,0,0,1,7.5,7.35l-.11.95c-2.78-.15-5.55-.37-8.31-.68l-8.3-.84-8.25-1.16c-2.75-.35-5.5-.79-8.23-1.31Z"/><line class="cls-24" x1="559.85" y1="342.34" x2="534.94" y2="320.19"/><path class="cls-7" d="M559.53,342.7A22,22,0,0,1,549,342a20.59,20.59,0,0,1-7.39-4.24,21,21,0,0,1-5-6.85,22,22,0,0,1-2-10.32l.64-.72c2.2,1.71,4.35,3.47,6.44,5.3l6.33,5.42,6.12,5.66c2.06,1.86,4.06,3.79,6,5.77Z"/><line class="cls-25" x1="537.42" y1="361.77" x2="512.4" y2="339.74"/><path class="cls-7" d="M537.1,362.13a22,22,0,0,1-10.5-.69,20.79,20.79,0,0,1-7.4-4.2,21.11,21.11,0,0,1-5.09-6.83,22.07,22.07,0,0,1-2-10.31l.63-.72c2.21,1.7,4.37,3.45,6.47,5.27l6.35,5.38,6.15,5.63q3.1,2.77,6,5.75Z"/><circle class="cls-15" cx="575.49" cy="328.11" r="9.33"/><path class="cls-7" d="M521.35,281.34a21.87,21.87,0,0,1,2,10.33,20.57,20.57,0,0,1-2.2,8.22,21.13,21.13,0,0,1-5.34,6.64,22,22,0,0,1-9.47,4.55l-.85-.43q1.62-3.86,3.47-7.58l3.62-7.51,3.9-7.36c1.27-2.47,2.63-4.9,4-7.29Z"/></g></svg>