<svg xmlns="http://www.w3.org/2000/svg" xmlns:xlink="http://www.w3.org/1999/xlink" viewBox="0 0 1080 1080"><defs><style>.cls-1{fill:url(#linear-gradient);}.cls-2{fill:url(#linear-gradient-2);}.cls-3{fill:url(#radial-gradient);}.cls-4{fill:url(#linear-gradient-3);}.cls-5{fill:#f9ad42;}.cls-6{fill:url(#linear-gradient-4);}.cls-7{fill:#ee4037;}.cls-8{fill:url(#linear-gradient-5);}.cls-9{fill:url(#linear-gradient-6);}.cls-10{fill:url(#linear-gradient-7);}.cls-11{fill:url(#linear-gradient-8);}.cls-12{fill:url(#linear-gradient-9);}.cls-13{fill:url(#linear-gradient-10);}.cls-14{fill:url(#linear-gradient-11);}.cls-15{fill:#8ac340;}.cls-16{fill:url(#radial-gradient-2);}.cls-17{fill:url(#linear-gradient-12);}.cls-18{fill:url(#linear-gradient-13);}.cls-19{fill:url(#linear-gradient-14);}.cls-20{fill:url(#linear-gradient-15);}.cls-21{fill:url(#linear-gradient-16);}.cls-22{fill:url(#linear-gradient-17);}.cls-23{fill:url(#linear-gradient-18);}.cls-24{fill:url(#linear-gradient-19);}.cls-25{fill:url(#linear-gradient-20);}</style><linearGradient id="linear-gradient" x1="399.01" y1="8109.47" x2="651.69" y2="8109.47" gradientTransform="matrix(-0.1, 1.14, -1.14, 0.09, 9457.37, -1106.89)" gradientUnits="userSpaceOnUse"><stop offset="0" stop-color="#f29022"/><stop offset="0.99" stop-color="#bb2030"/></linearGradient><linearGradient id="linear-gradient-2" x1="-4951.33" y1="2718.93" x2="-4698.65" y2="2718.93" gradientTransform="matrix(1.14, -0.07, 0.12, -1.14, 5398.65, 2894.07)" xlink:href="#linear-gradient"/><radialGradient id="radial-gradient" cx="-6373.45" cy="3613.83" r="148.23" gradientTransform="matrix(0.94, -0.34, -0.34, -0.94, 7363.12, 1559.5)" gradientUnits="userSpaceOnUse"><stop offset="0" stop-color="#ee4037"/><stop offset="0.38" stop-color="#ef6727"/><stop offset="0.49" stop-color="#f07126"/><stop offset="0.8" stop-color="#f38822"/><stop offset="1" stop-color="#f49021"/></radialGradient><linearGradient id="linear-gradient-3" x1="-7172.1" y1="-38.34" x2="-7158.61" y2="-38.34" gradientTransform="matrix(0.99, 0.14, 0.14, -0.99, 7210.62, 1349.92)" gradientUnits="userSpaceOnUse"><stop offset="0" stop-color="#36b04a"/><stop offset="1" stop-color="#019147"/></linearGradient><linearGradient id="linear-gradient-4" x1="-7244.67" y1="433.99" x2="-7231.17" y2="433.99" gradientTransform="matrix(0.99, 0.09, 0.14, -0.3, 7210.7, 1193.63)" xlink:href="#linear-gradient-3"/><linearGradient id="linear-gradient-5" x1="-7160" y1="-38.34" x2="-7125.02" y2="-38.34" xlink:href="#linear-gradient-3"/><linearGradient id="linear-gradient-6" x1="-7150.92" y1="-26.97" x2="-7090.34" y2="-26.97" xlink:href="#linear-gradient-3"/><linearGradient id="linear-gradient-7" x1="-6840.02" y1="-1272.85" x2="-6779.44" y2="-1272.85" gradientTransform="matrix(0.99, 0.33, 0.21, -1.08, 7188.72, 1263.33)" xlink:href="#linear-gradient-3"/><linearGradient id="linear-gradient-8" x1="-7142.51" y1="-9.7" x2="-7068.87" y2="-9.7" xlink:href="#linear-gradient-3"/><linearGradient id="linear-gradient-9" x1="-7300.56" y1="1272.86" x2="-7287.07" y2="1272.86" gradientTransform="matrix(0.99, 0.05, 0.13, -0.3, 7212.64, 1217.66)" xlink:href="#linear-gradient-3"/><linearGradient id="linear-gradient-10" x1="8698.95" y1="-14789.15" x2="8712.45" y2="-14789.15" gradientTransform="matrix(-0.84, 0.52, 0.07, 0.32, 8518.57, 659.11)" xlink:href="#linear-gradient-3"/><linearGradient id="linear-gradient-11" x1="8684.16" y1="-14711.14" x2="8697.66" y2="-14711.14" gradientTransform="matrix(-0.85, 0.52, 0.07, 0.32, 8522.07, 663.05)" xlink:href="#linear-gradient-3"/><radialGradient id="radial-gradient-2" cx="1523.37" cy="7120.29" r="148.23" gradientTransform="translate(7539.75 1360.56) rotate(111.59)" xlink:href="#radial-gradient"/><linearGradient id="linear-gradient-12" x1="-1866.98" y1="6781.53" x2="-1853.48" y2="6781.53" gradientTransform="translate(7334.04 1202.88) rotate(83.41)" xlink:href="#linear-gradient-3"/><linearGradient id="linear-gradient-13" x1="-3944.62" y1="21545.56" x2="-3931.13" y2="21545.56" gradientTransform="matrix(0.06, 0.99, -0.3, 0.13, 7177.79, 1199.06)" xlink:href="#linear-gradient-3"/><linearGradient id="linear-gradient-14" x1="-1854.87" y1="6781.53" x2="-1819.9" y2="6781.53" gradientTransform="translate(7334.04 1202.88) rotate(83.41)" xlink:href="#linear-gradient-3"/><linearGradient id="linear-gradient-15" x1="-1845.79" y1="6792.9" x2="-1785.21" y2="6792.9" gradientTransform="translate(7334.04 1202.88) rotate(83.41)" xlink:href="#linear-gradient-3"/><linearGradient id="linear-gradient-16" x1="-2102" y1="5733.46" x2="-2041.42" y2="5733.46" gradientTransform="matrix(0.3, 1, -1.09, 0.19, 7248.02, 1178.83)" xlink:href="#linear-gradient-3"/><linearGradient id="linear-gradient-17" x1="-1837.39" y1="6810.17" x2="-1763.74" y2="6810.17" gradientTransform="translate(7334.04 1202.88) rotate(83.41)" xlink:href="#linear-gradient-3"/><linearGradient id="linear-gradient-18" x1="-3708.4" y1="21751.34" x2="-3694.9" y2="21751.34" gradientTransform="matrix(0.03, 0.99, -0.31, 0.12, 7201.77, 1201.6)" xlink:href="#linear-gradient-3"/><linearGradient id="linear-gradient-19" x1="881.52" y1="-20791.27" x2="895.02" y2="-20791.27" gradientTransform="matrix(0.54, -0.83, 0.32, 0.07, 6610.82, 2493.19)" xlink:href="#linear-gradient-3"/><linearGradient id="linear-gradient-20" x1="891.28" y1="-20847.55" x2="904.78" y2="-20847.55" gradientTransform="matrix(0.54, -0.83, 0.32, 0.07, 6614.67, 2496.79)" xlink:href="#linear-gradient-3"/></defs><g id="_7" data-name="7"><path class="cls-1" d="M110.83,342l96.48,10.28s5.37-19.06-3.94-66.21C193.2,234.56,67.25,80,67.19,80c-15.38-6.8-23.21.26-24.45,16.58C42.74,96.57,170.14,190.66,110.83,342Z"/><path class="cls-2" d="M326.05,129.77l7.78,96.71s-19.19,4.88-66.09-5.66C216.53,209.33,65.3,79.42,65.28,79.37c-6.41-15.56.85-23.2,17.2-24C82.48,55.35,173.25,185.14,326.05,129.77Z"/><path class="cls-3" d="M237.55,466.75l3.12,7.23c8.19,20.34-2.34,36.82-17.18,42.49-35.37,13-46.52-28.79-46.52-28.79s15,42.05-20.86,50.29c-18,4.45-31.84-3.9-35.66-20.94-1.12-5-1.06-7.27-1.79-10-22.6,19-48.06,12.16-52-19.18,0,0-2.6-41.71-.93-73s8.25-59.91,24.24-77.08c1.91-2.05,3.17-4,2.94-6.76-.9-10.92-36.25-96.21-36.25-96.21-1.21-4.28-2.34-14.38-.82-18.55,10.76-29.45,34.26-37.47,57.87-16.77,2.56,2.25,4.48,5.14,7.23,12.25,0,0,26.33,88,32.59,97,1.8,2.59,3.77,2.3,6.78,3.2,23.46,7,42.92,26.57,61.9,45.47S267.71,414,267.71,414C285.2,453.35,260.51,473.29,237.55,466.75Z"/><line class="cls-4" x1="110.86" y1="333.68" x2="109.2" y2="442.12"/><path class="cls-5" d="M110.5,333.67a155,155,0,0,0-5.19,27c-.64,4.51-.82,9-1.23,13.54-.24,4.52-.36,9-.53,13.55,0,4.52,0,9,.13,13.56s.32,9.05.82,13.57a157.49,157.49,0,0,0,4.34,27.18l.72,0,1.19-54.22.47-54.22Z"/><line class="cls-6" x1="112.64" y1="417.52" x2="111" y2="450.81"/><path class="cls-7" d="M112.16,417.5a21.9,21.9,0,0,0-6.82,8,20.6,20.6,0,0,0-2.15,8.24,21,21,0,0,0,1.35,8.41,22.11,22.11,0,0,0,6,8.63l1,.05c.32-2.76.57-5.53.73-8.31l.57-8.31.25-8.33c.12-2.77.14-5.55.09-8.34Z"/><line class="cls-8" x1="122.5" y1="337.82" x2="142.81" y2="444.36"/><path class="cls-5" d="M122.14,337.89a155.88,155.88,0,0,0,.39,27.53c.28,4.54,1,9,1.53,13.5.68,4.48,1.48,8.92,2.23,13.38,1,4.42,1.83,8.85,2.87,13.25s2.14,8.8,3.54,13.13a157.53,157.53,0,0,0,9.75,25.74l.71-.13L133.36,391l-10.51-53.2Z"/><line class="cls-9" x1="179.63" y1="431.65" x2="132.19" y2="334.12"/><path class="cls-5" d="M180,431.49A155.23,155.23,0,0,0,172.39,405c-1.47-4.31-3.34-8.42-5-12.63s-3.76-8.23-5.65-12.34c-2.08-4-4.07-8.06-6.23-12s-4.36-7.93-6.85-11.74A156.12,156.12,0,0,0,132.51,334l-.64.31,23.39,48.92,24,48.61Z"/><line class="cls-10" x1="167.2" y1="453.57" x2="126.14" y2="336.36"/><path class="cls-5" d="M167.56,453.45a189.53,189.53,0,0,0-5.44-31c-1.13-5.08-2.74-10-4.1-15-1.53-4.94-3.2-9.85-4.81-14.76-1.83-4.85-3.56-9.72-5.47-14.54s-3.88-9.6-6.16-14.29a191.48,191.48,0,0,0-15.07-27.62l-.73.26,20.16,58.73,20.89,58.48Z"/><line class="cls-11" x1="204.02" y1="412.43" x2="142.2" y2="323.31"/><path class="cls-5" d="M204.31,412.22a155.42,155.42,0,0,0-11.53-25c-2.1-4-4.59-7.81-6.88-11.72-2.44-3.81-5-7.55-7.47-11.32-2.67-3.65-5.26-7.35-8-10.95s-5.53-7.17-8.57-10.56a157.44,157.44,0,0,0-19.36-19.56l-.59.41,30.61,44.76,31.2,44.35Z"/><line class="cls-12" x1="145.16" y1="426.09" x2="144.65" y2="459.41"/><path class="cls-7" d="M144.68,426.08a22.09,22.09,0,0,0-6.55,8.23,20.79,20.79,0,0,0-1.87,8.31A21.17,21.17,0,0,0,137.9,451a22,22,0,0,0,6.27,8.42l1,0q.35-4.16.45-8.33l.28-8.33,0-8.33c0-2.78-.05-5.55-.19-8.33Z"/><line class="cls-13" x1="184.98" y1="443.94" x2="166.4" y2="416.27"/><path class="cls-7" d="M185.38,443.67a21.84,21.84,0,0,0,.69-10.49,20.66,20.66,0,0,0-9.31-13.82,22.09,22.09,0,0,0-10-3.35l-.8.53c1.4,2.41,2.85,4.78,4.38,7.1l4.52,7,4.78,6.83q2.34,3.43,4.91,6.74Z"/><line class="cls-14" x1="207.26" y1="424.34" x2="188.81" y2="396.58"/><path class="cls-7" d="M207.66,424.07a21.77,21.77,0,0,0,.73-10.49,20.49,20.49,0,0,0-3.16-7.9,20.87,20.87,0,0,0-6.08-6,22.08,22.08,0,0,0-9.94-3.39l-.8.53c1.39,2.41,2.83,4.79,4.35,7.11l4.48,7,4.74,6.85q2.34,3.45,4.88,6.76Z"/><circle class="cls-15" cx="168.77" cy="457.52" r="9.33"/><path class="cls-7" d="M129.74,397.55a21.85,21.85,0,0,0,10,3.35,20.67,20.67,0,0,0,15.74-5.47,22,22,0,0,0,5.79-8.77l-.31-.9c-2.69.73-5.35,1.53-8,2.42L145,390.75l-7.82,2.87q-3.93,1.39-7.77,3Z"/><path class="cls-16" d="M459.41,263l7.16,3.3c20.13,8.69,36.86-1.42,42.9-16.12,13.86-35-27.62-47.21-27.62-47.21s41.67,16.07,50.8-19.61c4.89-17.85-3.11-31.92-20-36.17-5-1.25-7.24-1.23-10-2,19.6-22.12,13.35-47.74-17.88-52.5,0,0-41.63-3.64-72.95-2.75s-60.1,6.75-77.66,22.31c-2.1,1.86-4,3.07-6.84,2.77C316.43,113.83,232,76.36,232,76.36c-4.25-1.32-14.31-2.7-18.52-1.28-29.71,10-38.31,33.32-18.21,57.44,2.18,2.61,5,4.6,12.07,7.52,0,0,87.34,28.53,96.18,35,2.53,1.86,2.19,3.82,3,6.86,6.46,23.62,25.5,43.56,43.91,63S406,291.86,406,291.86C444.83,310.32,465.38,286.14,459.41,263Z"/><line class="cls-17" x1="329.55" y1="133.05" x2="437.99" y2="134.1"/><path class="cls-5" d="M329.55,132.69a155.71,155.71,0,0,1,27.16-4.52c4.52-.52,9-.59,13.56-.88s9-.14,13.56-.19c4.52.16,9,.22,13.56.47s9,.54,13.54,1.15a157.58,157.58,0,0,1,27.07,5v.72l-54.23-.17-54.22-.88Z"/><line class="cls-18" x1="413.32" y1="136.92" x2="446.63" y2="136.11"/><path class="cls-7" d="M413.31,136.44a21.91,21.91,0,0,1,8.17-6.62,20.6,20.6,0,0,1,8.29-1.94,21,21,0,0,1,8.37,1.56,22.15,22.15,0,0,1,8.48,6.19l0,1c-2.78.26-5.55.44-8.33.52l-8.32.37-8.33,0c-2.78,0-5.56,0-8.34-.12Z"/><line class="cls-19" x1="333.4" y1="144.79" x2="439.39" y2="167.75"/><path class="cls-5" d="M333.47,144.44A155,155,0,0,1,361,145.51c4.54.4,9,1.25,13.47,1.87,4.45.79,8.88,1.7,13.32,2.56,4.39,1.07,8.8,2,13.17,3.2s8.74,2.36,13,3.86a158.13,158.13,0,0,1,25.49,10.4l-.16.7L386.24,157l-52.92-11.83Z"/><line class="cls-20" x1="425.77" y1="204.24" x2="329.46" y2="154.39"/><path class="cls-5" d="M425.61,204.56a155.36,155.36,0,0,1-26.28-8.22c-4.27-1.57-8.34-3.55-12.51-5.33s-8.12-3.95-12.18-5.94c-4-2.19-8-4.28-11.89-6.54s-7.81-4.56-11.57-7.13a158.76,158.76,0,0,1-21.89-16.69l.33-.64L378,178.67l48,25.25Z"/><line class="cls-21" x1="448" y1="192.36" x2="331.85" y2="148.4"/><path class="cls-5" d="M447.86,192.72A189,189,0,0,1,417,186.51c-5.05-1.26-9.93-3-14.9-4.48-4.91-1.65-9.76-3.44-14.64-5.17-4.8-2-9.63-3.8-14.39-5.83s-9.51-4.12-14.14-6.52a191.52,191.52,0,0,1-27.23-15.75L332,148l58.21,21.62L448.13,192Z"/><line class="cls-22" x1="405.94" y1="228.14" x2="318.4" y2="164.13"/><path class="cls-5" d="M405.73,228.43A154.78,154.78,0,0,1,381,216.28c-4-2.2-7.7-4.78-11.55-7.17s-7.43-5.16-11.13-7.75c-3.58-2.76-7.22-5.44-10.74-8.27s-7-5.71-10.35-8.83a157.39,157.39,0,0,1-19.07-19.84l.42-.58,44,31.71,43.56,32.3Z"/><line class="cls-23" x1="421.07" y1="169.64" x2="454.4" y2="169.97"/><path class="cls-7" d="M421.08,169.16a21.84,21.84,0,0,1,8.39-6.33,20.6,20.6,0,0,1,8.35-1.66,21,21,0,0,1,8.31,1.84,22,22,0,0,1,8.27,6.48v1q-4.17.24-8.33.23l-8.34.08-8.33-.24c-2.77,0-5.55-.18-8.32-.4Z"/><line class="cls-24" x1="437.92" y1="209.9" x2="410.73" y2="190.63"/><path class="cls-7" d="M437.65,210.29a21.84,21.84,0,0,1-10.51.42,20.57,20.57,0,0,1-7.81-3.39,21,21,0,0,1-5.78-6.26,22.21,22.21,0,0,1-3.1-10l.56-.79c2.37,1.46,4.7,3,7,4.56l6.89,4.69,6.71,4.94c2.25,1.62,4.45,3.32,6.61,5.08Z"/><line class="cls-25" x1="417.77" y1="231.68" x2="390.48" y2="212.55"/><path class="cls-7" d="M417.5,232.08a21.92,21.92,0,0,1-10.51.47,20.57,20.57,0,0,1-7.82-3.36,20.83,20.83,0,0,1-5.81-6.23,22,22,0,0,1-3.15-10l.55-.78c2.38,1.44,4.72,2.94,7,4.52l6.92,4.65,6.73,4.92q3.39,2.42,6.64,5Z"/><circle class="cls-15" cx="451.9" cy="194.03" r="9.33"/><path class="cls-7" d="M392.93,153.52a21.8,21.8,0,0,1,3.09,10,20.7,20.7,0,0,1-1.28,8.42,21.08,21.08,0,0,1-4.57,7.18,22.08,22.08,0,0,1-8.91,5.57l-.9-.34c.8-2.67,1.66-5.31,2.62-7.92l2.77-7.86,3.06-7.74c1-2.6,2.07-5.16,3.22-7.7Z"/></g></svg>