<svg xmlns="http://www.w3.org/2000/svg" xmlns:xlink="http://www.w3.org/1999/xlink" viewBox="0 0 1080 1080"><defs><style>.cls-1{fill:url(#linear-gradient);}.cls-2{fill:url(#radial-gradient);}.cls-3{fill:url(#linear-gradient-2);}.cls-4{fill:#f9ad42;}.cls-5{fill:url(#linear-gradient-3);}.cls-6{fill:#ee4037;}.cls-7{fill:url(#linear-gradient-4);}.cls-8{fill:url(#linear-gradient-5);}.cls-9{fill:url(#linear-gradient-6);}.cls-10{fill:url(#linear-gradient-7);}.cls-11{fill:url(#linear-gradient-8);}.cls-12{fill:url(#linear-gradient-9);}.cls-13{fill:url(#linear-gradient-10);}.cls-14{fill:#8ac340;}.cls-15{fill:url(#linear-gradient-11);}.cls-16{fill:url(#radial-gradient-2);}.cls-17{fill:url(#linear-gradient-12);}.cls-18{fill:url(#linear-gradient-13);}.cls-19{fill:url(#linear-gradient-14);}.cls-20{fill:url(#linear-gradient-15);}.cls-21{fill:url(#linear-gradient-16);}.cls-22{fill:url(#linear-gradient-17);}.cls-23{fill:url(#linear-gradient-18);}.cls-24{fill:url(#linear-gradient-19);}.cls-25{fill:url(#linear-gradient-20);}</style><linearGradient id="linear-gradient" x1="931.39" y1="2992.61" x2="1422.97" y2="2992.61" gradientTransform="matrix(-0.25, 1.12, -1.15, -0.06, 3956.25, -778.78)" gradientUnits="userSpaceOnUse"><stop offset="0" stop-color="#f29022"/><stop offset="0.99" stop-color="#bb2030"/></linearGradient><radialGradient id="radial-gradient" cx="-6127.51" cy="3413.51" r="148.23" gradientTransform="matrix(0.9, -0.45, -0.45, -0.9, 7327.04, 954.21)" gradientUnits="userSpaceOnUse"><stop offset="0" stop-color="#ee4037"/><stop offset="0.38" stop-color="#ef6727"/><stop offset="0.49" stop-color="#f07126"/><stop offset="0.8" stop-color="#f38822"/><stop offset="1" stop-color="#f49021"/></radialGradient><linearGradient id="linear-gradient-2" x1="-6860.71" y1="-98.78" x2="-6847.22" y2="-98.78" gradientTransform="matrix(1, 0.03, 0.03, -1, 7152.4, 762.69)" gradientUnits="userSpaceOnUse"><stop offset="0" stop-color="#36b04a"/><stop offset="1" stop-color="#019147"/></linearGradient><linearGradient id="linear-gradient-3" x1="-6906.6" y1="186.41" x2="-6893.11" y2="186.41" gradientTransform="matrix(0.99, -0.02, 0.11, -0.31, 7135.28, 607.34)" xlink:href="#linear-gradient-2"/><linearGradient id="linear-gradient-4" x1="-6848.61" y1="-98.78" x2="-6813.63" y2="-98.78" xlink:href="#linear-gradient-2"/><linearGradient id="linear-gradient-5" x1="-6839.53" y1="-87.41" x2="-6778.95" y2="-87.41" xlink:href="#linear-gradient-2"/><linearGradient id="linear-gradient-6" x1="-6537.66" y1="-1276.22" x2="-6477.07" y2="-1276.22" gradientTransform="matrix(1.02, 0.22, 0.09, -1.1, 7121.11, 679.04)" xlink:href="#linear-gradient-2"/><linearGradient id="linear-gradient-7" x1="-6831.12" y1="-70.14" x2="-6757.48" y2="-70.14" xlink:href="#linear-gradient-2"/><linearGradient id="linear-gradient-8" x1="-6961.48" y1="991.63" x2="-6947.98" y2="991.63" gradientTransform="matrix(0.99, -0.06, 0.09, -0.32, 7139.85, 631.01)" xlink:href="#linear-gradient-2"/><linearGradient id="linear-gradient-9" x1="8406.65" y1="-13996.09" x2="8420.14" y2="-13996.09" gradientTransform="matrix(-0.78, 0.61, 0.1, 0.31, 8376.38, -67.86)" xlink:href="#linear-gradient-2"/><linearGradient id="linear-gradient-10" x1="8391" y1="-13921.3" x2="8404.5" y2="-13921.3" gradientTransform="matrix(-0.79, 0.61, 0.1, 0.31, 8380.29, -64.34)" xlink:href="#linear-gradient-2"/><linearGradient id="linear-gradient-11" x1="-3431.54" y1="-684.71" x2="-2939.96" y2="-684.71" gradientTransform="matrix(1.14, -0.1, 0.09, -1.14, 4028.31, -832.87)" xlink:href="#linear-gradient"/><radialGradient id="radial-gradient-2" cx="693.79" cy="5238.01" r="148.23" gradientTransform="translate(5322.68 2729.43) rotate(123.71)" xlink:href="#radial-gradient"/><linearGradient id="linear-gradient-12" x1="-1709.41" y1="4730.6" x2="-1695.91" y2="4730.6" gradientTransform="translate(5154.7 2532.05) rotate(95.54)" xlink:href="#linear-gradient-2"/><linearGradient id="linear-gradient-13" x1="-3140.51" y1="14900.87" x2="-3127.01" y2="14900.87" gradientTransform="matrix(-0.15, 0.98, -0.32, 0.07, 5002.74, 2495.49)" xlink:href="#linear-gradient-2"/><linearGradient id="linear-gradient-14" x1="-1697.3" y1="4730.6" x2="-1662.33" y2="4730.6" gradientTransform="translate(5154.7 2532.05) rotate(95.54)" xlink:href="#linear-gradient-2"/><linearGradient id="linear-gradient-15" x1="-1688.22" y1="4741.97" x2="-1627.64" y2="4741.97" gradientTransform="translate(5154.7 2532.05) rotate(95.54)" xlink:href="#linear-gradient-2"/><linearGradient id="linear-gradient-16" x1="-1842.61" y1="3913.64" x2="-1782.03" y2="3913.64" gradientTransform="matrix(0.09, 1.04, -1.1, -0.05, 5075.65, 2490.47)" xlink:href="#linear-gradient-2"/><linearGradient id="linear-gradient-17" x1="-1679.81" y1="4759.24" x2="-1606.17" y2="4759.24" gradientTransform="translate(5154.7 2532.05) rotate(95.54)" xlink:href="#linear-gradient-2"/><linearGradient id="linear-gradient-18" x1="-2974.5" y1="15104.97" x2="-2961.01" y2="15104.97" gradientTransform="matrix(-0.18, 0.98, -0.32, 0.05, 5025.65, 2503)" xlink:href="#linear-gradient-2"/><linearGradient id="linear-gradient-19" x1="1463.92" y1="-15367.55" x2="1477.41" y2="-15367.55" gradientTransform="matrix(0.71, -0.7, 0.3, 0.14, 4176.51, 3641.6)" xlink:href="#linear-gradient-2"/><linearGradient id="linear-gradient-20" x1="1463.19" y1="-15404.97" x2="1476.69" y2="-15404.97" gradientTransform="matrix(0.7, -0.7, 0.3, 0.14, 4179.52, 3645.93)" xlink:href="#linear-gradient-2"/></defs><g id="_9" data-name="9"><path class="cls-1" d="M298.36,634.17l122.32,20.59s7.76-18.22,4.54-66.18C421.69,536.22,72.61,84.12,72.56,84.09,58.17,75.38,49.5,81.38,46.19,97.42,46.19,97.42,376.48,491.65,298.36,634.17Z"/><path class="cls-2" d="M433.94,722l3.9,6.84c10.38,19.32,1.73,36.85-12.4,44.13-33.73,16.79-49.4-23.5-49.4-23.5s19.57,40.14-15.2,52.28c-17.37,6.4-32.08-.37-37.75-16.89-1.67-4.84-1.85-7.11-2.88-9.75-20.37,21.41-46.43,17.37-53.83-13.34,0,0-7.18-41.17-9-72.45S259,628.81,273,610c1.68-2.25,2.72-4.29,2.19-7-2.1-10.75-46.63-91.63-46.63-91.63-1.67-4.12-3.9-14-2.85-18.35,7.45-30.45,29.93-41,55.68-23,2.79,1.95,5,4.61,8.52,11.38,0,0,35.87,84.59,43.08,92.84,2.07,2.37,4,1.87,7.09,2.43,24.09,4.42,45.58,21.69,66.53,38.38s51.49,51.27,51.49,51.27C479.83,703.38,457.49,725.92,433.94,722Z"/><line class="cls-3" x1="293.38" y1="603.63" x2="303.67" y2="711.59"/><path class="cls-4" d="M293,603.66a155.15,155.15,0,0,0-2.18,27.45c-.14,4.55.18,9.06.27,13.59.25,4.52.63,9,1,13.53.55,4.48,1,9,1.63,13.46s1.31,8.95,2.3,13.4a157.06,157.06,0,0,0,7.31,26.54l.72-.07-4.79-54-5.5-53.94Z"/><line class="cls-5" x1="304.38" y1="686.76" x2="306.41" y2="720.03"/><path class="cls-6" d="M303.9,686.79a21.85,21.85,0,0,0-5.9,8.71,20.67,20.67,0,0,0,1,16.63,22.06,22.06,0,0,0,6.89,7.93l1-.06q0-4.17-.19-8.34l-.35-8.32-.67-8.31c-.18-2.77-.47-5.53-.82-8.29Z"/><line class="cls-7" x1="305.4" y1="606.46" x2="337.31" y2="710.12"/><path class="cls-4" d="M305.06,606.57a155.45,155.45,0,0,0,3.41,27.32c.79,4.49,2,8.84,3,13.26,1.17,4.37,2.45,8.7,3.69,13.05,1.44,4.28,2.79,8.59,4.31,12.85s3.09,8.51,5,12.66A157.42,157.42,0,0,0,337,710.22l.69-.21L322,658.08l-16.29-51.72Z"/><line class="cls-8" x1="372.51" y1="693.44" x2="314.63" y2="601.72"/><path class="cls-4" d="M372.82,693.25a155.92,155.92,0,0,0-10.43-25.48c-1.93-4.13-4.25-8-6.38-12s-4.63-7.76-7-11.64c-2.51-3.76-4.94-7.57-7.52-11.28s-5.21-7.4-8.1-10.92a157.56,157.56,0,0,0-18.5-20.39l-.6.39L343,648l29.25,45.67Z"/><line class="cls-9" x1="362.57" y1="716.6" x2="308.86" y2="604.61"/><path class="cls-4" d="M362.92,716.43a190.14,190.14,0,0,0-8.82-30.21c-1.69-4.93-3.82-9.64-5.73-14.47-2.07-4.74-4.26-9.43-6.4-14.14-2.35-4.62-4.61-9.27-7-13.85s-4.92-9.12-7.7-13.52a190.36,190.36,0,0,0-18-25.79l-.69.33L335,660.94l27.2,55.82Z"/><line class="cls-10" x1="394.64" y1="671.64" x2="323.39" y2="589.88"/><path class="cls-4" d="M394.91,671.41a155.8,155.8,0,0,0-14.21-23.58c-2.54-3.78-5.43-7.26-8.14-10.89s-5.77-7-8.66-10.44c-3.06-3.33-6-6.72-9.16-10s-6.28-6.51-9.68-9.55a157,157,0,0,0-21.4-17.31l-.54.47,35.35,41.12,35.89,40.65Z"/><line class="cls-11" x1="337.64" y1="691.7" x2="340.8" y2="724.88"/><path class="cls-6" d="M337.16,691.75a21.86,21.86,0,0,0-5.6,8.9,20.69,20.69,0,0,0-.94,8.46,20.92,20.92,0,0,0,2.55,8.13,22.07,22.07,0,0,0,7.15,7.68l1-.09c-.08-2.78-.23-5.55-.47-8.32l-.63-8.31-.95-8.28c-.29-2.76-.66-5.52-1.11-8.26Z"/><line class="cls-12" x1="379.19" y1="705.06" x2="357.67" y2="679.61"/><path class="cls-6" d="M379.56,704.75a22,22,0,0,0-.48-10.51,20.64,20.64,0,0,0-4.05-7.48,21,21,0,0,0-6.73-5.23A22.13,22.13,0,0,0,358,679.3l-.73.62c1.65,2.24,3.35,4.44,5.13,6.57L367.7,693l5.5,6.26c1.81,2.11,3.69,4.16,5.62,6.16Z"/><line class="cls-13" x1="399.17" y1="683.13" x2="377.78" y2="657.57"/><path class="cls-6" d="M399.54,682.82a21.91,21.91,0,0,0-.42-10.51,20.57,20.57,0,0,0-4-7.51,21,21,0,0,0-6.7-5.25,22,22,0,0,0-10.25-2.29l-.73.62q2.44,3.38,5.1,6.59l5.22,6.49,5.47,6.29c1.8,2.12,3.67,4.18,5.59,6.19Z"/><circle class="cls-14" cx="364.57" cy="720.34" r="9.33"/><path class="cls-6" d="M319.18,665a21.76,21.76,0,0,0,10.27,2.22,20.48,20.48,0,0,0,8.28-2,21,21,0,0,0,6.77-5.16,22,22,0,0,0,4.78-9.35l-.41-.87c-2.59,1-5.14,2.11-7.66,3.29l-7.6,3.42-7.46,3.72q-3.75,1.82-7.39,3.86Z"/><path class="cls-15" d="M587.18,377.86l5,123.94S573.14,507.2,526,498C474.46,487.87,70,84.59,69.94,84.54c-6.83-15.38.22-23.22,16.54-24.48C86.48,60.06,436,437.4,587.18,377.86Z"/><path class="cls-16" d="M657.17,523.42l6.3,4.73c17.85,12.73,36.34,6.36,45.33-6.74,20.92-31.34-17.08-52-17.08-52s37.36,24.48,53.78-8.49c8.54-16.42,3.67-31.86-12-39.58-4.59-2.26-6.82-2.73-9.31-4.08,23.81-17.51,23.09-43.87-6.45-55.08,0,0-39.93-12.31-70.74-18s-60.18-6-80.62,5.49c-2.44,1.37-4.6,2.15-7.26,1.27-10.4-3.43-85-57.8-85-57.8-3.87-2.18-13.43-5.64-17.84-5.13-31.15,3.54-44.46,24.52-29.87,52.32,1.58,3,3.95,5.56,10.22,9.9,0,0,79.4,46.23,86.67,54.43,2.1,2.35,1.35,4.19,1.52,7.34,1.35,24.45,15.77,47.95,29.69,70.83s44.37,57.55,44.37,57.55C633,566.6,658.14,547.28,657.17,523.42Z"/><line class="cls-17" x1="557.51" y1="369.07" x2="663.32" y2="392.88"/><path class="cls-4" d="M557.59,368.72a154.76,154.76,0,0,1,27.5,1.29c4.53.44,9,1.32,13.45,2,4.45.82,8.86,1.77,13.3,2.66,4.38,1.11,8.78,2.12,13.15,3.31s8.71,2.43,13,4a157.52,157.52,0,0,1,25.4,10.6l-.15.7-53-11.55-52.82-12.26Z"/><line class="cls-18" x1="638.6" y1="390.46" x2="671.34" y2="396.66"/><path class="cls-6" d="M638.69,390a21.85,21.85,0,0,1,9.38-4.75,20.58,20.58,0,0,1,8.51-.16,21,21,0,0,1,7.85,3.29,22.05,22.05,0,0,1,7,7.83l-.18.95c-2.76-.34-5.51-.74-8.25-1.24l-8.21-1.4-8.16-1.71c-2.72-.53-5.43-1.16-8.12-1.86Z"/><line class="cls-19" x1="558.81" y1="381.35" x2="657.61" y2="426.07"/><path class="cls-4" d="M559,381a155.37,155.37,0,0,1,26.67,6.82c4.35,1.35,8.51,3.11,12.77,4.66,4.19,1.71,8.32,3.53,12.48,5.3,4.07,2,8.18,3.85,12.21,5.9s8,4.14,11.93,6.52a157.31,157.31,0,0,1,22.74,15.51l-.3.66-49.55-22-49.25-22.69Z"/><line class="cls-20" x1="636.63" y1="458.89" x2="552.94" y2="389.91"/><path class="cls-4" d="M636.4,459.17a156,156,0,0,1-24-13.56c-3.85-2.44-7.41-5.23-11.11-7.84s-7.12-5.57-10.67-8.37c-3.41-3-6.88-5.86-10.24-8.88s-6.68-6.11-9.81-9.42a157.21,157.21,0,0,1-17.9-20.91l.46-.56,42.07,34.21,41.62,34.77Z"/><line class="cls-21" x1="660.86" y1="451.94" x2="556.53" y2="384.55"/><path class="cls-4" d="M660.65,452.27a190.08,190.08,0,0,1-28.86-12.56c-4.68-2.29-9.09-5-13.63-7.5s-8.82-5.42-13.23-8.14c-4.28-2.91-8.61-5.74-12.84-8.73s-8.43-6-12.45-9.34a192.09,192.09,0,0,1-23.32-21.12l.42-.65,52.37,33.37,51.95,34Z"/><line class="cls-22" x1="612.22" y1="478.09" x2="540.08" y2="397.11"/><path class="cls-4" d="M612,478.33a155.71,155.71,0,0,1-21.6-17.07c-3.43-3-6.52-6.3-9.78-9.44s-6.18-6.6-9.26-9.91c-2.91-3.45-5.9-6.84-8.76-10.35s-5.67-7.05-8.26-10.8a158.42,158.42,0,0,1-14.48-23.41l.54-.48,36.34,40.25,35.8,40.73Z"/><line class="cls-23" x1="639.3" y1="424.08" x2="671.82" y2="431.39"/><path class="cls-6" d="M639.41,423.61a21.84,21.84,0,0,1,9.54-4.44,20.78,20.78,0,0,1,8.51.13,21.09,21.09,0,0,1,7.74,3.56,22.08,22.08,0,0,1,6.72,8.06l-.21.94c-2.75-.43-5.48-.93-8.2-1.52l-8.16-1.67-8.1-2c-2.7-.63-5.39-1.35-8-2.15Z"/><line class="cls-24" x1="647.32" y1="466.98" x2="624.78" y2="442.43"/><path class="cls-6" d="M647,467.3a21.85,21.85,0,0,1-10.36-1.8,20.47,20.47,0,0,1-6.92-5,21,21,0,0,1-4.33-7.33,22,22,0,0,1-.92-10.46l.71-.65c2,1.92,4,3.89,5.86,5.92l5.76,6,5.51,6.25c1.87,2.06,3.66,4.18,5.4,6.35Z"/><line class="cls-25" x1="623.04" y1="484.04" x2="600.38" y2="459.6"/><path class="cls-6" d="M622.69,484.36a21.82,21.82,0,0,1-10.37-1.74,20.52,20.52,0,0,1-6.94-4.93,20.88,20.88,0,0,1-4.38-7.31,22.06,22.06,0,0,1-1-10.46l.7-.65q3,2.87,5.9,5.89l5.79,6,5.54,6.21c1.88,2.05,3.68,4.17,5.43,6.33Z"/><circle class="cls-14" cx="664.32" cy="454.4" r="9.33"/><path class="cls-6" d="M615.18,402.4a21.91,21.91,0,0,1,.91,10.48,20.58,20.58,0,0,1-3,7.95,21,21,0,0,1-6,6.07,22.24,22.24,0,0,1-9.88,3.57l-.81-.52c1.34-2.44,2.74-4.84,4.22-7.19l4.36-7.1,4.63-6.93q2.26-3.5,4.76-6.85Z"/></g></svg>