<svg xmlns="http://www.w3.org/2000/svg" viewBox="0 0 1080 1080"><defs><style>.cls-1{fill:#039047;}.cls-2{fill:#35af4a;}</style></defs><g id="_20" data-name="20"><path class="cls-1" d="M1071.06,532.83s-116,109.92-262.65,113.88S540,547.17,540,547.17,656,437.25,802.65,433.29,1071.06,532.83,1071.06,532.83Z"/><path class="cls-2" d="M1071.06,532.83S949.3,429.33,802.65,433.29,540,547.17,540,547.17C811.21,479.41,1035.35,507.51,1071.06,532.83Z"/><path class="cls-1" d="M8.94,532.83s116,109.92,262.65,113.88S540,547.17,540,547.17,424,437.25,277.35,433.29,8.94,532.83,8.94,532.83Z"/><path class="cls-2" d="M8.94,532.83s121.76-103.5,268.41-99.54S540,547.17,540,547.17C268.79,479.41,44.65,507.51,8.94,532.83Z"/></g></svg>