<?xml version="1.0" encoding="utf-8"?>
<!-- Generator: Adobe Illustrator 24.2.1, SVG Export Plug-In . SVG Version: 6.00 Build 0)  -->
<svg version="1.1" id="Layer_1" xmlns="http://www.w3.org/2000/svg" xmlns:xlink="http://www.w3.org/1999/xlink" x="0px" y="0px"
	 viewBox="0 0 235.5 143.7" style="enable-background:new 0 0 235.5 143.7;" xml:space="preserve">
<style type="text/css">
	.st0{fill:#039447;}
	.st1{fill:#38B34A;}
	.st2{display:none;}
	.st3{display:inline;}
	.st4{fill:url(#SVGID_1_);}
	.st5{fill:url(#SVGID_2_);}
	.st6{fill:none;}
	.st7{fill:#FAAF43;}
	.st8{fill:#F15B2A;}
	.st9{fill:#8CC540;}
	.st10{fill:url(#SVGID_3_);}
	.st11{fill:url(#SVGID_4_);}
</style>
<path class="st0" d="M0,3.8c0,0,25.3,77.8,90.4,115.4s145.1,20.8,145.1,20.8s-25.3-77.8-90.4-115.4S0,3.8,0,3.8z"/>
<path class="st1" d="M0,3.8c0,0,80.1-16.8,145.1,20.8s90.4,115.4,90.4,115.4C130,43.2,22.3,1.1,0,3.8z"/>
<g id="Layer_1_1_" class="st2">
	<g class="st3">
		<g>
			<g>
				
					<linearGradient id="SVGID_1_" gradientUnits="userSpaceOnUse" x1="212.0308" y1="-611.2589" x2="359.5123" y2="-611.2589" gradientTransform="matrix(0.4875 -1.038 -1.1053 -0.3083 -612.4273 29.0373)">
					<stop  offset="0" style="stop-color:#F69320"/>
					<stop  offset="1" style="stop-color:#EF4137"/>
				</linearGradient>
				<path class="st4" d="M257-141.4l-10.1,1.2l-12.6-16.6l-66.6,3.2l-13.3,23.2c4.2,1.5,9,3.3,15.5,10.2
					c6.5,6.9,52.8,131.9,52.8,131.9c0,0,0,0,0,0.1c4.5,4.3,8.1,2.8,10.5-2.6C233.3,9.1,188.4-107.8,257-141.4z"/>
				
					<radialGradient id="SVGID_2_" cx="518.2458" cy="-49.5223" r="43.747" gradientTransform="matrix(1.1954 -0.9395 -0.9288 -1.1817 -465.4044 256.7352)" gradientUnits="userSpaceOnUse">
					<stop  offset="0" style="stop-color:#F16429"/>
					<stop  offset="0.3466" style="stop-color:#F16728"/>
					<stop  offset="1" style="stop-color:#F69320"/>
					<stop  offset="1" style="stop-color:#F15B2A"/>
				</radialGradient>
				<path class="st5" d="M154.4-130.4c-14.4-1.4-21.9-16.3-16.6-28.4c1.5-3.5,4.4-6.2,7.8-7.8l5.4-2.6c3.2-1.5,5.9-4,7.4-7.2
					c1-2.1,1.6-4.3,1.9-6.6c0.4-3.3-0.5-6.7-2.1-9.6l-3.6-6.3c-1.6-2.8-2.4-5.9-2.2-9.1c1-11.7,12.1-20.5,23.7-18.7
					c3.2,0.5,6.1,2.1,8.4,4.3l6.1,5.9c2.5,2.4,5.8,4.1,9.3,4.5c1.1,0.1,2.1,0.1,3.2,0.1c5-0.2,9.5-3,12.3-7.1l2.2-3.2
					c2.9-4.2,7.5-7,12.6-7.2c9.1-0.3,17.5,5.6,20.1,14.4c1.3,4.3,0.5,8.9-1.8,12.7l-3.6,6.1c-2.2,3.7-3,8.2-1.9,12.4
					c0,0.1,0,0.1,0,0.2c1.6,5.3,6,9.3,11.3,10.8l4.3,1.2c5.5,1.5,9.9,5.7,11.4,11.1c2,7.3-0.3,15.3-5.8,20.5
					c-4.3,4.1-10.7,5.1-16.3,3.2l-2.3-0.8c-5.9-2-12.5-0.7-16.8,3.7c-0.1,0.1-0.2,0.2-0.3,0.4c-2.5,2.6-3.9,6.1-4.2,9.7l-0.8,9.3
					c-0.3,3.3-1.4,6.5-3.6,9c-6.1,7.1-16.2,8.9-24.3,5.2c-5.7-2.6-9.3-8.6-9.2-14.9l0-1.4c0-5.8-2.9-11.3-7.9-14.1
					c-2.4-1.3-5.1-2.2-7.9-2.5"/>
			</g>
			<g>
				<g>
					<line class="st6" x1="192.6" y1="-159.4" x2="178" y2="-206.4"/>
					<path class="st7" d="M192.4-159.3c-2.2-3.6-4.2-7.3-5.7-11.1c-1.6-3.8-3-7.7-4.2-11.6c-1.2-3.9-2.3-7.9-3.1-11.9
						c-0.9-4-1.4-8.2-1.6-12.4l0.3-0.1l7.5,23.5l7.2,23.6L192.4-159.3z"/>
				</g>
				<g>
					<line class="st6" x1="182.6" y1="-196.1" x2="177.6" y2="-210.4"/>
					<path class="st8" d="M182.4-196.1c-1.9-0.7-3-1.6-4-2.6c-1-1-1.6-2.1-2-3.3c-0.4-1.2-0.6-2.5-0.5-3.9c0.1-1.4,0.4-2.8,1.5-4.5
						l0.4-0.1c1,2.3,1.8,4.7,2.7,7.1c0.8,2.4,1.6,4.8,2.3,7.2L182.4-196.1z"/>
				</g>
				<g>
					<line class="st6" x1="197.1" y1="-162.7" x2="192.3" y2="-211.7"/>
					<path class="st7" d="M197-162.6c-1.5-4-2.6-8-3.4-12.1c-0.8-4-1.4-8.1-1.8-12.2c-0.4-4.1-0.6-8.2-0.6-12.3
						c0-4.1,0.3-8.3,1-12.5l0.3,0l2.6,24.5l2.2,24.5L197-162.6z"/>
				</g>
				<g>
					<line class="st6" x1="210" y1="-210.9" x2="201.8" y2="-162.3"/>
					<path class="st7" d="M210.2-210.9c0.4,4.2,0.4,8.4,0.1,12.5c-0.2,4.1-0.8,8.2-1.4,12.2c-0.7,4-1.5,8.1-2.6,12.1
						c-1,4-2.4,7.9-4.2,11.8l-0.3-0.1l3.9-24.3l4.2-24.3L210.2-210.9z"/>
				</g>
				<g>
					<line class="st6" x1="201.8" y1="-218.8" x2="198.9" y2="-162.5"/>
					<path class="st7" d="M202-218.8c1,4.8,1.4,9.5,1.6,14.2c0.2,4.7,0.1,9.4-0.1,14.1c-0.3,4.7-0.7,9.4-1.4,14.1
						c-0.7,4.7-1.6,9.3-3,14l-0.4,0l1.3-28.2l1.6-28.2L202-218.8z"/>
				</g>
				<g>
					<line class="st6" x1="223.1" y1="-205.6" x2="207.6" y2="-158.9"/>
					<path class="st7" d="M223.3-205.6c-0.3,4.2-0.9,8.4-1.8,12.4c-0.9,4-2,8-3.3,11.9c-1.4,3.9-2.8,7.7-4.5,11.5
						c-1.6,3.8-3.6,7.4-5.9,11l-0.3-0.1l7.6-23.4l7.9-23.3L223.3-205.6z"/>
				</g>
				<g>
					<line class="st6" x1="195.7" y1="-204" x2="191.2" y2="-218.5"/>
					<path class="st8" d="M195.5-204c-1.9-0.8-3-1.7-3.9-2.8c-0.9-1-1.5-2.2-1.9-3.4c-0.4-1.2-0.5-2.5-0.3-3.9
						c0.1-1.4,0.5-2.8,1.6-4.5l0.4-0.1c0.9,2.3,1.6,4.8,2.5,7.2c0.7,2.4,1.5,4.8,2,7.3L195.5-204z"/>
				</g>
				<g>
					<line class="st6" x1="210.8" y1="-216.9" x2="206.2" y2="-202.5"/>
					<path class="st8" d="M211-216.9c1.1,1.7,1.5,3.1,1.6,4.5c0.2,1.4,0,2.6-0.4,3.9c-0.4,1.2-1,2.3-1.9,3.4c-0.9,1-2,2-3.9,2.7
						l-0.4-0.1c0.6-2.5,1.4-4.9,2.1-7.3c0.8-2.4,1.5-4.8,2.5-7.2L211-216.9z"/>
				</g>
				<g>
					<line class="st6" x1="223" y1="-211.2" x2="218.5" y2="-196.8"/>
					<path class="st8" d="M223.2-211.2c1.1,1.7,1.5,3.1,1.6,4.5c0.2,1.4,0,2.7-0.3,3.9c-0.4,1.2-1,2.3-1.9,3.4c-0.9,1-2,2-3.9,2.8
						l-0.4-0.1c0.6-2.5,1.4-4.9,2-7.3c0.8-2.4,1.5-4.8,2.5-7.2L223.2-211.2z"/>
				</g>
				<circle class="st9" cx="202" cy="-220.8" r="4.2"/>
				<g>
					<line class="st6" x1="194.2" y1="-189" x2="209.3" y2="-188.3"/>
					<path class="st8" d="M194.2-189.2c1.3-1.5,2.6-2.2,3.9-2.7c1.3-0.5,2.6-0.7,3.8-0.6c1.3,0.1,2.5,0.4,3.7,1
						c1.2,0.6,2.5,1.5,3.6,3.1l0,0.4c-2.5,0.1-5-0.1-7.6-0.1c-2.5-0.2-5-0.3-7.5-0.6L194.2-189.2z"/>
				</g>
			</g>
		</g>
		<g>
			
				<linearGradient id="SVGID_3_" gradientUnits="userSpaceOnUse" x1="-1184.8099" y1="282.7927" x2="-1037.3275" y2="282.7927" gradientTransform="matrix(-1.1456 5.150000e-02 0.1398 -1.139 -1163.8792 336.4638)">
				<stop  offset="0" style="stop-color:#F69320"/>
				<stop  offset="1" style="stop-color:#EF4137"/>
			</linearGradient>
			<path class="st10" d="M70-16.4l5-8.9l-10.5-18l28.6-60.2l26.5-3.4c-0.2,4.4-0.4,9.6,3.5,18.2s101.5,99.4,101.5,99.4c0,0,0,0,0,0
				c2.2,5.8-0.5,8.5-6.5,8.7C218.2,19.4,127.4-66.9,70-16.4z"/>
			
				<radialGradient id="SVGID_4_" cx="-822.124" cy="22.4065" r="43.7378" gradientTransform="matrix(-1.3265 0.743 -0.7345 -1.3113 -1010.069 559.6224)" gradientUnits="userSpaceOnUse">
				<stop  offset="0" style="stop-color:#F16429"/>
				<stop  offset="0.3466" style="stop-color:#F16728"/>
				<stop  offset="1" style="stop-color:#F69320"/>
				<stop  offset="1" style="stop-color:#F15B2A"/>
			</radialGradient>
			<path class="st11" d="M119.6-107c4.2-13.8-6.7-26.4-19.8-26.2c-3.8,0.1-7.4,1.6-10.2,4.1l-4.5,4c-2.6,2.4-6,3.9-9.5,4.1
				c-2.3,0.1-4.6-0.2-6.8-0.8c-3.2-0.9-6-3-8-5.6l-4.4-5.8c-1.9-2.5-4.5-4.5-7.5-5.5c-11.2-3.6-23.6,3.3-26.4,14.7
				c-0.8,3.1-0.4,6.4,0.8,9.4l3.1,7.9c1.3,3.3,1.6,6.9,0.6,10.3c-0.3,1-0.7,2-1.1,3c-2.1,4.5-6.4,7.6-11.3,8.6L10.6-84
				c-5,1-9.3,4.3-11.5,8.9c-3.8,8.3-1.5,18.3,5.5,24.1c3.4,2.8,8,3.9,12.4,3.2l7-1c4.3-0.6,8.8,0.4,12.2,3.1c0.1,0,0.1,0.1,0.1,0.1
				c4.3,3.5,6.3,9.1,5.6,14.6l-0.6,4.5c-0.7,5.6,1.4,11.3,5.9,14.8c5.9,4.6,14.2,5.6,21.1,2.5c5.4-2.4,8.9-7.9,9.2-13.8l0.1-2.4
				c0.4-6.2,4.1-11.8,9.9-14.1c0.1-0.1,0.3-0.1,0.5-0.2c3.4-1.3,7.1-1.3,10.6-0.1l8.9,2.9c3.1,1,6.5,1.2,9.7,0.1
				c8.9-2.9,14.5-11.6,14.2-20.4c-0.2-6.3-4.3-11.8-10.2-14.2l-1.2-0.5c-5.3-2.2-9.3-7-10-12.7c-0.3-2.7-0.1-5.5,0.7-8.2"/>
			<g>
				<g>
					<line class="st6" x1="72.9" y1="-66.6" x2="23.6" y2="-68.9"/>
					<path class="st7" d="M72.8-66.5c-4.1,0.9-8.3,1.4-12.4,1.6c-4.1,0.2-8.2,0.2-12.3,0c-4.1-0.2-8.2-0.6-12.3-1.2
						c-4.1-0.6-8.1-1.5-12.2-2.7l0-0.3l24.6,1l24.6,1.3L72.8-66.5z"/>
				</g>
				<g>
					<line class="st6" x1="34.9" y1="-69.8" x2="19.7" y2="-70"/>
					<path class="st8" d="M34.9-69.6c-1.3,1.5-2.6,2.3-3.8,2.9c-1.3,0.6-2.5,0.8-3.8,0.8c-1.3,0-2.5-0.3-3.8-0.9
						c-1.2-0.6-2.5-1.4-3.8-2.9l0-0.4c2.5-0.2,5.1-0.1,7.6-0.1c2.5,0.1,5.1,0.1,7.6,0.3V-69.6z"/>
				</g>
				<g>
					<line class="st6" x1="71.3" y1="-72" x2="23.6" y2="-84.2"/>
					<path class="st7" d="M71.3-71.9c-4.2,0-8.4-0.3-12.5-0.9c-4.1-0.6-8.1-1.5-12.1-2.5c-4-1.1-7.9-2.2-11.8-3.6
						c-3.9-1.4-7.7-3.1-11.4-5.1l0.1-0.3l23.9,5.9l23.8,6.3L71.3-71.9z"/>
				</g>
				<g>
					<line class="st6" x1="30.4" y1="-100.6" x2="73.3" y2="-76.3"/>
					<path class="st7" d="M30.4-100.7c4.1,1.1,8,2.5,11.8,4.2c3.8,1.6,7.4,3.6,11,5.5c3.6,2.1,7.1,4.2,10.4,6.6
						c3.4,2.3,6.6,5,9.7,7.9l-0.2,0.3l-21.5-12l-21.4-12.2L30.4-100.7z"/>
				</g>
				<g>
					<line class="st6" x1="20.1" y1="-95.5" x2="72.1" y2="-73.6"/>
					<path class="st7" d="M20.1-95.7C25-95,29.5-93.8,34-92.4c4.5,1.4,8.9,3.1,13.2,4.9c4.3,1.9,8.6,3.8,12.7,6.1
						c4.2,2.2,8.2,4.6,12.1,7.6L72-73.5L45.9-84.3L20-95.4L20.1-95.7z"/>
				</g>
				<g>
					<line class="st6" x1="39.8" y1="-111.1" x2="78.4" y2="-80.5"/>
					<path class="st7" d="M39.9-111.2c3.9,1.7,7.6,3.7,11,5.9c3.5,2.2,6.8,4.6,10.1,7.2c3.2,2.6,6.3,5.2,9.3,8.1
						c3,2.8,5.8,5.9,8.3,9.3l-0.2,0.3L58.9-95.5l-19.2-15.4L39.9-111.2z"/>
				</g>
				<g>
					<line class="st6" x1="31.9" y1="-84.8" x2="16.8" y2="-85.5"/>
					<path class="st8" d="M31.9-84.6c-1.3,1.5-2.6,2.2-3.9,2.7c-1.3,0.5-2.6,0.7-3.8,0.6c-1.3-0.1-2.5-0.4-3.7-1
						c-1.2-0.6-2.5-1.5-3.6-3.1l0-0.4c2.5-0.1,5.1,0.1,7.6,0.1c2.5,0.2,5,0.3,7.6,0.6L31.9-84.6z"/>
				</g>
				<g>
					<line class="st6" x1="24.9" y1="-103.3" x2="37" y2="-94.1"/>
					<path class="st8" d="M25.1-103.5c1.9-0.5,3.4-0.3,4.8,0c1.4,0.3,2.5,0.9,3.5,1.7c1,0.8,1.9,1.7,2.5,3c0.7,1.2,1.2,2.6,1.2,4.6
						l-0.3,0.4c-2.1-1.4-4.1-3-6.1-4.4c-2-1.6-4-3.1-5.9-4.8L25.1-103.5z"/>
				</g>
				<g>
					<line class="st6" x1="34.5" y1="-112.9" x2="46.5" y2="-103.7"/>
					<path class="st8" d="M34.6-113.1c1.9-0.5,3.4-0.4,4.8,0c1.4,0.3,2.5,0.9,3.5,1.6c1,0.8,1.9,1.7,2.5,2.9
						c0.7,1.2,1.2,2.6,1.3,4.6l-0.3,0.4c-2.1-1.4-4.1-2.9-6.2-4.4c-2-1.6-4-3.1-5.9-4.8L34.6-113.1z"/>
				</g>
				<circle class="st9" cx="18.3" cy="-96.4" r="4.2"/>
				<g>
					<line class="st6" x1="45.5" y1="-78.2" x2="51.3" y2="-92.2"/>
					<path class="st8" d="M45.3-78.3c-0.9-1.8-1.2-3.2-1.2-4.6c-0.1-1.4,0.2-2.6,0.7-3.8c0.5-1.2,1.2-2.2,2.2-3.2
						c1-1,2.2-1.8,4.1-2.4l0.4,0.2c-0.8,2.4-1.8,4.7-2.7,7.1c-1,2.3-2,4.6-3.1,6.9L45.3-78.3z"/>
				</g>
			</g>
		</g>
	</g>
</g>
</svg>
