<?xml version="1.0" standalone="no"?>
<!DOCTYPE svg PUBLIC "-//W3C//DTD SVG 20010904//EN"
 "http://www.w3.org/TR/2001/REC-SVG-20010904/DTD/svg10.dtd">
<svg version="1.0" xmlns="http://www.w3.org/2000/svg"
 width="2500.000000pt" height="2500.000000pt" viewBox="0 0 2500.000000 2500.000000"
 preserveAspectRatio="xMidYMid meet">

<g transform="translate(0.000000,2500.000000) scale(0.100000,-0.100000)"
fill="#000000" stroke="none">
<path d="M0 12500 l0 -12500 12500 0 12500 0 0 12500 0 12500 -12500 0 -12500
0 0 -12500z m20753 8238 c-2 -5 -3 -3729 -3 -8278 l0 -8270 -8260 0 -8260 0 0
8273 c0 4551 3 8277 7 8280 9 10 16519 4 16516 -5z"/>
<path d="M12245 18290 c-3 -5 -37 -10 -75 -10 -38 0 -71 -4 -74 -9 -3 -5 -33
-12 -66 -16 -33 -4 -63 -11 -66 -16 -3 -5 -18 -9 -34 -9 -16 0 -32 -5 -35 -11
-4 -5 -17 -9 -28 -8 -21 2 -35 -2 -82 -21 -11 -5 -42 -16 -70 -27 -65 -24
-209 -162 -220 -210 -8 -40 -45 -115 -67 -137 -9 -9 -25 -16 -36 -16 -11 0
-25 -7 -32 -15 -7 -8 -21 -15 -31 -15 -10 0 -21 -4 -24 -10 -3 -5 -21 -10 -38
-10 -64 0 -143 -55 -167 -115 -8 -19 -17 -35 -22 -35 -4 0 -8 -24 -8 -54 0
-56 31 -125 57 -126 6 0 20 -11 31 -25 11 -14 24 -25 29 -25 5 0 20 -11 33
-25 13 -14 29 -25 36 -25 6 0 17 -6 23 -14 7 -8 26 -22 44 -31 63 -33 79 -43
108 -71 17 -16 41 -52 54 -79 12 -28 30 -57 39 -64 9 -7 16 -21 16 -29 0 -21
77 -177 110 -222 36 -51 153 -170 166 -170 6 0 19 -10 30 -21 10 -12 28 -25
39 -30 32 -14 59 -33 68 -46 4 -7 14 -13 21 -13 7 0 21 -9 31 -20 10 -11 24
-20 31 -20 7 0 25 -10 41 -22 32 -26 62 -45 83 -55 8 -3 34 -21 57 -40 23 -18
45 -33 50 -33 11 0 143 -133 143 -144 0 -5 21 -32 46 -60 79 -87 84 -94 84
-103 0 -5 11 -20 25 -33 14 -13 25 -28 25 -33 0 -5 11 -23 25 -41 38 -47 50
-65 86 -131 11 -22 24 -42 28 -45 10 -8 91 -175 91 -188 0 -7 3 -12 8 -12 7 0
32 -48 32 -63 0 -10 25 -70 43 -102 13 -25 10 -259 -3 -263 -6 -2 -10 -42 -10
-88 0 -49 -4 -84 -10 -84 -6 0 -10 -59 -10 -156 l0 -156 -24 29 c-13 15 -27
39 -31 53 -4 14 -16 37 -26 52 -11 14 -19 33 -19 42 0 9 -11 39 -25 66 -14 28
-22 50 -18 50 4 0 2 5 -5 12 -7 7 -12 20 -12 29 0 10 -9 34 -21 53 -12 20 -18
36 -14 36 3 0 -3 17 -14 38 -17 32 -29 58 -55 122 -3 8 -17 33 -31 55 -14 22
-30 49 -35 60 -13 26 -36 61 -87 135 -24 33 -43 63 -43 66 0 4 -22 32 -50 64
-27 32 -50 62 -50 67 0 5 -11 20 -25 33 -14 13 -25 29 -25 36 0 18 -275 294
-293 294 -8 0 -21 7 -28 16 -11 14 -27 16 -102 10 -49 -4 -96 -11 -105 -16
-33 -16 -90 -40 -99 -40 -12 0 -183 -87 -203 -103 -8 -7 -42 -26 -75 -42 -33
-16 -73 -38 -90 -50 -43 -29 -65 -42 -105 -62 -19 -9 -39 -23 -43 -30 -4 -7
-14 -13 -21 -13 -7 0 -21 -9 -31 -20 -10 -11 -23 -20 -30 -20 -6 0 -37 -18
-69 -40 -31 -22 -59 -40 -63 -40 -3 0 -22 -13 -43 -30 -21 -16 -42 -30 -47
-30 -6 0 -18 -9 -28 -20 -10 -11 -22 -20 -28 -20 -5 0 -26 -13 -47 -30 -21
-16 -42 -30 -47 -30 -6 0 -18 -9 -28 -20 -10 -11 -24 -20 -32 -20 -7 0 -16 -7
-19 -15 -4 -8 -12 -15 -18 -15 -7 0 -23 -11 -36 -25 -13 -14 -29 -25 -35 -25
-6 0 -22 -11 -35 -25 -13 -14 -27 -25 -32 -25 -5 0 -19 -11 -32 -25 -13 -14
-28 -25 -33 -25 -5 0 -24 -16 -43 -35 -19 -19 -39 -35 -45 -35 -13 0 -375
-362 -375 -376 0 -5 -18 -28 -40 -49 -22 -21 -40 -44 -40 -50 0 -7 -9 -20 -20
-30 -47 -42 -180 -276 -180 -315 0 -9 -6 -22 -12 -29 -18 -17 -18 -285 0 -303
6 -6 12 -24 12 -39 0 -15 4 -30 9 -33 5 -3 12 -21 15 -40 8 -43 98 -227 120
-245 9 -7 16 -18 16 -23 0 -10 117 -127 146 -145 10 -7 79 -42 152 -79 73 -37
130 -69 127 -72 -3 -3 -30 -5 -59 -3 -30 1 -57 -2 -61 -8 -3 -6 -35 -11 -70
-11 -35 0 -66 -4 -69 -9 -3 -4 -33 -11 -67 -14 -34 -3 -66 -10 -72 -16 -6 -6
-21 -11 -34 -11 -13 0 -23 -4 -23 -9 0 -5 -13 -12 -29 -16 -16 -3 -37 -15 -47
-26 -9 -10 -22 -19 -29 -19 -7 0 -22 -13 -35 -30 -13 -16 -28 -30 -34 -30 -6
0 -49 -38 -96 -85 -47 -47 -88 -85 -93 -85 -5 0 -50 -39 -102 -86 -85 -79
-113 -100 -155 -120 -8 -4 -30 -20 -49 -36 -18 -16 -43 -34 -55 -39 -11 -5
-39 -20 -61 -34 -43 -27 -81 -45 -96 -45 -5 0 -9 -4 -9 -10 0 -6 -28 -10 -63
-10 -51 0 -68 4 -82 20 -9 10 -54 38 -99 62 l-81 43 -138 -1 c-88 -1 -142 -5
-150 -13 -6 -6 -26 -11 -43 -11 -18 0 -35 -4 -38 -9 -3 -4 -25 -11 -48 -15
-29 -5 -58 -20 -96 -53 -40 -34 -56 -43 -65 -34 -6 6 -21 11 -34 11 -13 0 -31
4 -41 10 -17 9 -107 27 -192 37 -25 3 -49 9 -55 14 -5 5 -51 9 -103 9 -93 0
-94 0 -88 23 4 12 8 27 10 34 1 7 5 16 9 19 4 4 7 20 7 35 0 15 4 30 9 33 5 3
12 23 15 43 8 43 28 93 37 93 4 0 9 18 13 40 3 22 15 55 26 74 10 19 22 51 26
70 3 20 10 39 15 42 5 3 9 16 9 29 0 13 4 27 10 30 5 3 12 28 16 56 4 27 11
52 15 55 12 7 12 241 0 248 -4 3 -11 25 -14 48 -3 24 -17 66 -31 93 -14 28
-26 55 -26 61 0 13 -86 182 -102 202 -13 15 -32 47 -44 72 -4 8 -29 40 -56 69
-26 30 -48 58 -48 62 0 37 -339 399 -373 399 -8 0 -20 7 -27 15 -15 18 -223
121 -265 131 -16 4 -44 15 -61 25 -17 9 -57 20 -88 24 -31 4 -59 11 -62 16 -3
5 -18 9 -34 9 -16 0 -31 4 -35 9 -3 5 -46 13 -95 17 -50 3 -93 11 -96 15 -3 5
-38 9 -79 9 -41 0 -77 5 -80 10 -3 6 -42 10 -87 10 -79 0 -82 1 -211 65 -72
37 -136 70 -143 75 -6 6 -45 13 -88 16 -42 4 -76 11 -76 15 0 12 -157 12 -164
0 -3 -4 -25 -11 -49 -14 -45 -6 -67 -16 -132 -59 -64 -42 -135 -127 -135 -162
0 -16 54 -60 97 -78 15 -7 53 -34 84 -60 31 -26 61 -48 66 -48 5 0 20 -11 33
-25 13 -14 28 -25 33 -25 6 0 28 -15 51 -32 23 -18 58 -42 79 -52 20 -11 37
-23 37 -28 0 -4 6 -8 13 -8 8 0 22 -10 33 -21 10 -12 28 -25 39 -30 32 -14 59
-33 72 -50 12 -16 170 -99 188 -99 6 0 31 -11 58 -24 26 -14 61 -27 77 -31 17
-4 30 -10 30 -13 0 -8 74 -42 90 -42 6 0 10 -3 10 -8 0 -8 73 -42 90 -42 6 0
10 -4 10 -10 0 -5 33 -26 73 -45 39 -20 79 -43 88 -51 8 -8 21 -14 27 -14 6 0
23 -11 39 -24 15 -13 38 -26 51 -30 13 -4 50 -31 84 -59 33 -29 71 -59 85 -67
13 -8 29 -26 36 -40 7 -14 22 -29 34 -35 13 -5 28 -23 35 -40 6 -16 14 -32 17
-35 14 -12 41 -83 41 -105 0 -13 4 -27 10 -30 5 -3 12 -28 16 -56 4 -27 11
-52 15 -55 5 -3 9 -16 9 -30 0 -13 4 -32 9 -42 8 -15 18 -61 38 -182 3 -19 10
-40 15 -47 15 -19 16 -205 1 -210 -7 -3 -13 -10 -13 -17 0 -22 -84 -95 -144
-126 -33 -16 -63 -30 -68 -30 -15 0 -88 -35 -88 -42 0 -5 -5 -8 -11 -8 -14 0
-168 -76 -189 -94 -8 -6 -28 -18 -45 -26 -16 -8 -43 -24 -60 -35 -43 -29 -68
-44 -85 -52 -46 -21 -100 -79 -100 -107 0 -13 -4 -28 -10 -31 -5 -3 -10 -30
-10 -60 0 -30 -4 -57 -10 -60 -6 -4 -10 -68 -10 -160 0 -92 4 -156 10 -160 6
-3 10 -24 10 -45 0 -21 4 -41 9 -44 5 -4 12 -25 16 -48 4 -23 11 -49 15 -58 4
-8 27 -54 50 -102 23 -49 46 -88 51 -88 5 0 9 -6 9 -13 0 -18 72 -87 91 -87 8
0 19 -4 24 -9 9 -8 86 -17 185 -21 14 -1 70 -25 125 -55 176 -94 359 -184 388
-191 15 -3 27 -10 27 -15 0 -5 10 -9 23 -9 12 0 31 -7 41 -15 11 -8 32 -15 47
-15 15 0 31 -4 34 -10 3 -5 16 -10 29 -10 12 0 26 -4 32 -10 5 -5 42 -12 82
-16 40 -4 75 -11 78 -15 3 -5 115 -9 249 -9 162 0 246 -4 250 -11 4 -6 31 -9
61 -8 29 2 57 0 61 -4 3 -4 28 -7 54 -7 26 0 51 -4 54 -10 3 -5 19 -10 35 -10
16 0 32 -5 35 -10 4 -6 23 -10 43 -10 41 1 86 -7 117 -20 11 -5 46 -12 77 -15
32 -4 60 -11 63 -16 4 -5 19 -9 34 -9 56 0 57 2 -98 -161 -61 -63 -111 -118
-111 -123 0 -4 -16 -28 -35 -53 -19 -25 -35 -53 -35 -63 0 -9 -7 -25 -15 -36
-8 -10 -15 -31 -15 -46 0 -15 -4 -30 -10 -33 -6 -3 -10 -50 -10 -105 0 -55 4
-102 10 -105 6 -3 10 -19 10 -35 0 -16 4 -31 9 -35 5 -3 13 -20 17 -37 9 -41
20 -62 66 -120 21 -26 38 -51 38 -56 0 -11 43 -52 54 -52 5 0 19 -10 30 -23
26 -26 54 -45 78 -53 10 -4 20 -14 23 -25 4 -12 20 -20 51 -25 24 -3 47 -10
50 -15 3 -5 18 -9 34 -9 16 0 31 -4 34 -8 3 -5 71 -12 152 -15 82 -3 152 -11
157 -16 6 -6 23 -11 37 -11 32 0 50 -17 50 -47 0 -13 7 -26 15 -29 8 -4 15
-12 15 -19 0 -6 10 -20 21 -31 12 -10 25 -28 31 -39 15 -32 31 -58 63 -101 34
-44 52 -72 62 -94 4 -8 9 -17 13 -20 13 -11 69 -95 87 -130 10 -21 20 -34 79
-99 28 -31 54 -64 57 -74 4 -9 15 -20 24 -24 10 -3 29 -16 43 -29 29 -27 180
-104 203 -104 9 0 19 -4 22 -10 3 -5 17 -10 31 -10 13 0 24 -4 24 -9 0 -5 25
-13 55 -16 30 -4 58 -11 61 -16 3 -5 24 -9 48 -9 23 0 47 -5 53 -11 16 -16
1068 -18 1084 -1 7 6 25 12 40 12 15 0 31 5 34 10 3 5 19 10 34 10 15 0 36 7
47 15 10 8 27 15 37 15 10 0 33 11 51 25 18 14 37 25 43 25 5 0 20 12 34 26
13 14 37 33 52 41 27 14 34 12 174 -58 79 -40 154 -80 166 -88 12 -9 36 -23
52 -31 17 -8 44 -24 60 -36 17 -12 41 -25 55 -29 14 -4 37 -16 51 -26 14 -10
37 -21 52 -24 15 -4 27 -10 27 -14 0 -7 44 -27 83 -35 15 -4 27 -11 27 -17 0
-16 -30 -71 -61 -110 -16 -20 -29 -41 -29 -46 0 -5 -16 -24 -35 -43 -19 -19
-35 -38 -35 -44 0 -5 -37 -49 -82 -97 -512 -538 -508 -534 -508 -546 0 -5 -11
-20 -25 -33 -14 -13 -25 -28 -25 -33 0 -6 -6 -18 -14 -26 -27 -31 -56 -92 -62
-131 -4 -22 -10 -40 -15 -40 -12 0 -12 -155 0 -178 5 -9 24 -48 42 -86 24 -51
55 -92 115 -153 45 -46 88 -83 95 -83 7 0 20 -6 28 -14 22 -19 89 -56 102 -56
6 0 25 -6 42 -14 66 -29 96 -38 106 -32 5 4 12 2 16 -4 3 -5 23 -10 44 -10 20
0 41 -4 47 -10 5 -5 69 -12 142 -16 73 -4 135 -11 138 -16 8 -12 78 -10 91 3
8 8 13 8 17 0 9 -14 123 -14 131 -1 4 6 23 11 43 10 55 0 121 11 128 21 3 5
22 9 43 9 21 0 41 3 45 8 4 4 17 8 29 10 95 11 117 15 117 22 0 4 20 11 45 14
24 4 47 11 50 17 4 5 19 9 35 9 16 0 31 4 34 9 3 5 23 12 43 16 21 4 44 11 50
17 7 6 26 11 42 13 16 1 42 12 59 23 16 12 37 22 45 22 9 0 18 4 22 9 9 16 64
40 70 31 3 -5 1 -11 -5 -15 -5 -3 -10 -15 -10 -26 0 -10 -4 -27 -9 -37 -15
-28 -24 -56 -22 -69 1 -6 -3 -14 -9 -18 -5 -3 -10 -19 -10 -35 0 -16 -4 -32
-10 -35 -5 -3 -10 -44 -10 -91 0 -79 2 -86 29 -114 21 -22 37 -30 64 -30 20 0
38 4 41 9 3 4 35 11 71 15 37 4 76 12 88 18 46 23 57 28 68 28 11 0 67 23 102
41 10 6 41 13 68 16 27 3 49 10 49 14 0 5 15 9 34 9 19 0 37 4 41 9 3 5 31 12
63 16 31 3 65 10 74 15 10 6 33 10 52 10 19 0 37 4 40 9 3 5 22 12 41 15 19 4
35 11 35 15 0 5 12 12 26 15 24 6 190 150 250 217 16 18 50 56 77 84 26 29 47
55 47 60 0 4 15 24 33 45 17 20 50 63 72 95 22 31 52 72 68 90 15 18 27 36 27
40 0 4 14 24 30 45 17 21 30 42 31 46 0 5 20 36 45 69 24 33 53 79 64 103 11
23 24 42 28 42 8 0 42 73 42 90 0 6 4 18 9 28 5 9 16 34 25 55 9 21 23 40 32
44 9 3 27 16 41 29 14 13 35 26 47 30 11 3 47 28 78 55 77 67 85 65 94 -21 4
-39 11 -73 15 -76 5 -3 9 -24 9 -48 0 -23 4 -46 10 -52 5 -5 12 -88 15 -184 6
-161 11 -192 36 -242 5 -10 9 -26 9 -37 0 -10 19 -37 41 -60 37 -36 47 -41 89
-41 52 0 95 18 128 53 34 36 82 134 82 168 0 16 5 29 10 29 6 0 10 10 10 23 0
13 4 27 10 33 5 5 13 49 16 97 4 48 11 90 16 93 11 7 10 341 -1 348 -5 3 -12
33 -16 66 -4 33 -11 63 -16 66 -5 3 -9 13 -9 22 0 15 -48 120 -60 132 -8 8
-29 43 -39 65 -5 11 -18 29 -30 39 -11 11 -21 23 -21 28 0 4 -18 26 -40 48
-22 22 -40 44 -40 48 0 9 -143 147 -211 203 -24 20 -63 53 -85 73 -23 20 -46
36 -51 36 -5 0 -24 16 -43 35 -19 19 -38 35 -43 35 -5 0 -18 11 -29 25 -11 14
-25 25 -31 25 -17 0 -178 167 -200 207 -9 17 -17 38 -17 47 0 9 -4 24 -9 34
-12 22 -25 54 -26 67 0 6 -8 26 -17 45 -14 31 -25 60 -34 95 -2 6 -8 28 -15
50 -6 22 -16 63 -23 92 -6 28 -15 55 -19 59 -4 4 -7 19 -7 34 0 15 -3 30 -7
34 -5 4 -13 34 -19 67 -10 58 -10 59 10 53 12 -3 30 -14 41 -23 21 -18 113
-65 130 -66 6 -1 18 -5 28 -9 22 -10 108 2 123 17 21 21 124 -10 124 -37 0 -5
10 -20 21 -32 24 -26 35 -43 77 -129 40 -80 62 -131 62 -142 0 -20 60 -130 83
-151 46 -43 97 -62 168 -62 98 0 149 25 177 88 22 49 29 116 13 126 -4 3 -11
28 -15 55 -4 28 -11 53 -16 56 -6 3 -10 16 -10 28 0 12 -7 31 -15 41 -8 11
-15 30 -15 42 0 13 -4 26 -10 29 -6 4 -10 53 -10 115 0 62 -4 111 -10 115 -21
13 -9 40 23 53 17 8 41 18 52 23 11 5 32 13 46 18 28 10 53 49 64 102 8 33 30
48 48 30 6 -6 28 -11 48 -11 21 0 40 -4 43 -9 3 -5 39 -12 81 -16 41 -4 77
-11 81 -16 3 -5 23 -9 44 -9 21 0 41 -4 44 -9 3 -5 35 -12 71 -16 36 -3 67
-11 70 -16 4 -5 19 -9 35 -9 16 0 31 -4 35 -9 3 -6 37 -13 75 -17 39 -4 73
-11 76 -15 3 -5 18 -9 34 -9 16 0 31 -4 34 -9 3 -5 33 -12 66 -16 33 -4 63
-11 66 -16 3 -5 18 -9 34 -9 16 0 31 -4 34 -9 3 -4 26 -11 52 -15 26 -3 52
-10 58 -14 15 -10 73 -29 116 -37 36 -6 65 -17 113 -41 16 -8 35 -14 43 -14 8
0 22 -4 32 -9 9 -5 31 -15 49 -22 17 -8 115 -94 216 -191 102 -98 189 -178
194 -178 5 0 49 -40 98 -90 49 -49 94 -90 100 -90 5 0 26 -16 45 -35 51 -50
106 -95 117 -95 5 0 20 -11 33 -25 13 -14 29 -25 36 -25 7 0 14 -3 16 -7 4
-10 74 -63 82 -63 3 0 27 -15 53 -34 27 -18 80 -48 118 -66 39 -18 78 -37 87
-41 10 -5 27 -9 37 -9 11 0 23 -5 26 -10 8 -13 212 -13 220 0 3 5 16 10 29 10
12 0 40 15 62 34 l39 34 0 93 c-1 88 -3 98 -37 164 -37 72 -216 275 -242 275
-7 0 -22 11 -32 25 -10 13 -30 27 -45 30 -15 4 -33 13 -40 22 -8 8 -37 26 -67
40 -31 14 -56 33 -61 46 -5 12 -18 31 -30 41 -11 11 -21 24 -21 29 0 6 -18 32
-40 58 -22 26 -40 51 -40 56 0 12 -203 213 -215 213 -6 1 -41 30 -80 65 -38
36 -75 65 -81 65 -6 0 -19 9 -29 20 -10 11 -24 20 -31 20 -7 0 -17 6 -21 13
-8 14 -73 47 -92 47 -6 0 -30 11 -55 25 -25 14 -50 25 -57 25 -7 0 -44 15 -83
34 -39 19 -91 42 -116 51 -61 24 -94 39 -100 46 -10 13 -85 49 -102 49 -9 0
-20 5 -23 10 -3 6 -24 10 -45 10 -21 0 -42 5 -45 10 -3 6 -15 10 -26 10 -10 0
-19 -4 -19 -10 0 -5 -8 -10 -19 -10 -25 0 -60 -19 -96 -53 -27 -24 -35 -27
-75 -21 -25 3 -49 10 -55 15 -5 5 -19 9 -32 9 -13 0 -31 4 -41 9 -26 14 -118
41 -141 41 -11 0 -22 4 -25 9 -4 5 -24 12 -46 16 -22 4 -42 11 -46 16 -3 5
-16 9 -29 9 -13 0 -26 4 -29 9 -4 5 -24 12 -46 16 -22 4 -42 11 -46 16 -3 5
-16 9 -30 9 -13 0 -24 4 -24 9 0 5 -20 12 -45 15 -24 4 -47 11 -50 17 -4 5
-19 9 -35 9 -16 0 -31 4 -35 9 -3 6 -26 13 -50 17 -25 3 -48 10 -51 15 -3 5
-18 9 -34 9 -16 0 -31 4 -34 9 -3 5 -35 12 -71 16 -36 3 -67 11 -70 16 -4 5
-26 9 -50 9 -24 0 -46 4 -49 9 -4 5 -44 12 -91 16 -47 4 -88 11 -91 16 -3 5
-27 9 -55 9 -27 0 -49 4 -49 9 0 4 -31 12 -70 15 -38 4 -72 11 -75 17 -4 5
-19 9 -35 9 -16 0 -31 4 -34 9 -3 4 -28 11 -55 15 -28 4 -53 11 -56 16 -3 6
-16 10 -29 10 -12 0 -26 3 -30 8 -4 4 -11 7 -14 8 -24 3 -62 17 -62 24 0 4
-18 10 -40 14 -22 3 -55 15 -74 26 -19 10 -52 22 -73 25 -36 6 -67 17 -105 36
-10 5 -37 9 -62 9 l-43 0 -7 46 c-3 25 -3 50 0 55 3 5 41 9 84 9 43 0 82 5 85
10 3 6 46 10 95 10 49 0 91 4 94 8 3 5 128 12 278 16 151 4 277 11 282 16 6 6
45 10 87 10 53 0 79 4 82 13 3 8 17 0 40 -23 37 -37 59 -71 102 -156 14 -29
32 -57 40 -64 8 -7 15 -18 15 -26 0 -7 30 -45 68 -84 50 -52 74 -70 94 -70 15
0 30 -4 33 -10 10 -16 111 -11 152 7 37 16 143 109 143 125 0 4 18 34 40 65
22 33 40 70 40 85 0 15 5 30 11 34 7 4 9 22 6 48 -6 38 -3 45 31 77 20 19 51
51 69 71 17 20 34 34 38 30 3 -3 21 -5 40 -4 18 2 36 -1 40 -7 8 -14 112 -14
120 -1 4 7 47 11 103 11 108 0 177 6 207 18 11 5 40 17 65 27 53 22 71 38 89
79 7 17 17 38 22 47 5 10 9 27 9 38 0 18 7 20 69 20 39 0 73 -4 76 -10 3 -6
52 -10 110 -10 58 0 107 -4 110 -10 3 -5 37 -10 75 -10 l69 0 -1 -53 c-2 -62
32 -143 66 -158 11 -5 28 -13 36 -18 43 -25 99 -31 288 -31 110 0 203 -4 206
-9 3 -5 96 -12 206 -16 110 -4 203 -11 206 -16 3 -5 36 -9 74 -9 38 0 72 -4
75 -10 4 -6 58 -10 130 -10 72 0 126 4 130 10 3 6 24 10 45 10 21 0 41 4 45 9
3 6 26 13 50 17 25 3 45 10 45 14 0 7 29 18 68 26 7 1 24 9 37 18 13 9 30 16
37 16 16 0 247 117 269 136 8 8 20 14 26 14 26 0 143 131 179 201 33 66 38 84
41 164 4 77 1 95 -16 121 -33 54 -58 60 -220 52 -79 -4 -148 -11 -154 -17 -6
-6 -23 -11 -38 -11 -15 0 -30 -4 -33 -9 -3 -4 -28 -11 -55 -15 -28 -4 -53 -10
-55 -15 -3 -5 -20 -12 -38 -16 -18 -4 -35 -9 -38 -10 -3 -1 -18 -5 -35 -10
-16 -4 -34 -11 -40 -15 -9 -7 -56 -21 -80 -25 -11 -1 -35 -10 -82 -31 -17 -8
-36 -14 -42 -14 -6 0 -19 -4 -29 -9 -34 -18 -90 -41 -101 -41 -17 0 -83 -39
-112 -66 l-26 -24 -89 45 c-49 25 -106 48 -127 52 -20 3 -40 10 -43 14 -3 5
-20 9 -38 9 -17 0 -37 5 -42 10 -6 6 -71 13 -145 16 -74 3 -143 9 -154 14 -19
8 -64 18 -112 24 -13 1 -26 6 -30 9 -3 4 -35 7 -69 7 -35 0 -66 5 -69 10 -3 6
-32 10 -64 10 -32 0 -61 3 -65 7 -3 4 -28 6 -55 4 -27 -1 -52 2 -56 8 -3 6
-28 11 -56 11 -27 0 -49 4 -49 9 0 5 -28 11 -62 14 -35 3 -81 8 -103 11 -22 3
-69 9 -105 12 -36 3 -69 10 -75 14 -5 5 -88 12 -183 16 -95 4 -175 11 -178 15
-3 5 -52 9 -109 9 -58 0 -107 4 -110 10 -3 6 -48 10 -101 10 -106 0 -121 12
-54 44 32 15 51 18 107 12 37 -4 72 -11 78 -17 11 -11 242 -12 249 0 3 4 36
11 73 15 51 5 88 17 148 47 121 61 125 64 192 124 34 30 66 55 70 55 11 0 63
53 63 64 0 4 26 38 59 74 32 37 62 78 66 92 4 14 16 37 26 52 22 31 26 116 7
151 -26 45 -52 67 -87 73 -20 3 -46 10 -58 16 -17 8 -29 8 -45 0 -13 -6 -45
-13 -73 -16 -57 -6 -167 -58 -265 -126 -69 -48 -96 -65 -120 -76 -8 -4 -25
-18 -37 -31 l-23 -24 -77 41 c-42 22 -84 40 -94 40 -10 0 -20 4 -24 9 -3 6
-26 13 -50 17 -25 3 -45 10 -45 15 0 5 -13 9 -29 9 -17 0 -33 5 -36 10 -4 6
-138 10 -370 10 -232 0 -366 -4 -370 -10 -4 -6 -122 -10 -321 -10 -173 0 -314
-4 -314 -8 0 -5 -208 -12 -462 -16 -262 -4 -467 -11 -472 -17 -6 -5 -49 -9
-96 -9 -51 0 -91 -5 -97 -11 -21 -21 -43 -2 -43 36 0 33 4 37 53 59 47 22 73
39 160 107 16 12 33 31 38 43 5 12 20 39 34 61 13 22 24 50 25 63 0 12 5 22
10 22 6 0 10 17 10 38 0 21 5 43 12 50 9 9 9 18 0 37 -7 14 -12 38 -13 53 0
15 -9 41 -20 57 -10 17 -23 39 -28 50 -12 28 -117 115 -137 115 -3 0 -19 9
-35 21 -25 17 -29 27 -29 65 0 44 7 53 27 33 6 -6 45 -13 87 -16 42 -3 79 -10
82 -14 7 -12 181 -11 189 1 3 6 17 10 30 10 25 0 145 58 145 70 0 4 8 11 18
14 35 13 67 36 138 100 40 36 76 66 81 66 11 0 233 223 233 233 0 5 11 23 24
40 14 18 28 44 31 60 4 15 11 27 15 27 10 0 22 40 20 67 0 11 4 24 9 28 6 3
11 28 11 56 0 27 5 49 10 49 6 0 10 20 10 44 0 25 -4 48 -10 51 -5 3 -10 17
-10 29 0 34 -35 108 -62 132 -42 37 -93 54 -166 54 -54 0 -75 -4 -95 -20 -14
-11 -29 -20 -34 -20 -11 0 -103 -93 -103 -104 0 -5 -22 -34 -50 -66 -27 -32
-50 -62 -50 -67 0 -16 -55 -63 -74 -63 -9 0 -38 12 -64 28 -47 27 -48 27 -237
27 -147 0 -197 -3 -222 -15 -18 -8 -33 -18 -33 -21 0 -4 -12 -10 -27 -14 -15
-3 -38 -14 -52 -24 -14 -10 -36 -22 -48 -25 -22 -7 -23 -4 -23 38 0 25 5 48
10 51 12 8 13 112 1 119 -4 3 -11 72 -15 153 -4 81 -12 152 -17 158 -5 5 -9
28 -9 51 0 24 -4 45 -9 48 -5 3 -12 55 -16 116 -4 61 -11 113 -16 116 -5 3 -9
29 -9 59 0 30 -4 56 -9 59 -5 3 -12 67 -16 141 -4 74 -11 138 -16 141 -5 3 -9
22 -9 43 0 20 -5 42 -11 48 -6 6 -12 35 -13 64 -2 32 -12 70 -25 92 -11 21
-21 43 -21 50 0 7 -18 48 -40 92 -22 44 -40 84 -40 88 0 10 -20 56 -56 132
-13 28 -24 57 -24 65 0 8 -7 24 -15 34 -8 11 -15 28 -15 39 0 10 -9 32 -20 47
-11 16 -23 42 -26 59 -4 17 -11 34 -15 37 -5 3 -9 16 -9 29 0 13 -4 26 -8 29
-5 3 -12 90 -16 193 -3 103 -11 192 -16 197 -6 6 -10 25 -10 44 0 18 -7 57
-16 85 -19 61 -150 334 -165 343 -6 3 -14 16 -20 27 -15 36 -31 59 -91 127
-32 35 -58 69 -58 74 0 5 -13 36 -29 70 -45 93 -81 176 -81 185 0 13 -53 113
-80 151 -29 42 -127 140 -139 140 -4 0 -16 9 -25 19 -21 23 -195 111 -219 111
-9 0 -17 5 -17 10 0 6 -11 10 -24 10 -14 0 -27 4 -30 9 -3 4 -16 6 -30 4 -13
-3 -27 0 -30 6 -4 6 -31 11 -61 11 -30 0 -57 5 -60 10 -3 6 -33 10 -65 10 -32
0 -62 -4 -65 -10z m-840 -3890 c3 -5 30 -10 60 -10 30 0 56 -4 59 -9 4 -5 40
-12 81 -16 42 -4 78 -11 81 -16 3 -5 18 -9 34 -9 16 0 31 -4 34 -9 3 -4 28
-11 55 -15 28 -4 53 -11 56 -16 3 -6 19 -10 35 -10 16 0 31 -4 34 -9 4 -5 24
-12 46 -16 22 -4 42 -11 46 -16 3 -5 16 -9 29 -9 13 0 26 -4 29 -9 3 -4 33
-11 66 -15 33 -4 60 -11 60 -16 0 -6 8 -10 18 -10 24 0 82 -29 82 -41 0 -5 7
-9 15 -9 12 0 14 -7 9 -27 -4 -16 -10 -32 -14 -38 -4 -5 -11 -23 -15 -40 -5
-16 -9 -32 -10 -35 -1 -3 -6 -20 -10 -38 -4 -18 -11 -35 -16 -38 -5 -2 -11
-27 -15 -55 -4 -27 -11 -52 -15 -55 -5 -3 -9 -16 -9 -29 0 -13 -4 -27 -10 -30
-5 -3 -12 -28 -16 -56 -4 -27 -11 -52 -15 -55 -5 -3 -9 -18 -9 -34 0 -16 -4
-31 -9 -34 -4 -3 -11 -28 -15 -55 -5 -40 -13 -54 -35 -71 -16 -11 -33 -20 -37
-20 -4 0 -15 -6 -23 -14 -9 -8 -47 -30 -86 -49 l-69 -35 -14 31 c-83 194 -170
307 -281 366 -14 7 -35 22 -46 32 -12 10 -35 22 -53 25 -18 4 -35 11 -38 15
-3 5 -15 9 -28 9 -12 0 -27 5 -33 11 -7 7 -62 14 -132 17 -67 3 -121 7 -121 9
0 6 28 71 41 95 12 23 12 55 -1 63 -5 3 -10 26 -10 50 0 24 -4 47 -10 50 -5 3
-10 16 -10 29 0 12 -3 26 -7 30 -4 4 -6 24 -4 45 1 22 -2 42 -8 46 -15 9 -14
95 2 128 l12 27 117 0 c67 0 119 -4 123 -10z m4498 -2172 c-2 -13 -9 -32 -13
-43 -5 -11 -11 -33 -12 -50 -3 -27 -7 -30 -40 -33 -22 -2 -38 1 -38 7 0 7 -33
11 -89 11 -50 0 -93 5 -96 10 -3 6 -50 11 -103 11 -53 1 -88 3 -77 6 11 3 24
9 30 14 5 5 26 9 46 9 21 0 40 4 44 9 3 5 34 13 70 16 36 4 68 11 71 16 3 5
22 9 43 9 20 0 41 4 47 9 5 5 25 11 44 14 77 9 78 9 73 -15z m-788 -578 c4 -6
110 -10 286 -10 155 0 279 -4 279 -9 0 -13 -38 -21 -102 -21 -31 0 -60 -4 -63
-10 -3 -5 -30 -10 -60 -10 -30 0 -56 -4 -59 -9 -3 -5 -46 -12 -96 -16 -50 -4
-93 -11 -96 -16 -3 -5 -29 -9 -59 -9 -30 0 -56 -4 -59 -9 -3 -4 -56 -11 -118
-15 -62 -4 -117 -11 -122 -17 -6 -5 -32 -9 -59 -9 -26 0 -56 -4 -65 -9 -9 -4
-42 -11 -72 -14 l-56 -5 -18 46 c-10 26 -28 67 -39 92 -12 25 -23 48 -25 53
-6 11 596 9 603 -3z"/>
</g>
</svg>
