<?xml version="1.0" standalone="no"?>
<!DOCTYPE svg PUBLIC "-//W3C//DTD SVG 20010904//EN"
 "http://www.w3.org/TR/2001/REC-SVG-20010904/DTD/svg10.dtd">
<svg version="1.0" xmlns="http://www.w3.org/2000/svg"
 width="300.000000pt" height="300.000000pt" viewBox="0 0 300.000000 300.000000"
 preserveAspectRatio="xMidYMid meet">
<metadata>
Created by potrace 1.10, written by Peter Selinger 2001-2011
</metadata>
<g transform="translate(0.000000,300.000000) scale(0.100000,-0.100000)"
fill="#000000" stroke="none">
<path d="M300 1500 l0 -1200 1200 0 1200 0 0 1200 0 1200 -1200 0 -1200 0 0
-1200z m1980 0 l0 -780 -780 0 -780 0 0 780 0 780 780 0 780 0 0 -780z"/>
<path d="M1446 2043 c-39 -10 -96 -83 -66 -83 6 0 19 -15 30 -33 10 -18 33
-40 49 -50 42 -25 83 -97 79 -139 l-3 -33 -16 35 c-20 43 -67 100 -83 100 -21
0 -164 -100 -185 -129 -27 -37 -27 -81 0 -109 19 -21 19 -23 2 -29 -10 -4 -33
-18 -50 -32 -27 -22 -45 -26 -103 -28 l-70 -2 6 52 c9 83 -35 137 -127 157
-24 5 -55 12 -69 15 -14 3 -32 1 -40 -4 -13 -9 -12 -12 5 -26 11 -8 40 -26 65
-39 67 -35 88 -57 95 -98 7 -35 5 -37 -34 -57 -35 -18 -41 -26 -41 -54 0 -17
4 -37 8 -43 12 -19 102 -54 141 -55 20 -1 49 -4 65 -8 26 -5 28 -7 13 -20 -37
-30 -8 -101 40 -101 14 0 30 -13 43 -36 13 -19 34 -40 47 -45 31 -12 134 -11
152 0 13 8 60 -7 80 -25 2 -2 -15 -27 -38 -54 -33 -39 -42 -56 -37 -75 10 -41
79 -54 164 -29 18 5 22 2 22 -16 0 -17 4 -21 18 -15 9 3 29 9 45 12 28 6 80
58 99 99 18 38 38 38 38 0 0 -18 3 -36 7 -39 14 -15 33 18 33 56 0 34 -7 47
-50 93 -27 29 -50 62 -50 73 0 30 34 27 48 -4 18 -38 42 -32 42 10 0 46 14 50
90 31 47 -12 75 -27 112 -61 53 -47 98 -60 98 -27 0 27 -115 120 -158 127 -78
14 -252 59 -252 67 0 4 25 8 55 8 44 0 56 -4 65 -20 15 -27 38 -25 52 5 8 18
19 25 39 25 15 0 31 5 34 10 8 13 52 13 60 1 3 -5 30 -13 61 -17 67 -8 129 8
145 37 18 35 -2 43 -58 26 -41 -14 -60 -14 -130 -4 -87 13 -107 21 -74 32 25
8 47 43 34 56 -5 5 -19 3 -33 -4 -18 -8 -66 -11 -165 -7 -77 3 -132 8 -122 12
20 8 23 38 5 56 -9 9 -6 12 14 12 17 0 36 12 57 35 35 40 37 48 17 64 -11 9
-18 8 -31 -5 -9 -9 -32 -17 -50 -18 -34 -1 -34 -1 -41 54 -3 30 -15 78 -25
105 -11 28 -19 58 -19 68 0 26 -49 115 -73 132 -21 15 -45 17 -81 8z m26 -379
c12 -8 2 -65 -14 -75 -6 -4 -20 3 -30 17 -11 13 -26 24 -34 24 -8 0 -14 4 -14
9 0 5 -3 17 -7 27 -6 15 -1 16 41 11 26 -4 52 -10 58 -13z m345 -191 c-4 -3
-10 -3 -14 0 -3 4 0 7 7 7 7 0 10 -3 7 -7z m-64 -60 c-13 -2 -33 -2 -45 0 -13
2 -3 4 22 4 25 0 35 -2 23 -4z"/>
</g>
</svg>
