<svg xmlns="http://www.w3.org/2000/svg" xmlns:xlink="http://www.w3.org/1999/xlink" viewBox="0 0 1080 1080"><defs><style>.cls-1{fill:url(#linear-gradient);}.cls-2{fill:url(#linear-gradient-2);}.cls-3{fill:url(#radial-gradient);}.cls-4{fill:url(#linear-gradient-3);}.cls-5{fill:#f9ad42;}.cls-6{fill:url(#linear-gradient-4);}.cls-7{fill:#ee4037;}.cls-8{fill:url(#linear-gradient-5);}.cls-9{fill:url(#linear-gradient-6);}.cls-10{fill:url(#linear-gradient-7);}.cls-11{fill:url(#linear-gradient-8);}.cls-12{fill:url(#linear-gradient-9);}.cls-13{fill:url(#linear-gradient-10);}.cls-14{fill:url(#linear-gradient-11);}.cls-15{fill:#8ac340;}.cls-16{fill:url(#linear-gradient-12);}.cls-17{fill:url(#radial-gradient-2);}.cls-18{fill:url(#linear-gradient-13);}.cls-19{fill:url(#linear-gradient-14);}.cls-20{fill:url(#linear-gradient-15);}.cls-21{fill:url(#linear-gradient-16);}.cls-22{fill:url(#linear-gradient-17);}.cls-23{fill:url(#linear-gradient-18);}.cls-24{fill:url(#linear-gradient-19);}.cls-25{fill:url(#linear-gradient-20);}.cls-26{fill:url(#linear-gradient-21);}.cls-27{fill:url(#linear-gradient-22);}</style><linearGradient id="linear-gradient" x1="2400.07" y1="6460.74" x2="2795.82" y2="6460.74" gradientTransform="matrix(1.11, -0.27, -0.08, -1.14, -2073.22, 8291.94)" gradientUnits="userSpaceOnUse"><stop offset="0" stop-color="#f29022"/><stop offset="0.99" stop-color="#bb2030"/></linearGradient><linearGradient id="linear-gradient-2" x1="-3991.45" y1="718.72" x2="-3595.71" y2="718.72" gradientTransform="matrix(-0.01, 1.15, -1.13, 0.18, 990.31, 4509.49)" xlink:href="#linear-gradient"/><radialGradient id="radial-gradient" cx="1359.85" cy="1627.95" r="146.14" gradientTransform="translate(-927.48 1741.5) rotate(-94.55)" gradientUnits="userSpaceOnUse"><stop offset="0" stop-color="#ee4037"/><stop offset="0.38" stop-color="#ef6727"/><stop offset="0.49" stop-color="#f07126"/><stop offset="0.8" stop-color="#f38822"/><stop offset="1" stop-color="#f49021"/></radialGradient><linearGradient id="linear-gradient-3" x1="621.26" y1="1854.52" x2="633.44" y2="1854.52" gradientTransform="translate(-675.41 1805.32) rotate(-122.05)" gradientUnits="userSpaceOnUse"><stop offset="0" stop-color="#36b04a"/><stop offset="1" stop-color="#019147"/></linearGradient><linearGradient id="linear-gradient-4" x1="147.03" y1="5241.37" x2="159.21" y2="5241.37" gradientTransform="matrix(-0.48, -0.87, 0.22, -0.25, -532.69, 1741.6)" xlink:href="#linear-gradient-3"/><linearGradient id="linear-gradient-5" x1="632.19" y1="1854.52" x2="663.76" y2="1854.52" xlink:href="#linear-gradient-3"/><linearGradient id="linear-gradient-6" x1="640.38" y1="1864.78" x2="695.06" y2="1864.78" xlink:href="#linear-gradient-3"/><linearGradient id="linear-gradient-7" x1="546.96" y1="1706.76" x2="601.64" y2="1706.76" gradientTransform="matrix(-0.71, -0.77, 0.9, -0.64, -587.41, 1790.05)" xlink:href="#linear-gradient-3"/><linearGradient id="linear-gradient-8" x1="647.97" y1="1880.37" x2="714.44" y2="1880.37" xlink:href="#linear-gradient-3"/><linearGradient id="linear-gradient-9" x1="232.39" y1="5214.24" x2="244.57" y2="5214.24" gradientTransform="matrix(-0.45, -0.88, 0.22, -0.24, -555.43, 1749.62)" xlink:href="#linear-gradient-3"/><linearGradient id="linear-gradient-10" x1="159.33" y1="-3430.14" x2="171.52" y2="-3430.14" gradientTransform="matrix(-0.13, 0.98, -0.32, 0.07, -577.08, 329.42)" xlink:href="#linear-gradient-3"/><linearGradient id="linear-gradient-11" x1="142.9" y1="-3465.32" x2="155.08" y2="-3465.32" gradientTransform="matrix(-0.13, 0.98, -0.32, 0.07, -582.1, 327.82)" xlink:href="#linear-gradient-3"/><linearGradient id="linear-gradient-12" x1="2256.41" y1="-1540.56" x2="2268.59" y2="-1540.56" gradientTransform="matrix(0.99, -0.12, 0.15, 0.29, -1449.66, 990.2)" xlink:href="#linear-gradient-3"/><radialGradient id="radial-gradient-2" cx="-2772.71" cy="1284.92" r="146.14" gradientTransform="matrix(-0.01, 1, 1, 0.01, -928.93, 3315.58)" xlink:href="#radial-gradient"/><linearGradient id="linear-gradient-13" x1="-2885.93" y1="-358.01" x2="-2873.75" y2="-358.01" gradientTransform="matrix(-0.47, 0.88, 0.88, 0.47, -681.99, 3234.12)" xlink:href="#linear-gradient-3"/><linearGradient id="linear-gradient-14" x1="-2754.05" y1="-1306.33" x2="-2741.87" y2="-1306.33" gradientTransform="matrix(-0.42, 0.9, 0.23, 0.23, -535.13, 3287.6)" xlink:href="#linear-gradient-3"/><linearGradient id="linear-gradient-15" x1="-2875" y1="-358.01" x2="-2843.44" y2="-358.01" gradientTransform="matrix(-0.47, 0.88, 0.88, 0.47, -681.99, 3234.12)" xlink:href="#linear-gradient-3"/><linearGradient id="linear-gradient-16" x1="-2866.81" y1="-347.76" x2="-2812.13" y2="-347.76" gradientTransform="matrix(-0.47, 0.88, 0.88, 0.47, -681.99, 3234.12)" xlink:href="#linear-gradient-3"/><linearGradient id="linear-gradient-17" x1="-2706.23" y1="-858.87" x2="-2651.55" y2="-858.87" gradientTransform="matrix(-0.65, 0.82, 0.94, 0.57, -593.13, 3243.13)" xlink:href="#linear-gradient-3"/><linearGradient id="linear-gradient-18" x1="-2859.22" y1="-332.17" x2="-2792.75" y2="-332.17" gradientTransform="matrix(-0.47, 0.88, 0.88, 0.47, -681.99, 3234.12)" xlink:href="#linear-gradient-3"/><linearGradient id="linear-gradient-19" x1="-2781.42" y1="-932.38" x2="-2769.24" y2="-932.38" gradientTransform="matrix(-0.39, 0.91, 0.24, 0.22, -558.38, 3281.2)" xlink:href="#linear-gradient-3"/><linearGradient id="linear-gradient-20" x1="4497.43" y1="-5169.93" x2="4509.61" y2="-5169.93" gradientTransform="matrix(-0.2, -0.97, -0.33, -0.05, -479.64, 4699.38)" xlink:href="#linear-gradient-3"/><linearGradient id="linear-gradient-21" x1="4476.19" y1="-5139.63" x2="4488.37" y2="-5139.63" gradientTransform="matrix(-0.2, -0.97, -0.33, -0.05, -484.54, 4701.33)" xlink:href="#linear-gradient-3"/><linearGradient id="linear-gradient-22" x1="214.45" y1="11748.43" x2="226.63" y2="11748.43" gradientTransform="matrix(0.99, 0.05, 0.13, -0.3, -1396.73, 4101.89)" xlink:href="#linear-gradient-3"/></defs><g id="_11" data-name="11"><path class="cls-1" d="M507,197.75l23.12,121.87s-18,8.13-66.07,5.9C411.63,323.08,68.75,91.76,68.72,91.71c-9-14.2-3.19-23,12.77-26.64C81.49,65.07,366.14,278.8,507,197.75Z"/><path class="cls-2" d="M274,491.4l123.94-4.88s3.86-19.41-9.11-65.7C374.64,370.28,72.13,88.21,72.08,88.19,56.21,82.6,49,90.25,49,106.63,49,106.63,321.26,335.91,274,491.4Z"/><path class="cls-3" d="M731.43,245.78s-9,30.77-41.31,44-52.84,5.73-53,8.84c0,0,22.4,20,16.12,58.2S632,401,632,401s-24.3,8.6-47.23-21.13-23.55-55.9-26.57-55.13c0,0,.5,28.23-42,46.39s-58.48,1.1-58.48,1.1-20.61-32.32,3.54-63.4,56-46.43,56-46.43c1.22-2.85-44.75-4.23-65.16-35-22.23-33.51-10.19-53.58-10.19-53.58s15.4-19.83,60.14-13.55c43.67,6.14,45.71,34,45.71,34,3.09.28-5.73-28.58,18.72-60s42.08-27,42.08-27,11.8,3.23,26.06,38.58-4.81,61.67-4.81,61.67c.69,3,19.59-7.57,55.37,1S731.43,245.78,731.43,245.78Z"/><line class="cls-4" x1="607.88" y1="268.81" x2="519.1" y2="310.03"/><path class="cls-5" d="M608,269.11a140.45,140.45,0,0,1-20.38,14.21c-3.48,2.19-7.14,4-10.71,6s-7.31,3.62-11,5.42c-3.75,1.62-7.45,3.32-11.23,4.87s-7.57,3.06-11.49,4.32a141.67,141.67,0,0,1-24,6.41l-.27-.59,44.25-20.91,44.53-20.31Z"/><line class="cls-6" x1="538.12" y1="298.16" x2="511.28" y2="311.74"/><path class="cls-7" d="M538.31,298.54a19.82,19.82,0,0,1-4.09,8.57,18.69,18.69,0,0,1-6,4.8,18.88,18.88,0,0,1-7.43,2,19.78,19.78,0,0,1-9.31-1.75l-.39-.77q3.24-1.94,6.58-3.66l6.64-3.52,6.77-3.27c2.25-1.12,4.53-2.16,6.84-3.14Z"/><line class="cls-8" x1="600.19" y1="260.74" x2="504.91" y2="283.15"/><path class="cls-5" d="M600.27,261.06a141.55,141.55,0,0,1-22.84,9.8c-3.85,1.43-7.8,2.46-11.69,3.7-3.94,1.08-7.9,2.06-11.85,3.08-4,.83-8,1.75-12,2.5s-8,1.47-12.12,1.91a141.48,141.48,0,0,1-24.8,1.42l-.15-.63,47.56-11.52,47.72-10.9Z"/><line class="cls-9" x1="501.85" y1="248.13" x2="599.68" y2="251.39"/><path class="cls-5" d="M501.86,247.81a140.45,140.45,0,0,1,24.6-3.5c4.09-.38,8.17-.34,12.26-.51s8.16.07,12.24.12c4.07.24,8.15.39,12.22.71s8.14.68,12.2,1.33a141.48,141.48,0,0,1,24.31,5.11l0,.65-48.93-1.31-48.9-1.95Z"/><line class="cls-10" x1="488.35" y1="266.44" x2="600.06" y2="257.2"/><path class="cls-5" d="M488.32,266.09a172.21,172.21,0,0,1,27.55-6.91c4.61-.93,9.25-1.42,13.88-2.13s9.29-1,13.94-1.47c4.66-.27,9.32-.63,14-.83s9.34-.33,14-.17A173.24,173.24,0,0,1,600,256.85l.06.7-55.83,5-55.88,4.27Z"/><line class="cls-11" x1="508.74" y1="220.96" x2="604.91" y2="239.16"/><path class="cls-5" d="M508.8,220.64a140.83,140.83,0,0,1,24.84.32c4.1.25,8.13.91,12.19,1.37s8.06,1.32,12.08,2c4,.86,8,1.64,12,2.57s7.93,1.93,11.85,3.18A142.83,142.83,0,0,1,605,238.84l-.12.64L556.7,230.7l-48-9.42Z"/><line class="cls-12" x1="519.1" y1="274.5" x2="491.82" y2="287.17"/><path class="cls-7" d="M519.29,274.89a19.84,19.84,0,0,1-4.38,8.43,18.74,18.74,0,0,1-6.16,4.59,19,19,0,0,1-7.49,1.72,20,20,0,0,1-9.26-2.07l-.36-.79c2.2-1.2,4.43-2.35,6.7-3.42l6.76-3.3,6.88-3c2.28-1,4.6-2,6.94-2.9Z"/><line class="cls-13" x1="489.75" y1="248.23" x2="519.39" y2="253.38"/><path class="cls-7" d="M489.83,247.81a19.61,19.61,0,0,1,8.4-4.42,18.54,18.54,0,0,1,7.68-.27A19.07,19.07,0,0,1,513,246a19.9,19.9,0,0,1,6.42,7l-.15.85c-2.5-.26-5-.59-7.46-1l-7.43-1.15L497,250.23q-3.71-.67-7.36-1.57Z"/><line class="cls-14" x1="497.72" y1="222.66" x2="527.38" y2="227.67"/><path class="cls-7" d="M497.8,222.24a19.65,19.65,0,0,1,8.37-4.46,18.56,18.56,0,0,1,7.68-.3A18.9,18.9,0,0,1,521,220.3a20,20,0,0,1,6.46,6.94l-.15.86q-3.75-.37-7.46-1L512.41,226,505,224.63q-3.7-.66-7.37-1.54Z"/><circle class="cls-15" cx="484.52" cy="266.59" r="8.42"/><line class="cls-16" x1="549.08" y1="273.55" x2="546.48" y2="243.58"/><path class="cls-7" d="M548.51,276.39a19.76,19.76,0,0,1-6.42-7,18.55,18.55,0,0,1-2.21-7.35,18.92,18.92,0,0,1,.93-7.63,19.89,19.89,0,0,1,5.1-8l.87-.08c.38,2.48.7,5,.93,7.47l.8,7.48.5,7.5q.3,3.75.37,7.52Z"/><path class="cls-17" d="M524.54,555s-11.18-30.06-44.31-41-53.11-2-53.53-5.07c0,0,20.93-21.5,12-59.19s-24.3-42.54-24.3-42.54-24.85-6.86-45.62,24.42-19.54,57.42-22.6,56.87c0,0-1.51-28.2-45.14-43.31s-58.41,3-58.41,3-18.28,33.7,8,63,59.17,42.35,59.17,42.35c1.42,2.77-44.34,7.39-62.53,39.53-19.8,35-6.38,54.17-6.38,54.17s16.77,18.7,61,9.27C344.93,647.33,345,619.4,345,619.4c3.07-.5-3.69,28.91,22.92,58.48s43.88,24,43.88,24,11.54-4.05,23.27-40.32-9.16-61.18-9.16-61.18c.47-3.07,20.08,6.17,55.16-4.88S524.54,555,524.54,555Z"/><line class="cls-18" x1="399.68" y1="540.73" x2="308.21" y2="505.89"/><path class="cls-5" d="M399.8,540.43a140,140,0,0,0-21.34-12.74c-3.63-1.93-7.4-3.48-11.1-5.22s-7.56-3.09-11.33-4.62c-3.85-1.36-7.67-2.79-11.55-4.07s-7.77-2.52-11.76-3.5a141.67,141.67,0,0,0-24.4-4.69l-.23.6,45.62,17.73L399.56,541Z"/><line class="cls-19" x1="328.01" y1="516.39" x2="300.29" y2="504.73"/><path class="cls-7" d="M328.18,516a19.71,19.71,0,0,0-4.68-8.25,18.63,18.63,0,0,0-6.33-4.37,18.92,18.92,0,0,0-7.55-1.44,20,20,0,0,0-9.17,2.4l-.33.8c2.24,1.13,4.51,2.2,6.82,3.18l6.87,3.05,7,2.78c2.32,1,4.67,1.83,7.05,2.65Z"/><line class="cls-20" x1="392.58" y1="549.33" x2="295.95" y2="533.7"/><path class="cls-5" d="M392.63,549a139.68,139.68,0,0,0-23.47-8.17c-3.94-1.16-8-1.9-11.93-2.86s-8-1.5-12-2.24c-4.05-.54-8.07-1.18-12.13-1.65s-8.12-.89-12.22-1a142.56,142.56,0,0,0-24.85.33l-.1.64,48.26,8.13,48.37,7.5Z"/><line class="cls-21" x1="295.37" y1="568.85" x2="392.73" y2="558.69"/><path class="cls-5" d="M295.41,569.18a139.64,139.64,0,0,0,24.78,1.74c4.11.09,8.18-.23,12.27-.35,4.07-.27,8.13-.65,12.2-1,4-.53,8.1-1,12.13-1.58s8.07-1.25,12.08-2.18A142.91,142.91,0,0,0,392.76,559l-.07-.64L344,563.13l-48.64,5.4Z"/><line class="cls-22" x1="280.61" y1="551.55" x2="392.69" y2="552.87"/><path class="cls-5" d="M280.61,551.89a170.5,170.5,0,0,0,28,5c4.67.6,9.33.76,14,1.15,4.67.22,9.34.32,14,.47,4.67-.05,9.34,0,14-.16s9.35-.33,14-.82a173.84,173.84,0,0,0,28.08-4.26v-.7l-56-1-56.05-.31Z"/><line class="cls-23" x1="304.16" y1="595.47" x2="398.81" y2="570.52"/><path class="cls-5" d="M304.24,595.78A139.55,139.55,0,0,0,329,593.71c4.08-.54,8.05-1.48,12.07-2.23s7.94-1.88,11.9-2.83c3.92-1.15,7.86-2.2,11.76-3.42s7.78-2.48,11.59-4a141.42,141.42,0,0,0,22.57-10.39l-.16-.63-47.41,12.16-47.24,12.79Z"/><line class="cls-24" x1="310.72" y1="541.33" x2="282.61" y2="530.62"/><path class="cls-7" d="M310.87,540.92a19.82,19.82,0,0,0-5-8.09,18.58,18.58,0,0,0-6.47-4.14,18.81,18.81,0,0,0-7.59-1.19,19.87,19.87,0,0,0-9.09,2.72l-.3.81c2.28,1.05,4.58,2,6.92,2.94l7,2.82,7.08,2.54q3.51,1.3,7.13,2.4Z"/><line class="cls-25" x1="283.3" y1="569.61" x2="312.49" y2="562.37"/><path class="cls-7" d="M283.4,570a19.81,19.81,0,0,0,8.69,3.81,18.61,18.61,0,0,0,7.68-.28,19,19,0,0,0,6.92-3.35,20,20,0,0,0,5.91-7.41l-.21-.85q-3.7.66-7.37,1.53l-7.33,1.67-7.27,2q-3.65.93-7.23,2.09Z"/><line class="cls-26" x1="293.05" y1="594.55" x2="322.29" y2="587.46"/><path class="cls-7" d="M293.16,595a19.85,19.85,0,0,0,8.67,3.86,18.8,18.8,0,0,0,7.68-.25,19,19,0,0,0,6.93-3.32,19.94,19.94,0,0,0,5.95-7.38l-.21-.84c-2.47.43-4.93.92-7.37,1.49l-7.34,1.63-7.28,1.91q-3.65.91-7.24,2.06Z"/><circle class="cls-15" cx="276.78" cy="551.67" r="8.42"/><line class="cls-27" x1="340.69" y1="540.16" x2="340.21" y2="570.24"/><path class="cls-7" d="M339.92,537.37a19.75,19.75,0,0,0-5.91,7.42,18.64,18.64,0,0,0-1.69,7.5,19,19,0,0,0,1.47,7.54,19.91,19.91,0,0,0,5.65,7.61l.87,0c.21-2.51.35-5,.41-7.52l.26-7.52,0-7.52q0-3.75-.17-7.52Z"/></g></svg>