<svg xmlns="http://www.w3.org/2000/svg" xmlns:xlink="http://www.w3.org/1999/xlink" viewBox="0 0 1080 1080"><defs><style>.cls-1{fill:url(#linear-gradient);}.cls-2{fill:url(#linear-gradient-2);}.cls-3{fill:url(#radial-gradient);}.cls-4{fill:url(#linear-gradient-3);}.cls-5{fill:#f9ad42;}.cls-6{fill:url(#linear-gradient-4);}.cls-7{fill:#ee4037;}.cls-8{fill:url(#linear-gradient-5);}.cls-9{fill:url(#linear-gradient-6);}.cls-10{fill:url(#linear-gradient-7);}.cls-11{fill:url(#linear-gradient-8);}.cls-12{fill:url(#linear-gradient-9);}.cls-13{fill:url(#linear-gradient-10);}.cls-14{fill:url(#linear-gradient-11);}.cls-15{fill:#8ac340;}.cls-16{fill:url(#linear-gradient-12);}.cls-17{fill:url(#radial-gradient-2);}.cls-18{fill:url(#linear-gradient-13);}.cls-19{fill:url(#linear-gradient-14);}.cls-20{fill:url(#linear-gradient-15);}.cls-21{fill:url(#linear-gradient-16);}.cls-22{fill:url(#linear-gradient-17);}.cls-23{fill:url(#linear-gradient-18);}.cls-24{fill:url(#linear-gradient-19);}.cls-25{fill:url(#linear-gradient-20);}.cls-26{fill:url(#linear-gradient-21);}.cls-27{fill:url(#linear-gradient-22);}</style><linearGradient id="linear-gradient" x1="1424.79" y1="3176.9" x2="1820.54" y2="3176.9" gradientTransform="matrix(-0.07, 1.14, -1.14, 0.12, 3941.38, -1970.98)" gradientUnits="userSpaceOnUse"><stop offset="0" stop-color="#f29022"/><stop offset="0.99" stop-color="#bb2030"/></linearGradient><linearGradient id="linear-gradient-2" x1="-590.26" y1="1403.96" x2="-194.52" y2="1403.96" gradientTransform="matrix(1.13, -0.22, -0.03, -1.15, 767.76, 1719.59)" xlink:href="#linear-gradient"/><radialGradient id="radial-gradient" cx="-4718.48" cy="3558.64" r="146.14" gradientTransform="matrix(0.63, -0.77, -0.77, -0.63, 6077.31, -853.38)" gradientUnits="userSpaceOnUse"><stop offset="0" stop-color="#ee4037"/><stop offset="0.38" stop-color="#ef6727"/><stop offset="0.49" stop-color="#f07126"/><stop offset="0.8" stop-color="#f38822"/><stop offset="1" stop-color="#f49021"/></radialGradient><linearGradient id="linear-gradient-3" x1="-5661.75" y1="760.29" x2="-5649.57" y2="760.29" gradientTransform="matrix(0.92, -0.39, -0.39, -0.92, 5833.73, -944.41)" gradientUnits="userSpaceOnUse"><stop offset="0" stop-color="#36b04a"/><stop offset="1" stop-color="#019147"/></linearGradient><linearGradient id="linear-gradient-4" x1="-5949.26" y1="2770.76" x2="-5937.08" y2="2770.76" gradientTransform="matrix(0.89, -0.44, -0.04, -0.33, 5752.67, -1078.04)" xlink:href="#linear-gradient-3"/><linearGradient id="linear-gradient-5" x1="-5650.83" y1="760.29" x2="-5619.26" y2="760.29" xlink:href="#linear-gradient-3"/><linearGradient id="linear-gradient-6" x1="-5642.63" y1="770.55" x2="-5587.95" y2="770.55" xlink:href="#linear-gradient-3"/><linearGradient id="linear-gradient-7" x1="-5432.12" y1="-307.26" x2="-5377.44" y2="-307.26" gradientTransform="matrix(1.02, -0.23, -0.38, -1.03, 5770.07, -1007.05)" xlink:href="#linear-gradient-3"/><linearGradient id="linear-gradient-8" x1="-5635.05" y1="786.14" x2="-5568.58" y2="786.14" xlink:href="#linear-gradient-3"/><linearGradient id="linear-gradient-9" x1="-5965.39" y1="3440.35" x2="-5953.21" y2="3440.35" gradientTransform="matrix(0.88, -0.47, -0.05, -0.33, 5766.8, -1058.5)" xlink:href="#linear-gradient-3"/><linearGradient id="linear-gradient-10" x1="6893.65" y1="-13680.15" x2="6905.84" y2="-13680.15" gradientTransform="matrix(-0.45, 0.88, 0.22, 0.24, 6593.05, -2213.81)" xlink:href="#linear-gradient-3"/><linearGradient id="linear-gradient-11" x1="6882.89" y1="-13627.12" x2="6895.07" y2="-13627.12" gradientTransform="matrix(-0.46, 0.88, 0.22, 0.24, 6598.09, -2212.26)" xlink:href="#linear-gradient-3"/><linearGradient id="linear-gradient-12" x1="1662.25" y1="18364.39" x2="1674.43" y2="18364.39" gradientTransform="matrix(-0.74, -0.66, -0.29, 0.16, 6934.3, -1173.81)" xlink:href="#linear-gradient-3"/><radialGradient id="radial-gradient-2" cx="2503.62" cy="3901.8" r="146.14" gradientTransform="matrix(-0.56, 0.83, -0.83, -0.56, 5198.22, 379.93)" xlink:href="#radial-gradient"/><linearGradient id="linear-gradient-13" x1="585.81" y1="4399.59" x2="597.99" y2="4399.59" gradientTransform="translate(5041.57 172.39) rotate(96.7)" xlink:href="#linear-gradient-3"/><linearGradient id="linear-gradient-14" x1="-686.77" y1="13459.96" x2="-674.59" y2="13459.96" gradientTransform="matrix(-0.17, 0.98, -0.32, 0.06, 4890.38, 132.75)" xlink:href="#linear-gradient-3"/><linearGradient id="linear-gradient-15" x1="596.73" y1="4399.59" x2="628.3" y2="4399.59" gradientTransform="translate(5041.57 172.39) rotate(96.7)" xlink:href="#linear-gradient-3"/><linearGradient id="linear-gradient-16" x1="604.93" y1="4409.85" x2="659.61" y2="4409.85" gradientTransform="translate(5041.57 172.39) rotate(96.7)" xlink:href="#linear-gradient-3"/><linearGradient id="linear-gradient-17" x1="378.88" y1="3991.24" x2="433.56" y2="3991.24" gradientTransform="matrix(0.07, 1.05, -1.1, -0.07, 4963.38, 129.21)" xlink:href="#linear-gradient-3"/><linearGradient id="linear-gradient-18" x1="612.52" y1="4425.43" x2="678.98" y2="4425.43" gradientTransform="translate(5041.57 172.39) rotate(96.7)" xlink:href="#linear-gradient-3"/><linearGradient id="linear-gradient-19" x1="-512.66" y1="13417.37" x2="-500.48" y2="13417.37" gradientTransform="matrix(-0.2, 0.97, -0.33, 0.05, 4913.14, 140.73)" xlink:href="#linear-gradient-3"/><linearGradient id="linear-gradient-20" x1="-724.87" y1="-9830.14" x2="-712.69" y2="-9830.14" gradientTransform="matrix(0.72, -0.68, 0.29, 0.15, 4041.09, 1261.88)" xlink:href="#linear-gradient-3"/><linearGradient id="linear-gradient-21" x1="-728.58" y1="-9890.71" x2="-716.4" y2="-9890.71" gradientTransform="matrix(0.72, -0.69, 0.3, 0.15, 4044.01, 1266.27)" xlink:href="#linear-gradient-3"/><linearGradient id="linear-gradient-22" x1="4977.21" y1="-4897.38" x2="4989.39" y2="-4897.38" gradientTransform="matrix(-0.85, -0.52, 0.07, -0.32, 5135.21, 1292.7)" xlink:href="#linear-gradient-3"/></defs><g id="_2" data-name="2"><path class="cls-1" d="M249.94,489.07,374,490s4.77-19.21-6-66.06C356.2,372.82,67.29,76.83,67.23,76.81c-15.59-6.32-23.2,1-23.92,17.33C43.31,94.14,304.49,336,249.94,489.07Z"/><path class="cls-2" d="M497.19,207.27l17.36,122.82s-18.41,7.27-66.27,2.79C396,328,64.39,80.8,64.36,80.74c-8.33-14.61-2.1-23.12,14-26C78.38,54.74,352.66,281.61,497.19,207.27Z"/><path class="cls-3" d="M224,458.08s-10.09,30.44,8.92,59.68,40.18,34.79,38.58,37.46c0,0-29.79,3.67-46.39,38.67s-7.66,48.39-7.66,48.39,15.07,20.9,50.85,9.51,51.19-32.55,53.23-30.2c0,0-16.48,22.93,8.09,62s47.45,34.2,47.45,34.2,35.35-14.84,33.18-54.13-19.62-70.07-19.62-70.07c.62-3,39.2,22,73.5,8.31C501.49,587,503,563.67,503,563.67s-1.38-25.08-41.74-45.38c-39.39-19.81-56.93,1.93-56.93,1.93-2.7-1.53,21-20.23,18.74-60s-19.21-46.17-19.21-46.17S392.34,410,360.49,431s-31.15,53.45-31.15,53.45c-2.29,2.1-11.8-17.38-46.08-30.72S224,458.08,224,458.08Z"/><line class="cls-4" x1="312.47" y1="547.34" x2="362" y2="631.77"/><path class="cls-5" d="M312.19,547.51a140.22,140.22,0,0,0,8.66,23.29c1.62,3.78,3.6,7.34,5.4,11s3.95,7.13,5.94,10.7c2.15,3.46,4.23,7,6.45,10.4s4.49,6.82,7,10.08a141.91,141.91,0,0,0,16.09,18.94l.56-.33-24.49-42.38-25-42.05Z"/><line class="cls-6" x1="353.12" y1="611.18" x2="367.45" y2="637.63"/><path class="cls-7" d="M352.74,611.39a19.86,19.86,0,0,0-1.51,9.37,18.6,18.6,0,0,0,2.2,7.36,19,19,0,0,0,5,5.86,20,20,0,0,0,8.66,3.86l.76-.42q-1.56-3.42-3.33-6.74L361.05,624l-3.71-6.55q-1.81-3.29-3.84-6.47Z"/><line class="cls-8" x1="323.38" y1="545.09" x2="388.96" y2="617.75"/><path class="cls-5" d="M323.14,545.3a140.2,140.2,0,0,0,13.2,21.06c2.35,3.37,5,6.46,7.51,9.7s5.32,6.19,8,9.28c2.82,2.95,5.56,6,8.43,8.88s5.77,5.77,8.88,8.46A142,142,0,0,0,388.72,618l.48-.43L356.66,581l-33-36.11Z"/><line class="cls-9" x1="411.42" y1="590.7" x2="329.13" y2="537.69"/><path class="cls-5" d="M411.59,590.43a140.47,140.47,0,0,0-18.23-16.88c-3.15-2.64-6.53-4.93-9.79-7.4s-6.75-4.58-10.13-6.87c-3.49-2.12-6.92-4.31-10.45-6.37s-7.08-4.07-10.79-5.85a141.75,141.75,0,0,0-22.89-9.64L329,538l41,26.77L411.24,591Z"/><line class="cls-10" x1="412.1" y1="613.44" x2="325.51" y2="542.25"/><path class="cls-5" d="M412.32,613.17a170.71,170.71,0,0,0-18.72-21.36c-3.26-3.39-6.8-6.44-10.2-9.66s-7.07-6.1-10.62-9.14c-3.68-2.88-7.3-5.83-11-8.64s-7.5-5.6-11.45-8.14A173,173,0,0,0,325.73,542l-.44.54,43.07,35.86,43.52,35.33Z"/><line class="cls-11" x1="421.22" y1="564.44" x2="331.79" y2="524.66"/><path class="cls-5" d="M421.35,564.15a140.37,140.37,0,0,0-20.6-13.89c-3.52-2.13-7.21-3.87-10.81-5.81s-7.37-3.5-11.06-5.24c-3.77-1.56-7.5-3.2-11.3-4.69S360,531.58,356,530.39a142,142,0,0,0-24.11-6l-.26.6,44.58,20.19,44.85,19.59Z"/><line class="cls-12" x1="382.22" y1="602.56" x2="397.44" y2="628.5"/><path class="cls-7" d="M381.85,602.78a19.84,19.84,0,0,0-1.2,9.42,18.85,18.85,0,0,0,2.45,7.28,19.06,19.06,0,0,0,5.18,5.68,20,20,0,0,0,8.79,3.56l.74-.44c-1.12-2.24-2.3-4.46-3.55-6.63l-3.68-6.56-3.93-6.41q-1.93-3.23-4.06-6.34Z"/><line class="cls-13" x1="421.31" y1="597.67" x2="394.01" y2="585.04"/><path class="cls-7" d="M421.49,597.28a19.91,19.91,0,0,0-4.39-8.42,18.6,18.6,0,0,0-6.17-4.58,18.83,18.83,0,0,0-7.49-1.72,20.09,20.09,0,0,0-9.25,2.08l-.36.79c2.2,1.2,4.43,2.35,6.7,3.42l6.76,3.29,6.89,3c2.28,1,4.6,2,6.94,2.89Z"/><line class="cls-14" x1="429.31" y1="572.11" x2="402.07" y2="559.34"/><path class="cls-7" d="M429.49,571.72a19.82,19.82,0,0,0-4.35-8.44,18.59,18.59,0,0,0-6.14-4.61,18.8,18.8,0,0,0-7.48-1.75,20,20,0,0,0-9.26,2l-.37.79c2.2,1.21,4.42,2.37,6.69,3.45l6.74,3.32,6.87,3.06c2.28,1,4.59,2,6.93,2.94Z"/><circle class="cls-15" cx="415.16" cy="615.74" r="8.42"/><line class="cls-16" x1="358.11" y1="584.71" x2="377.31" y2="561.55"/><path class="cls-7" d="M357,587.37a19.74,19.74,0,0,0,9.25-2.09,18.58,18.58,0,0,0,6-4.79,18.83,18.83,0,0,0,3.58-6.8,19.9,19.9,0,0,0,.35-9.47l-.67-.56c-1.72,1.83-3.4,3.69-5,5.61l-4.91,5.7-4.68,5.88c-1.59,1.94-3.11,3.93-4.58,6Z"/><path class="cls-17" d="M444.69,176.07s26.3-18.35,59.74-8.45,44.8,28.6,46.9,26.3c0,0-5-29.6,23.86-55.48s44.2-21.13,44.2-21.13,24.33,8.5,23.6,46S626.37,221.69,629.2,223c0,0,17.29-22.33,61.77-9.92s46.29,35.75,46.29,35.75-4.16,38.1-42.44,47.22-72.75,1.15-72.75,1.15c-2.74,1.46,32.25,31.31,28.91,68.09-3.65,40.05-25.59,48.17-25.59,48.17S601,419.26,570,386.36c-30.21-32.12-14.37-55.13-14.37-55.13-2.24-2.15-13.42,25.88-52.13,35S453.78,361,453.78,361s-7.19-9.9,3.81-46.4S500,269.53,500,269.53c1.36-2.8-20-6.36-42.57-35.42S444.69,176.07,444.69,176.07Z"/><line class="cls-18" x1="555.45" y1="235.43" x2="650.49" y2="258.85"/><path class="cls-5" d="M555.53,235.11a141.12,141.12,0,0,1,24.79,1.67c4.09.48,8.07,1.36,12.1,2s8,1.76,12,2.64c3.94,1.08,7.89,2.08,11.81,3.23s7.82,2.35,11.66,3.82a142.2,142.2,0,0,1,22.73,10l-.16.63-47.59-11.4-47.44-12Z"/><line class="cls-19" x1="628.23" y1="256.21" x2="657.66" y2="262.41"/><path class="cls-7" d="M628.32,255.79a19.71,19.71,0,0,1,8.55-4.12,18.56,18.56,0,0,1,7.68,0,19.05,19.05,0,0,1,7,3.11,19.83,19.83,0,0,1,6.17,7.2l-.18.85c-2.48-.35-5-.77-7.41-1.27l-7.39-1.41-7.33-1.69c-2.45-.53-4.88-1.15-7.3-1.83Z"/><line class="cls-20" x1="556.4" y1="246.54" x2="644.74" y2="288.7"/><path class="cls-5" d="M556.54,246.25a140,140,0,0,1,23.94,6.64c3.9,1.3,7.63,3,11.44,4.44s7.45,3.34,11.17,5c3.63,1.85,7.3,3.63,10.91,5.55s7.18,3.88,10.64,6.1a142.29,142.29,0,0,1,20.24,14.41l-.28.59L600.29,268.2l-44-21.37Z"/><line class="cls-21" x1="625.2" y1="317.93" x2="550.95" y2="254.15"/><path class="cls-5" d="M625,318.17a140.05,140.05,0,0,1-21.37-12.67c-3.43-2.27-6.59-4.85-9.88-7.27s-6.32-5.17-9.47-7.75c-3-2.74-6.11-5.41-9.09-8.21s-5.92-5.63-8.68-8.67a141.1,141.1,0,0,1-15.76-19.2l.42-.49,37.34,31.64,36.92,32.13Z"/><line class="cls-22" x1="647.19" y1="312.1" x2="554.29" y2="249.39"/><path class="cls-5" d="M647,312.39a172.42,172.42,0,0,1-25.81-11.85c-4.18-2.16-8.11-4.69-12.17-7s-7.86-5.05-11.78-7.58c-3.81-2.71-7.67-5.34-11.43-8.11s-7.5-5.59-11.06-8.66a172.21,172.21,0,0,1-20.66-19.49l.39-.57,46.65,31.07,46.26,31.64Z"/><line class="cls-23" x1="602.83" y1="334.81" x2="539.21" y2="260.41"/><path class="cls-5" d="M602.58,335a140.56,140.56,0,0,1-19.18-15.8c-3-2.76-5.77-5.8-8.65-8.7s-5.45-6.07-8.17-9.11-5.21-6.28-7.72-9.5-5-6.46-7.25-9.9A140.6,140.6,0,0,1,539,260.62l.49-.42,32,37,31.56,37.41Z"/><line class="cls-24" x1="628.25" y1="286.56" x2="657.46" y2="293.76"/><path class="cls-7" d="M628.36,286.14a19.65,19.65,0,0,1,8.68-3.82,18.61,18.61,0,0,1,7.68.27,19,19,0,0,1,6.92,3.35,19.8,19.8,0,0,1,5.92,7.4l-.21.84c-2.47-.44-4.93-.94-7.37-1.52L642.65,291l-7.27-1.94c-2.43-.61-4.84-1.31-7.23-2.08Z"/><line class="cls-25" x1="634.7" y1="325.42" x2="614.81" y2="302.85"/><path class="cls-7" d="M634.38,325.71a19.72,19.72,0,0,1-9.32-1.81,18.63,18.63,0,0,1-6.15-4.61,19,19,0,0,1-3.78-6.69,19.94,19.94,0,0,1-.64-9.46l.65-.57c1.78,1.77,3.52,3.58,5.19,5.45l5.08,5.55,4.86,5.73c1.65,1.89,3.23,3.84,4.76,5.83Z"/><line class="cls-26" x1="612.48" y1="340.37" x2="592.48" y2="317.9"/><path class="cls-7" d="M612.16,340.66a19.7,19.7,0,0,1-9.33-1.77,18.48,18.48,0,0,1-6.17-4.57,19,19,0,0,1-3.81-6.67,19.87,19.87,0,0,1-.69-9.46l.65-.57c1.79,1.76,3.53,3.56,5.21,5.42l5.11,5.52,4.89,5.72c1.65,1.88,3.25,3.82,4.79,5.8Z"/><circle class="cls-15" cx="650.27" cy="314.38" r="8.42"/><line class="cls-27" x1="604.28" y1="268.54" x2="587.55" y2="293.54"/><path class="cls-7" d="M606.5,266.68a19.69,19.69,0,0,1,.63,9.47,18.72,18.72,0,0,1-2.87,7.13,19.06,19.06,0,0,1-5.51,5.36,19.91,19.91,0,0,1-9,3l-.72-.48c1.26-2.18,2.56-4.32,3.94-6.41l4.07-6.33,4.3-6.17c1.41-2.08,2.88-4.1,4.42-6.09Z"/></g></svg>