<svg xmlns="http://www.w3.org/2000/svg" xmlns:xlink="http://www.w3.org/1999/xlink" viewBox="0 0 1080 1080"><defs><style>.cls-1{fill:url(#linear-gradient);}.cls-2{fill:url(#linear-gradient-2);}.cls-3{fill:url(#radial-gradient);}.cls-4{fill:url(#linear-gradient-3);}.cls-5{fill:#f9ad42;}.cls-6{fill:url(#linear-gradient-4);}.cls-7{fill:#ee4037;}.cls-8{fill:url(#linear-gradient-5);}.cls-9{fill:url(#linear-gradient-6);}.cls-10{fill:url(#linear-gradient-7);}.cls-11{fill:url(#linear-gradient-8);}.cls-12{fill:url(#linear-gradient-9);}.cls-13{fill:url(#linear-gradient-10);}.cls-14{fill:url(#linear-gradient-11);}.cls-15{fill:#8ac340;}.cls-16{fill:url(#linear-gradient-12);}.cls-17{fill:url(#radial-gradient-2);}.cls-18{fill:url(#linear-gradient-13);}.cls-19{fill:url(#linear-gradient-14);}.cls-20{fill:url(#linear-gradient-15);}.cls-21{fill:url(#linear-gradient-16);}.cls-22{fill:url(#linear-gradient-17);}.cls-23{fill:url(#linear-gradient-18);}.cls-24{fill:url(#linear-gradient-19);}.cls-25{fill:url(#linear-gradient-20);}.cls-26{fill:url(#linear-gradient-21);}.cls-27{fill:url(#linear-gradient-22);}</style><linearGradient id="linear-gradient" x1="1306.7" y1="1041.32" x2="1798.28" y2="1041.32" gradientTransform="matrix(-0.19, 1.13, -1.15, 0, 1729.6, -1409.72)" gradientUnits="userSpaceOnUse"><stop offset="0" stop-color="#f29022"/><stop offset="0.99" stop-color="#bb2030"/></linearGradient><linearGradient id="linear-gradient-2" x1="457.53" y1="258.03" x2="980.32" y2="258.03" gradientTransform="matrix(1.14, -0.07, 0.12, -1.14, -517.65, 609.19)" xlink:href="#linear-gradient"/><radialGradient id="radial-gradient" cx="-4255.15" cy="3362.41" r="146.14" gradientTransform="matrix(0.6, -0.8, -0.8, -0.6, 5648.88, -686.8)" gradientUnits="userSpaceOnUse"><stop offset="0" stop-color="#ee4037"/><stop offset="0.38" stop-color="#ef6727"/><stop offset="0.49" stop-color="#f07126"/><stop offset="0.8" stop-color="#f38822"/><stop offset="1" stop-color="#f49021"/></radialGradient><linearGradient id="linear-gradient-3" x1="-5160.17" y1="800.19" x2="-5147.99" y2="800.19" gradientTransform="matrix(0.9, -0.43, -0.43, -0.9, 5402.09, -768.71)" gradientUnits="userSpaceOnUse"><stop offset="0" stop-color="#36b04a"/><stop offset="1" stop-color="#019147"/></linearGradient><linearGradient id="linear-gradient-4" x1="-5447.71" y1="2814.86" x2="-5435.53" y2="2814.86" gradientTransform="matrix(0.87, -0.47, -0.05, -0.33, 5316.12, -899.24)" xlink:href="#linear-gradient-3"/><linearGradient id="linear-gradient-5" x1="-5149.25" y1="800.19" x2="-5117.68" y2="800.19" xlink:href="#linear-gradient-3"/><linearGradient id="linear-gradient-6" x1="-5141.05" y1="810.45" x2="-5086.37" y2="810.45" xlink:href="#linear-gradient-3"/><linearGradient id="linear-gradient-7" x1="-4952.3" y1="-189.19" x2="-4897.62" y2="-189.19" gradientTransform="matrix(1.01, -0.27, -0.42, -1.02, 5336.14, -828.95)" xlink:href="#linear-gradient-3"/><linearGradient id="linear-gradient-8" x1="-5133.46" y1="826.04" x2="-5067" y2="826.04" xlink:href="#linear-gradient-3"/><linearGradient id="linear-gradient-9" x1="-5457.4" y1="3429.18" x2="-5445.22" y2="3429.18" gradientTransform="matrix(0.86, -0.5, -0.06, -0.32, 5330.96, -880.24)" xlink:href="#linear-gradient-3"/><linearGradient id="linear-gradient-10" x1="6373.2" y1="-12743.91" x2="6385.38" y2="-12743.91" gradientTransform="matrix(-0.42, 0.9, 0.23, 0.23, 6113.7, -2065.47)" xlink:href="#linear-gradient-3"/><linearGradient id="linear-gradient-11" x1="6361.74" y1="-12697.43" x2="6373.92" y2="-12697.43" gradientTransform="matrix(-0.42, 0.9, 0.23, 0.23, 6118.78, -2064.11)" xlink:href="#linear-gradient-3"/><linearGradient id="linear-gradient-12" x1="1659.01" y1="16839.88" x2="1671.19" y2="16839.88" gradientTransform="matrix(-0.76, -0.63, -0.28, 0.17, 6493.37, -1038.87)" xlink:href="#linear-gradient-3"/><radialGradient id="radial-gradient-2" cx="2051.12" cy="3601.81" r="146.14" gradientTransform="matrix(-0.53, 0.85, -0.85, -0.53, 4816.25, 578.34)" xlink:href="#radial-gradient"/><linearGradient id="linear-gradient-13" x1="322.97" y1="3924.55" x2="335.15" y2="3924.55" gradientTransform="translate(4651.99 376.76) rotate(94.57)" xlink:href="#linear-gradient-3"/><linearGradient id="linear-gradient-14" x1="-807.29" y1="11971.42" x2="-795.11" y2="11971.42" gradientTransform="matrix(-0.13, 0.98, -0.32, 0.07, 4499.43, 342.77)" xlink:href="#linear-gradient-3"/><linearGradient id="linear-gradient-15" x1="333.89" y1="3924.55" x2="365.46" y2="3924.55" gradientTransform="translate(4651.99 376.76) rotate(94.57)" xlink:href="#linear-gradient-3"/><linearGradient id="linear-gradient-16" x1="342.09" y1="3934.8" x2="396.77" y2="3934.8" gradientTransform="translate(4651.99 376.76) rotate(94.57)" xlink:href="#linear-gradient-3"/><linearGradient id="linear-gradient-17" x1="151.35" y1="3520.69" x2="206.03" y2="3520.69" gradientTransform="matrix(0.1, 1.04, -1.1, -0.03, 4572.25, 336.52)" xlink:href="#linear-gradient-3"/><linearGradient id="linear-gradient-18" x1="349.67" y1="3950.39" x2="416.14" y2="3950.39" gradientTransform="translate(4651.99 376.76) rotate(94.57)" xlink:href="#linear-gradient-3"/><linearGradient id="linear-gradient-19" x1="-652.46" y1="11961.24" x2="-640.28" y2="11961.24" gradientTransform="matrix(-0.16, 0.98, -0.32, 0.06, 4522.47, 349.9)" xlink:href="#linear-gradient-3"/><linearGradient id="linear-gradient-20" x1="-287.98" y1="-9191.82" x2="-275.8" y2="-9191.82" gradientTransform="matrix(0.69, -0.71, 0.3, 0.14, 3692.71, 1502.7)" xlink:href="#linear-gradient-3"/><linearGradient id="linear-gradient-21" x1="-293.59" y1="-9244.34" x2="-281.41" y2="-9244.34" gradientTransform="matrix(0.69, -0.71, 0.3, 0.13, 3695.79, 1506.97)" xlink:href="#linear-gradient-3"/><linearGradient id="linear-gradient-22" x1="4493.99" y1="-3480.97" x2="4506.17" y2="-3480.97" gradientTransform="matrix(-0.86, -0.49, 0.05, -0.32, 4787.22, 1492.82)" xlink:href="#linear-gradient-3"/></defs><g id="_3" data-name="3"><path class="cls-1" d="M320.39,613.33l123.23,14.08s6.79-18.6,1-66.32C438.36,509,65.83,76,65.77,76,50.94,68,42.6,74.49,40.15,90.68,40.15,90.68,390.85,466.87,320.39,613.33Z"/><path class="cls-2" d="M610.32,350.66l1.27,124s-19.2,4.82-66.07-5.84C494.34,457.21,62.92,77.32,62.89,77.27c-6.36-15.57.92-23.2,17.28-24C80.17,53.3,457.37,405.6,610.32,350.66Z"/><path class="cls-3" d="M284.45,590.31s-8.95,30.8,11.14,59.31,41.44,33.28,39.94,36c0,0-29.63,4.78-44.92,40.37s-5.86,48.64-5.86,48.64,15.85,20.33,51.18,7.62,49.94-34.44,52.06-32.17c0,0-15.61,23.53,10.4,61.69s48.69,32.4,48.69,32.4,34.77-16.14,31.14-55.33S456,719.56,456,719.56c.51-3.07,40,20.52,73.76,5.57,36.78-16.28,37.44-39.67,37.44-39.67s-2.31-25-43.4-43.8c-40.1-18.33-56.82,4.05-56.82,4.05-2.76-1.43,20.22-21,16.5-60.61s-20.92-45.42-20.92-45.42-11.68-3.63-42.73,18.48-29.14,54.57-29.14,54.57c-2.21,2.18-12.44-16.93-47.19-29S284.45,590.31,284.45,590.31Z"/><line class="cls-4" x1="376.17" y1="676.23" x2="428.8" y2="758.76"/><path class="cls-5" d="M375.89,676.4a140.36,140.36,0,0,0,9.53,23c1.76,3.71,3.87,7.2,5.8,10.81s4.22,7,6.33,10.47c2.29,3.38,4.5,6.81,6.84,10.15s4.73,6.65,7.36,9.82a141.62,141.62,0,0,0,16.78,18.32l.55-.35L403,717.14l-26.59-41.08Z"/><line class="cls-6" x1="419.17" y1="738.51" x2="434.47" y2="764.41"/><path class="cls-7" d="M418.8,738.73a19.84,19.84,0,0,0-1.17,9.43,18.62,18.62,0,0,0,2.48,7.27,18.91,18.91,0,0,0,5.19,5.66,20,20,0,0,0,8.8,3.54l.74-.44c-1.13-2.24-2.31-4.45-3.57-6.62l-3.7-6.55-3.95-6.4c-1.29-2.15-2.66-4.25-4.08-6.33Z"/><line class="cls-8" x1="386.99" y1="673.57" x2="455.23" y2="743.75"/><path class="cls-5" d="M386.76,673.79a139.79,139.79,0,0,0,14,20.55c2.47,3.29,5.25,6.28,7.87,9.42s5.54,6,8.32,9,5.78,5.76,8.75,8.56,6,5.56,9.19,8.13A141.63,141.63,0,0,0,455,744l.46-.45L421.58,708.2l-34.35-34.86Z"/><line class="cls-9" x1="476.66" y1="715.88" x2="392.46" y2="665.97"/><path class="cls-5" d="M476.83,715.6A141.26,141.26,0,0,0,458,699.41c-3.25-2.52-6.71-4.68-10.06-7s-6.91-4.33-10.38-6.49c-3.56-2-7.08-4-10.68-6s-7.22-3.81-11-5.45a141.84,141.84,0,0,0-23.24-8.78l-.33.55,41.93,25.24,42.27,24.68Z"/><line class="cls-10" x1="478.19" y1="738.57" x2="389.02" y2="670.66"/><path class="cls-5" d="M478.4,738.3a170.77,170.77,0,0,0-19.5-20.65c-3.38-3.27-7-6.18-10.55-9.28s-7.3-5.83-11-8.73c-3.78-2.74-7.51-5.56-11.34-8.23s-7.7-5.31-11.75-7.71a172.15,172.15,0,0,0-25.07-13.32l-.43.55,44.38,34.24L478,738.85Z"/><line class="cls-11" x1="485.48" y1="689.27" x2="394.63" y2="652.84"/><path class="cls-5" d="M485.6,689a140.41,140.41,0,0,0-21.1-13.11c-3.6-2-7.35-3.6-11-5.4s-7.49-3.23-11.24-4.83c-3.83-1.42-7.62-2.92-11.47-4.27s-7.73-2.65-11.7-3.7a142.83,142.83,0,0,0-24.32-5.12l-.24.61,45.31,18.51,45.54,17.92Z"/><line class="cls-12" x1="447.93" y1="728.81" x2="464.1" y2="754.17"/><path class="cls-7" d="M447.56,729.05a19.71,19.71,0,0,0-.84,9.45,18.61,18.61,0,0,0,2.72,7.19,18.81,18.81,0,0,0,5.38,5.48,20,20,0,0,0,8.91,3.24l.74-.47c-1.21-2.2-2.47-4.37-3.81-6.49L456.74,741l-4.16-6.26c-1.36-2.11-2.8-4.17-4.29-6.19Z"/><line class="cls-13" x1="486.8" y1="722.48" x2="459.06" y2="710.86"/><path class="cls-7" d="M487,722.08a19.77,19.77,0,0,0-4.7-8.25,18.56,18.56,0,0,0-6.33-4.35,19,19,0,0,0-7.55-1.44,20,20,0,0,0-9.17,2.42l-.33.8q3.38,1.69,6.82,3.17l6.88,3,7,2.77c2.32,1,4.67,1.82,7.05,2.63Z"/><line class="cls-14" x1="493.85" y1="696.64" x2="466.16" y2="684.89"/><path class="cls-7" d="M494,696.24a19.72,19.72,0,0,0-4.66-8.27,18.76,18.76,0,0,0-6.31-4.39,19.11,19.11,0,0,0-7.55-1.47,20,20,0,0,0-9.17,2.38l-.34.8c2.24,1.13,4.51,2.21,6.81,3.2l6.86,3.07,7,2.8c2.32,1,4.67,1.85,7,2.68Z"/><circle class="cls-15" cx="481.33" cy="740.76" r="8.42"/><line class="cls-16" x1="423.17" y1="711.87" x2="441.49" y2="688.02"/><path class="cls-7" d="M422.12,714.58a19.74,19.74,0,0,0,9.18-2.44,18.73,18.73,0,0,0,5.83-5,19,19,0,0,0,3.31-6.94,19.81,19.81,0,0,0,0-9.48l-.69-.53c-1.66,1.89-3.27,3.81-4.81,5.79l-4.7,5.88-4.46,6q-2.27,3-4.35,6.14Z"/><path class="cls-17" d="M552.88,327.15s25.61-19.32,59.4-10.67,45.83,26.91,47.84,24.54c0,0-6.06-29.39,21.78-56.32s43.38-22.76,43.38-22.76,24.63,7.58,25.3,45.12S736.14,366,739,367.16c0,0,16.44-23,61.35-12.2S848,389,848,389s-2.74,38.23-40.65,48.77-72.66,3.85-72.66,3.85c-2.69,1.56,33.39,30.09,31.42,67-2.16,40.16-23.79,49.08-23.79,49.08s-24.19,6.73-56.35-25c-31.39-31-16.41-54.55-16.41-54.55-2.31-2.07-12.44,26.36-50.79,37s-49.88-3.42-49.88-3.42-7.55-9.63,2.08-46.51,40.66-46.62,40.66-46.62c1.25-2.84-20.25-5.61-43.86-33.81S552.88,327.15,552.88,327.15Z"/><line class="cls-18" x1="665.78" y1="382.35" x2="761.63" y2="402.22"/><path class="cls-5" d="M665.85,382a140.35,140.35,0,0,1,24.83.75c4.1.32,8.12,1.05,12.17,1.58s8,1.46,12,2.2c4,.93,8,1.78,11.92,2.78s7.9,2.06,11.79,3.39a141,141,0,0,1,23.09,9.18l-.13.63-48-9.62-47.85-10.25Z"/><line class="cls-19" x1="739.28" y1="400.41" x2="768.92" y2="405.52"/><path class="cls-7" d="M739.35,400a19.9,19.9,0,0,1,8.4-4.44,18.54,18.54,0,0,1,7.68-.27,19,19,0,0,1,7.14,2.84,20,20,0,0,1,6.43,7l-.15.85c-2.5-.26-5-.58-7.46-1L754,403.82l-7.39-1.42c-2.47-.44-4.92-1-7.36-1.56Z"/><line class="cls-20" x1="667.14" y1="393.42" x2="756.98" y2="432.26"/><path class="cls-5" d="M667.27,393.12a140.3,140.3,0,0,1,24.17,5.75c3.95,1.15,7.73,2.68,11.6,4,3.8,1.48,7.56,3.06,11.34,4.59,3.7,1.72,7.44,3.35,11.11,5.14s7.33,3.61,10.87,5.7A142.41,142.41,0,0,1,757.11,432l-.25.6L711.8,413.43,667,393.71Z"/><line class="cls-21" x1="738.55" y1="462.2" x2="661.98" y2="401.23"/><path class="cls-5" d="M738.35,462.45a139.62,139.62,0,0,1-21.83-11.87c-3.51-2.14-6.76-4.6-10.15-6.9s-6.5-4.92-9.75-7.39c-3.12-2.63-6.3-5.18-9.38-7.86s-6.12-5.41-9-8.35a142.12,142.12,0,0,1-16.47-18.6l.41-.51,38.49,30.23,38.08,30.74Z"/><line class="cls-22" x1="760.31" y1="455.56" x2="665.14" y2="396.34"/><path class="cls-5" d="M760.12,455.85A170.62,170.62,0,0,1,733.89,445c-4.25-2-8.27-4.38-12.41-6.57s-8.05-4.75-12.06-7.14c-3.91-2.56-7.86-5.05-11.73-7.68s-7.7-5.31-11.37-8.24A172.39,172.39,0,0,1,665,396.63l.37-.59,47.77,29.32,47.4,29.9Z"/><line class="cls-23" x1="716.82" y1="479.9" x2="650.48" y2="407.92"/><path class="cls-5" d="M716.58,480.12a141,141,0,0,1-19.75-15.07c-3.15-2.66-6-5.59-9-8.38s-5.68-5.86-8.51-8.8-5.44-6.08-8.07-9.2-5.22-6.28-7.61-9.62a142.32,142.32,0,0,1-13.43-20.91l.48-.44,33.41,35.77,32.93,36.21Z"/><line class="cls-24" x1="740.43" y1="430.74" x2="769.88" y2="436.85"/><path class="cls-7" d="M740.52,430.32a19.77,19.77,0,0,1,8.54-4.15,18.57,18.57,0,0,1,7.68,0,19.09,19.09,0,0,1,7,3.08,20,20,0,0,1,6.19,7.18l-.17.85q-3.74-.51-7.43-1.24L755,434.64,747.65,433c-2.45-.52-4.89-1.13-7.31-1.8Z"/><line class="cls-25" x1="748.32" y1="469.33" x2="727.61" y2="447.52"/><path class="cls-7" d="M748,469.63a19.76,19.76,0,0,1-9.38-1.46,18.79,18.79,0,0,1-6.32-4.37,19,19,0,0,1-4-6.55,20,20,0,0,1-1-9.43l.63-.6c1.85,1.71,3.65,3.45,5.39,5.26l5.28,5.35,5.08,5.55c1.71,1.83,3.36,3.72,5,5.65Z"/><line class="cls-26" x1="726.67" y1="485.1" x2="705.85" y2="463.39"/><path class="cls-7" d="M726.36,485.4A19.86,19.86,0,0,1,717,484a18.62,18.62,0,0,1-6.34-4.34,18.94,18.94,0,0,1-4-6.53,19.86,19.86,0,0,1-1-9.42l.63-.6c1.85,1.69,3.66,3.43,5.41,5.23l5.31,5.33,5.1,5.52c1.72,1.82,3.38,3.7,5,5.63Z"/><circle class="cls-15" cx="763.47" cy="457.72" r="8.42"/><line class="cls-27" x1="715.8" y1="413.62" x2="700.01" y2="439.22"/><path class="cls-7" d="M718,411.68a19.8,19.8,0,0,1,1,9.44,18.63,18.63,0,0,1-2.61,7.23,18.89,18.89,0,0,1-5.3,5.56,19.83,19.83,0,0,1-8.86,3.37l-.74-.45c1.17-2.22,2.4-4.41,3.7-6.55L709,423.8l4.07-6.32q2-3.19,4.19-6.25Z"/></g></svg>