<svg xmlns="http://www.w3.org/2000/svg" xmlns:xlink="http://www.w3.org/1999/xlink" viewBox="0 0 1080 1080"><defs><style>.cls-1{fill:url(#linear-gradient);}.cls-2{fill:url(#linear-gradient-2);}.cls-3{fill:url(#radial-gradient);}.cls-4{fill:url(#linear-gradient-3);}.cls-5{fill:#f9ad42;}.cls-6{fill:url(#linear-gradient-4);}.cls-7{fill:#ee4037;}.cls-8{fill:url(#linear-gradient-5);}.cls-9{fill:url(#linear-gradient-6);}.cls-10{fill:url(#linear-gradient-7);}.cls-11{fill:url(#linear-gradient-8);}.cls-12{fill:url(#linear-gradient-9);}.cls-13{fill:url(#linear-gradient-10);}.cls-14{fill:url(#linear-gradient-11);}.cls-15{fill:#8ac340;}.cls-16{fill:url(#linear-gradient-12);}.cls-17{fill:url(#radial-gradient-2);}.cls-18{fill:url(#linear-gradient-13);}.cls-19{fill:url(#linear-gradient-14);}.cls-20{fill:url(#linear-gradient-15);}.cls-21{fill:url(#linear-gradient-16);}.cls-22{fill:url(#linear-gradient-17);}.cls-23{fill:url(#linear-gradient-18);}.cls-24{fill:url(#linear-gradient-19);}.cls-25{fill:url(#linear-gradient-20);}.cls-26{fill:url(#linear-gradient-21);}.cls-27{fill:url(#linear-gradient-22);}</style><linearGradient id="linear-gradient" x1="2243.76" y1="2992.47" x2="2735.34" y2="2992.47" gradientTransform="matrix(1.09, -0.35, -0.16, -1.14, -1866.23, 4496.78)" gradientUnits="userSpaceOnUse"><stop offset="0" stop-color="#f29022"/><stop offset="0.99" stop-color="#bb2030"/></linearGradient><linearGradient id="linear-gradient-2" x1="-1565.58" y1="-553.24" x2="-1042.79" y2="-553.24" gradientTransform="matrix(0.1, 1.14, -1.11, 0.28, -191.73, 1982.39)" xlink:href="#linear-gradient"/><radialGradient id="radial-gradient" cx="1154.24" cy="1692.21" r="146.14" gradientTransform="translate(-952.22 1485.15) rotate(-90.39)" gradientUnits="userSpaceOnUse"><stop offset="0" stop-color="#ee4037"/><stop offset="0.38" stop-color="#ef6727"/><stop offset="0.49" stop-color="#f07126"/><stop offset="0.8" stop-color="#f38822"/><stop offset="1" stop-color="#f49021"/></radialGradient><linearGradient id="linear-gradient-3" x1="409.21" y1="1816.58" x2="421.39" y2="1816.58" gradientTransform="translate(-705.44 1567.08) rotate(-117.89)" gradientUnits="userSpaceOnUse"><stop offset="0" stop-color="#36b04a"/><stop offset="1" stop-color="#019147"/></linearGradient><linearGradient id="linear-gradient-4" x1="-58.41" y1="5154.73" x2="-46.23" y2="5154.73" gradientTransform="matrix(-0.42, -0.9, 0.23, -0.23, -558.48, 1513.87)" xlink:href="#linear-gradient-3"/><linearGradient id="linear-gradient-5" x1="420.13" y1="1816.58" x2="451.7" y2="1816.58" xlink:href="#linear-gradient-3"/><linearGradient id="linear-gradient-6" x1="428.33" y1="1826.84" x2="483.01" y2="1826.84" xlink:href="#linear-gradient-3"/><linearGradient id="linear-gradient-7" x1="345.22" y1="1637.87" x2="399.9" y2="1637.87" gradientTransform="matrix(-0.65, -0.82, 0.94, -0.57, -616.56, 1558.24)" xlink:href="#linear-gradient-3"/><linearGradient id="linear-gradient-8" x1="435.92" y1="1842.43" x2="502.38" y2="1842.43" xlink:href="#linear-gradient-3"/><linearGradient id="linear-gradient-9" x1="23.49" y1="5151.12" x2="35.67" y2="5151.12" gradientTransform="matrix(-0.39, -0.91, 0.24, -0.22, -581.74, 1520.22)" xlink:href="#linear-gradient-3"/><linearGradient id="linear-gradient-10" x1="386.99" y1="-3773.57" x2="399.17" y2="-3773.57" gradientTransform="matrix(-0.2, 0.97, -0.33, 0.05, -500.35, 102.19)" xlink:href="#linear-gradient-3"/><linearGradient id="linear-gradient-11" x1="370.73" y1="-3805.77" x2="382.91" y2="-3805.77" gradientTransform="matrix(-0.2, 0.97, -0.33, 0.05, -505.24, 100.24)" xlink:href="#linear-gradient-3"/><linearGradient id="linear-gradient-12" x1="2235.28" y1="-867.39" x2="2247.46" y2="-867.39" gradientTransform="matrix(0.99, -0.05, 0.13, 0.3, -1418.55, 697.97)" xlink:href="#linear-gradient-3"/><radialGradient id="radial-gradient-2" cx="-2594.84" cy="1400.44" r="146.14" gradientTransform="matrix(-0.08, 1, 1, 0.08, -1067.81, 3054.98)" xlink:href="#radial-gradient"/><linearGradient id="linear-gradient-13" x1="-2781.5" y1="-173.41" x2="-2769.32" y2="-173.41" gradientTransform="matrix(-0.53, 0.85, 0.85, 0.53, -815.61, 2991.64)" xlink:href="#linear-gradient-3"/><linearGradient id="linear-gradient-14" x1="-2704.87" y1="-728.26" x2="-2692.69" y2="-728.26" gradientTransform="matrix(-0.48, 0.87, 0.22, 0.25, -673.02, 3055.63)" xlink:href="#linear-gradient-3"/><linearGradient id="linear-gradient-15" x1="-2770.58" y1="-173.41" x2="-2739.01" y2="-173.41" gradientTransform="matrix(-0.53, 0.85, 0.85, 0.53, -815.61, 2991.64)" xlink:href="#linear-gradient-3"/><linearGradient id="linear-gradient-16" x1="-2762.38" y1="-163.16" x2="-2707.7" y2="-163.16" gradientTransform="matrix(-0.53, 0.85, 0.85, 0.53, -815.61, 2991.64)" xlink:href="#linear-gradient-3"/><linearGradient id="linear-gradient-17" x1="-2615.61" y1="-675.64" x2="-2560.93" y2="-675.64" gradientTransform="matrix(-0.71, 0.77, 0.9, 0.64, -727.64, 3007.07)" xlink:href="#linear-gradient-3"/><linearGradient id="linear-gradient-18" x1="-2754.79" y1="-147.57" x2="-2688.33" y2="-147.57" gradientTransform="matrix(-0.53, 0.85, 0.85, 0.53, -815.61, 2991.64)" xlink:href="#linear-gradient-3"/><linearGradient id="linear-gradient-19" x1="-2724.72" y1="-367.16" x2="-2712.54" y2="-367.16" gradientTransform="matrix(-0.45, 0.88, 0.22, 0.24, -695.74, 3047.56)" xlink:href="#linear-gradient-3"/><linearGradient id="linear-gradient-20" x1="4325.35" y1="-5413.27" x2="4337.53" y2="-5413.27" gradientTransform="matrix(-0.13, -0.98, -0.32, -0.07, -720.05, 4467.72)" xlink:href="#linear-gradient-3"/><linearGradient id="linear-gradient-21" x1="4304.84" y1="-5386.11" x2="4317.02" y2="-5386.11" gradientTransform="matrix(-0.13, -0.98, -0.32, -0.07, -725.07, 4469.3)" xlink:href="#linear-gradient-3"/><linearGradient id="linear-gradient-22" x1="402.02" y1="11191.32" x2="414.2" y2="11191.32" gradientTransform="matrix(0.98, 0.13, 0.15, -0.29, -1591.39, 3805.3)" xlink:href="#linear-gradient-3"/></defs><g id="_12" data-name="12"><path class="cls-1" d="M640.75,268.17,672.42,388.1s-17.43,9.38-65.48,10.55C554.47,399.93,72.39,93.58,72.36,93.53,62.37,80,67.55,70.82,83.22,66.06,83.22,66.06,506,359,640.75,268.17Z"/><path class="cls-2" d="M422.54,592.88l122.92-16.59s2-19.7-15.28-64.55c-18.89-49-456.9-421.23-457-421.24C56.89,86.44,50.39,94.74,52,111,52,111,454.9,433.61,422.54,592.88Z"/><path class="cls-3" d="M876.45,318.82s-11.24,30.05-44.39,40.88-53.11,1.89-53.54,5c0,0,20.9,21.55,11.86,59.22S766,466.37,766,466.37s-24.85,6.82-45.57-24.49S701,384.41,697.92,385c0,0-1.55,28.2-45.21,43.23S594.3,425,594.3,425s-18.21-33.73,8.13-63,59.24-42.24,59.24-42.24c1.43-2.76-44.33-7.47-62.45-39.65-19.74-35-6.28-54.18-6.28-54.18s16.8-18.66,61-9.15C697,226.14,697,254.07,697,254.07c3.07.51-3.65-28.92,23-58.44S764,171.74,764,171.74s11.54,4.07,23.2,40.36-9.27,61.16-9.27,61.16c.47,3.07,20.09-6.13,55.15,5S876.45,318.82,876.45,318.82Z"/><line class="cls-4" x1="751.57" y1="332.84" x2="660.03" y2="367.51"/><path class="cls-5" d="M751.68,333.14a138.61,138.61,0,0,1-21.36,12.7c-3.63,1.93-7.41,3.47-11.11,5.2s-7.56,3.08-11.34,4.6c-3.85,1.35-7.67,2.78-11.55,4.05s-7.78,2.51-11.77,3.48a142.89,142.89,0,0,1-24.41,4.65l-.23-.61,45.66-17.64,45.88-17Z"/><line class="cls-6" x1="679.86" y1="357.05" x2="652.1" y2="368.65"/><path class="cls-7" d="M680,357.45a19.73,19.73,0,0,1-4.7,8.24,18.6,18.6,0,0,1-6.33,4.36,19.13,19.13,0,0,1-7.55,1.43,19.93,19.93,0,0,1-9.17-2.43l-.33-.8c2.25-1.12,4.52-2.18,6.82-3.16l6.89-3,7-2.77c2.32-.95,4.67-1.82,7.05-2.63Z"/><line class="cls-8" x1="744.48" y1="324.23" x2="647.82" y2="339.68"/><path class="cls-5" d="M744.53,324.55a139.55,139.55,0,0,1-23.48,8.12c-3.95,1.15-8,1.89-11.94,2.84s-8,1.49-12,2.22c-4.05.54-8.08,1.16-12.14,1.63s-8.11.88-12.22,1a142.49,142.49,0,0,1-24.84-.38l-.11-.64,48.28-8.05,48.38-7.4Z"/><line class="cls-9" x1="647.31" y1="304.52" x2="744.65" y2="314.87"/><path class="cls-5" d="M647.34,304.2a140.76,140.76,0,0,1,24.79-1.7c4.11-.08,8.18.25,12.27.38s8.13.66,12.2,1c4,.54,8.09,1,12.13,1.6s8.07,1.27,12.07,2.21a141.49,141.49,0,0,1,23.88,6.86l-.07.64-48.7-4.85-48.63-5.49Z"/><line class="cls-10" x1="632.52" y1="321.8" x2="744.6" y2="320.69"/><path class="cls-5" d="M632.51,321.46a170.76,170.76,0,0,1,28-4.9c4.66-.59,9.33-.74,14-1.12,4.67-.22,9.34-.31,14-.45,4.67.07,9.34,0,14,.19s9.35.35,14,.84a173.89,173.89,0,0,1,28.07,4.32v.7l-56,.9-56.05.21Z"/><line class="cls-11" x1="656.15" y1="277.93" x2="750.75" y2="303.05"/><path class="cls-5" d="M656.23,277.61A140.49,140.49,0,0,1,681,279.73c4.07.55,8,1.5,12.06,2.25s7.94,1.9,11.9,2.86c3.91,1.15,7.85,2.21,11.75,3.43s7.77,2.5,11.59,4a142.23,142.23,0,0,1,22.54,10.43l-.16.63-47.39-12.25-47.22-12.88Z"/><line class="cls-12" x1="662.61" y1="332.08" x2="634.48" y2="342.73"/><path class="cls-7" d="M662.76,332.48a19.76,19.76,0,0,1-5,8.08,18.62,18.62,0,0,1-6.48,4.14,19,19,0,0,1-7.59,1.17,20,20,0,0,1-9.08-2.73l-.31-.81q3.43-1.57,6.94-2.94l7-2.8,7.08-2.53c2.35-.87,4.73-1.66,7.13-2.39Z"/><line class="cls-13" x1="635.24" y1="303.75" x2="664.42" y2="311.03"/><path class="cls-7" d="M635.34,303.33a19.7,19.7,0,0,1,8.7-3.8,18.78,18.78,0,0,1,7.68.29,19.14,19.14,0,0,1,6.91,3.37,20.12,20.12,0,0,1,5.9,7.42l-.21.84c-2.48-.44-4.93-.95-7.37-1.54l-7.33-1.68-7.26-2c-2.43-.62-4.84-1.33-7.23-2.1Z"/><line class="cls-14" x1="645.04" y1="278.83" x2="674.26" y2="285.97"/><path class="cls-7" d="M645.14,278.4a19.87,19.87,0,0,1,8.68-3.84,18.61,18.61,0,0,1,7.68.26,19.12,19.12,0,0,1,6.93,3.33,20,20,0,0,1,5.93,7.4l-.2.84q-3.72-.64-7.38-1.51l-7.33-1.64-7.28-1.93q-3.64-.92-7.23-2.06Z"/><circle class="cls-15" cx="628.68" cy="321.68" r="8.42"/><line class="cls-16" x1="692.58" y1="333.3" x2="692.16" y2="303.23"/><path class="cls-7" d="M691.8,336.09a19.83,19.83,0,0,1-5.9-7.43,18.65,18.65,0,0,1-1.67-7.5,19,19,0,0,1,1.48-7.54,20,20,0,0,1,5.67-7.6h.87c.2,2.5.34,5,.39,7.51l.25,7.52,0,7.52c0,2.51-.05,5-.18,7.52Z"/><path class="cls-17" d="M682.71,593.71s-9-30.79-41.22-44.07-52.83-5.83-53-8.94c0,0,22.44-19.93,16.23-58.17s-21.16-44.18-21.16-44.18-24.28-8.65-47.26,21-23.66,55.86-26.67,55.09c0,0,.54-28.24-41.88-46.47s-58.48-1.21-58.48-1.21-20.67,32.28,3.42,63.4,55.94,46.53,55.94,46.53c1.21,2.86-44.76,4.15-65.23,34.89-22.29,33.48-10.29,53.57-10.29,53.57s15.37,19.86,60.12,13.65c43.68-6.05,45.77-33.91,45.77-33.91,3.09-.27-5.79,28.57,18.61,60s42,27.09,42,27.09,11.81-3.2,26.14-38.52-4.7-61.68-4.7-61.68c.69-3,19.58,7.6,55.37-.87S682.71,593.71,682.71,593.71Z"/><line class="cls-18" x1="559.21" y1="570.44" x2="470.51" y2="529.06"/><path class="cls-5" d="M559.35,570.15A140.56,140.56,0,0,0,539,555.89c-3.48-2.19-7.14-4-10.7-6s-7.31-3.63-11-5.44c-3.74-1.63-7.44-3.33-11.21-4.9s-7.57-3.07-11.48-4.33a141.66,141.66,0,0,0-24-6.46l-.28.59,44.22,21,44.49,20.4Z"/><line class="cls-19" x1="489.5" y1="540.97" x2="462.69" y2="527.33"/><path class="cls-7" d="M489.7,540.58a19.81,19.81,0,0,0-4.08-8.57,18.46,18.46,0,0,0-6-4.81,18.9,18.9,0,0,0-7.42-2,19.8,19.8,0,0,0-9.32,1.74l-.4.77c2.16,1.28,4.35,2.51,6.58,3.66l6.63,3.54,6.77,3.28q3.36,1.68,6.84,3.15Z"/><line class="cls-20" x1="551.51" y1="578.5" x2="456.27" y2="555.91"/><path class="cls-5" d="M551.58,578.18a140.2,140.2,0,0,0-22.81-9.84c-3.85-1.44-7.8-2.48-11.7-3.72s-7.89-2.08-11.83-3.11c-4-.83-8-1.76-12-2.52s-8-1.48-12.12-1.93a142.32,142.32,0,0,0-24.8-1.47l-.15.63,47.55,11.62,47.69,11Z"/><line class="cls-21" x1="453.14" y1="590.92" x2="550.97" y2="587.85"/><path class="cls-5" d="M453.15,591.25a140.58,140.58,0,0,0,24.59,3.54c4.1.39,8.18.36,12.26.54,4.08,0,8.16-.06,12.24-.1,4.07-.23,8.15-.38,12.22-.69s8.14-.67,12.2-1.3A142.21,142.21,0,0,0,551,588.17l0-.65L502,588.74l-48.91,1.86Z"/><line class="cls-22" x1="439.67" y1="572.59" x2="551.36" y2="582.04"/><path class="cls-5" d="M439.64,572.94a171,171,0,0,0,27.54,7c4.6.94,9.25,1.44,13.88,2.16,4.64.56,9.29,1,13.93,1.49,4.66.28,9.32.66,14,.86s9.35.35,14,.2a173.26,173.26,0,0,0,28.32-2.22l0-.7-55.81-5.06-55.88-4.38Z"/><line class="cls-23" x1="459.97" y1="618.11" x2="556.18" y2="600.09"/><path class="cls-5" d="M460,618.43a140,140,0,0,0,24.85-.27c4.1-.25,8.13-.9,12.2-1.35s8.05-1.3,12.08-2c4-.85,8-1.62,12-2.55s7.94-1.91,11.85-3.16a142.45,142.45,0,0,0,23.26-8.72l-.12-.64L508,608.46l-48,9.33Z"/><line class="cls-24" x1="470.44" y1="564.59" x2="443.19" y2="551.87"/><path class="cls-7" d="M470.63,564.2a19.77,19.77,0,0,0-4.37-8.43,18.53,18.53,0,0,0-6.15-4.61,19,19,0,0,0-7.49-1.73,19.76,19.76,0,0,0-9.25,2.05l-.37.78q3.3,1.83,6.69,3.44l6.76,3.31,6.87,3c2.28,1.05,4.6,2,6.94,2.92Z"/><line class="cls-25" x1="441.04" y1="590.8" x2="470.69" y2="585.71"/><path class="cls-7" d="M441.12,591.23a19.67,19.67,0,0,0,8.39,4.43,18.55,18.55,0,0,0,7.68.28,19,19,0,0,0,7.14-2.84,20,20,0,0,0,6.43-7l-.15-.85c-2.5.26-5,.58-7.46,1l-7.43,1.13-7.39,1.42q-3.7.66-7.36,1.55Z"/><line class="cls-26" x1="448.97" y1="616.38" x2="478.63" y2="611.43"/><path class="cls-7" d="M449,616.81a19.66,19.66,0,0,0,8.37,4.48,18.52,18.52,0,0,0,7.67.31,19,19,0,0,0,7.16-2.81,20,20,0,0,0,6.47-6.93l-.15-.85c-2.5.24-5,.55-7.46,1l-7.44,1.1-7.4,1.37c-2.47.43-4.92,1-7.37,1.53Z"/><circle class="cls-15" cx="435.84" cy="572.44" r="8.42"/><line class="cls-27" x1="500.42" y1="565.59" x2="497.77" y2="595.56"/><path class="cls-7" d="M499.86,562.75a19.82,19.82,0,0,0-6.44,7,18.54,18.54,0,0,0-2.23,7.35,19.09,19.09,0,0,0,.92,7.63,19.88,19.88,0,0,0,5.09,8l.86.08c.39-2.48.72-5,.95-7.46l.81-7.48.52-7.51c.21-2.49.33-5,.38-7.51Z"/></g></svg>