<svg xmlns="http://www.w3.org/2000/svg" xmlns:xlink="http://www.w3.org/1999/xlink" viewBox="0 0 1080 1080"><defs><style>.cls-1{fill:url(#linear-gradient);}.cls-2{fill:url(#linear-gradient-2);}.cls-3{fill:url(#radial-gradient);}.cls-4{fill:url(#linear-gradient-3);}.cls-5{fill:#f9ad42;}.cls-6{fill:url(#linear-gradient-4);}.cls-7{fill:#ee4037;}.cls-8{fill:url(#linear-gradient-5);}.cls-9{fill:url(#linear-gradient-6);}.cls-10{fill:url(#linear-gradient-7);}.cls-11{fill:url(#linear-gradient-8);}.cls-12{fill:url(#linear-gradient-9);}.cls-13{fill:url(#linear-gradient-10);}.cls-14{fill:url(#linear-gradient-11);}.cls-15{fill:#8ac340;}.cls-16{fill:url(#linear-gradient-12);}.cls-17{fill:url(#radial-gradient-2);}.cls-18{fill:url(#linear-gradient-13);}.cls-19{fill:url(#linear-gradient-14);}.cls-20{fill:url(#linear-gradient-15);}.cls-21{fill:url(#linear-gradient-16);}.cls-22{fill:url(#linear-gradient-17);}.cls-23{fill:url(#linear-gradient-18);}.cls-24{fill:url(#linear-gradient-19);}.cls-25{fill:url(#linear-gradient-20);}.cls-26{fill:url(#linear-gradient-21);}.cls-27{fill:url(#linear-gradient-22);}</style><linearGradient id="linear-gradient" x1="1816.84" y1="5339.72" x2="2069.52" y2="5339.72" gradientTransform="matrix(-0.08, 1.14, -1.14, 0.11, 6378.33, -2608.34)" gradientUnits="userSpaceOnUse"><stop offset="0" stop-color="#f29022"/><stop offset="0.99" stop-color="#bb2030"/></linearGradient><linearGradient id="linear-gradient-2" x1="-2166.35" y1="1338.65" x2="-1913.67" y2="1338.65" gradientTransform="matrix(1.14, -0.1, 0.1, -1.14, 2398.32, 1470.93)" xlink:href="#linear-gradient"/><radialGradient id="radial-gradient" cx="-4199.43" cy="2518.98" r="146.14" gradientTransform="matrix(0.74, -0.68, -0.68, -0.74, 4960.64, -586.69)" gradientUnits="userSpaceOnUse"><stop offset="0" stop-color="#ee4037"/><stop offset="0.38" stop-color="#ef6727"/><stop offset="0.49" stop-color="#f07126"/><stop offset="0.8" stop-color="#f38822"/><stop offset="1" stop-color="#f49021"/></radialGradient><linearGradient id="linear-gradient-3" x1="-4721.28" y1="77.8" x2="-4709.1" y2="77.8" gradientTransform="matrix(0.97, -0.26, -0.26, -0.97, 4732.39, -711.25)" gradientUnits="userSpaceOnUse"><stop offset="0" stop-color="#36b04a"/><stop offset="1" stop-color="#019147"/></linearGradient><linearGradient id="linear-gradient-4" x1="-4771.56" y1="409.72" x2="-4759.38" y2="409.72" gradientTransform="matrix(0.94, -0.31, 0.01, -0.33, 4671.04, -855)" xlink:href="#linear-gradient-3"/><linearGradient id="linear-gradient-5" x1="-4710.35" y1="77.8" x2="-4678.79" y2="77.8" xlink:href="#linear-gradient-3"/><linearGradient id="linear-gradient-6" x1="-4702.16" y1="88.06" x2="-4647.48" y2="88.06" xlink:href="#linear-gradient-3"/><linearGradient id="linear-gradient-7" x1="-4492.57" y1="-767.36" x2="-4437.89" y2="-767.36" gradientTransform="matrix(1.04, -0.09, -0.23, -1.08, 4678.22, -782.26)" xlink:href="#linear-gradient-3"/><linearGradient id="linear-gradient-8" x1="-4694.57" y1="103.64" x2="-4628.1" y2="103.64" xlink:href="#linear-gradient-3"/><linearGradient id="linear-gradient-9" x1="-4802.13" y1="981.45" x2="-4789.95" y2="981.45" gradientTransform="matrix(0.93, -0.34, 0, -0.33, 4682.26, -833.66)" xlink:href="#linear-gradient-3"/><linearGradient id="linear-gradient-10" x1="6191.54" y1="-10042.08" x2="6203.72" y2="-10042.08" gradientTransform="matrix(-0.57, 0.81, 0.19, 0.27, 5663.59, -1860.51)" xlink:href="#linear-gradient-3"/><linearGradient id="linear-gradient-11" x1="6175.71" y1="-9993.66" x2="6187.89" y2="-9993.66" gradientTransform="matrix(-0.58, 0.81, 0.19, 0.27, 5668.35, -1858.27)" xlink:href="#linear-gradient-3"/><linearGradient id="linear-gradient-12" x1="847.54" y1="16535.68" x2="859.72" y2="16535.68" gradientTransform="matrix(-0.64, -0.76, -0.31, 0.11, 5854.34, -782.71)" xlink:href="#linear-gradient-3"/><radialGradient id="radial-gradient-2" cx="2123.92" cy="2837.04" r="146.14" gradientTransform="translate(3915.98 509.92) rotate(132.33)" xlink:href="#radial-gradient"/><linearGradient id="linear-gradient-13" x1="740.68" y1="3279.82" x2="752.86" y2="3279.82" gradientTransform="matrix(-0.26, 0.97, -0.97, -0.26, 3790.25, 282.3)" xlink:href="#linear-gradient-3"/><linearGradient id="linear-gradient-14" x1="-177.18" y1="9820.48" x2="-165" y2="9820.48" gradientTransform="matrix(-0.3, 0.95, -0.33, 0.01, 3646.19, 221.69)" xlink:href="#linear-gradient-3"/><linearGradient id="linear-gradient-15" x1="751.61" y1="3279.82" x2="783.17" y2="3279.82" gradientTransform="matrix(-0.26, 0.97, -0.97, -0.26, 3790.25, 282.3)" xlink:href="#linear-gradient-3"/><linearGradient id="linear-gradient-16" x1="759.8" y1="3290.08" x2="814.48" y2="3290.08" gradientTransform="matrix(-0.26, 0.97, -0.97, -0.26, 3790.25, 282.3)" xlink:href="#linear-gradient-3"/><linearGradient id="linear-gradient-17" x1="586.64" y1="3008.94" x2="641.32" y2="3008.94" gradientTransform="matrix(-0.08, 1.04, -1.08, -0.22, 3718.96, 228.5)" xlink:href="#linear-gradient-3"/><linearGradient id="linear-gradient-18" x1="767.39" y1="3305.67" x2="833.86" y2="3305.67" gradientTransform="matrix(-0.26, 0.97, -0.97, -0.26, 3790.25, 282.3)" xlink:href="#linear-gradient-3"/><linearGradient id="linear-gradient-19" x1="-40.72" y1="9769.42" x2="-28.54" y2="9769.42" gradientTransform="matrix(-0.34, 0.93, -0.33, 0, 3667.59, 232.8)" xlink:href="#linear-gradient-3"/><linearGradient id="linear-gradient-20" x1="-476.35" y1="-6726.79" x2="-464.17" y2="-6726.79" gradientTransform="matrix(0.81, -0.58, 0.27, 0.19, 2645.77, 1219.37)" xlink:href="#linear-gradient-3"/><linearGradient id="linear-gradient-21" x1="-485.91" y1="-6777.89" x2="-473.73" y2="-6777.89" gradientTransform="matrix(0.81, -0.58, 0.27, 0.19, 2648.03, 1224.12)" xlink:href="#linear-gradient-3"/><linearGradient id="linear-gradient-22" x1="3767.39" y1="-3828.71" x2="3779.57" y2="-3828.71" gradientTransform="matrix(-0.76, -0.63, 0.11, -0.31, 3724.53, 1404.6)" xlink:href="#linear-gradient-3"/></defs><g id="_1" data-name="1"><path class="cls-1" d="M111.63,336l96.66,8.39s5-19.15-5.24-66.12C191.88,227,63,75,62.89,74.93c-15.51-6.51-23.21.7-24.12,17C38.77,92,168,183.57,111.63,336Z"/><path class="cls-2" d="M322.67,119.65l9.66,96.54s-19.09,5.25-66.19-4.37C214.72,201.33,61,74.39,61,74.34c-6.71-15.43.4-23.22,16.73-24.35C77.69,50,171,178,322.67,119.65Z"/><path class="cls-3" d="M66.65,297.41s-14.3,28.71.39,60.34,34.85,40.13,32.89,42.54c0,0-30-.58-51.39,31.73s-14.43,46.82-14.43,46.82,12,22.82,49,16.61,55.28-25,57-22.38c0,0-19.56,20.37-.76,62.55s42.14,40.56,42.14,40.56,37.09-9.7,40.5-48.9-9.52-72.13-9.52-72.13c1-2.93,35.7,27.31,71.59,18.61,39.08-9.47,43.9-32.37,43.9-32.37s2.18-25-34.91-50.82c-36.19-25.18-56.63-6.13-56.63-6.13-2.46-1.9,23.63-17.07,27-56.71s-12.49-48.41-12.49-48.41-10.85-5.66-45.34,10.57-38.39,48.5-38.39,48.5c-2.57,1.76-9.23-18.87-41.27-36.92S66.65,297.41,66.65,297.41Z"/><line class="cls-4" x1="141.59" y1="398.29" x2="178.69" y2="488.87"/><path class="cls-5" d="M141.29,398.41a140.32,140.32,0,0,0,5.29,24.28c1.07,4,2.52,7.78,3.78,11.67s2.91,7.63,4.37,11.44c1.64,3.73,3.21,7.5,4.92,11.2s3.47,7.4,5.49,11a142,142,0,0,0,13.25,21l.6-.25-18.25-45.41L141.9,398.17Z"/><line class="cls-6" x1="172.81" y1="467.24" x2="183.26" y2="495.44"/><path class="cls-7" d="M172.41,467.39a19.63,19.63,0,0,0-2.82,9.06,18.5,18.5,0,0,0,1.13,7.6,18.94,18.94,0,0,0,4.11,6.5,20,20,0,0,0,8,5.05l.82-.31c-.72-2.4-1.49-4.79-2.35-7.15l-2.47-7.1-2.75-7c-.88-2.35-1.85-4.66-2.88-7Z"/><line class="cls-8" x1="152.72" y1="397.6" x2="207.37" y2="478.81"/><path class="cls-5" d="M152.45,397.78a140.28,140.28,0,0,0,10.09,22.71c1.85,3.67,4,7.11,6.06,10.66s4.39,6.88,6.59,10.32c2.37,3.32,4.66,6.7,7.09,10s4.89,6.54,7.59,9.64A142.4,142.4,0,0,0,207.1,479l.54-.36-27.06-40.79L153,397.42Z"/><line class="cls-9" x1="233.42" y1="455.2" x2="159.46" y2="391.09"/><path class="cls-5" d="M233.63,455A140.56,140.56,0,0,0,218,435.67c-2.75-3.06-5.77-5.8-8.65-8.71s-6-5.49-9-8.23-6.25-5.25-9.45-7.78-6.43-5-9.85-7.32a141.19,141.19,0,0,0-21.3-12.78l-.43.49L196,423.64l37.2,31.81Z"/><line class="cls-10" x1="230.88" y1="477.81" x2="155.23" y2="395.09"/><path class="cls-5" d="M231.13,477.57a171.16,171.16,0,0,0-15.5-23.79c-2.75-3.82-5.82-7.33-8.73-11s-6.15-7-9.23-10.55c-3.24-3.37-6.4-6.81-9.7-10.12s-6.63-6.6-10.18-9.68a173.56,173.56,0,0,0-22.3-17.57l-.52.47,37.57,41.59L230.62,478Z"/><line class="cls-11" x1="246.84" y1="430.6" x2="163.93" y2="378.57"/><path class="cls-5" d="M247,430.32a140.12,140.12,0,0,0-18.43-16.66c-3.18-2.6-6.59-4.85-9.88-7.28s-6.8-4.51-10.21-6.75c-3.51-2.08-7-4.23-10.52-6.25s-7.13-4-10.86-5.72a141.61,141.61,0,0,0-23-9.37l-.34.55L205,405.13l41.63,25.74Z"/><line class="cls-12" x1="202.84" y1="462.81" x2="214.24" y2="490.65"/><path class="cls-7" d="M202.44,463a19.7,19.7,0,0,0-2.51,9.15,18.64,18.64,0,0,0,1.39,7.56,19.06,19.06,0,0,0,4.33,6.35,19.8,19.8,0,0,0,8.19,4.77l.8-.32c-.8-2.39-1.65-4.75-2.58-7.07l-2.72-7-3-6.9q-1.46-3.47-3.12-6.85Z"/><line class="cls-13" x1="242.22" y1="463.5" x2="216.99" y2="447.13"/><path class="cls-7" d="M242.46,463.14a19.6,19.6,0,0,0-3.16-8.95,18.47,18.47,0,0,0-5.45-5.41,18.94,18.94,0,0,0-7.18-2.76,19.93,19.93,0,0,0-9.45.75l-.47.73c2,1.5,4.06,2.95,6.15,4.33l6.23,4.21,6.39,4c2.11,1.35,4.27,2.62,6.47,3.85Z"/><line class="cls-14" x1="253.76" y1="439.33" x2="228.6" y2="422.84"/><path class="cls-7" d="M254,439a19.77,19.77,0,0,0-3.12-9,18.61,18.61,0,0,0-5.42-5.44,19.12,19.12,0,0,0-7.16-2.79,19.89,19.89,0,0,0-9.46.71l-.47.72q3,2.28,6.13,4.37l6.21,4.24,6.36,4q3.17,2,6.45,3.88Z"/><circle class="cls-15" cx="233.59" cy="480.52" r="8.42"/><line class="cls-16" x1="181.5" y1="441.74" x2="203.78" y2="421.53"/><path class="cls-7" d="M180,444.21a19.76,19.76,0,0,0,9.46-.76,18.65,18.65,0,0,0,6.62-3.89,19,19,0,0,0,4.5-6.23,19.83,19.83,0,0,0,1.69-9.33l-.58-.64c-2,1.56-3.89,3.16-5.76,4.84l-5.67,4.94-5.47,5.16c-1.85,1.7-3.63,3.46-5.38,5.27Z"/><path class="cls-17" d="M281.9,72.16s28.64-14.45,60.34.08,40.3,34.65,42.71,32.67c0,0-.74-30,31.46-51.55S463.15,38.7,463.15,38.7,486,50.55,480,87.61s-24.7,55.4-22.08,57.08c0,0,20.27-19.66,62.54-1.08s40.78,41.93,40.78,41.93-9.51,37.14-48.69,40.75-72.18-9.15-72.18-9.15c-2.93,1.06,27.49,35.56,19,71.49-9.27,39.13-32.15,44.06-32.15,44.06s-25,2.32-51-34.64c-25.37-36.06-6.43-56.6-6.43-56.6-1.91-2.45-17,23.72-56.57,27.32s-48.48-12.24-48.48-12.24-5.71-10.82,10.34-45.4,48.31-38.63,48.31-38.63c1.74-2.58-18.92-9.13-37.14-41.09S281.9,72.16,281.9,72.16Z"/><line class="cls-18" x1="383.16" y1="146.59" x2="473.93" y2="183.21"/><path class="cls-5" d="M383.28,146.29a139.62,139.62,0,0,1,24.3,5.15c4,1.05,7.8,2.49,11.7,3.73s7.63,2.87,11.45,4.31c3.74,1.62,7.52,3.17,11.23,4.86s7.41,3.43,11,5.43a142.68,142.68,0,0,1,21.09,13.14l-.24.61-45.51-18L383,146.89Z"/><line class="cls-19" x1="452.26" y1="177.45" x2="480.52" y2="187.75"/><path class="cls-7" d="M452.41,177.05a19.73,19.73,0,0,1,9-2.87,18.68,18.68,0,0,1,14.12,5.17,19.8,19.8,0,0,1,5.09,8l-.29.81c-2.42-.7-4.81-1.46-7.17-2.3l-7.11-2.44-7-2.71q-3.52-1.32-7-2.85Z"/><line class="cls-20" x1="382.52" y1="157.72" x2="464.01" y2="211.95"/><path class="cls-5" d="M382.7,157.45a140.35,140.35,0,0,1,22.76,10c3.68,1.84,7.13,4,10.7,6s6.9,4.35,10.35,6.53c3.33,2.35,6.72,4.63,10,7s6.56,4.86,9.68,7.54a142.22,142.22,0,0,1,18,17.13l-.36.55-40.92-26.85L382.34,158Z"/><line class="cls-21" x1="440.54" y1="238.12" x2="376.05" y2="164.48"/><path class="cls-5" d="M440.3,238.33a140.09,140.09,0,0,1-19.37-15.56c-3.07-2.73-5.84-5.74-8.75-8.6s-5.53-6-8.28-9-5.28-6.21-7.84-9.4-5.06-6.41-7.36-9.81a141.13,141.13,0,0,1-12.89-21.24l.48-.43,32.49,36.6,32,37Z"/><line class="cls-22" x1="463.13" y1="235.46" x2="380.03" y2="160.24"/><path class="cls-5" d="M462.9,235.72A169.89,169.89,0,0,1,439,220.33c-3.84-2.72-7.37-5.78-11-8.67s-7.07-6.11-10.6-9.17c-3.38-3.22-6.83-6.37-10.17-9.65s-6.63-6.59-9.72-10.13A172.77,172.77,0,0,1,379.8,160.5l.46-.52,41.79,37.35,41.31,37.87Z"/><line class="cls-23" x1="416" y1="251.66" x2="363.55" y2="169.02"/><path class="cls-5" d="M415.73,251.84A141,141,0,0,1,399,233.49c-2.62-3.17-4.88-6.56-7.33-9.84s-4.54-6.78-6.8-10.17c-2.1-3.5-4.27-7-6.3-10.5s-4-7.1-5.78-10.82a142.37,142.37,0,0,1-9.49-23l.55-.35L390.32,210l26,41.49Z"/><line class="cls-24" x1="447.99" y1="207.5" x2="475.89" y2="218.76"/><path class="cls-7" d="M448.16,207.1a19.76,19.76,0,0,1,9.14-2.56,18.63,18.63,0,0,1,7.56,1.36,18.9,18.9,0,0,1,6.38,4.29,19.92,19.92,0,0,1,4.81,8.16l-.32.81c-2.39-.78-4.76-1.63-7.09-2.55l-7-2.68-6.92-3q-3.48-1.42-6.87-3.08Z"/><line class="cls-25" x1="448.88" y1="246.88" x2="432.39" y2="221.73"/><path class="cls-7" d="M448.52,247.12a19.77,19.77,0,0,1-9-3.11,18.76,18.76,0,0,1-5.44-5.43,19,19,0,0,1-2.79-7.16A20,20,0,0,1,432,222l.73-.48c1.51,2,3,4,4.36,6.13l4.25,6.21,4,6.37c1.36,2.1,2.65,4.25,3.89,6.44Z"/><line class="cls-26" x1="424.77" y1="258.54" x2="408.15" y2="233.47"/><path class="cls-7" d="M424.41,258.78a19.82,19.82,0,0,1-9-3.07,18.54,18.54,0,0,1-5.47-5.4,19,19,0,0,1-2.83-7.14,19.93,19.93,0,0,1,.66-9.46l.72-.48c1.53,2,3,4,4.4,6.11l4.27,6.19,4,6.34c1.37,2.1,2.67,4.25,3.91,6.43Z"/><circle class="cls-15" cx="465.86" cy="238.15" r="8.42"/><line class="cls-27" x1="426.81" y1="186.27" x2="406.71" y2="208.65"/><path class="cls-7" d="M429.27,184.74a19.74,19.74,0,0,1-.71,9.47,18.47,18.47,0,0,1-3.86,6.64,19.12,19.12,0,0,1-6.2,4.54,19.88,19.88,0,0,1-9.32,1.73l-.65-.58c1.55-2,3.15-3.91,4.81-5.78l4.92-5.7,5.13-5.49q2.53-2.79,5.24-5.41Z"/></g></svg>