<svg xmlns="http://www.w3.org/2000/svg" xmlns:xlink="http://www.w3.org/1999/xlink" viewBox="0 0 1080 1080"><defs><style>.cls-1{fill:url(#linear-gradient);}.cls-2{fill:url(#linear-gradient-2);}.cls-3{fill:url(#radial-gradient);}.cls-4{fill:url(#linear-gradient-3);}.cls-5{fill:#f9ad42;}.cls-6{fill:url(#linear-gradient-4);}.cls-7{fill:#ee4037;}.cls-8{fill:url(#linear-gradient-5);}.cls-9{fill:url(#linear-gradient-6);}.cls-10{fill:url(#linear-gradient-7);}.cls-11{fill:url(#linear-gradient-8);}.cls-12{fill:url(#linear-gradient-9);}.cls-13{fill:url(#linear-gradient-10);}.cls-14{fill:url(#linear-gradient-11);}.cls-15{fill:#8ac340;}.cls-16{fill:url(#linear-gradient-12);}.cls-17{fill:url(#radial-gradient-2);}.cls-18{fill:url(#linear-gradient-13);}.cls-19{fill:url(#linear-gradient-14);}.cls-20{fill:url(#linear-gradient-15);}.cls-21{fill:url(#linear-gradient-16);}.cls-22{fill:url(#linear-gradient-17);}.cls-23{fill:url(#linear-gradient-18);}.cls-24{fill:url(#linear-gradient-19);}.cls-25{fill:url(#linear-gradient-20);}.cls-26{fill:url(#linear-gradient-21);}.cls-27{fill:url(#linear-gradient-22);}</style><linearGradient id="linear-gradient" x1="2152.65" y1="5145.47" x2="2405.32" y2="5145.47" gradientTransform="matrix(1.14, -0.12, 0.07, -1.15, -2742.38, 6319.13)" gradientUnits="userSpaceOnUse"><stop offset="0" stop-color="#f29022"/><stop offset="0.99" stop-color="#bb2030"/></linearGradient><linearGradient id="linear-gradient-2" x1="-1967.62" y1="1005.08" x2="-1714.94" y2="1005.08" gradientTransform="matrix(-0.05, 1.15, -1.14, 0.14, 1183.11, 2187.37)" xlink:href="#linear-gradient"/><radialGradient id="radial-gradient" cx="1456.73" cy="1472.15" r="146.14" gradientTransform="translate(-927.48 1741.5) rotate(-94.55)" gradientUnits="userSpaceOnUse"><stop offset="0" stop-color="#ee4037"/><stop offset="0.38" stop-color="#ef6727"/><stop offset="0.49" stop-color="#f07126"/><stop offset="0.8" stop-color="#f38822"/><stop offset="1" stop-color="#f49021"/></radialGradient><linearGradient id="linear-gradient-3" x1="779.14" y1="1761.06" x2="791.32" y2="1761.06" gradientTransform="translate(-675.41 1805.32) rotate(-122.05)" gradientUnits="userSpaceOnUse"><stop offset="0" stop-color="#36b04a"/><stop offset="1" stop-color="#019147"/></linearGradient><linearGradient id="linear-gradient-4" x1="338.11" y1="4913.16" x2="350.29" y2="4913.16" gradientTransform="matrix(-0.48, -0.87, 0.22, -0.25, -532.69, 1741.6)" xlink:href="#linear-gradient-3"/><linearGradient id="linear-gradient-5" x1="790.06" y1="1761.06" x2="821.63" y2="1761.06" xlink:href="#linear-gradient-3"/><linearGradient id="linear-gradient-6" x1="798.26" y1="1771.32" x2="852.94" y2="1771.32" xlink:href="#linear-gradient-3"/><linearGradient id="linear-gradient-7" x1="703.57" y1="1648.52" x2="758.25" y2="1648.52" gradientTransform="matrix(-0.71, -0.77, 0.9, -0.64, -587.41, 1790.05)" xlink:href="#linear-gradient-3"/><linearGradient id="linear-gradient-8" x1="805.85" y1="1786.91" x2="872.31" y2="1786.91" xlink:href="#linear-gradient-3"/><linearGradient id="linear-gradient-9" x1="421.79" y1="4869.43" x2="433.97" y2="4869.43" gradientTransform="matrix(-0.45, -0.88, 0.22, -0.24, -555.43, 1749.62)" xlink:href="#linear-gradient-3"/><linearGradient id="linear-gradient-10" x1="33.84" y1="-2871.9" x2="46.02" y2="-2871.9" gradientTransform="matrix(-0.13, 0.98, -0.32, 0.07, -577.08, 329.42)" xlink:href="#linear-gradient-3"/><linearGradient id="linear-gradient-11" x1="16.66" y1="-2908.08" x2="28.84" y2="-2908.08" gradientTransform="matrix(-0.13, 0.98, -0.32, 0.07, -582.1, 327.82)" xlink:href="#linear-gradient-3"/><linearGradient id="linear-gradient-12" x1="2142.19" y1="-1876.25" x2="2154.37" y2="-1876.25" gradientTransform="matrix(0.99, -0.12, 0.15, 0.29, -1449.66, 990.2)" xlink:href="#linear-gradient-3"/><radialGradient id="radial-gradient-2" cx="-2904.46" cy="1128.08" r="146.14" gradientTransform="matrix(-0.01, 1, 1, 0.01, -928.93, 3315.58)" xlink:href="#radial-gradient"/><linearGradient id="linear-gradient-13" x1="-2930.37" y1="-557.97" x2="-2918.19" y2="-557.97" gradientTransform="matrix(-0.47, 0.88, 0.88, 0.47, -681.99, 3234.12)" xlink:href="#linear-gradient-3"/><linearGradient id="linear-gradient-14" x1="-2736.94" y1="-1944.05" x2="-2724.76" y2="-1944.05" gradientTransform="matrix(-0.42, 0.9, 0.23, 0.23, -535.13, 3287.6)" xlink:href="#linear-gradient-3"/><linearGradient id="linear-gradient-15" x1="-2919.44" y1="-557.97" x2="-2887.87" y2="-557.97" gradientTransform="matrix(-0.47, 0.88, 0.88, 0.47, -681.99, 3234.12)" xlink:href="#linear-gradient-3"/><linearGradient id="linear-gradient-16" x1="-2911.25" y1="-547.71" x2="-2856.57" y2="-547.71" gradientTransform="matrix(-0.47, 0.88, 0.88, 0.47, -681.99, 3234.12)" xlink:href="#linear-gradient-3"/><linearGradient id="linear-gradient-17" x1="-2738.39" y1="-1046.09" x2="-2683.71" y2="-1046.09" gradientTransform="matrix(-0.65, 0.82, 0.94, 0.57, -593.13, 3243.13)" xlink:href="#linear-gradient-3"/><linearGradient id="linear-gradient-18" x1="-2903.66" y1="-532.12" x2="-2837.19" y2="-532.12" gradientTransform="matrix(-0.47, 0.88, 0.88, 0.47, -681.99, 3234.12)" xlink:href="#linear-gradient-3"/><linearGradient id="linear-gradient-19" x1="-2771.75" y1="-1563.71" x2="-2759.57" y2="-1563.71" gradientTransform="matrix(-0.39, 0.91, 0.24, 0.22, -558.38, 3281.2)" xlink:href="#linear-gradient-3"/><linearGradient id="linear-gradient-20" x1="4614.54" y1="-4764.61" x2="4626.72" y2="-4764.61" gradientTransform="matrix(-0.2, -0.97, -0.33, -0.05, -479.64, 4699.38)" xlink:href="#linear-gradient-3"/><linearGradient id="linear-gradient-21" x1="4592.38" y1="-4731.73" x2="4604.56" y2="-4731.73" gradientTransform="matrix(-0.2, -0.97, -0.33, -0.05, -484.54, 4701.33)" xlink:href="#linear-gradient-3"/><linearGradient id="linear-gradient-22" x1="5.01" y1="12150.58" x2="17.19" y2="12150.58" gradientTransform="matrix(0.99, 0.05, 0.13, -0.3, -1396.73, 4101.89)" xlink:href="#linear-gradient-3"/></defs><g id="_10" data-name="10"><path class="cls-1" d="M332,126.43l12.05,96.27s-18.95,5.72-66.28-2.72C226.12,210.76,69.28,87.68,69.26,87.62c-7.09-15.25-.18-23.21,16.12-24.75C85.38,62.87,181.81,188.51,332,126.43Z"/><path class="cls-2" d="M123.79,345.52l96.84,6s4.52-19.28-6.87-66C201.32,234.55,68.65,85.74,68.6,85.72,52.93,79.6,45.41,87,44.9,103.36,44.9,103.36,176.34,191.72,123.79,345.52Z"/><path class="cls-3" d="M568.43,161.56s-9,30.78-41.31,44-52.83,5.74-53,8.84c0,0,22.4,20,16.12,58.2S469,316.74,469,316.74s-24.3,8.6-47.23-21.13-23.55-55.9-26.56-55.14c0,0,.49,28.24-42,46.39s-58.48,1.1-58.48,1.1-20.61-32.32,3.53-63.39,56-46.43,56-46.43c1.23-2.86-44.75-4.24-65.16-35-22.22-33.52-10.19-53.58-10.19-53.58S294.34,69.71,339.08,76c43.66,6.14,45.7,34,45.7,34,3.1.29-5.73-28.57,18.73-59.95s42.07-27,42.07-27,11.81,3.23,26.07,38.58-4.82,61.66-4.82,61.66c.69,3,19.6-7.56,55.37,1S568.43,161.56,568.43,161.56Z"/><line class="cls-4" x1="444.89" y1="184.6" x2="356.11" y2="225.82"/><path class="cls-5" d="M445,184.89a140.29,140.29,0,0,1-20.38,14.22c-3.49,2.18-7.14,4-10.71,6s-7.32,3.61-11,5.41c-3.74,1.62-7.45,3.32-11.22,4.88s-7.58,3.06-11.49,4.31a141.67,141.67,0,0,1-24,6.41l-.28-.59,44.26-20.9,44.52-20.32Z"/><line class="cls-6" x1="375.12" y1="213.94" x2="348.29" y2="227.53"/><path class="cls-7" d="M375.32,214.33a19.72,19.72,0,0,1-4.09,8.56,18.56,18.56,0,0,1-6,4.8,18.94,18.94,0,0,1-7.43,2,20.09,20.09,0,0,1-9.32-1.75l-.39-.78q3.24-1.92,6.58-3.65l6.64-3.53,6.78-3.26c2.24-1.12,4.52-2.16,6.84-3.14Z"/><line class="cls-8" x1="437.2" y1="176.53" x2="341.92" y2="198.94"/><path class="cls-5" d="M437.27,176.84a139.32,139.32,0,0,1-22.83,9.8c-3.85,1.44-7.8,2.47-11.7,3.7s-7.89,2.06-11.84,3.09c-4,.83-8,1.74-12,2.5s-8,1.47-12.12,1.9A142.51,142.51,0,0,1,342,199.26l-.15-.64,47.57-11.52,47.71-10.89Z"/><line class="cls-9" x1="338.86" y1="163.92" x2="436.68" y2="167.18"/><path class="cls-5" d="M338.87,163.59a141.37,141.37,0,0,1,24.6-3.49c4.09-.38,8.17-.34,12.26-.51s8.16.07,12.23.11c4.08.25,8.15.4,12.22.72s8.14.68,12.2,1.33a142.31,142.31,0,0,1,24.32,5.1l0,.65-48.92-1.3-48.91-2Z"/><line class="cls-10" x1="325.35" y1="182.22" x2="437.06" y2="172.99"/><path class="cls-5" d="M325.33,181.88A169.73,169.73,0,0,1,352.87,175c4.61-.93,9.26-1.42,13.88-2.14,4.65-.55,9.3-1,13.94-1.46,4.67-.27,9.32-.64,14-.83s9.35-.33,14.05-.17a172,172,0,0,1,28.3,2.27l.06.69-55.82,5-55.89,4.27Z"/><line class="cls-11" x1="345.74" y1="136.75" x2="441.92" y2="154.95"/><path class="cls-5" d="M345.8,136.43a141,141,0,0,1,24.85.31c4.1.26,8.13.92,12.19,1.37,4,.61,8.05,1.32,12.08,2,4,.87,8,1.64,12,2.58s7.94,1.92,11.85,3.18A142.59,142.59,0,0,1,442,154.63l-.12.64-48.15-8.78-48-9.42Z"/><line class="cls-12" x1="356.11" y1="190.29" x2="328.83" y2="202.95"/><path class="cls-7" d="M356.29,190.68a19.69,19.69,0,0,1-4.38,8.42,18.46,18.46,0,0,1-6.16,4.59,19,19,0,0,1-7.49,1.73,19.93,19.93,0,0,1-9.25-2.07l-.37-.79c2.21-1.21,4.44-2.36,6.7-3.43l6.76-3.29,6.89-3c2.28-1,4.59-2,6.94-2.91Z"/><line class="cls-13" x1="326.76" y1="164.02" x2="356.39" y2="169.17"/><path class="cls-7" d="M326.83,163.59a19.84,19.84,0,0,1,8.4-4.42,18.71,18.71,0,0,1,7.68-.26,19,19,0,0,1,7.14,2.86,20,20,0,0,1,6.42,7l-.15.86c-2.5-.27-5-.6-7.46-1l-7.43-1.14L334,166c-2.46-.45-4.92-1-7.36-1.57Z"/><line class="cls-14" x1="334.73" y1="138.45" x2="364.39" y2="143.46"/><path class="cls-7" d="M334.8,138a19.91,19.91,0,0,1,8.38-4.46A18.62,18.62,0,0,1,358,136.09a19.88,19.88,0,0,1,6.45,6.94l-.14.85c-2.5-.25-5-.56-7.47-1l-7.44-1.11-7.39-1.4c-2.46-.43-4.92-.95-7.36-1.53Z"/><circle class="cls-15" cx="321.52" cy="182.38" r="8.42"/><line class="cls-16" x1="386.09" y1="189.34" x2="383.49" y2="159.37"/><path class="cls-7" d="M385.52,192.18a19.76,19.76,0,0,1-6.42-7,18.63,18.63,0,0,1-1.28-15,20,20,0,0,1,5.1-8l.86-.07c.39,2.48.71,5,.94,7.46l.79,7.48.51,7.51c.2,2.5.31,5,.36,7.51Z"/><path class="cls-17" d="M368.86,421.87s-11.19-30.06-44.31-41-53.12-2-53.54-5.07c0,0,20.94-21.51,12-59.19s-24.31-42.54-24.31-42.54-24.84-6.86-45.61,24.41S193.51,356,190.45,355.4c0,0-1.5-28.2-45.13-43.31s-58.41,3-58.41,3-18.28,33.7,8,63,59.16,42.35,59.16,42.35c1.43,2.77-44.33,7.39-62.52,39.53-19.8,35-6.38,54.17-6.38,54.17s16.77,18.7,61,9.26c43.13-9.2,43.19-37.14,43.19-37.14,3.07-.49-3.7,28.92,22.92,58.49s43.87,24,43.87,24,11.55-4,23.28-40.32-9.16-61.18-9.16-61.18c.47-3.07,20.08,6.17,55.16-4.88S368.86,421.87,368.86,421.87Z"/><line class="cls-18" x1="244" y1="407.62" x2="152.53" y2="372.78"/><path class="cls-5" d="M244.11,407.32a139.89,139.89,0,0,0-21.33-12.74c-3.63-1.94-7.4-3.48-11.11-5.22s-7.55-3.09-11.33-4.63c-3.85-1.35-7.66-2.78-11.54-4.07S181,378.15,177,377.17a142.64,142.64,0,0,0-24.4-4.7l-.23.61L198,390.81l45.85,17.11Z"/><line class="cls-19" x1="172.33" y1="383.28" x2="144.6" y2="371.62"/><path class="cls-7" d="M172.5,382.88a19.76,19.76,0,0,0-4.69-8.26,18.7,18.7,0,0,0-6.32-4.36,18.92,18.92,0,0,0-7.55-1.44,19.89,19.89,0,0,0-9.17,2.4l-.33.8q3.36,1.69,6.82,3.18l6.87,3.05,7,2.78c2.32,1,4.67,1.83,7,2.65Z"/><line class="cls-20" x1="236.9" y1="416.22" x2="140.27" y2="400.59"/><path class="cls-5" d="M237,415.89a140.84,140.84,0,0,0-23.47-8.16c-3.94-1.16-8-1.9-11.93-2.86s-8-1.5-12-2.24c-4.05-.54-8.08-1.18-12.13-1.65s-8.12-.9-12.23-1a141.48,141.48,0,0,0-24.84.33l-.1.64L188.48,409l48.36,7.5Z"/><line class="cls-21" x1="139.69" y1="435.74" x2="237.04" y2="425.58"/><path class="cls-5" d="M139.72,436.06a139.77,139.77,0,0,0,24.79,1.75c4.11.09,8.18-.24,12.26-.35,4.08-.27,8.14-.65,12.2-1,4.05-.53,8.1-1,12.14-1.57s8.07-1.26,12.07-2.19a141.77,141.77,0,0,0,23.9-6.81l-.07-.65L188.3,430l-48.64,5.41Z"/><line class="cls-22" x1="124.93" y1="418.44" x2="237.01" y2="419.76"/><path class="cls-5" d="M124.92,418.78a171.68,171.68,0,0,0,28,5c4.66.6,9.33.76,14,1.15,4.67.22,9.34.32,14,.47,4.67-.06,9.34,0,14-.16s9.34-.33,14-.82A173.84,173.84,0,0,0,237,420.11v-.7l-56-1-56-.31Z"/><line class="cls-23" x1="148.48" y1="462.36" x2="243.13" y2="437.41"/><path class="cls-5" d="M148.56,462.67a139.63,139.63,0,0,0,24.76-2.07c4.08-.54,8-1.49,12.07-2.23s7.93-1.88,11.9-2.84c3.92-1.14,7.86-2.19,11.75-3.41s7.79-2.48,11.6-4a141.82,141.82,0,0,0,22.57-10.39l-.17-.63-47.4,12.16L148.39,462Z"/><line class="cls-24" x1="155.04" y1="408.22" x2="126.93" y2="397.51"/><path class="cls-7" d="M155.19,407.81a19.86,19.86,0,0,0-5-8.09,18.58,18.58,0,0,0-6.47-4.14,18.86,18.86,0,0,0-7.6-1.19,19.86,19.86,0,0,0-9.08,2.72l-.31.81c2.29,1.05,4.59,2,6.93,2.94l7,2.81,7.08,2.55q3.52,1.3,7.13,2.4Z"/><line class="cls-25" x1="127.61" y1="436.5" x2="156.81" y2="429.26"/><path class="cls-7" d="M127.72,436.92a19.76,19.76,0,0,0,8.69,3.81,18.61,18.61,0,0,0,7.68-.28A18.92,18.92,0,0,0,151,437.1a20,20,0,0,0,5.92-7.42l-.21-.84c-2.48.44-4.93,1-7.37,1.53L142,432,134.74,434q-3.65.93-7.23,2.09Z"/><line class="cls-26" x1="137.37" y1="461.44" x2="166.6" y2="454.35"/><path class="cls-7" d="M137.47,461.86a19.69,19.69,0,0,0,8.68,3.85,18.63,18.63,0,0,0,7.68-.24,19,19,0,0,0,6.93-3.32,19.94,19.94,0,0,0,6-7.38l-.21-.84c-2.47.42-4.93.91-7.37,1.49l-7.35,1.63L144.51,459c-2.43.61-4.84,1.3-7.24,2.05Z"/><circle class="cls-15" cx="121.09" cy="418.55" r="8.42"/><line class="cls-27" x1="185.01" y1="407.05" x2="184.53" y2="437.12"/><path class="cls-7" d="M184.24,404.26a19.57,19.57,0,0,0-5.91,7.42,18.48,18.48,0,0,0-1.69,7.5,19,19,0,0,0,1.47,7.54,19.88,19.88,0,0,0,5.65,7.61h.87q.31-3.75.41-7.51l.26-7.52,0-7.52c0-2.5,0-5-.16-7.52Z"/></g></svg>